<svg xmlns="http://www.w3.org/2000/svg" viewBox="0 0 204.40449 204.40449">
  <g id="Layer_2" data-name="Layer 2">
    <g id="raid">
      <polygon points="168.497 142.479 168.497 65.928 102.202 27.653 35.907 65.928 35.907 142.479 102.202 180.754 168.497 142.479" style="opacity: 0.8"/>
      <g style="opacity: 0.15">
        <path d="M102.20225,28.80735l65.295,37.69808v75.39618l-65.295,37.69809-65.295-37.69809V66.50543l65.295-37.69808m0-1.1547-66.295,38.27544V142.479l66.295,38.27543,66.295-38.27543V65.92809l-66.295-38.27544Z" style="fill: #fff"/>
      </g>
      <polygon points="175.127 146.307 175.127 62.101 102.202 19.998 29.278 62.101 29.278 146.307 102.202 188.409 175.127 146.307" style="fill: none;stroke: #fff;stroke-miterlimit: 10;opacity: 0.07"/>
      <polygon class="polygon inner" points="172.286 28.058 135.395 98.202 172.286 168.345 102.143 131.454 31.999 168.345 68.89 98.202 31.999 28.058 102.143 64.949 172.286 28.058" style="fill: none;stroke: #fff;stroke-miterlimit: 10;opacity: 0.2"/>
      <g>
        <path d="M145.97251,117.87459l2.234-8.94647a4.025,4.025,0,0,1-2.16022-3.03485c-.6586-3.40366-1.38043-6.80206-2.06538-10.18991-.38989-1.93893-.3214-2.27614.706-3.96216l-3.22452-8.27734c-.10538-.079-.16334-.15806-.22129-.16333A4.64734,4.64734,0,0,1,138.006,81.272c-1.96-2.41313-3.96743-4.7841-5.96431-7.16034-1.68076-1.99689-1.69657-2.018-1.61753-4.62076-2.11807-1.117-4.273-2.25507-6.4069-3.38259l-1.19075.38989a2.64847,2.64847,0,0,1-1.84408-.02634l.01581.00527Q116.72,64.828,112.44169,63.1736a7.02277,7.02277,0,0,1-.05269-.91151,7.986,7.986,0,0,1,.10538-1.2856l-.00526.04742,9.08873,3.55119a3.19025,3.19025,0,0,1,.02634-2.98742,3.047,3.047,0,0,1,2.45527-1.49635c-.06322-.51108-.411-.62173-.73236-.74818q-1.31723-.52687-2.63442-1.0485-3.71977-1.45947-7.43959-2.91366c-.26871-.10538-.52689-.24237-.80087-.36882A10.23567,10.23567,0,0,1,112.389,53.832q0-.43467.03162-.85355v.03688A14.97592,14.97592,0,0,1,115.408,54.048c2.65023,1.03269,5.26883,2.16549,7.95067,3.10335a4.07156,4.07156,0,0,1,3.12442,3.95162l3.05592,1.6228c1.35409.71655,2.71344,1.42785,4.06227,2.14968a5.4451,5.4451,0,0,0,2.74506.87989,2.97766,2.97766,0,0,1,2.30774,1.31721q2.52114,3.03484,5.06335,6.05915c.58484.70076,1.13807,1.43839,1.75452,2.097a3.89784,3.89784,0,0,1,.70075,5.03174c1.27506,3.293,2.56066,6.586,3.83044,9.858a1.9903,1.9903,0,0,0,.73237.25291,3.48483,3.48483,0,0,1,2.46055,2.69764c.61645,2.92946,1.196,5.8642,1.7914,8.79367.15279.74818.28979,1.50162.47419,2.24979a3.63557,3.63557,0,0,1-1.45946,4.05173c-.11065.08957-.22129.18441-.353.30559.24236,1.57538-.38989,3.01378-.73763,4.49432-.5743,2.45-1.21183,4.8842-1.82829,7.33948.11591.23183.2371.45312.3372.68494a3.70077,3.70077,0,0,1-.0685,3.272q-2.645,5.095-5.311,10.19518a3.81081,3.81081,0,0,1-3.841,1.99688l-5.60077,8.77788c0,.22129-.0158.40043,0,.57957a3.52551,3.52551,0,0,1-1.29086,3.10335c-2.74506,2.41312-5.53227,4.7841-8.20357,7.27625a3.97412,3.97412,0,0,1-5.01592.4057c-.08431-.06322-.18441-.11591-.28452-.17914l-9.37325,1.823v-5.63765l6.83368-1.34882a5.00945,5.00945,0,0,1,1.94947-2.68184q3.92-3.43,7.80314-6.8969a3.52943,3.52943,0,0,1,2.40786-.94312,3.97948,3.97948,0,0,1,.43731.02634h-.0158c.28978.02634.5743.06322.93785.10537l4.65765-7.28678c.06322-.52689-.20549-.86937-.25818-1.26979a4.76968,4.76968,0,0,1-.02634-.49527,4.2517,4.2517,0,0,1,.58484-2.16022l-.01054.02108c1.59119-3.03485,3.19818-6.06443,4.73668-9.13088.72183-1.45947,1.665-2.56592,3.4985-2.65549Zm3.30883-10.77475a3.78136,3.78136,0,0,1,2.34989-.3372,1.665,1.665,0,0,0,1.881-2.11808q-1.09593-5.41635-2.234-10.82217c-.24764-1.18549-.54269-1.42259-1.83355-1.64388a4.5649,4.5649,0,0,1-3.1613,1.00635c-.6586.51107-.548,1.20129-.4057,1.89151q.39516,1.9284.80087,3.85678.70074,3.37733,1.40151,6.74938A1.67064,1.67064,0,0,0,149.28134,107.09984Zm-3.78829,12.92444a1.56471,1.56471,0,0,0-.95366.94313c-.548,1.0643-1.09592,2.13388-1.65441,3.19818-1.13806,2.1971-2.28667,4.38894-3.4142,6.586-.21076.4057-.49527.8272-.13172,1.3172.07376-.00526.15279-.00526.2371-.00526a3.69441,3.69441,0,0,1,1.97054.56377l-.01581-.01055c.68495.43732.901,1.196,1.29614,1.79667a1.82268,1.82268,0,0,0,1.55957-1.117q2.55011-4.94742,5.12657-9.87379a1.22435,1.22435,0,0,0,.12118-1.22764c-2.10226.5585-3.19818-.01054-4.14657-2.16022Zm-22.48738,34.62148c1.16442.91151,1.68076.91678,2.724,0,2.74506-2.41312,5.47431-4.82625,8.2141-7.24464a1.34854,1.34854,0,0,0,.548-.82194v-.01054a3.57379,3.57379,0,0,1-2.41312-1.09592,3.81834,3.81834,0,0,1-.62172-2.66075,1.29145,1.29145,0,0,0-1.21711.46893l-8.11927,7.19721c-.26343.23184-.56376.43732-.63753.80087,1.34883,1.06957,1.52269,1.45419,1.52269,3.36151Zm9.43648-84.001c-.16334.706.26871,1.09592.61118,1.51216,1.91259,2.30248,3.82517,4.61022,5.7641,6.89689a11.33086,11.33086,0,0,0,1.64914,1.83883,2.97723,2.97723,0,0,1,1.28559-2.59754,3.32965,3.32965,0,0,1,2.9242-.26871,1.18155,1.18155,0,0,0-.38989-1.038q-3.57754-4.29936-7.16561-8.57766a1.35145,1.35145,0,0,0-.93785-.64807C135.57183,70.23383,134.59183,70.7133,132.44215,70.6448Z" style="fill: #fff"/>
        <path d="M97.52035,140.57272a8.58989,8.58989,0,0,1,9.2626,0v4.08334c0,6.14346.06322,17.72517-.02107,23.85808a67.365,67.365,0,0,1-1.81774,15.29015,22.44092,22.44092,0,0,1-1.1607,3.31423c-.53191.96416-1.65352,3.27674-1.65352,3.20021,0,0-1.15847-2.05379-1.80128-3.214a19.35538,19.35538,0,0,1-.96728-3.37075,109.61476,109.61476,0,0,1-1.899-17.53289c0-.30559.00527-18.447.00527-24.51141a3.86184,3.86184,0,0,1,.05269-1.12226Z" style="fill: #fff"/>
        <path d="M166.19954,33.9474a27.37037,27.37037,0,0,1-2.58172,3.09807q-8.90959,10.31637-17.86134,20.61694-2.8715,3.31408-5.73775,6.62292a5.466,5.466,0,0,0-.36356.50054,8.4767,8.4767,0,0,0-4.01484-1.48581,4.586,4.586,0,0,1-2.13915-1.1328L155.25092,43.21q5.20033-4.53646,10.40066-9.06766a3.91232,3.91232,0,0,1,.43732-.28451l.0158-.01054c.03162.03161.06323.06322.08958.09484h0Z" style="fill: #fff"/>
        <path d="M68.07812,127.76946c3.11915-3.60388,6.21722-7.17614,9.45228-10.90121.02108,3.89367.10538,7.566.26344,11.28583l-7.55023,6.586-1.00634-1.58592c.548-1.96-.17387-3.69345-1.15915-5.37947Z" style="fill: #fff"/>
        <path d="M38.41988,162.06427c1.01161-1.391,2.20764-2.63442,3.32463-3.92q8.49334-9.8211,17.01305-19.62639a2.22692,2.22692,0,0,0,.21075-.3056l.01054-.01581,1.85463.50582c.52689.83248,1.09592,1.7229,1.63334,2.57119a1.166,1.166,0,0,1-.47946.65334h-.00527q-11.31744,9.858-22.64016,19.716c-.24764.22129-.51108.411-.76925.61646Z" style="fill: #fff"/>
        <path d="M81.71386,118.85987c-.1528-.22129-.3214-.079-.45839,0-.42151.26871-.82721.5585-1.24345.843-.26344-.22129-.15279-.49527-.15806-.73237-.03161-1.29087-.06323-2.58172-.06323-3.87259a1.5905,1.5905,0,0,1,.97474-1.73871c1.80721.6586,1.93893,2.392,2.41313,3.90419.03688.353-.46366.40044-.40044.73764l.02108-.02634c-.32667-.01581-.65861-.03688-.45312.46365l.02634-.02107c-.43731-.13172-.69549.04215-.685.45839Z" style="fill: #fff"/>
        <path d="M86.84043,138.29131a.20126.20126,0,0,1,.14752-.07376.16691.16691,0,0,1,.12118.04742h0C87.03537,138.481,86.94053,138.39669,86.84043,138.29131Z" style="fill: #fff"/>
        <path d="M86.06591,115.55631h-.43732a10.35977,10.35977,0,0,0-.96946-3.79356l.02634.06322a11.07143,11.07143,0,0,0-2.22344-3.0928h0c-.94312-.922-2.13915-1.50161-3.2456-2.41312a1.43293,1.43293,0,0,1-.1528.00526,1.81227,1.81227,0,0,1-.73764-.15279l.01054.00527a5.73079,5.73079,0,0,0-1.21183-.38463l-.03688-.00526a2.244,2.244,0,0,0-1.89151.3214,7.77043,7.77043,0,0,0-2.20764,2.6028l-.02108.04215a2.2908,2.2908,0,0,0-.19494.922,2.22392,2.22392,0,0,0,.079.59538l-.00527-.01581a6.126,6.126,0,0,0,1.10646,2.26033l-.01054-.0158A11.749,11.749,0,0,1,75.033,114.3076l.03161.06849A2.21457,2.21457,0,0,1,75.307,116.099c-.55322.50053-1.1328.22129-1.69656-.02634a6.92625,6.92625,0,0,1-1.90731-1.44893,12.943,12.943,0,0,1-2.34463-3.18764l-.03161-.06849c-.33721-.63753-.27925-1.35936-.7113-1.97581.98528-.56377,1.63334-1.41732,2.69765-1.61753.353-.0685.51634-.39517.72183-.6428a6.69293,6.69293,0,0,1,2.86624-1.88624,2.42641,2.42641,0,0,0,1.0643-.93785l.00527-.01054c1.14861-.01054,1.16441-1.22763,1.91259-1.60173a3.36557,3.36557,0,0,0-1.5385.91151,28.74885,28.74885,0,0,1-3.4985,2.35517l-.14226.07377a8.07721,8.07721,0,0,1-1.95474.79032l-.058.01054c-.1686-.69549.4057-1.06957.685-1.57011l.1528-.08431c-.03688-.02634-.07376-.0685-.11592-.07376s-.09483.04742-.07376.12645l-1.12753.079c-.34774.22129-.50054.4742-.353.843.548.17914.548.17914.85355.65861-.52689.60591-1.30667.87989-1.96528,1.53849a5.39094,5.39094,0,0,1,.079-2.09172,24.88152,24.88152,0,0,1,1.10645-4.17818l-.05269.17388a23.66805,23.66805,0,0,0,.98528-5.57442c.22129-2.86624.32666-5.743.34247-8.61981,0-.87989.0843-1.73871.13172-2.587l.87989-.843c.12118-.04216.22129-.09484.20548-.24764.02108,0,.04215.00527.06323.00527a.57282.57282,0,0,0,.41624-.17914h0a8.46438,8.46438,0,0,0,1.73344-1.117A7.77907,7.77907,0,0,0,77.39868,81.251a7.54021,7.54021,0,0,0-2.76087,1.83882c-.45839-.14226-.78506.27925-1.21183.2371-.13172.353-.58484.47419-.50054.90623a.39592.39592,0,0,0-.137-.02634.36427.36427,0,0,0-.32667.20548h0c-.11591.04215-.23182.0843-.22129.24764-.17387-.04742-.36881.03688-.54268-.137a2.43815,2.43815,0,0,1,1.55957-1.5385,5.09553,5.09553,0,0,0,2.77668-2.46582l.01581-.02634c.24236-.47946.7429-.69549,1.0801-1.16968-.22129-.50581.137-.89043.411-1.3014a27.42412,27.42412,0,0,1,11.52294-9.71046l.17387-.06849a29.37022,29.37022,0,0,1,13.79906-2.89259,30.80888,30.80888,0,0,1,19.26284,7.64508,26.733,26.733,0,0,1,5.67453,7.15507l.0685.14226a5.3703,5.3703,0,0,0,2.803,2.63441,3.414,3.414,0,0,1,2.14441,3.39313c.06322,1.607,0,3.21926.079,4.82625a54.947,54.947,0,0,0,.86408,9.47336c.24764,1.13806.5743,2.26033.922,3.37732a20.11741,20.11741,0,0,1,.77452,4.10969l.00526.079a4.79261,4.79261,0,0,1,.02634.50054,4.7447,4.7447,0,0,1-.30559,1.69129l.01054-.03162a11.489,11.489,0,0,1-4.17818,5.4427l-.03688.02634a3.63015,3.63015,0,0,1-1.059.50053l-.02633.00527a1.02059,1.02059,0,0,1-.38463.07376,1.03217,1.03217,0,0,1-.7271-.295h0a2.09059,2.09059,0,0,1,.22129-1.69129,10.57859,10.57859,0,0,1,1.02742-1.71764l-.02107.02634a9.16713,9.16713,0,0,0,1.09065-1.9442l.02107-.06322a2.50031,2.50031,0,0,0-.36881-2.587l.00526.00527c-.44784-.5743-.93785-1.117-1.42259-1.66495a2.228,2.228,0,0,0-1.69656-.78506,2.18455,2.18455,0,0,0-.72183.12119l.01581-.00527c-4.18872,1.22764-7.10765,3.77775-8.23518,8.11927a6.28006,6.28006,0,0,0-.17388,1.48581,6.35786,6.35786,0,0,0,.1528,1.391l-.01054-.04215a24.21124,24.21124,0,0,1,.22129,4.6998c0,.99054-.24764,1.40151-.86409,1.58592a2.15443,2.15443,0,0,1-2.30248-.60065,4.87452,4.87452,0,0,1-.83775-2.234c-.04214-.24764-.05269-.51108-.07376-.764-.3372-3.57754-2.49215-5.80625-5.52174-7.329a13.94064,13.94064,0,0,0-5.39528-1.31721c-.548-.04742-1.18549-.07376-1.823-.07376a22.42155,22.42155,0,0,0-5.73775.74291l.15806-.03688a10.41163,10.41163,0,0,0-6.70195,5.30044l-.02635.058a4.93577,4.93577,0,0,0-.59537,2.07065v.0158a7.87092,7.87092,0,0,1-.62173,2.98216A1.93554,1.93554,0,0,1,86.519,123.096c-.91677-.08957-1.32774-.45839-1.333-1.39624a20.87834,20.87834,0,0,1,.17914-4.58915,3.90179,3.90179,0,0,0,.06323-.52688v-.00527c.13171-.57957.56376-.61645.70075-.92732.12118-.07376.30033-.12118.12118-.31612.14226.11064.17915.05795.17915-.137l-.14226.16334h-.01054a.21422.21422,0,0,0-.216.20021h0Zm-3.04012-15.52724c-.079,0-.17914-.05269-.19494.08431.13172.07376.14752-.02634.17914-.11065l.03688-.04215Zm-12.77164,4.547c.137.10538.17387.03688.1686-.10011l-.13172.12646c-.137.02634-.274.05269-.19494.24764-.11592-.02108-.23183-.04743-.28979.10538a.18268.18268,0,0,0,.26344-.13172c.12645-.03162.33721,0,.18968-.24237Zm1.83882-.8114c-.1528-.10538-.27925-.1001-.37409.079.17388.09484.26345,0,.33721-.10538l.16333-.15279C72.035,103.58026,71.96125,103.61187,72.093,103.76467Zm8.47228-4.24141c.22129.07376.38989.05269.46892-.18967.01581,0,.03161.00526.05269.00526a.40249.40249,0,0,0,.40044-.37408h0c-.26345.03162-.48474.04215-.43732.39517a.28594.28594,0,0,0-.1528-.03689.31761.31761,0,0,0-.30559.23184h0c-.06322.03161-.20021,0-.14226.15806.14753-.00526.1686-.079.11592-.1844Zm1.97581-1.31721c.137.02108.30032.12119.34247-.12118a.20052.20052,0,0,0-.10011-.02107.226.226,0,0,0-.216.1686h0l-.04742.04215c-.01054.05269,0-.00527.01054-.06849Zm-6.99174,4.626c.137-.22129.60065,0,.57957-.43732-.63225-.36355-.32666.37409-.548.47946-.05269.04215-.22129-.05795-.1528.137Zm3.32463-2.16022c.5585-.06322.89043-.46893,1.34882-.85356h-.77452c-.079.36882-.51107.46893-.60591.83248-.28452.137-.63226.20549-.82194.75344.432-.24236.8957-.15279.84828-.73763Zm32.88277-20.44306a3.721,3.721,0,0,0-.50054-.03689,3.94474,3.94474,0,0,0-.61645.05269l.02107-.00527c-1.02742.10011-1.34355.3899-1.47,1.40151a2.25611,2.25611,0,0,0-.01581.274,2.574,2.574,0,0,0,.01581.28452v-.01054c.14226,1.99688.13172,4.00431.353,6.0012a4.34756,4.34756,0,0,0,1.29613,2.6871h0a9.43753,9.43753,0,0,0,4.92109,2.45,49.0521,49.0521,0,0,0,7.16561,1.08538l.18441.01054c.10538.00527.23183.00527.35829.00527a8.95614,8.95614,0,0,0,2.30248-.30033l-.06323.01581a2.407,2.407,0,0,0,1.76506-1.48054l.00526-.01581a6.92691,6.92691,0,0,0-.43731-6.40689,9.77977,9.77977,0,0,0-5.469-3.98324,43.16186,43.16186,0,0,0-9.63669-2.0285l-.18441-.01581Zm-17.06047.35828a1.54036,1.54036,0,0,0-.99581-.36355h-.0158c-.21076-.01054-.45839-.01581-.706-.01581a14.64619,14.64619,0,0,0-1.99162.137l.07377-.01054c-2.02323.28452-4.00958.75871-5.99593,1.22237a14.52058,14.52058,0,0,0-6.45432,3.05066,6.901,6.901,0,0,0-2.22872,6.82313,5.20213,5.20213,0,0,0,.37409,1.17495l-.01054-.03161a2.52359,2.52359,0,0,0,1.81775,1.57011l.01581.00527a9.66328,9.66328,0,0,0,2.27613.26871c.11065,0,.22656,0,.33721-.00527h-.01581a50.2488,50.2488,0,0,0,7.24464-1.0643,10.14149,10.14149,0,0,0,4.37313-1.90732A4.49073,4.49073,0,0,0,94.71732,88.269a61.48861,61.48861,0,0,0,.33721-6.55443h0a2.04953,2.04953,0,0,0-.37409-1.1328l.00527.00527Zm1.96,15.61154c0,.61645-.02108,1.23817,0,1.85989a6.63317,6.63317,0,0,0,.20021,1.12226l-.01053-.04742a3.60248,3.60248,0,0,0,.93258,1.93893,1.594,1.594,0,0,0,2.33936,0h0c.23183-.23183.41624-.51108.6586-.73763a1.83265,1.83265,0,0,1,2.724.03161c.23183.23183.4215.50054.6586.7271a1.60274,1.60274,0,0,0,1.15387.49,1.56989,1.56989,0,0,0,1.10645-.44785h0a2.95756,2.95756,0,0,0,.87463-1.47527l.00526-.02108a13.118,13.118,0,0,0,.43732-3.40893q0-.31614-.01581-.63226v.03161a16.82982,16.82982,0,0,0-3.2614-8.91486,5.15268,5.15268,0,0,0-1.12226-1.16968l-.01054-.01054a1.67155,1.67155,0,0,0-2.21291-.09484,4.29234,4.29234,0,0,0-1.38043,1.35409l-.01054.01581c-.45312.706-.90624,1.41731-1.29086,2.16022a13.736,13.736,0,0,0-1.78614,7.22883Zm-7.26045,17.66112c.86935.01581,1.02215-.12119,1.2329-1.14333a1.89922,1.89922,0,0,0-1.2329,1.15387Zm-8.39325-12.6452a1.39294,1.39294,0,0,0,1.117-.70075A1.393,1.393,0,0,0,81.00256,101.21455Zm6.428,13.82541a.707.707,0,0,0,.11064.00527,1.20552,1.20552,0,0,0,.80087-.30032h0c.16333-.11591.22129-.28979,0-.42151a1.43282,1.43282,0,0,0-.90624.71656ZM79.49568,102.2209c-.43732-.07377-.53743.17914-.7113.32667A.86725.86725,0,0,0,79.49568,102.2209Zm-9.78949,7.30787c.11592.15807.19495.39517.51108.22129C70.13823,109.44446,69.9749,109.38124,69.70619,109.52877Zm5.40055-6.33841c-.36355-.079-.53742-.04215-.59538.22129C74.74319,103.48015,74.82222,103.25358,75.10674,103.19036Zm4.03066-6.14345-.195.03161c.02108.058-.19494.10011-.01581.14753C78.97406,97.23658,79.05836,97.1154,79.1374,97.04691ZM71.761,108.89651c-.079-.13172-.1686-.079-.25817,0C71.58717,109.01769,71.67147,108.97027,71.761,108.89651Zm-.36882-4.92109c-.22129-.02108-.32667-.079-.34775.11064.10538.08957.18441.06322.34775-.10538Zm17.4609,12.36594c.06849-.06849.15806-.13172.05795-.24236a.08955.08955,0,0,0-.0843,0h0C88.71612,116.18857,88.77408,116.2676,88.85312,116.34136ZM84.422,108.22209c.07377.02634.1528.14753.19495-.02107Zm-7.42378-6.428-.079.06322c.02634.02634.04742.06322.07376.06322s.05269-.03688.079-.058Zm.48473-.15807c-.04742-.09484-.10538-.10011-.15279,0,0,0,.04741.06322.07376.06322s.05269-.04743.079-.0685Zm4.3784-2.87152c-.02107-.02107-.04215-.05795-.06322-.05795s-.04742.03688-.0685.05795l.10011.06323Zm.61645,1.63335.079-.06322-.07376-.0685-.079.1001Z" style="fill: #fff"/>
        <path d="M66.724,133.40711l4.68926,7.33421c.12119.03688.19495.0843.25818.07376a4.43146,4.43146,0,0,1,4.16764,1.33828c2.58173,2.38151,5.24776,4.66818,7.88217,6.98121a4.52586,4.52586,0,0,1,1.29087,2.07591l.01053.03162,6.81787,1.34354V158.218l-9.39433-1.81774a4.24035,4.24035,0,0,1-2.60807.90625h0a3.62135,3.62135,0,0,1-2.40259-.91151l.00528.00526q-4.30464-3.81462-8.604-7.63981a3.35726,3.35726,0,0,1-1.196-2.57119,1.48021,1.48021,0,0,1,.00527-.15279v-.87463l-5.5112-8.61454a1.19624,1.19624,0,0,0-.70076-.11591,3.63081,3.63081,0,0,1-3.25086-2.05484c-1.73872-3.372-3.509-6.7283-5.24249-10.09508a3.47953,3.47953,0,0,1-.02108-3.37731l-.01053.0158c.10011-.19495.17914-.39516.26871-.60064-.81667-3.293-1.61753-6.586-2.44474-9.87379a3.76984,3.76984,0,0,1-.09484-1.93367,2.12945,2.12945,0,0,0-.23183-.2529h0a3.81328,3.81328,0,0,1-1.59119-4.32571c.73764-3.4985,1.4542-6.997,2.19711-10.50078.39516-1.88624,1.08011-2.57646,3.2614-3.30355l3.80937-9.8053a10.53318,10.53318,0,0,1-.51635-1.49635,3.8461,3.8461,0,0,1,.87989-3.1613c1.42786-1.65968,2.81883-3.35624,4.22034-5.04754.89043-1.0643,1.78613-2.12333,2.66076-3.20344a3.815,3.815,0,0,1,3.80409-1.73345L77.82545,61.103c.02634-.18441.05269-.32667.058-.46366a3.49066,3.49066,0,0,1,2.37624-3.23506q2.039-.80087,4.07807-1.59646c2.10227-.82721,4.20453-1.65968,6.31206-2.47635A1.79657,1.79657,0,0,1,91.83,53.07325a9.4919,9.4919,0,0,1,.05269,1.80194,3.073,3.073,0,0,1-1.2171.60591q-4.67872,1.85463-9.368,3.68292c-.43731.17387-.922.27925-1.09592.80086,2.63442.99581,3.25614,2.0285,2.58173,4.52066,3.05592-1.06958,5.938-2.32883,8.94647-3.41947.33721.6586.06849,1.3172.17914,1.96a23.73944,23.73944,0,0,1-3.135,1.33828c-1.44366.61119-2.94528,1.08538-4.3784,1.72291a4.0937,4.0937,0,0,1-4.02012-.03161l-6.586,3.46689c.04216.36355.07377.64806.10011.93258a3.17079,3.17079,0,0,1,.02107.40043,3.45979,3.45979,0,0,1-.83247,2.26033l.00527-.00527c-2.41313,2.89258-4.82625,5.76937-7.24464,8.66722a4.1954,4.1954,0,0,1-2.94,1.53323h-.0158c-1.09592,2.79775-2.1813,5.585-3.27722,8.388a1.99992,1.99992,0,0,0,.18441.38462l-.00527-.00527a3.814,3.814,0,0,1,.60592,3.33517c-.37409,1.8599-.77452,3.70926-1.15914,5.56916-.32667,1.57011-.71129,3.135-.96946,4.7156a4.05978,4.05978,0,0,1-2.17076,3.21926q1.09591,4.44162,2.1971,8.87271c.24236.06322.41623.11591.59011.14226a3.40854,3.40854,0,0,1,2.53957,1.85462l.01054.02108c1.73344,3.3299,3.44581,6.67561,5.20034,9.995a3.80022,3.80022,0,0,1,.0843,3.61441l.01053-.02108ZM54.91658,92.1627c-1.32774.24237-1.72817.57957-1.93893,1.58065q-.87988,4.23087-1.75452,8.46174c-.1844.8957-.40043,1.78614-.50581,2.6871a1.613,1.613,0,0,0,1.73872,1.88624,4.4699,4.4699,0,0,1,.7271-.058,4.71846,4.71846,0,0,1,1.8757.38462l-.03161-.01054a1.73765,1.73765,0,0,0,1.18548-1.5385c.50054-2.42893,1.01162-4.85259,1.51216-7.28152.22129-1.10645.47419-2.21291.66914-3.32463.11591-.64279.22129-1.31721-.52688-1.83355a3.21745,3.21745,0,0,1-.52162.04215,3.45941,3.45941,0,0,1-2.4342-.99581h.00527Zm-.3372,30.03233a1.41815,1.41815,0,0,0,.18441,1.21183c.295.58484.60064,1.16442.90624,1.75452,1.40677,2.71345,2.82936,5.42163,4.22033,8.14035a1.83943,1.83943,0,0,0,1.64387,1.11172,3.43,3.43,0,0,1,1.28033-1.84409l.01054-.00527a7.20592,7.20592,0,0,1,2.22344-.60591,1.14327,1.14327,0,0,0,.058-.36355,1.18351,1.18351,0,0,0-.18968-.64806l.00527.00526q-2.63442-5.08968-5.29518-10.17411a1.26577,1.26577,0,0,0-.86935-.74817H58.747a3.06873,3.06873,0,0,1-4.16238,2.16548ZM82.8045,151.28424a2.36545,2.36545,0,0,0-.764-.90624c-1.038-.922-2.06538-1.84936-3.10334-2.76613q-2.45527-2.17077-4.93162-4.331c-.34248-.30032-.67968-.67442-1.22237-.43732.12118,2.86625-1.12227,3.3299-2.96109,3.80936.02635.45839.4057.65861.69549.92732q4.04646,3.59334,8.11927,7.17615c.922.81139,1.53849.785,2.63441-.10538a3.15183,3.15183,0,0,1,1.528-3.36152ZM59.55316,78.06332c2.47635-.66914,4.00957.36355,4.22033,2.74506a.85584.85584,0,0,0,.51634-.37409V80.429q3.58808-4.2783,7.16561-8.55658a1.24061,1.24061,0,0,0,.32667-1.254,3.40683,3.40683,0,0,1-2.47109-.52689,3.20509,3.20509,0,0,1-1.13279-2.392,1.80661,1.80661,0,0,0-.99581.63226l-.00527.00527c-.30033.36882-.60065.73237-.90624,1.09592-1.98635,2.38151-3.98324,4.75249-5.959,7.13926-.33193.40043-.79032.75344-.764,1.47527Z" style="fill: #fff"/>
        <path d="M81.85611,137.24282a.59364.59364,0,0,1-.1686.02634.537.537,0,0,1-.34774-.12119h0a70.481,70.481,0,0,1-1.41205-16.70746c.45839-.32667.93259-.6586,1.39625-1.00108.18968-.14226.48473-.2371.38462-.57957l-.02634.01581c.36881.06322.55849-.14227.68494-.45839l-.02634.02107c.27925-.02634.569-.04742.45312-.46365l-.02107.02634c.079.15807.24236.06849.47946.18441v2.55011q0,4.331,0,8.662c-.00527.0843-.01054.18441-.01054.28452a3.71512,3.71512,0,0,0,.14753,1.038l-.00527-.02634a1.90114,1.90114,0,0,0,1.45419,1.33828,1.67784,1.67784,0,0,0,1.79667-.764,3.60839,3.60839,0,0,0,.54269-1.038l.00527-.02634a9.44711,9.44711,0,0,1,2.66076-3.95162,15.29674,15.29674,0,0,1,7.0497-3.79356,19.9686,19.9686,0,0,1,14.36283,1.48581,13.65912,13.65912,0,0,1,4.547,3.81464l.02634.03161a6.70834,6.70834,0,0,1,1.18549,2.14441l.0158.04743a4.33665,4.33665,0,0,0,.5743,1.196l-.01054-.01581a1.67412,1.67412,0,0,0,1.96.83775,1.93639,1.93639,0,0,0,1.40152-1.63861v-.01055c.01581-.1686.02634-.36881.02634-.569,0-.0685,0-.137-.00527-.20548v.01054c.01581-3.54592.01581-7.09185.05269-10.63777a8.67475,8.67475,0,0,1,.89044-4.23615,2.29152,2.29152,0,0,1,1.6544-1.36463c.764.27925.90625.94839.90625,1.665,0,1.75453.05269,3.50905-.0685,5.26883-.11064,1.607-.07376,3.214-.11064,4.82625a65.3509,65.3509,0,0,1-1.20657,11.39648l.0685-.411a18.98107,18.98107,0,0,1-1.38043,4.273l.04743-.11592a5.38743,5.38743,0,0,1-6.50174,2.63442,11.462,11.462,0,0,1-3.4142-1.96527l.01581.01581a20.78324,20.78324,0,0,0-8.46174-3.93055,6.87449,6.87449,0,0,0-1.40678-.14226,6.97036,6.97036,0,0,0-2.10753.32667l.04742-.01581a21.31182,21.31182,0,0,0-7.88744,3.90947,8.7788,8.7788,0,0,1-3.8357,1.96527,3.25488,3.25488,0,0,0-2.96109-.45312.73184.73184,0,0,1-.51108-.41624v-.00526c.7956-.1686,1.87044.03161,1.81775-1.3014l1.59646-1.19076c.24236-.41624-.26871-.5585-.15806-.87989.20021-.353.51107-.33194.843-.25291.60591-.785,1.60172-.99054,2.35516-1.549-.17914-.36355-.55322-.1844-.8272-.30559-.14226-.6428.51108-.7271.74817-1.09592l.4742-.195h1.09592c.137-.42677.74817-.4057.80613-.95366-.03688,0-.079-.00526-.12118-.00526a2.68177,2.68177,0,0,0-1.91786.80086h0l-.50054.137a17.4165,17.4165,0,0,0-4.40474,2.33936,1.07789,1.07789,0,0,1-.67442.23183h-.04215a8.47959,8.47959,0,0,0-4.01485.54269c-.43731-.50581-.17387-.80086.14753-1.08011a3.27834,3.27834,0,0,0,1.20129-.79032,2.654,2.654,0,0,0-1.40151.59538l.00527-.00526Zm13.09831-3.76722c-.922.28979-.922.28979-1.21182,1.059l1.50688-.57958v-.04214a.46666.46666,0,0,0-.29505-.43732h0Z" style="fill: #fff"/>
        <path d="M106.76714,49.65905V63.42124a28.05625,28.05625,0,0,0-4.62076-.37409,29.27748,29.27748,0,0,0-4.78937.39516l.1686-.02107c-.10538-2.36044-.03688-4.64711-.05269-6.92851s0-4.5312,0-6.82841a3.40269,3.40269,0,0,0-2.29195-.88516c-.06849,0-.14226,0-.21075.00527h.01054c-1.09592.06849-2.1971.0158-3.293.0158l-.98527,1.7756H86.80353V42.75161h4.22034c.28978.20022.274.66914.60064,1.04323h6.85475c.22129-.12645.20022-.41624.24763-.6586q.5743-2.73453,1.11173-5.48485a3.64737,3.64737,0,0,0,.06323-.70076v-13.23c0-.14226-.01581-.28452-.03161-.50581-.65861-.2371-1.36463,0-2.1655-.17387-.079-2.2656-.03161-4.53646-.02634-6.87582h2.13915l2.27086-2.08119c.94839.53215,1.47,1.48054,2.45527,2.10226h2.07592v6.92851h-2.0127a1.07586,1.07586,0,0,0-.22129.93259c-.01054,4.20452,0,8.41432-.02107,12.61885a9.3,9.3,0,0,0,.274,1.90731l-.01581-.06322c.34775,1.75452.72183,3.49323,1.09592,5.30044h6.92851c.31613-.2529.31087-.71129.60592-1.0643h4.26775v7.82421h-3.92528c-.43732-.45839-.52162-1.20656-1.06431-1.75452-1.3172,0-2.666-.02108-4.01484,0a3.48816,3.48816,0,0,0-1.75452.84828Z" style="fill: #fff"/>
        <path d="M38.48837,34.12654c1.57538,1.18549,3.01377,2.53431,4.49431,3.82517Q53.03562,46.68216,63.05693,55.439q3.55119,3.0928,7.11292,6.1856c.18441.16334.36355.34247.61119.57957a7.02114,7.02114,0,0,1-2.70818,1.19076,6.34321,6.34321,0,0,0-3.40367,1.35936l.01054-.01054c-.98-1.117-1.93893-2.20764-2.89259-3.30356q-4.16764-4.79463-8.34056-9.59981-7.56076-8.73571-15.10573-17.4767a.52232.52232,0,0,1-.058-.08957V34.2688Z" style="fill: #fff"/>
        <path d="M136.17248,127.81161c-.95892,1.65968-1.72817,3.3457-1.117,5.29517l-1.038,1.61752-7.58712-6.60184c.26871-3.61442.22129-7.28153.26344-11.01186.82194.53215,7.0813,7.624,9.47336,10.701Z" style="fill: #fff"/>
        <path d="M166.56837,163.07589,141.768,141.46314a30.91126,30.91126,0,0,1,1.67549-2.75032l1.823-.50054L166.679,162.91256Z" style="fill: #fff"/>
        <path d="M123.41665,70.9662l1.85462-1.63334,2.81356,1.44893a6.52968,6.52968,0,0,0,2.18129,4.67872,6.973,6.973,0,0,1-1.48054,1.61226,31.38992,31.38992,0,0,0-5.33205-6.075Z" style="fill: #fff"/>
        <path d="M73.98448,75.49213a6.738,6.738,0,0,0,2.22345-4.7156l2.76613-1.44366,1.87571,1.60172a31.711,31.711,0,0,0-5.4111,6.2383Z" style="fill: #fff"/>
      </g>
    </g>
  </g>
</svg>
