<svg xmlns="http://www.w3.org/2000/svg" viewBox="0 0 204.40449 204.40449">
  <g class="Layer_2" data-name="Layer 2">
    <g class="festival-of-the-lost">
      <polygon class="triangle-4" points="102.202 34.855 140.839 101.776 179.476 168.696 102.202 168.696 24.929 168.696 63.566 101.776 102.202 34.855" style="fill: none;stroke: #fff;stroke-miterlimit: 10;opacity: 0.2"/>
      <polygon class="triangle-3" points="35.282 101.776 102.202 63.139 169.123 24.502 169.123 101.776 169.123 179.049 102.202 140.412 35.282 101.776" style="fill: none;stroke: #fff;stroke-miterlimit: 10;opacity: 0.2"/>
      <polygon class="triangle-2" points="102.202 168.696 63.566 101.776 24.929 34.855 102.202 34.855 179.476 34.855 140.839 101.776 102.202 168.696" style="fill: none;stroke: #fff;stroke-miterlimit: 10;opacity: 0.2"/>
      <polygon class="triangle-1" points="169.123 101.776 102.202 140.412 35.282 179.049 35.282 101.776 35.282 24.502 102.202 63.139 169.123 101.776" style="fill: none;stroke: #fff;stroke-miterlimit: 10;opacity: 0.2"/>
      <circle cx="102.20234" cy="101.7756" r="70.48784" style="fill: #332e80"/>
      <g style="opacity: 0.2">
        <path d="M102.20234,32.28774A69.48785,69.48785,0,1,1,32.71451,101.7756a69.56655,69.56655,0,0,1,69.48783-69.48786m0-1A70.48785,70.48785,0,1,0,172.6902,101.7756a70.48785,70.48785,0,0,0-70.48786-70.48786Z" style="fill: #fff"/>
      </g>
      <g>
        <g>
          <path class="inner-bottom" d="M88.03281,127.10874a31.29263,31.29263,0,0,0,14.16766,3.63665,33.97468,33.97468,0,0,0,13.87275-3.24448c-.51657.52091-1.03766,1.03745-1.549,1.56344q-5.42122,5.57645-10.84209,11.15322c-.39811.40867-1.39366,1.33106-1.39366,1.33106s-9.32675-9.25492-13.83827-13.73787A4.926,4.926,0,0,1,88.03281,127.10874Z" style="fill: #fff"/>
          <path class="inner-right" d="M127.88774,115.71958c.733-1.83943,1.38058-3.60155,2.13389-5.31725a21.47218,21.47218,0,0,0,1.247-5.7069,25.15041,25.15041,0,0,0,.02646-5.76257,20.17261,20.17261,0,0,0-1.23863-5.70756c-.70015-1.76179-1.32333-3.55417-2.02979-5.467a6.69572,6.69572,0,0,1,.80893.48017,9.50118,9.50118,0,0,1,.74839.735q6.24732,6.24691,12.48937,12.4886C141.31605,102.60775,129.47749,114.51855,127.88774,115.71958Z" style="fill: #fff"/>
          <path class="inner-top" d="M88.18405,76.44549l14.21127-14.213c3.01909,2.61591,13.02033,12.80026,13.784,14.15826a30.65549,30.65549,0,0,0-14.07551-3.55091A29.60578,29.60578,0,0,0,88.18405,76.44549Z" style="fill: #fff"/>
          <path class="inner-left" d="M77.02664,115.77255c-4.83-4.82836-9.43319-9.43006-14.1581-14.15341,4.49633-4.58081,9.15206-9.17671,13.90005-13.73745a42.45354,42.45354,0,0,0-2.91949,9.11773,26.716,26.716,0,0,0-.0328,9.46036A36.27431,36.27431,0,0,0,77.02664,115.77255Z" style="fill: #fff"/>
        </g>
        <path class="point-right" d="M175.72974,102.15l-7.00568,3.37261c.11494-1.37305.27178-2.42093.27045-3.4686-.00125-.99973-.1673-1.99926-.28915-3.30048Z" style="fill: #fff"/>
        <path class="point-left" d="M29.41737,102.162l6.56506-3.2463s-.29379,2.05285-.29905,3.14719a20.06041,20.06041,0,0,0,.48326,3.14956Z" style="fill: #fff"/>
        <polygon points="105.104 43.719 99.512 43.719 102.484 38.479 105.104 43.719" style="fill: #fff"/>
        <g>
          <path d="M102.55506,74.079a26.90745,26.90745,0,0,0-19.51613,8.00186,26.63868,26.63868,0,0,0-8.25018,19.5866A27.67543,27.67543,0,1,0,102.55506,74.079Zm4.99135,4.85374a10.81026,10.81026,0,0,0-3.38066.55514,5.38173,5.38173,0,0,0-2.57964,1.47379,17.30268,17.30268,0,0,1,2.37365-.11361c2.82411-.10581,5.04464,1.06282,7.39494,2.5979a22.631,22.631,0,0,1,5.85759,5.63426c.16117.21864.46342.88938.54239.94049-.08072-.04929-2.51553-.95717-3.76275-1.53167a10.60777,10.60777,0,0,0-4.4494-1.39614,10.01706,10.01706,0,0,1,1.82874,1.278,33.32418,33.32418,0,0,1,6.65983,7.0652,12.1346,12.1346,0,0,1,2.20753,5.71065c-1.52738-1.64131-3.02645-3.33071-4.60972-4.93712a22.95642,22.95642,0,0,0-11.44379-6.5152,14.00132,14.00132,0,0,0-7.68286-.02726,7.60409,7.60409,0,0,0-4.88616,4.83452,12.48152,12.48152,0,0,0-.42346,7.58407,2.138,2.138,0,0,1-.11263,1.02172,12.15967,12.15967,0,0,1-3.29649-5.6048,9.03852,9.03852,0,0,1-.11547-4.61029c.32079-1.32306.67393-3.13956-.53989-4.185a2.22211,2.22211,0,0,0-1.30782-.47161,5.33528,5.33528,0,0,0-1.677.52712C87.24121,81.02141,98.55466,76.04559,107.54641,78.93274Zm1.966,22.83056a7.04832,7.04832,0,1,1-7.04833-7.0483A7.04832,7.04832,0,0,1,109.5124,101.7633Zm-11.59359,22.962a31.00011,31.00011,0,0,0,3.26027-.42775,4.91753,4.91753,0,0,0,2.76315-1.78174,6.01866,6.01866,0,0,1-1.865.28568c-2.75426.20452-5.25627-.92472-7.62584-2.24524a18.41972,18.41972,0,0,1-6.42248-5.72478,1.645,1.645,0,0,1-.29075-.78411,27.88591,27.88591,0,0,0,6.89476,2.10063,29.89215,29.89215,0,0,1-2.42375-1.89293,23.96941,23.96941,0,0,1-6.4716-8.11442,11.106,11.106,0,0,1-.95967-3.87073c.44426.53394.90364,1.05611,1.33039,1.6037a27.44984,27.44984,0,0,0,13.3454,9.58549,20.54108,20.54108,0,0,0,4.90759.88218c3.52044.25519,6.49259-.942,8.39583-4.13422a9.31607,9.31607,0,0,0,1.21409-3.93335,12.64684,12.64684,0,0,0-.09633-4.14046c-.10243-.62792-.19515-1.74665-.2071-1.76151,1.91249,1.4282,2.77189,3.51923,3.43837,5.68067a6.98309,6.98309,0,0,1,.121,4.25176,7.59273,7.59273,0,0,0-.04837,2.78006,1.85248,1.85248,0,0,0,1.3692,1.8693,8.91473,8.91473,0,0,0,2.24877-.14267C117.22315,122.82838,106.65363,126.85938,97.91881,124.72529Z" style="fill: #fff"/>
          <circle cx="102.5114" cy="101.82712" r="3.665" style="fill: #fff"/>
        </g>
        <g>
          <path d="M105.61531,45.07H99.039c-.86887,1.89674-12.28552,25.51436-12.45646,26.08162,5.30564-5.31,10.45955-10.46808,15.64176-15.65455l16.21591,16.54252C114.04568,62.90182,110.04723,53.75346,105.61531,45.07Zm-3.36633,9.7082a.84083.84083,0,1,1,.84082-.84082A.84083.84083,0,0,1,102.249,54.77822Zm0-3.4762a.84083.84083,0,1,1,.84082-.84084A.84084.84084,0,0,1,102.249,51.302Zm0-3.5179a.84083.84083,0,1,1,.84082-.84082A.84081.84081,0,0,1,102.249,47.78412Z" style="fill: #fff"/>
          <path d="M155.1619,146.9565q-2.70112-5.65252-5.44479-11.28468c-2.82413-5.79012-5.67354-11.56793-8.49986-17.357-.88942-1.82181-3.126-6.48313-3.126-6.48313q-17.955,17.95887-35.96349,35.97119S83.60953,129.33858,75.1046,120.83369c-2.64233-2.64233-8.6804-8.7417-8.6804-8.7417-.29131.67323-.67422,1.38571-.926,1.90154q-4.0083,8.214-8.02972,16.4216-4.90587,10.0055-9.825,20.00452c-.73226,1.48985-1.47473,2.9747-2.23372,4.50469,3.10856.29827,112.10819.18975,113.4381-.11528C157.61642,152.18225,156.40654,149.56106,155.1619,146.9565ZM67.94,137.52055a.84083.84083,0,1,1-.0186-1.189A.8408.8408,0,0,1,67.94,137.52055Zm2.4483-2.52613a.84083.84083,0,1,1-.0186-1.189A.84081.84081,0,0,1,70.38833,134.99442Zm2.4193-2.4962a.84083.84083,0,1,1-.0186-1.189A.84085.84085,0,0,1,72.80763,132.49822Zm5.85488,12.79067a.84083.84083,0,1,1-.33611-1.14064A.84084.84084,0,0,1,78.66251,145.28889Zm1.683-3.08919a.84084.84084,0,1,1-.33611-1.14063A.84087.84087,0,0,1,80.34552,142.1997Zm1.66305-3.05259a.84084.84084,0,1,1-.3361-1.14062A.84086.84086,0,0,1,82.00857,139.14711ZM102.249,154.14617a.84083.84083,0,1,1,.84082-.84082A.84081.84081,0,0,1,102.249,154.14617Zm0-3.51788a.84083.84083,0,1,1,.84082-.84084A.84083.84083,0,0,1,102.249,150.62829Zm21.28926-11.14508a.84083.84083,0,1,1,.33611-1.14063A.84085.84085,0,0,1,123.53824,139.48321Zm1.66306,3.0526a.84084.84084,0,1,1,.3361-1.14064A.84087.84087,0,0,1,125.2013,142.53581Zm1.683,3.08918a.84084.84084,0,1,1,.33611-1.14064A.84086.84086,0,0,1,126.88428,145.625Zm5.90323-13.10817a.84083.84083,0,1,1,.0186-1.189A.84084.84084,0,0,1,132.78751,132.51682Zm2.4193,2.4962a.84084.84084,0,1,1,.0186-1.189A.84083.84083,0,0,1,135.20681,135.013Zm2.4483,2.52614a.84084.84084,0,1,1,.0186-1.189A.84083.84083,0,0,1,137.65511,137.53916Z" style="fill: #fff"/>
          <path d="M158.88354,94.94187c-.28412-1.58276-.405-3.197-.73264-4.76934A53.17985,53.17985,0,0,0,153.989,77.75627c-.9582-1.97494-2.11727-3.85228-3.18229-5.7755a49.76467,49.76467,0,0,0-6.77907-8.98138,58.59194,58.59194,0,0,0-4.32758-4.04051,49.92992,49.92992,0,0,0-7.80078-5.75931,58.79458,58.79458,0,0,0-9.98511-4.77546,54.83631,54.83631,0,0,0-9.63425-2.617,34.30769,34.30769,0,0,0-5.03983-.75862S111.86,54.67573,113.742,58.53179c2.59529,5.31749,5.2125,10.62428,7.79714,15.94693a8.63959,8.63959,0,0,0,1.70522,2.39163c7.85461,7.8275,24.87538,24.95189,24.87538,24.95189-3.05673,3.05772-6.01153,6.0135-8.90814,8.911.74695,1.64879,10.72695,22.19751,10.72695,22.19751.22936-.37473.54994-.77969.68739-1.01416.14637-.24969.269-.51465.4297-.75432a51.37906,51.37906,0,0,0,5.03737-10.44148,60.13207,60.13207,0,0,0,2.3658-8.81486,36.359,36.359,0,0,0,.891-5.64451C159.36052,102.48955,159.55842,98.70143,158.88354,94.94187Zm-35.14339-29.632a.84083.84083,0,1,1-.30078-1.15043A.84084.84084,0,0,1,123.74015,65.30983ZM125.49654,62.31a.84083.84083,0,1,1-.30078-1.15045A.84082.84082,0,0,1,125.49654,62.31Zm1.77744-3.03583a.84083.84083,0,1,1-.30076-1.15045A.84083.84083,0,0,1,127.274,59.27416Zm5.338,13.11772a.84083.84083,0,1,1,.01807-1.189A.84082.84082,0,0,1,132.612,72.39188Zm2.49511-2.42041a.84084.84084,0,1,1,.01807-1.189A.84082.84082,0,0,1,135.1071,69.97147Zm2.525-2.44946a.84083.84083,0,1,1,.01807-1.189A.84085.84085,0,0,1,137.63212,67.522Zm12.7506,35.21822a.84084.84084,0,1,1,.84084-.84084A.84083.84083,0,0,1,150.38272,102.74023Zm3.47622,0a.84084.84084,0,1,1,.84082-.84084A.84084.84084,0,0,1,153.85894,102.74023Zm3.51788,0a.84084.84084,0,1,1,.84084-.84084A.84084.84084,0,0,1,157.37682,102.74023Z" style="fill: #fff"/>
          <path d="M91.1447,46.11841A61.65112,61.65112,0,0,0,79.68154,49.894a56.59128,56.59128,0,0,0-14.37736,9.30491,54.34157,54.34157,0,0,0-6.06029,6.27453,60.54444,60.54444,0,0,0-8.33566,13.33793A59.86867,59.86867,0,0,0,46.679,92.82359c-.24549,1.35806-.44529,2.75613-.56821,4.13611-.01905.21392-.17322,2.72793-.17329,4.73652a.84172.84172,0,1,1,.00238.414l.00072.08579a59.48693,59.48693,0,0,0,5.05982,22.9425A34.09981,34.09981,0,0,0,54.97015,132.12c3.495-7.14825,6.876-14.06345,10.31718-21.10152l-9.46295-9.42961s17.99514-17.68008,26.17384-25.846a7.39024,7.39024,0,0,0,1.50967-2.10384c1.46135-3.09286,13.87389-28.52549,13.87389-28.52549C96.74086,45.11358,92.59648,45.77818,91.1447,46.11841ZM50.227,102.74023a.84084.84084,0,1,1,.84084-.84084A.84084.84084,0,0,1,50.227,102.74023Zm3.51788,0a.84084.84084,0,1,1,.84084-.84084A.84084.84084,0,0,1,53.74492,102.74023ZM67.82189,67.504a.84084.84084,0,1,1-.01807-1.189A.84086.84086,0,0,1,67.82189,67.504Zm2.525,2.44943a.84084.84084,0,1,1-.01807-1.189A.84082.84082,0,0,1,70.34691,69.9534ZM72.842,72.37381a.84083.84083,0,1,1-.01807-1.189A.84083.84083,0,0,1,72.842,72.37381ZM78.1415,59.57494a.84084.84084,0,1,1,.30076-1.15045A.84082.84082,0,0,1,78.1415,59.57494Zm1.77744,3.03581a.84083.84083,0,1,1,.30078-1.15043A.84082.84082,0,0,1,79.91894,62.61075Zm1.75639,2.99986a.84083.84083,0,1,1,.30078-1.15045A.84083.84083,0,0,1,81.67533,65.61061Z" style="fill: #fff"/>
        </g>
        <g class="orbits">
          <circle cx="102.46408" cy="101.73894" r="61.9439" style="fill: #fff;opacity: 0"/>
          <circle cx="40.52018" cy="101.89939" r="1.46792" style="fill: #fff"/>
          <circle cx="48.26979" cy="71.68681" r="1.46792" style="fill: #fff"/>
          <circle cx="58.22928" cy="58.35426" r="1.46792" style="fill: #fff"/>
          <circle cx="49.04496" cy="133.14901" r="1.46792" style="fill: #fff"/>
          <circle cx="164.40799" cy="101.89939" r="1.46792" style="fill: #fff"/>
          <circle cx="156.64583" cy="71.68681" r="1.46792" style="fill: #fff"/>
          <circle cx="146.6765" cy="58.35426" r="1.46792" style="fill: #fff"/>
          <circle cx="156.00155" cy="132.93079" r="1.46792" style="fill: #fff"/>
        </g>
        <path d="M83.50937,156.475a86.79446,86.79446,0,0,0,38.78562,0Z" style="fill: #fff"/>
      </g>
    </g>
  </g>
</svg>
