<svg xmlns="http://www.w3.org/2000/svg" viewBox="0 0 204.40449 204.40449">
  <title>bergusia</title>
  <g class="Layer_2" data-name="Layer 2">
    <g class="base2">
      <g class="polygon inner ani" style="opacity: 0.4">
        <path d="M102.20234,27.26949,173.18428,64.5522V138.999l-70.98194,37.28269L31.22043,138.999V64.5522l70.98191-37.28271m0-.84716L30.47043,64.099v75.35329l71.73191,37.67662,71.73194-37.67662V64.099L102.20234,26.42233Z" style="fill: #fff"/>
      </g>
      <g class="polygon inner" style="opacity: 0.2">
        <path d="M145.1302,27.849l42.92792,74.35326L145.1302,176.5555H59.27446L16.34659,102.20224,59.27446,27.849H145.1302m.57736-1H58.69711L15.19189,102.20224,58.69711,177.5555h87.01045l43.50525-75.35326L145.70756,26.849Z" style="fill: #fff"/>
      </g>
      <g class="polygon" style="opacity: 0.2">
        <path d="M102.20234,27.26949,173.18428,64.5522V138.999l-70.98194,37.28269L31.22043,138.999V64.5522l70.98191-37.28271m0-.84716L30.47043,64.099v75.35329l71.73191,37.67662,71.73194-37.67662V64.099L102.20234,26.42233Z" style="fill: #fff"/>
      </g>
      <polygon class="berry" points="158.658 131.429 158.658 72.123 102.202 42.47 45.747 72.123 45.747 131.429 102.202 161.081 158.658 131.429" style="fill: #573441;opacity: 0.8"/>
      <g class="berry-border" style="opacity: 0.2">
        <path d="M102.20234,43.59933,157.658,72.727v58.09719l-55.45569,29.12767L46.74666,130.82419V72.727l55.45568-29.12767m0-1.12954L45.74666,72.1227v59.3058l56.45568,29.65291L158.658,131.4285V72.1227L102.20234,42.46979Z" style="fill: #fff"/>
      </g>
    </g>
    <g class="bergusia">
      <g>
        <rect x="69.59421" y="121.25394" width="1.88538" height="3.14859" transform="translate(-56.07681 59.33651) rotate(-33.50049)" style="fill: #fff"/>
        <rect x="63.94813" y="107.53357" width="1.88538" height="3.14858" transform="translate(-19.62892 14.3885) rotate(-11.00144)" style="fill: #fff"/>
        <rect x="138.57118" y="92.8691" width="1.88538" height="3.14858" transform="translate(-15.45955 28.36076) rotate(-11.00187)" style="fill: #fff"/>
        <rect x="108.76401" y="62.92405" width="1.88541" height="3.14863" transform="translate(24.63499 159.14721) rotate(-78.50231)" style="fill: #fff"/>
        <rect x="122.45824" y="68.63348" width="1.88534" height="3.14854" transform="translate(-3.80699 133.25586) rotate(-56.00171)" style="fill: #fff"/>
        <rect x="132.92508" y="79.14871" width="1.88536" height="3.14868" transform="translate(-22.31657 87.29888) rotate(-33.50112)" style="fill: #fff"/>
        <rect x="107.96026" y="138.14449" width="3.14863" height="1.88533" transform="translate(-24.52953 23.45898) rotate(-11.00144)" style="fill: #fff"/>
        <rect x="137.90533" y="108.33739" width="3.14855" height="1.88534" transform="matrix(0.19934, -0.97993, 0.97993, 0.19934, 4.58934, 224.17701)" style="fill: #fff"/>
        <rect x="132.19592" y="122.0315" width="3.14866" height="1.88538" transform="matrix(0.55918, -0.82905, 0.82905, 0.55918, -42.98254, 165.11185)" style="fill: #fff"/>
        <rect x="121.68064" y="132.49841" width="3.14856" height="1.88532" transform="matrix(0.83389, -0.55193, 0.55193, 0.83389, -53.1761, 90.19306)" style="fill: #fff"/>
        <rect x="80.06111" y="131.7693" width="1.88534" height="3.14854" transform="translate(-74.84 125.93861) rotate(-56.00171)" style="fill: #fff"/>
        <rect x="93.75528" y="137.47863" width="1.88534" height="3.14858" transform="translate(-60.44308 204.12733) rotate(-78.50009)" style="fill: #fff"/>
        <rect x="93.2958" y="63.52143" width="3.14862" height="1.88539" transform="translate(-10.55669 19.28502) rotate(-10.99922)" style="fill: #fff"/>
        <rect x="63.35074" y="93.32852" width="3.14863" height="1.88541" transform="translate(-40.39755 139.09839) rotate(-78.50009)" style="fill: #fff"/>
        <rect x="69.06011" y="79.63437" width="3.14866" height="1.88538" transform="translate(-35.66529 94.07723) rotate(-55.99983)" style="fill: #fff"/>
        <path d="M99.93557,68.53736,99.58632,56.442l-1.75.05062.28532,9.88054-5.55407,1.07972-3.43045-9.25-1.64141.60883,4.21216,11.35789a33.0645,33.0645,0,0,0-4.30868,1.78942L82.437,60.894l-1.5975.71641,4.04487,9.01935-4.71813,3.12287-6.70916-7.233-1.28357,1.19066,8.26661,8.912a33.48351,33.48351,0,0,0-3.2955,3.29862l-8.84783-8.35107-1.20174,1.27312,7.18852,6.78491L71.1197,84.31861l-8.96637-4.115-.73022,1.59116L72.4927,86.87506a33.06606,33.06606,0,0,0-1.78519,4.30582l-11.389-4.33679-.623,1.63619,9.23763,3.51751-1.12786,5.5445-9.85864-.37052-.0658,1.74949,12.20067.45845q-.08152,1.16624-.082,2.35347,0,1.16268.07873,2.306l-12.2095.35248.05049,1.75L66.8,105.85629l1.07972,5.55407-9.25,3.43045.6087,1.64154,11.4523-4.24724a33.059,33.059,0,0,0,1.77735,4.30669l-11.14744,4.9991.71641,1.5975,9.01935-4.04475,3.123,4.71813-7.233,6.709,1.19054,1.28357,8.96151-8.31226a33.49189,33.49189,0,0,0,3.28543,3.30284l-8.38739,8.88614,1.27325,1.20174,6.78491-7.18852,4.69077,3.16391-4.115,8.96637,1.59116.73022,5.09026-11.09148a33.07847,33.07847,0,0,0,4.29836,1.80049l-4.33928,11.3957,1.63606.623,3.51764-9.23776,5.54437,1.128-.37039,9.85852,1.74949.0658.45758-12.17742q1.22369.08974,2.47076.0903,1.10409,0,2.19053-.07089l.35149,12.17007,1.75-.0505L106.283,137.178l5.55407-1.07959,3.43045,9.24982,1.64141-.60871-4.224-11.38973a33.04887,33.04887,0,0,0,4.31639-1.76678l4.96627,11.07431,1.59738-.71641-4.04475-9.01935,4.71813-3.123,6.70916,7.233,1.28357-1.19054-8.24423-8.888a33.48184,33.48184,0,0,0,3.31367-3.28443l8.80728,8.31289,1.20161-1.27313-7.18839-6.78491,3.16391-4.69077,8.96637,4.1149.73022-1.59116-10.98389-5.04089a33.05505,33.05505,0,0,0,1.80546-4.3047l11.283,4.29625.623-1.63606-9.23763-3.51752,1.12786-5.54449,9.85864.37052.06567-1.74949-12.05888-.45324q.08787-1.21044.08843-2.44364,0-1.12182-.07326-2.22536l12.0559-.34825-.05049-1.75-9.88067.28532L136.525,92.14083,145.775,88.7105l-.60883-1.64153-11.29521,4.1889a33.06851,33.06851,0,0,0-1.77859-4.31826l10.9916-4.92932-.71629-1.59738-9.01935,4.04475-3.123-4.71813,7.233-6.709-1.19054-1.28357-8.83863,8.19821a33.49793,33.49793,0,0,0-3.29749-3.30632l8.27657-8.76861L131.135,66.66847l-6.78491,7.18839-4.69077-3.16379,4.115-8.96636-1.59116-.73035-5.03081,10.962a33.06688,33.06688,0,0,0-4.31229-1.79029l4.29376-11.2763-1.63619-.623-3.51751,9.23775-5.5445-1.128.37052-9.85864-1.74949-.06567-.454,12.08214q-1.15278-.07967-2.32635-.08Q101.09594,68.45639,99.93557,68.53736Zm34.85066,33.19582A32.50982,32.50982,0,1,1,102.27635,69.2233,32.50982,32.50982,0,0,1,134.78623,101.73318Z" style="fill: #fff;fill-rule: evenodd"/>
        <rect x="79.57546" y="69.1675" width="3.14854" height="1.88541" transform="translate(-25.21686 56.44025) rotate(-33.50237)" style="fill: #fff"/>
        <path d="M131.48214,101.73318a29.20573,29.20573,0,1,0-29.20579,29.20567A29.20575,29.20575,0,0,0,131.48214,101.73318Zm-5.78218,0a23.42355,23.42355,0,1,0-23.42361,23.42362A23.42363,23.42363,0,0,0,125.7,101.73318Z" style="fill: #fff;fill-rule: evenodd"/>
        <path d="M78.91244,103.418q.04327.6082.11716,1.20758H86.668a15.87477,15.87477,0,0,0,31.21685,0h7.63838q.0737-.59925.11717-1.20758H112.4896a10.35152,10.35152,0,0,1-20.42637,0H78.91244Z" style="fill: #fff;fill-rule: evenodd"/>
        <path d="M125.64039,100.04837q-.04329-.60821-.11717-1.20758h-7.63838a15.87477,15.87477,0,0,0-31.21685,0H79.0296q-.0737.59925-.11716,1.20758H92.06323a10.35152,10.35152,0,0,1,20.42637,0h13.15079Z" style="fill: #fff;fill-rule: evenodd"/>
      </g>
    </g>
  </g>
</svg>
