<svg xmlns="http://www.w3.org/2000/svg" viewBox="0 0 204.40449 204.40449">
  <g class="Layer_2" data-name="Layer 2">
    <g class="base2">
      <g class="polygon inner ani" style="opacity: 0.4">
        <path d="M102.20234,27.26949,173.18428,64.5522V138.999l-70.98194,37.28269L31.22043,138.999V64.5522l70.98191-37.28271m0-.84716L30.47043,64.099v75.35329l71.73191,37.67662,71.73194-37.67662V64.099L102.20234,26.42233Z" style="fill: #fff"/>
      </g>
      <g class="polygon inner" style="opacity: 0.2">
        <path d="M145.1302,27.849l42.92792,74.35326L145.1302,176.5555H59.27446L16.34659,102.20224,59.27446,27.849H145.1302m.57736-1H58.69711L15.19189,102.20224,58.69711,177.5555h87.01045l43.50525-75.35326L145.70756,26.849Z" style="fill: #fff"/>
      </g>
      <g class="polygon" style="opacity: 0.2">
        <path d="M102.20234,27.26949,173.18428,64.5522V138.999l-70.98194,37.28269L31.22043,138.999V64.5522l70.98191-37.28271m0-.84716L30.47043,64.099v75.35329l71.73191,37.67662,71.73194-37.67662V64.099L102.20234,26.42233Z" style="fill: #fff"/>
      </g>
      <polygon class="berry" points="158.658 131.429 158.658 72.123 102.202 42.47 45.747 72.123 45.747 131.429 102.202 161.081 158.658 131.429" style="fill: #573441;opacity: 0.8"/>
      <g class="berry-border" style="opacity: 0.2">
        <path d="M102.20234,43.59933,157.658,72.727v58.09719l-55.45569,29.12767L46.74666,130.82419V72.727l55.45568-29.12767m0-1.12954L45.74666,72.1227v59.3058l56.45568,29.65291L158.658,131.4285V72.1227L102.20234,42.46979Z" style="fill: #fff"/>
      </g>
    </g>
    <g class="gofannon">
      <g>
        <path d="M82.55323,92.30223l-4.517-7.40293L76.94076,81.552,72.498,74.91823l-.79122-.54769.18268,1.70414L77.379,101.22211l-17.5045,30.17561h84.65573l-17.35666-29.99537,5.52891-25.32767.18267-1.70414-.79122.54769L127.65112,81.552l-1.09548,3.3473-4.58413,7.513L120.5432,89.944l3.02816-4.69017-1.54263-3.64111h-6.30635l-13.46728-23.274-13.501,23.274H82.56316l-1.54263,3.64111,2.961,4.58622Zm-4.27357,18.32713-1.15634.68329v.6694l1.15634.80444v17.33263H62.09444l15.68869-27.04548.49653,2.27464Zm.82209,19.48976,1.24718-13.26819,3.16761,13.26819Zm8.92825,0-1.22987-2.73943-.12171-3.52987,3.52987-5.59914-.42609-2.5562-.12171-4.01671L86.80013,99.26232l-3.48908-5.7182,1.44914-2.498,4.46793,6.92029h5.12244l.8018-.864V81.61274h-4.92l12.02134-20.72337,11.99147,20.72337h-4.80561V97.10243l.8018.864h5.12244l4.40046-6.81578,1.449,2.50428-3.4215,5.60741-2.86037,12.41545-.12171,4.01671-.42609,2.5562,3.52987,5.59914-.1217,3.52987-1.22988,2.73943h-4.15957V119.68858l-.92638-1.29579.67888-2.15988V105.063l1.97478-4.31954h-3.641l-1.11081,2.65355v26.72214H107.3502V98.29052h-2.51365a3.91544,3.91544,0,0,1-5.26962,0H97.05449v31.8286h-1.8404V103.397l-1.1108-2.65355H90.4624l1.97467,4.31954v11.16994l.67888,2.15988-.92626,1.29579v10.43054Zm14.94807,0,.11112-17.89057h.63831v-.77468h-.63345l.02855-4.59967h-1.84051l.02855,4.59967h-.63345v.77468h.6383l.11113,17.89057h-.84479l-.51484-17.48047-.93475-.12413v-1.37065l.88382-.23261-.15732-5.33885H104.546l-.15732,5.33885.88393.23261v1.37065l-.93475.12413-.51495,17.48047Zm18.09727,0,3.16762-13.26819,1.24718,13.26819Zm5.23688,0V112.78649l1.15634-.80444v-.6694l-1.15634-.68329v-5.28108l.45674-2.09219,15.544,26.863Z" style="fill: #fff;fill-rule: evenodd"/>
        <path d="M99.8411,96.27969a2.522,2.522,0,0,0,4.7226,0h2.7865V74.9642H97.05449V96.27969Zm3.98992-.88481a1.62868,1.62868,0,1,1-1.62862-1.62873A1.62861,1.62861,0,0,1,103.831,95.39488Z" style="fill: #fff;fill-rule: evenodd"/>
      </g>
    </g>
  </g>
</svg>
