<svg xmlns="http://www.w3.org/2000/svg" viewBox="0 0 204.40449 204.40449">
  <title>izanami</title>
  <g class="Layer_2" data-name="Layer 2">
    <g class="base2">
      <g class="polygon inner ani" style="opacity: 0.4">
        <path d="M102.20234,27.26949,173.18428,64.5522V138.999l-70.98194,37.28269L31.22043,138.999V64.5522l70.98191-37.28271m0-.84716L30.47043,64.099v75.35329l71.73191,37.67662,71.73194-37.67662V64.099L102.20234,26.42233Z" style="fill: #fff"/>
      </g>
      <g class="polygon inner" style="opacity: 0.2">
        <path d="M145.1302,27.849l42.92792,74.35326L145.1302,176.5555H59.27446L16.34659,102.20224,59.27446,27.849H145.1302m.57736-1H58.69711L15.19189,102.20224,58.69711,177.5555h87.01045l43.50525-75.35326L145.70756,26.849Z" style="fill: #fff"/>
      </g>
      <g class="polygon" style="opacity: 0.2">
        <path d="M102.20234,27.26949,173.18428,64.5522V138.999l-70.98194,37.28269L31.22043,138.999V64.5522l70.98191-37.28271m0-.84716L30.47043,64.099v75.35329l71.73191,37.67662,71.73194-37.67662V64.099L102.20234,26.42233Z" style="fill: #fff"/>
      </g>
      <polygon class="berry" points="158.658 131.429 158.658 72.123 102.202 42.47 45.747 72.123 45.747 131.429 102.202 161.081 158.658 131.429" style="fill: #573441;opacity: 0.8"/>
      <g class="berry-border" style="opacity: 0.2">
        <path d="M102.20234,43.59933,157.658,72.727v58.09719l-55.45569,29.12767L46.74666,130.82419V72.727l55.45568-29.12767m0-1.12954L45.74666,72.1227v59.3058l56.45568,29.65291L158.658,131.4285V72.1227L102.20234,42.46979Z" style="fill: #fff"/>
      </g>
    </g>
    <g class="izanami">
      <path d="M93.66367,96.084l-.59517,1.07132.71421.83324,1.07131-.3571.59517-.59518v-.83324l-.59517-.71421Zm16.903,8.09438-.59518.83324.23807.95228.71421-.95228.71421-.59518Zm-.23807,3.69008-.47614,1.78552.59517.59518.35711-1.07132ZM93.5413,117.27225c.25045.0125.51911.03488.80349.07559,2.95563.52137,5.32312,3.17966,6.58537,4.91626.32413.49519.64874,1.0393.97239,1.63721l.42031.78813.00084-.00191.00083.00191.42031-.78813c.32378-.598.64851-1.14226.97264-1.63745,1.26224-1.7366,3.62961-4.39453,6.58489-4.9159.28449-.04083.55315-.06321.80384-.07571h6.3723V96.20308h19.32591l.67612,1.07131-4.16622,12.73674L129.26713,97.9886h-1.54745l-.97407.97406c0,2.07026.00012,12.27476.00012,18.30959h12.68686l.53566-.3571.59517-1.19035,1.07132.119.95228,1.07131.15308.3571h1.38a46.89354,46.89354,0,0,0,.95656-9.45268c0-24.73712-19.19545-44.79045-42.87435-44.79045S59.32805,83.08245,59.32805,107.81957a46.89354,46.89354,0,0,0,.95657,9.45268H77.49921l.00023-18.66395-.61969-.6197H75.33229l-4.04718,12.02253L67.11889,97.27439l.67611-1.07131H86.76643v21.06917Zm23.92745-22.8547a15.35605,15.35605,0,0,0-30.69256,0H68.54457V92.27492h9.10022a24.62538,24.62538,0,0,1,48.95548,0h9.45459v2.14263ZM68.83132,127.24738H94.00923a3.33568,3.33568,0,0,1,1.189.27235,9.20924,9.20924,0,0,1,1.32926.69159,13.16578,13.16578,0,0,1,2.36177,1.9417,11.52713,11.52713,0,0,1,2.95778,4.924l.83134,3.37642.74064-3.43475a10.50011,10.50011,0,0,1,2.65293-5.0616,7.71605,7.71605,0,0,1,5.40192-2.70971h24.33871v3.66854l7.57241-5.33848-31.93457.00012c-3.97505.0344-7.4304,3.32012-8.89429,6.77189a14.62268,14.62268,0,0,0-6.70142-6.36515,5.00839,5.00839,0,0,0-1.79838-.40627l-32.75377-.00059,7.52872,5.47537Z" style="fill: #fff;fill-rule: evenodd"/>
    </g>
  </g>
</svg>
