<svg xmlns="http://www.w3.org/2000/svg" viewBox="0 0 204.40449 204.40449">
  <title>volundr</title>
  <g class="Layer_2" data-name="Layer 2">
    <g class="base2">
      <g class="polygon inner ani" style="opacity: 0.4">
        <path d="M102.20234,27.26949,173.18428,64.5522V138.999l-70.98194,37.28269L31.22043,138.999V64.5522l70.98191-37.28271m0-.84716L30.47043,64.099v75.35329l71.73191,37.67662,71.73194-37.67662V64.099L102.20234,26.42233Z" style="fill: #fff"/>
      </g>
      <g class="polygon inner" style="opacity: 0.2">
        <path d="M145.1302,27.849l42.92792,74.35326L145.1302,176.5555H59.27446L16.34659,102.20224,59.27446,27.849H145.1302m.57736-1H58.69711L15.19189,102.20224,58.69711,177.5555h87.01045l43.50525-75.35326L145.70756,26.849Z" style="fill: #fff"/>
      </g>
      <g class="polygon" style="opacity: 0.2">
        <path d="M102.20234,27.26949,173.18428,64.5522V138.999l-70.98194,37.28269L31.22043,138.999V64.5522l70.98191-37.28271m0-.84716L30.47043,64.099v75.35329l71.73191,37.67662,71.73194-37.67662V64.099L102.20234,26.42233Z" style="fill: #fff"/>
      </g>
      <polygon class="berry" points="158.658 131.429 158.658 72.123 102.202 42.47 45.747 72.123 45.747 131.429 102.202 161.081 158.658 131.429" style="fill: #573441;opacity: 0.8"/>
      <g class="berry-border" style="opacity: 0.2">
        <path d="M102.20234,43.59933,157.658,72.727v58.09719l-55.45569,29.12767L46.74666,130.82419V72.727l55.45568-29.12767m0-1.12954L45.74666,72.1227v59.3058l56.45568,29.65291L158.658,131.4285V72.1227L102.20234,42.46979Z" style="fill: #fff"/>
      </g>
    </g>
    <g class="volundr">
      <g>
        <path d="M70.02607,73.16755H94.30271l4.07078,7.99153-1.50791,2.111-.7539.4524.1508,1.0554-.30161,1.0555-.60309.90471-.15081.60321-.7539.45229-.6031.15081.6031.6031.90471-.4523L94.15147,89.603l-.7539.7539,1.2063.15081,1.357-.6031V88.54752l.45241-1.2062,1.357-.45241.1508-2.2617L98.675,83.5717l.4524,1.2062v22.16729H80.42955l-2.56264-4.97792-.60321-1.80941,1.05551.45241,1.5078,1.05551-.6031-2.26182-.9047-.4523-.15081-1.8094-1.0555-2.26182-1.80941.30161-4.825-7.69-.30161-1.0554-1.5078-1.65871.1508-3.16641,1.05551.1508Zm-1.80941.30161h-2.1109l.30149,1.5078,1.05551.9047.9047-.6031ZM68.066,76.78637l-.45241.9047.6031.45241.45241-.7539Zm-10.25335,5.579v8.44527l8.59463,15.37852h3.622l-3.2304-7.1227.21158-1.77353-1.50791-.6031L59.18291,84.37521ZM62.2293,94.74271l-.04916,1.71972,1.474.39306.344-.58959-.68791-.54054-.39306-1.03181ZM95.79811,82.92907l-.917-.1467-.25676.25676.10994.44023.88046.33006.36682-.33006Zm16.057-9.03375-.57719-.04119L106.59322,82.076V106.8234h18.13272l4.68262-8.87952.16442-1.2744-.24657-.65769-1.52109-.04119-.65769-.74.36992-.73995.98664-.2055,1.15106.32885.04108.73995.6166.24668.53446-.37L141.289,77.01955l-.28777-.82222.45219-.69876L140.919,73.9364H126.572l-.78091,6.70074-.94556.32885.24668,3.08314-.28776.82222.08215,1.02771,1.35667.57553-.41111,2.50762-.73995.69876-.08226,1.80885.37,1.10987-.08227,1.27441-.65768,1.891-.78114-1.27441.57553-1.39763.04119-1.23333-.24669-1.76766.16442-1.15106.2055-1.64432-.65769-1.6854-.57552-1.39775-.781-1.31548-.74.04108V94.03852l-.94556.73995-1.31548.12334V91.5309l.90437-.49326.12334-1.06891-.49326-.65768-.69887-.28776.16442-5.0975.6166-1.19214.08227-6.86516-1.15106-1.93209h-4.687v17.513l-1.23255.20484-.12335,1.56216-.24668,2.3432-1.11.28776-.86319-.73995.2055-1.60324.90437-.16454.49338-1.10987.12323-.69887-.69876-.53445V84.25352l-.45219-.36881-.90448-.08227-.61661-.32884.61661-.61661.94556-.16442.41111-.4111Zm7.194,22.77416-.411,1.43882.90437,1.43882,1.15106.61661.86329-.08215.04108-1.35667-.49337-1.56206-.69877-.86329-.53445-.37Zm13.48375,9.085-.49338.94556h1.76822l.12279-.74-.24669-.37-.45218-.36992Zm2.17866-1.72659.82222.98664-.24669.61661-.49326,1.11h3.57674l8.2215-14.30586V83.59683h-.62215l-.24115.78114-.20561,1.11-.73995,1.60325-.781,2.58977-8.83832,12.826-.16454.94556-.12323.53434Zm-55.0751,15.60053H76.32224l-.10054.61162.40779.81546.96826.66256,1.07034,1.12127.1529,2.0386-.86639.91744-1.32511.15291.50965,1.12116,1.63092.30581.45861.45872-.40768.25488-1.1722.56058,5.14754,8.15452h5.50451l-.50987-1.478Zm-4.485,0H73.01023l.15357.96836.96826.40779.1529.91733.35686.66255.81535-.10186v-1.7329Zm23.80109.051h-12.079l9.22486,16.97158h.56069l.66256-.56058.45872.30581.35674.25477h1.02052V122.63551l-.61284.35674-.71349,1.63092-.8664.91733-.20394.81546-1.12117.91744-1.07034.61151.50965-1.22314.76453-1.32511.20384-1.27418,1.12127-1.376.76453-1.32512,1.17221-.76453.10186-.66255Zm1.478,15.34077-.30581.50965.05093.76442.40779.45872.40767-.50966-.05093-.96836Zm17.17553-15.34077h-10.805v17.12482h.81724Zm13.70985,0h-3.92474l-.40745.50965h-.50965l-.61152-.50965h-1.58077l-2.44561,4.84173v.86639l-.76442.40779-6.014,11.00858h6.72754l4.53592-8.4094-.10186-.91732.66255-.25488.45861-.56059-.35674-.61162h-.71349l-.8664.35674-.7136.30582.102-.76442.40779-1.22325.71348-.61152.66256-.102.35674.50965.45872.40779,1.0193-.05105Z" style="fill: #fff;fill-rule: evenodd"/>
        <path d="M106.33258,112.7575l-.48031.43226.57642.24015,1.10466-.144-.1921-.38432-.67241-.43225Zm3.89064,0-.57642.24016.28821.28821.86451.0961.57642-.33626-.52836-.38431Zm24.447.83163-.4792-.44731-1.20088-.14416-.48031-.96062-.67241-.81657-.96062-.28821-1.20077.04806-.48031-.38421,1.00867-.33626,2.7378.48031,1.87319-.57641-.7053-.4069h-25.11l-.45805.79121-2.3535-.04805-1.96929-.28821-2.06539.1921-1.77719-.2881-2.40154-.2882-3.17018.33615-.89518-.4069H86.61168l-1.46108.35895-1.82524.24016-3.45827-.19221-.73752-.4069H68.00341l1.29666.88732,1.393,1.20077h1.68109l-.096.96062-1.10478.86451-1.0823.34324,1.15848,2.17146H83.74743l-.374-.2572.09611-.76852,1.00867.09611,1.68108.57641,2.11334-.09611,2.20955.43226.03776.017h24.30366l.29883-.3532-.86462-.62447-1.00867-1.05672,1.24883-1.15272,1.15283-1.20077.096.81657-.52825.91256v.67241l1.15272.76852,1.34493.43225,1.00856-.1921.43237-.62436.43225-.72046-.3842-.57641.2881-.57642.91267.09611.33615.81657-.04794.62435.52825.62447.04806.86451.321.44931h11.69405Z" style="fill: #fff;fill-rule: evenodd"/>
      </g>
    </g>
  </g>
</svg>
