<svg xmlns="http://www.w3.org/2000/svg" viewBox="0 0 204.40449 204.40449">
  <g id="Layer_2" data-name="Layer 2">
    <g id="gambit">
      <g style="opacity: 0.15">
        <polygon points="102.361 7.169 135.896 68.485 197.213 102.021 135.896 135.556 102.361 196.872 68.826 135.556 7.509 102.021 68.826 68.485 102.361 7.169" style="fill: none;stroke: #fff;stroke-miterlimit: 10"/>
        <polygon points="162.724 41.657 149.994 102.021 162.724 162.384 102.361 149.654 41.998 162.384 54.728 102.021 41.998 41.657 102.361 54.387 162.724 41.657" style="fill: none;stroke: #fff;stroke-miterlimit: 10"/>
      </g>
      <circle cx="102.36121" cy="102.0205" r="51.97753" style="fill: #1f3e39"/>
      <g>
        <path d="M131.52089,88.78758a4.82211,4.82211,0,0,1,1.60743,4.32573,7.64331,7.64331,0,0,1-.56959,2.23667,4.6049,4.6049,0,0,1-2.34171,2.31326l-.02952.01143a5.74127,5.74127,0,0,1-2.46921.6078,1.98788,1.98788,0,0,1-1.4631-.65425l-.00151-.00169c-1.06274-1.12578-2.11547-2.26157-3.18816-3.37751a1.587,1.587,0,0,1-.49848-1.15646l.00027-.03067v.0015a1.15,1.15,0,0,1,1.076-1.3201l2.98063-.70078A7.66451,7.66451,0,0,0,130.41,89.103a.93788.93788,0,0,1,1.11088-.31551Z" style="fill: #fff"/>
        <path d="M73.25815,115.22635a4.74316,4.74316,0,0,1-1.7286-3.336c-.01091-.1422-.01711-.308-.01711-.47526a6.5708,6.5708,0,0,1,.76346-3.08426l-.01729.03581a5.26541,5.26541,0,0,1,3.76111-2.57549c.166-.03821.33209-.03325.49822-.0664a1.97349,1.97349,0,0,1,1.94616.651c1.09759,1.16231,2.1802,2.34128,3.27947,3.50536a1.49077,1.49077,0,0,1,.30053,1.54262,1.147,1.147,0,0,1-.95814.807c-1.18057.26569-2.368.5148-3.53195.8452a6.3465,6.3465,0,0,0-3.20979,1.77515,1.15882,1.15882,0,0,1-1.086.37525Z" style="fill: #fff"/>
        <path d="M85.69049,118.37967a8.36483,8.36483,0,0,1-.93083.30079l-.06543.01462a10.69714,10.69714,0,0,0-3.14924,1.157l.05408-.02784a14.77,14.77,0,0,0-1.79076,1.24529l.02731-.02146a1.93708,1.93708,0,0,0-.36365.53971l-.3968.61276a5.6834,5.6834,0,0,1-1.93614-1.05611c-.86346-.77383-1.6904-1.58916-2.539-2.37957a1.47892,1.47892,0,0,1-.40345-1.59244,4.11789,4.11789,0,0,1,1.786-2.38773L76,114.77457a11.65838,11.65838,0,0,1,5.28378-1.54926.74993.74993,0,0,1,.46658.78208,2.98232,2.98232,0,0,0,.83119,1.9388l-.001-.001a6.62067,6.62067,0,0,0,2.436,1.815,5.81606,5.81606,0,0,1,.71931.40549l-.0218-.01357Z" style="fill: #fff"/>
        <path d="M123.12191,90.61574a3.66652,3.66652,0,0,1-.16418-.73386l-.00177-.01844a2.48315,2.48315,0,0,0-.63147-1.58658l.00213.00239a6.70022,6.70022,0,0,0-2.52071-1.96938,6.44016,6.44016,0,0,1-.85007-.51161l.01977.01339a.94594.94594,0,0,1,.80034-.475,13.746,13.746,0,0,0,3.12726-1.07374l-.08191.03591a7.9567,7.9567,0,0,0,1.99943-1.31949l-.00682.006a2.34711,2.34711,0,0,0,.3741-.52029l.00611-.01277c.11622-.18093.21419-.37189.31383-.548a2.3675,2.3675,0,0,1,1.49448.55469,20.15726,20.15726,0,0,1,3.21971,2.85607,1.37523,1.37523,0,0,1,.28891,1.39315,3.69038,3.69038,0,0,1-.83358,1.61115l.00327-.00372a5.59133,5.59133,0,0,1-2.83949,1.76185c-.6991.166-1.39147.35363-2.08729.52641a3.16775,3.16775,0,0,1-.83846.11028,3.247,3.247,0,0,1-.8163-.10364l.02252.005Z" style="fill: #fff"/>
        <path d="M84.48493,133.04708c.39352.35531.80034.72569,1.21212,1.09094a1.53623,1.53623,0,0,1,.48812,1.73428l.00345-.01064a1.95135,1.95135,0,0,0-.10079.6257,1.98912,1.98912,0,0,0,.11844.67845l-.00443-.01383c.18093.553.08634.67756-.55629,1.02117a2.65847,2.65847,0,0,0-1.21222-.288,2.70859,2.70859,0,0,0-.45247.03785l.01587-.00222c-.04291.0032-.09291.00506-.14335.00506a2.042,2.042,0,0,1-.97508-.24618l.01082.0054c-1.2022-.61772-2.38454-1.27356-3.55854-1.94447a3.16737,3.16737,0,0,1-1.25211-1.26842l-.00824-.01685a2.1077,2.1077,0,0,0-2.84446-.91993,6.7342,6.7342,0,0,0-1.15779.53714l.032-.01737a10.27094,10.27094,0,0,0-1.01843.82348l.00709-.00648c-1.48623-.89174-2.06565-2.58542-3.2612-3.7096a1.91636,1.91636,0,0,1,1.64722-1.702c.29884-.04646.59122-.13449.88669-.19929a3.113,3.113,0,0,1,2.798.90167.54145.54145,0,0,1,.13324.20213l.00124.00372a1.58036,1.58036,0,0,1,.04459.29264l.00018.00461H73.82747c-.57791.58457-.61772,1.34164-.1312,2.41778.10461-.33208.191-.5679.259-.81532.166-.60283.28723-.74556.9116-.73235.71408.015,1.42808.10293,2.14039.18927.73891.08963,1.48287.17438,2.20847.33209a8.47291,8.47291,0,0,1,1.86008.59458l-.05336-.02172a4.15818,4.15818,0,0,0,3.19312.39848c.023-.00221.04991-.00345.077-.00345a.8608.8608,0,0,1,.19778.02287l-.00586-.00115Zm-5.14753.50806a1.20763,1.20763,0,0,0,.66426,1.00459.85828.85828,0,0,0-.66754-1.00459Zm-7.73312-3.00226c.61612.58288.61612.58288,1.12578.30886A1.10886,1.10886,0,0,0,71.60428,130.55288Z" style="fill: #fff"/>
        <path d="M118.901,65.909c.73067.06471,1.2686.14281,1.80663.14946l.05159-.00044a2.88916,2.88916,0,0,1,1.4568.39148l-.01383-.00744c.90495.52978,1.82657,1.03447,2.7465,1.53269a3.53993,3.53993,0,0,1,1.66886,1.56087,2.14033,2.14033,0,0,0,2.77141.9515,4.355,4.355,0,0,0,2.1919-1.38314,4.86372,4.86372,0,0,1,.69963.52987l-.00381-.00346a16.84535,16.84535,0,0,1,1.09821,1.28872l.02926.03963c.49325.62606.95149,1.28021,1.438,1.94448a1.8797,1.8797,0,0,1-1.86141,1.66052,4.68532,4.68532,0,0,0-.76364.14743l.033-.008a3.004,3.004,0,0,1-2.60369-.7788c-.18262-.14442-.32207-.30549-.17437-.5945.52145-.166,1.14741.26064,1.64395-.20425a2.61862,2.61862,0,0,0-.10789-2.17692c-.191.49822-.362.93651-.54964,1.4264a6.50219,6.50219,0,0,1-.8507.05408q-.12672,0-.2523-.0047l.01215.00035c-1.31674-.15106-2.63365-.30886-3.94036-.52641a6.577,6.577,0,0,1-1.60157-.53864l.039.0172a4.72586,4.72586,0,0,0-3.20642-.48.88184.88184,0,0,1-.1445.01161.89971.89971,0,0,1-.54042-.17934l.00239.00169a12.07214,12.07214,0,0,1-1.212-1.11532l-.00514-.0055a1.297,1.297,0,0,1-.28111-1.32906l-.00283.00905a2.37021,2.37021,0,0,0,.12509-.768,2.41613,2.41613,0,0,0-.13023-.785l.005.017c-.16932-.50815-.02987-.65921.42668-.8452Zm6.57065,4.50321c-.166-.2922-.32207-.59122-.51152-.86843-.03821-.05816-.19929-.03156-.33208-.04645a.96161.96161,0,0,0,.84351.915Zm6.5092,2.56556c.475.49822.48156.50815,1.066.30549a.87756.87756,0,0,0-1.066-.30221Z" style="fill: #fff"/>
        <path d="M95.016,99.16747c.23076.25238.45.49822.67756.74059.548.58119,1.08925,1.17232,1.66052,1.73526a.91538.91538,0,0,1,.30718.96975,6.3926,6.3926,0,0,0-.04645,2.70829,13.26784,13.26784,0,0,1,.07473,1.40512v.00124a2.93481,2.93481,0,0,1-.10984.612l.00523-.02075a.93532.93532,0,0,1-.99635-.15275,2.80435,2.80435,0,0,0-1.41479-.3968h-.00168c-.83031-.04149-1.64723-.15106-2.47089-.15771a7.81441,7.81441,0,0,0-1.687.2133l.053-.01073c-.78049.166-.93988.09965-1.2288-.67419-.10629-.284-.1843-.5812-.31045-.85521a3.5522,3.5522,0,0,1,.28891-3.48709,5.65747,5.65747,0,0,1,4.52661-2.68507l.0438-.00026a3.63651,3.63651,0,0,1,.65078.05842l-.02207-.00337Z" style="fill: #fff"/>
        <path d="M107.05142,96.6285a1.15649,1.15649,0,0,1,1.10255.23413,1.927,1.927,0,0,0,1.1046.34458l.06072-.00088-.00292.00009h.01967a6.44039,6.44039,0,0,1,1.33225.13856l-.04184-.00745a6.48158,6.48158,0,0,0,2.5473-.06977c.42668-.078.86515-.09627,1.31674-.14282a5.55377,5.55377,0,0,1,.26533.52438l.01525.03856c.12784.33209.22411.68252.35363,1.01621a3.89019,3.89019,0,0,1,.29663,1.50325,3.94664,3.94664,0,0,1-1.25415,2.89012l-.00222.002a7.03164,7.03164,0,0,1-3.58842,1.77674,1.3421,1.3421,0,0,1-1.32835-.4882c-.59121-.65424-1.1756-1.31674-1.795-1.94775a1.3673,1.3673,0,0,1-.37189-1.33668,8.3804,8.3804,0,0,0,.07162-1.11,8.71445,8.71445,0,0,0-.0765-1.15424l.00479.04415a10.87412,10.87412,0,0,1-.07278-1.27534q0-.51728.046-1.023l-.0032.04344Z" style="fill: #fff"/>
        <path d="M104.52078,121.6625a3.12979,3.12979,0,0,1-2.05733,1.79005,9.4,9.4,0,0,0-3.52867,1.92949c-.33208.25567-.63438.53474-.97144.77215a2.49911,2.49911,0,0,1-.77764.42163l-.01782.00505a5.82452,5.82452,0,0,1-2.50244-.34033c-.58785-.11294-.973-.70238-1.27029-1.23872a1.64319,1.64319,0,0,1,.02562-1.66771l-.00407.00718a8.33015,8.33015,0,0,1,2.38657-2.67327l.02447-.01676a1.62677,1.62677,0,0,1,.26808-.1734l.00913-.00426a9.25534,9.25534,0,0,1,4.1596-.87348,1.13486,1.13486,0,0,1,.41125.07739l-.00771-.00266a28.26275,28.26275,0,0,1,3.97281,2.05768l-.12048-.07012Z" style="fill: #fff"/>
        <path d="M100.19514,82.4078a2.61159,2.61159,0,0,1,1.74359-1.66052,12.15456,12.15456,0,0,0,4.49674-2.55723,2.2418,2.2418,0,0,1,2.06069-.54636,8.62286,8.62286,0,0,0,.96222.102l.02252.001a2.10249,2.10249,0,0,1,1.54838,3.32716l.00426-.00612a6.74316,6.74316,0,0,1-2.67345,2.529,8.231,8.231,0,0,1-3.51378.77455q-.31023,0-.61488-.02226l.02722.0016a1.04847,1.04847,0,0,1-.32765-.06888l.00718.00239a31.55806,31.55806,0,0,1-3.8909-1.95786l.148.08147Z" style="fill: #fff"/>
        <path d="M99.99754,94.4499a5.28007,5.28007,0,0,1,.57153-.75132l-.00363.004a4.7352,4.7352,0,0,0,1.38154-4.15126c-.01658-.24574-.05647-.49822-.08466-.72233a.69666.69666,0,0,1,.72543-.13785l-.0047-.0016q2.725.83031,5.44983,1.68047a.91319.91319,0,0,1,.18678.13023l-.00079-.00071a6.07427,6.07427,0,0,1,.34866,2.29482,3.90586,3.90586,0,0,1-2.9441,3.60171,5.05528,5.05528,0,0,1-1.6326.26507,5.13568,5.13568,0,0,1-2.55076-.67366l.02544.0133a3.29714,3.29714,0,0,1-1.45955-1.53065l-.00842-.0203Z" style="fill: #fff"/>
        <path d="M110.4456,118.06912a4.481,4.481,0,0,1-.53031-.14042l.03209.00931c-1.5177-.58289-3.02876-1.179-4.54984-1.75184a2.2216,2.2216,0,0,1-1.092-.92481l-.00559-.0101a4.49451,4.49451,0,0,1-.39352-3.28284,1.94927,1.94927,0,0,1,.71408-1.18394,4.05171,4.05171,0,0,1,3.71236-.97906l-.02757-.00558a1.90538,1.90538,0,0,1,.6929.28173l-.0071-.00443c.90832.62437,1.8,1.272,2.59872,1.83986a1.18294,1.18294,0,0,1,.09628,1.22215c-.11454.25071-.21915.50815-.35363.74724a4.2004,4.2004,0,0,0-.572,2.12869,4.25928,4.25928,0,0,0,.123,1.01887l-.006-.02917a.92348.92348,0,0,1-.43173,1.06435Z" style="fill: #fff"/>
        <path d="M93.89347,86.129a1.35186,1.35186,0,0,1,1.19227.06143c1.32834.52313,2.67176,1.03784,4.01678,1.531a2.9838,2.9838,0,0,1,1.81823,2.85279,8.30365,8.30365,0,0,0-.08085.89l-.00053.01666a2.14315,2.14315,0,0,1-.95318,1.82657,3.72864,3.72864,0,0,1-3.47051.85353,2.55405,2.55405,0,0,1-.69573-.287l.01161.00647c-.822-.558-1.639-1.12418-2.436-1.717a.85541.85541,0,0,1-.33209-1.16231,5.14115,5.14115,0,0,1,.34565-.781l-.01357.02712a5.00235,5.00235,0,0,0,.548-3.28284c-.002-.04911-.00319-.10673-.00319-.16462a4.30043,4.30043,0,0,1,.0563-.69529l-.00337.02465Z" style="fill: #fff"/>
        <path d="M89.16269,98.18778a1.58087,1.58087,0,0,1-.60034.11614,1.60362,1.60362,0,0,1-.611-.12l.01073.0039a6.28281,6.28281,0,0,0-2.53728-.20584,2.65089,2.65089,0,0,0-.94183.30912l.01365-.00691c-.49822.22083-.983.47659-1.53606.74724-.21586-.25071-.4632-.42172-.54139-.64928a13.03646,13.03646,0,0,1-.43049-1.66186l-.01445-.09a8.61866,8.61866,0,0,1-.04148-.90832,4.43427,4.43427,0,0,1,1.85484-3.85738c.166-.14282.3703-.24406.53306-.39184a2.34549,2.34549,0,0,1,2.39784-.45328,4.39678,4.39678,0,0,1,2.96564,2.44934,15.176,15.176,0,0,0-.60947,2.29314,15.6832,15.6832,0,0,0,.088,2.426Z" style="fill: #fff"/>
        <path d="M104.65527,109.73831a9.30172,9.30172,0,0,1-.59893.74281l.00781-.00886a4.79056,4.79056,0,0,0-1.31674,4.09647c.02323.21915.0515.43839.06143.66427a1.07878,1.07878,0,0,1-.08244.28244l.00275-.00683a1.03236,1.03236,0,0,1-.26667.03413,1.05489,1.05489,0,0,1-.11666-.00639l.0047.00045q-2.72823-.822-5.44655-1.66053a2.90349,2.90349,0,0,1-.37029-.17376l.015.00772a4.25816,4.25816,0,0,1,1.58083-5.581,1.62346,1.62346,0,0,1,.27535-.16179l.01019-.00425a5.90735,5.90735,0,0,1,4.95666.24743,2.40621,2.40621,0,0,1,1.28358,1.52772Z" style="fill: #fff"/>
        <path d="M122.05588,105.04566c.1976.50983.37695.88172.48492,1.27356a6.858,6.858,0,0,1,.2437,1.83331,7.06881,7.06881,0,0,1-.08262,1.0803l.005-.03928a4.63871,4.63871,0,0,1-1.70042,2.8528c-.27065.23076-.59786.3968-.87507.62268a2.14719,2.14719,0,0,1-1.883.38856,4.71835,4.71835,0,0,1-3.25722-2.47745l-.01232-.02668a16.14583,16.14583,0,0,0,.62268-2.3513,14.24765,14.24765,0,0,0-.09964-2.31636,1.10144,1.10144,0,0,1,1.014-.152l-.00771-.0023c.48.11959.96479.23076,1.453.30381a3.3616,3.3616,0,0,0,2.17195-.30053,8.54925,8.54925,0,0,1,.987-.47624l.06082-.022a5.953,5.953,0,0,1,.83979-.18661l.03528-.00434Z" style="fill: #fff"/>
        <path d="M106.15808,85.28551a1.40032,1.40032,0,0,1,1.03615-.74893,17.58481,17.58481,0,0,0,2.04749-.74609l-.11631.04539a5.78058,5.78058,0,0,0,2.00591-1.70041,1.74248,1.74248,0,0,1,2.1254-.60443c.39184.12952.79538.23245,1.17729.38688a3.59693,3.59693,0,0,1,2.02586,4.95329,4.57316,4.57316,0,0,1-.89095,1.16009l-.00239.00221a1.96576,1.96576,0,0,1-2.35635.41843c-1.50449-.67756-3.01378-1.34661-4.52-2.02417-.82694-.36524-1.6506-.7389-2.53232-1.14244Z" style="fill: #fff"/>
        <path d="M98.62761,118.76654c-.32047.23581-.52313.40842-.75061.543a1.28969,1.28969,0,0,1-.46541.14557l-.00612.00053a6.4558,6.4558,0,0,0-3.81918,2.3247c-.25735.28057-.54964.53137-.807.77879a5.18108,5.18108,0,0,1-3.74613-1.2537,3.52,3.52,0,0,1-.191-5.11934,2.31076,2.31076,0,0,1,2.93409-.56462c2.15865.915,4.28415,1.92125,6.42126,2.8926a2.81467,2.81467,0,0,1,.43.25239Z" style="fill: #fff"/>
        <path d="M88.21944,105.48412a10.54293,10.54293,0,0,0-4.70755.68581,5.35027,5.35027,0,0,1-.46639-.58634l-.01179-.01817c-.3835-.66426-.76382-1.34333-1.11257-2.03251a2.22882,2.22882,0,0,1,.24743-2.56716,5.19948,5.19948,0,0,1,4.133-2.10218c.04929-.00089.10744-.00142.16577-.00142a9.82849,9.82849,0,0,1,1.86336.1773l-.06143-.00984a2.18507,2.18507,0,0,1,1.57843,1.18119l.00567.01277c-.166.25239-.33208.52809-.52978.78713a4.9106,4.9106,0,0,0-1.1092,3.62495c.00931.14007.01463.30354.01463.46834q0,.20054-.01037.39857l.0008-.01844Z" style="fill: #fff"/>
        <path d="M121.36174,97.83744c.52473.99635,1.0577,1.92452,1.51939,2.88931a2.00161,2.00161,0,0,1-.39184,2.30644,5.45191,5.45191,0,0,1-4.40374,2.08392,4.39286,4.39286,0,0,1-2.46423-.538c-.31383-.2109-.67756-.40345-.67916-.85521.44831-.802.92986-1.57418,1.31842-2.38791a6.71742,6.71742,0,0,0,.21914-2.76973,2.37748,2.37748,0,0,1,.6273-.11267l.0054-.00018c.23537.02323.50886.03652.78536.03652a8.43431,8.43431,0,0,0,3.09127-.58279l-.05745.01986a3.29155,3.29155,0,0,1,.41028-.08723l.01977-.0024Z" style="fill: #fff"/>
        <path d="M124.69946,81.08273a1.43768,1.43768,0,0,1-.66427,1.54927,6.22543,6.22543,0,0,1-2.347,1.258l-.04406.01073c-.77215.20425-1.54262.41347-2.3247.58119-.73394.15612-1.09928.02492-1.38978-.573a6.63389,6.63389,0,0,0-3.78762-3.1433c-.22411-.08963-.45159-.176-.63439-.24742-.13617-.42668.12615-.49822.36693-.56125.56293-.13786,1.12578-.2773,1.69705-.37358a3.95659,3.95659,0,0,0,2.14367-.9764,1.52757,1.52757,0,0,1,1.84315-.22252c1.31177.63936,2.64189,1.24537,3.947,1.89962a10.67981,10.67981,0,0,1,1.21824.81692l-.02429-.01817Z" style="fill: #fff"/>
        <path d="M91.26151,123.81123a3.17632,3.17632,0,0,1-.53156.242l-.02313.0071c-.69414.166-1.39147.34033-2.09394.4733a2.84948,2.84948,0,0,0-1.47551.698l.00257-.00231a2.35674,2.35674,0,0,1-1.29138.60815l-.01206.00133c-.1843-.07474-.41506-.15612-.63766-.26064-1.19883-.55965-2.4028-1.10751-3.58674-1.69545-.56293-.28058-1.08429-.63935-1.50777-.89334a.926.926,0,0,1,.07641-1.1358,4.24637,4.24637,0,0,1,1.58278-1.25778l.02633-.01082a12.90964,12.90964,0,0,1,3.64152-1.03447c.1414-.01187.30611-.01861.47242-.01861s.33094.00673.49388.02l-.02137-.00142a14.11162,14.11162,0,0,0,1.30016,1.80663,8.74619,8.74619,0,0,0,1.673,1.25113l.04228.02243c.59786.362,1.25371.62933,1.883.93819Z" style="fill: #fff"/>
        <path d="M76.80172,104.52261c-.47828.13786-.78873.25567-1.10921.31383a6.17653,6.17653,0,0,0-3.449,2.26654c-.21249.23581-.44494.45664-.61612.62933h-.0008a2.03567,2.03567,0,0,1-1.70644-.92374l-.00479-.0078a4.37525,4.37525,0,0,1-.352-4.96659c.20425-.35868.43173-.70575.66426-1.04449a2.07,2.07,0,0,1,3.20145-.37694,29.25676,29.25676,0,0,1,2.02284,2.2942l.04619.06037c.44335.52313.82366,1.09928,1.30344,1.75521Z" style="fill: #fff"/>
        <path d="M127.97227,99.48289c.94316-.41675,2.01256-.39016,2.7864-1.066.744-.64928,1.47621-1.31346,2.34792-2.09057a1.48277,1.48277,0,0,1,1.546.724,4.23446,4.23446,0,0,1,.66426,4.64949,9.062,9.062,0,0,1-1.05743,1.7013l.01463-.01924a2.066,2.066,0,0,1-2.82842.35319l.00559.004a5.64845,5.64845,0,0,1-.96869-.88625l-.006-.00718c-.73891-.89333-1.44466-1.815-2.15865-2.7332a5.035,5.035,0,0,1-.33174-.59733l-.01365-.03209Z" style="fill: #fff"/>
        <path d="M96.18,108.77024a6.19146,6.19146,0,0,0-.64929,4.48344c-.12437.012-.269.01888-.41506.01888s-.29069-.00682-.43333-.02021l.01826.00142a40.9348,40.9348,0,0,1-6.57321-1.96531l.27987.09725a3.01074,3.01074,0,0,1,1.19724-2.80794,4.59053,4.59053,0,0,1,2.67939-.9381l.00567-.00009a6.47173,6.47173,0,0,1,2.92912.31046,1.48094,1.48094,0,0,1,.96142.82029Z" style="fill: #fff"/>
        <path d="M108.60574,95.59066a3.006,3.006,0,0,1,.166-.88509,5.89767,5.89767,0,0,0,.46657-3.70961c-.00275-.034-.00434-.07366-.00434-.11373s.00159-.0797.00469-.11889l-.00035.00515c.94484-.166,5.00311.91328,7.04058,1.86974a2.82481,2.82481,0,0,1-.83031,2.42443,4.47627,4.47627,0,0,1-3.29109,1.29687c-.149-.01117-.32287-.01755-.49821-.01755s-.349.00638-.52127.01888l.023-.00133a4.50156,4.50156,0,0,1-2.55555-.76887Z" style="fill: #fff"/>
        <path d="M88.6611,82.50913a43.59154,43.59154,0,0,1,3.54853,2.57549A2.99421,2.99421,0,0,1,93.26076,88.125c-.09131.37526-.14778.75885-.249,1.12915a2.13788,2.13788,0,0,1-1.07268,1.408,5.44973,5.44973,0,0,1-.88722-.492l.01871.01214a21.19118,21.19118,0,0,1-3.13009-3.28948.66386.66386,0,0,1-.16481-.27588l-.00124-.0047c-.19928-1.37817-.347-2.74987.646-3.93212a1.81673,1.81673,0,0,1,.23253-.1664l.00825-.00461Z" style="fill: #fff"/>
        <path d="M116.95809,117.38331c.15771,1.47791.28227,2.87434-.85185,4.07326-.40841-.25567-.78873-.46826-1.14076-.72065-.78376-.56462-1.58747-1.10592-2.3247-1.732a3.15981,3.15981,0,0,1-1.16231-3.3792c.10461-.39849.19761-.80371.33209-1.19387a1.735,1.735,0,0,1,.57623-.92321,1.21282,1.21282,0,0,1,1.32835.33208,21.80161,21.80161,0,0,1,2.57115,2.72177l.03421.04469c.20922.25566.42172.51151.63767.77711Z" style="fill: #fff"/>
        <path d="M75.50989,135.287a2.35648,2.35648,0,0,0,2.08889,1.00628,2.94863,2.94863,0,0,0,.51763-.06667l-.01941.00363a1.854,1.854,0,0,1,.2304-.014,1.89922,1.89922,0,0,1,1.0389.30735l-.00735-.00453c.6194.4101,1.24536.81364,1.88135,1.19724s1.28686.73891,1.95609,1.1225c.02154.21914.04148.43173.05975.63935a3.7357,3.7357,0,0,1-2.34518,1.28969l-.01932.00213a2.45152,2.45152,0,0,1-.30656.01861,2.523,2.523,0,0,1-.91949-.17233l.0172.00594a18.00768,18.00768,0,0,1-2.18649-1.02428l.09423.048a8.59364,8.59364,0,0,0-1.59767-.69494l-.06294-.01746a3.03307,3.03307,0,0,1-1.9146-4.38717l.74228-.03821a3.792,3.792,0,0,1,.74476.7679l.00753.0109Zm3.37247,3.25969a7.1783,7.1783,0,0,0-2.00591-.78208,16.469,16.469,0,0,1-1.71372-.89334c-.12118.342.09468.49822.27234.66426a4.98436,4.98436,0,0,0,1.85937,1.114l.03528.01011a3.94288,3.94288,0,0,0,.95664.1656l.00984.00044c.14946.00833.3038-.13785.58616-.279Z" style="fill: #fff"/>
        <path d="M129.17784,68.6886a2.37052,2.37052,0,0,0-1.57754-.92658.74185.74185,0,0,0-.203-.02766.76459.76459,0,0,0-.13369.0117l.00461-.0007a3.62314,3.62314,0,0,1-2.7-.7788c-.83031-.54468-1.70707-1.01621-2.56716-1.51443-.729-.42-.78049-.87011-.11126-1.3998a3.2596,3.2596,0,0,1,3.33931-.60779c.69245.26232,1.34164.63935,2.01584.95317.42171.19761.85184.38191,1.28189.56125.17766.073.37189.10958.55132.17934a3.08066,3.08066,0,0,1,1.6506,4.24435h-.9116a3.83575,3.83575,0,0,1-.63164-.68288l-.00771-.01126Zm.39193-1.5443c.01826-.553-.37695-.79538-.71568-1.04112a4.18853,4.18853,0,0,0-2.725-.978c-.06808.15275-.11125.25071-.166.36365.538.48492,1.262.42171,1.84483.709s1.144.61276,1.76185.94653Z" style="fill: #fff"/>
        <path d="M73.1984,89.4584c-.49822-.20257-.5663-.59449-.58616-1.02782a10.77749,10.77749,0,0,0-.47029-2.758l.0203.07624a3.33528,3.33528,0,0,0-.71426-1.38411l.00354.00425a1.12155,1.12155,0,0,1-.20469-1.37542l-.00293.00541c.33209-.66427.67756-1.32835,1.02623-1.97763a1.54938,1.54938,0,0,1,1.18349-.798l.007-.00062a4.1404,4.1404,0,0,1,2.55227.48988c.15611.07642.25735.264.38855.40682a50.41615,50.41615,0,0,0-2.61033,7.4342c-.11294.33873-.16773.70575-.59281.90495Z" style="fill: #fff"/>
        <path d="M131.23029,114.55544c.72065.15443.76887.23076.84192.83854.08635.73732.18262,1.47622.30886,2.2068a4.14754,4.14754,0,0,0,.92366,2.10058l-.0054-.00665a1.04113,1.04113,0,0,1,.12951,1.29351c-.31045.58288-.56124,1.20052-.8983,1.76514a1.868,1.868,0,0,1-2.30306.973,3.55555,3.55555,0,0,1-1.82657-.68581,4.05063,4.05063,0,0,1,.188-.76736l-.00869.02837a58.29351,58.29351,0,0,0,2.1786-6.31994c.14282-.46488.3038-.92489.47162-1.42639Z" style="fill: #fff"/>
        <path d="M131.33322,104.68369a.84419.84419,0,0,1,1.02622.5547c.50983.94652.978,1.91291,1.49448,2.85279a4.94547,4.94547,0,0,0,.71072.9h0a5.759,5.759,0,0,0,.58244.49556l.01542.01091c.03325.12783.088.21586.07137.28554a4.42363,4.42363,0,0,1-2.597,3.48709,1.55614,1.55614,0,0,1-.55114.09885q-.04734,0-.09415-.00275l.00426.00018-.014.00009a.746.746,0,0,1-.72224-.55957l-.00115-.00514a3.74331,3.74331,0,0,1-.166-1.051l-.00009-.00337a16.01954,16.01954,0,0,0-.34033-4.27422,3.32212,3.32212,0,0,1,.5812-2.78968Z" style="fill: #fff"/>
        <path d="M73.43421,99.25541a.79008.79008,0,0,1-1.04945-.45c-.51311-.94148-.98633-1.90627-1.51114-2.84118a5.735,5.735,0,0,0-.75682-.9694l.00133.00133a7.81932,7.81932,0,0,0-.63208-.57685l-.01392-.011a1.11761,1.11761,0,0,1-.02828-.25328,1.14425,1.14425,0,0,1,.00718-.12881l-.00044.00523a5.29854,5.29854,0,0,1,2.13206-3.13337,1.53584,1.53584,0,0,1,1.90458.22251,13.69246,13.69246,0,0,1,.09955,1.54377l.00009.00718a10.22561,10.22561,0,0,0,.347,3.683A3.70463,3.70463,0,0,1,73.434,99.2555Z" style="fill: #fff"/>
        <path d="M127.85446,123.76974a5.42136,5.42136,0,0,0,2.83763.792,5.54028,5.54028,0,0,0,.64183-.03714l-.02562.00239c-.57791.7788-.99635,1.41975-1.49448,1.99261-.78376.92827-1.59084,1.84483-2.44429,2.695a15.81028,15.81028,0,0,1-1.81362,1.46009l-.05284.03448a2.73948,2.73948,0,0,1-.74892.284c-.14282-.08466-.21587-.10124-.23413-.14113a6.08308,6.08308,0,0,1-.30549-2.58542,1.26947,1.26947,0,0,1,.44831-.75221,14.60066,14.60066,0,0,0,2.2614-2.64836l.03333-.05337a8.69713,8.69713,0,0,1,.8967-1.0428Z" style="fill: #fff"/>
        <path d="M80.25237,73.14545a8.769,8.769,0,0,1,.27393,2.38622,1.25608,1.25608,0,0,1-.46985.93651,15.4,15.4,0,0,0-2.43923,2.832l-.035.05558a4.94048,4.94048,0,0,1-.69245.73394c-.63439-.21586-1.1374-.435-1.66053-.55469a13.424,13.424,0,0,0-1.55831-.18874l-.04246-.00221A4.45613,4.45613,0,0,1,74.633,77.72179c.8585-.97471,1.712-1.95608,2.62363-2.8793a22.48514,22.48514,0,0,1,1.8365-1.541,1.058,1.058,0,0,1,1.159-.15611Z" style="fill: #fff"/>
        <path d="M133.60144,105.94732a.97769.97769,0,0,1,.05018-.251l-.002.00683a7.43713,7.43713,0,0,1,1.92949-2.446,2.81294,2.81294,0,0,1,2.06238-.22252c.49822,1.24041.41347,5.68892-.24574,6.65868a1.727,1.727,0,0,1-1.43969-.362,4.871,4.871,0,0,1-2.02293-2.40626l-.01126-.03307c-.11959-.3038-.21419-.62268-.32048-.94484Z" style="fill: #fff"/>
        <path d="M67.05621,100.96584a14.38527,14.38527,0,0,1,.20257-6.62046,1.72633,1.72633,0,0,1,.42872-.05275,1.76212,1.76212,0,0,1,1.04572.34175l-.005-.00345a5.14626,5.14626,0,0,1,2.34589,3.5495l.00372.029a6.3094,6.3094,0,0,1-2.12213,2.55723,1.76657,1.76657,0,0,1-.78634.18927h-.00079c-.35363.03156-.7124.00993-1.11258.00993Z" style="fill: #fff"/>
        <path d="M83.54842,111.10327a4.23985,4.23985,0,0,1,.71488.38005l-.01578-.00984a28.76118,28.76118,0,0,0,4.45587,2.803l.16542.07633a3.62391,3.62391,0,0,1,.37428.26134l-.00735-.00568a2.71755,2.71755,0,0,1-.326.29929l-.006.00452a6.02981,6.02981,0,0,0-1.70609,1.61691l-.01259.01879a1.02175,1.02175,0,0,1-1.22711.41507,5.21516,5.21516,0,0,1-2.52345-1.47214l-.00222-.0024a3.90162,3.90162,0,0,1-.17766-4.1197,2.64493,2.64493,0,0,1,.288-.26126l.00585-.00434Z" style="fill: #fff"/>
        <path d="M121.23391,92.86243a1.97212,1.97212,0,0,1-.62437-.23245,25.61338,25.61338,0,0,0-4.98157-3.10846.35327.35327,0,0,1-.09379-.09663l-.0008-.00133,2.38285-2.37124a4.01348,4.01348,0,0,1,3.55855,1.6888,3.72664,3.72664,0,0,1-.24742,4.13061l.00673-.00922Z" style="fill: #fff"/>
        <path d="M101.59494,79.86387a2.42039,2.42039,0,0,1-.23076-.59618,2.71136,2.71136,0,0,0-1.1623-1.92284,4.7874,4.7874,0,0,1-1.01958-.96807.51027.51027,0,0,1,.50593-.4468l.01454.00018h-.00071a26.44817,26.44817,0,0,1,4.19276-.37854c.85353.03324,1.71035-.01827,2.56556-.02323.26729,0,.53643.02659.88.04645a1.83566,1.83566,0,0,1-.14946.51152,9.71338,9.71338,0,0,1-4.62626,3.6,5.82179,5.82179,0,0,1-.94307.17544l-.02668.00222Z" style="fill: #fff"/>
        <path d="M97.31416,128.28634c.22083-.30549.42508-.62606.66426-.91666a10.69351,10.69351,0,0,1,3.28186-2.64224l.05913-.02793a2.26925,2.26925,0,0,1,1.9279-.23244,3.38094,3.38094,0,0,1,.08182.38031l.00284.02154a2.53608,2.53608,0,0,0,.92188,1.6951l.0047.00363c.435.37695.85016.77384,1.22214,1.11417,0,.39183-.19592.4616-.43333.49822a23.39063,23.39063,0,0,1-4.31961.391q-.10837,0-.2164-.001l.01108.00009c-.77383-.01658-1.54767,0-2.32469,0-.26569,0-.53306-.04645-.79875-.07136Z" style="fill: #fff"/>
        <path d="M67.34176,93.56986a35.56576,35.56576,0,0,1,2.9574-8.92522,1.26475,1.26475,0,0,1,.74724.83031,12.55636,12.55636,0,0,1,.85521,3.35261,1.45213,1.45213,0,0,1-.52809,1.40476,8.48987,8.48987,0,0,0-2.03906,2.47089c-.22252.33208-.49822.64263-.75061.97144Z" style="fill: #fff"/>
        <path d="M111.11633,125.95162c.1242-.00886.26906-.01391.41507-.01391s.29095.00505.43448.015l-.01942-.00107a4.44642,4.44642,0,0,0,3.74782-.84023,1.30292,1.30292,0,0,1,.283-.14317l.00922-.00293c1.20051.84688,1.77675,3.66812,1.05273,5.14761a3.32056,3.32056,0,0,1-1.70369-.13449,9.90054,9.90054,0,0,1-1.72577-.55273l.06515.02464a2.44076,2.44076,0,0,1-1.21913-1.06062l-.00629-.01205c-.42836-.7539-.83855-1.52941-1.3334-2.426Z" style="fill: #fff"/>
        <path d="M137.31938,110.57518a38.38168,38.38168,0,0,1-3.031,9.053l.10017-.23058a1.43939,1.43939,0,0,1-.70761-.80363l-.0031-.01a14.16106,14.16106,0,0,1-.879-3.43044l-.00771-.07332a1.25112,1.25112,0,0,1,.42667-1.19555,11.02415,11.02415,0,0,0,2.34962-2.96237c.48-.73731.80539-.79378,1.75183-.347Z" style="fill: #fff"/>
        <path d="M87.6831,73.77478a8.13521,8.13521,0,0,1,3.77805,1.01763l-.04184-.02128a2.13166,2.13166,0,0,1,.76027.72827l.00523.00895c.47827.79378.895,1.624,1.36992,2.50245a7.3987,7.3987,0,0,1-1.03447,0,4.10907,4.10907,0,0,0-3.42734.78872,3.49507,3.49507,0,0,1-.39148.23457l-.0203.00949c-1.15406-.89671-1.732-3.83079-.998-5.26889Z" style="fill: #fff"/>
        <path d="M123.27634,111.80893a1.89468,1.89468,0,0,1,.43,2.14873,11.6788,11.6788,0,0,1-1.82028,3.27228l.01853-.02428c-.53306.66426-1.03447,1.345-1.58747,2.069l-1.89793-2.50909c.538-.80867,1.03783-1.59244,1.57586-2.35129a1.96772,1.96772,0,0,1,.65424-.58776l.01-.005a12.955,12.955,0,0,0,2.617-2.01256Z" style="fill: #fff"/>
        <path d="M84.42349,84.73427q.99636,1.32836,1.87967,2.50076c-.58616.83031-1.14244,1.66052-1.72364,2.45094a1.61325,1.61325,0,0,1-.5413.48235l-.00834.00416a10.10815,10.10815,0,0,0-2.57052,1.99261,1.63225,1.63225,0,0,1-.57624-1.75848,9.49272,9.49272,0,0,1,1.48322-3.06032l-.01861.02659c.56125-.78376,1.1623-1.53934,1.74855-2.30307a3.96383,3.96383,0,0,1,.324-.33262l.00311-.00274Z" style="fill: #fff"/>
        <path d="M91.62028,92.366l1.30512,1.00956a19.1317,19.1317,0,0,0,.34538,2.50244,17.555,17.555,0,0,0,.91994,2.24c-.07474.078-.1063.13944-.15107.15274-1.0295.28723-2.06238.56958-3.15491.8718a2.91508,2.91508,0,0,1-.336-.5164L90.541,98.6095a7.86329,7.86329,0,0,1-.59547-3.02841q0-.06677.00106-.13324l-.00009.00665A3.8206,3.8206,0,0,1,91.62036,92.366Z" style="fill: #fff"/>
        <path d="M113.53243,120.95675a11.19175,11.19175,0,0,1,2.33631,3.00554c-2.23666,2.24332-5.43653,2.07728-7.31628-.94653a22.40841,22.40841,0,0,0,2.62531-.62773,5.76661,5.76661,0,0,0,2.35458-1.43145Z" style="fill: #fff"/>
        <path d="M96.2913,81.03956a7.238,7.238,0,0,0-5.03963,1.94279,7.54807,7.54807,0,0,1-2.37789-3.08355,4.48605,4.48605,0,0,1,2.565-1.28908l.02376-.00274a3.82673,3.82673,0,0,1,3.90552,1.41478c.249.32544.548.60947.92321,1.01789Z" style="fill: #fff"/>
        <path d="M113.05912,111.64121l-1.24865-.98137a20.88112,20.88112,0,0,0-.39015-2.52567,18.9918,18.9918,0,0,0-.915-2.26822,9.1469,9.1469,0,0,1,3.50536-.85017,7.09051,7.09051,0,0,1,.57791,4.45356,3.88373,3.88373,0,0,1-1.52941,2.172Z" style="fill: #fff"/>
        <path d="M110.32264,126.47138c-.79874.29884-1.53606.5945-2.28817.85185a1.49774,1.49774,0,0,1-.5577.10568,1.51726,1.51726,0,0,1-.87357-.275l.00488.00328a12.61083,12.61083,0,0,1-1.66576-1.33331l.00524.005a2.41032,2.41032,0,0,1-.49822-2.47257,8.962,8.962,0,0,1,.58784-1.3201c1.32835.31551,4.0151,2.57052,5.28546,4.4353Z" style="fill: #fff"/>
        <path d="M94.34843,77.55247c.92658-.33209,1.76681-.66426,2.62194-.94981a1.13895,1.13895,0,0,1,.36985-.06046,1.15707,1.15707,0,0,1,.66994.21232l-.00363-.00248c.43332.29219.86682.58616,1.27852.90832a2.82785,2.82785,0,0,1,.18927,4.30747,15.36269,15.36269,0,0,1-5.126-4.41536Z" style="fill: #fff"/>
        <path d="M128.2728,119.76289c-.92658-.64432-1.87807-1.24706-2.76307-1.93614a1.71031,1.71031,0,0,1-.60283-2.13206,6.53818,6.53818,0,0,1,.729-1.82657,2.89722,2.89722,0,0,1,.657.24672l-.016-.00762a7.54786,7.54786,0,0,0,2.51228,1.08757l.05159.01c.27065.06311.55132.10292.651.42835a17.462,17.462,0,0,1-1.21878,4.12973Z" style="fill: #fff"/>
        <path d="M79.01852,90.29039a10.55233,10.55233,0,0,0-3.89063-1.70706c.26232-1.5842.79379-2.93409,1.16231-4.44027.41675.279.73234.48155,1.03943.6991.60779.42836,1.22711.84192,1.80831,1.30344a1.69033,1.69033,0,0,1,.60947,2.18684c-.12615.362-.22411.73563-.35363,1.09759-.083.24406-.20753.48661-.37526.86018Z" style="fill: #fff"/>
        <path d="M85.89643,73.069a2.4234,2.4234,0,0,1-.92729-1.45911l-.00266-.01551a11.31663,11.31663,0,0,1-.20283-1.60751l-.00142-.03147c-.00558-.06747-.00878-.14592-.00878-.22518a2.87681,2.87681,0,0,1,.62118-1.79l-.00461.00612a6.22452,6.22452,0,0,1,2.13809-1.85689l.03377-.01622c.48989-.25071.98306-.49822,1.46461-.76382a1.68715,1.68715,0,0,1,.83022-.21551,1.70612,1.70612,0,0,1,.56665.09628l-.012-.00364a1.26418,1.26418,0,0,1-.18448.3078l.00177-.00231a11.16721,11.16721,0,0,0-3.5104,6.49095c-.04317.21586-.098.43-.15611.64263a.56279.56279,0,0,1-.646.44334Z" style="fill: #fff"/>
        <path d="M114.22825,138.78741c.23413-.25735.36693-.42667.52145-.57295a10.42854,10.42854,0,0,0,3.04055-5.31543l.01313-.06959c.09964-.43.22747-.85353.3038-1.28686a.92132.92132,0,0,1,.5812-.69582,2.49344,2.49344,0,0,1,1.06816,1.75662l.00115.01188c.05816.35363.09132.71072.13785,1.06434a3.00614,3.00614,0,0,1,.04043.49849,3.081,3.081,0,0,1-.82765,2.10546l.00178-.00186a6.80926,6.80926,0,0,1-2.41113,1.83987c-.35532.14946-.68918.347-1.0312.52472a2.04952,2.04952,0,0,1-1.43969.14113Z" style="fill: #fff"/>
        <path d="M92.01539,83.65326a1.521,1.521,0,0,1,.77712-.87507,6.84281,6.84281,0,0,1,3.69719-1.07206q.17208,0,.3422.00833l-.016-.00062a1.28256,1.28256,0,0,1,.6249.19078l-.0055-.00319c1.04449.6725,2.074,1.36487,3.1832,2.0989l-1.41815.0664a11.6325,11.6325,0,0,0-3.403.61373l.08191-.02429a3.60494,3.60494,0,0,1-3.864-1.00291Z" style="fill: #fff"/>
        <path d="M112.70381,120.50179a6.41,6.41,0,0,1-5.14761,1.74519c-1.16231-.76719-2.3114-1.52108-3.52867-2.3247.269-.0133.45992-.03821.64928-.02819a12.75467,12.75467,0,0,0,4.06988-.55966,3.89891,3.89891,0,0,1,1.15158-.17,3.96612,3.96612,0,0,1,2.32886.751l-.01179-.00806a2.1152,2.1152,0,0,1,.31516.26364l.00035.00036a1.63286,1.63286,0,0,1,.1688.31914l.0039.01126Z" style="fill: #fff"/>
        <path d="M106.2228,59.82145a1.02539,1.02539,0,0,1-.74042.66294l-.00682.00133a11.94091,11.94091,0,0,1-4.09976.23741,1.94334,1.94334,0,0,1-.259-2.7864,3.78478,3.78478,0,0,1,1.63455-1.19528l.026-.0086a1.22932,1.22932,0,0,1,1.74359.84688,2.7242,2.7242,0,0,0,1.0577,1.629c.22579.18262.42667.4101.64431.61275Z" style="fill: #fff"/>
        <path d="M98.43,144.0829a2.01252,2.01252,0,0,1,1.41886-.72366l.00594-.00027c.85016-.093,1.70707-.11791,2.55891-.1976,1.31842-.12456,1.9013.84024,1.5443,2.05732a3.25651,3.25651,0,0,1-2.43108,2.15865,1.08566,1.08566,0,0,1-1.27524-.81036,3.3172,3.3172,0,0,0-1.26027-1.883,5.95919,5.95919,0,0,1-.55283-.5905l-.00842-.01064Z" style="fill: #fff"/>
        <path d="M117.08264,78.10042a7.3942,7.3942,0,0,1-.8585.38688l-.05478.01826c-.62934.19423-1.272.352-1.91123.51648a1.80506,1.80506,0,0,1-2.41113-.85016,3.064,3.064,0,0,0-2.10494-1.2819l-.01551-.00168c-.18927-.02819-.38856,0-.57455-.04318-.31551-.07136-.62109-.176-.94484-.27065v-.66426a1.90941,1.90941,0,0,1,.241-.161l.00966-.005a3.05871,3.05871,0,0,1,1.62737-.01162,31.99,31.99,0,0,1,5.62349,1.224l-.22676-.0617a8.39281,8.39281,0,0,1,1.04945.40061l-.05319-.022a.89369.89369,0,0,1,.60442.82605Z" style="fill: #fff"/>
        <path d="M87.56688,125.89515a3.6384,3.6384,0,0,1,.58244-.29335l.02536-.00886q1.272-.35362,2.55891-.66426a1.60553,1.60553,0,0,1,1.94944.66426,3.10661,3.10661,0,0,0,1.77843,1.4131c.39848.10461.817.12783,1.22046.21418.28394.06143.558.166.87676.26569-.03653.28395-.06472.49822-.08635.66426a1.91627,1.91627,0,0,1-1.4248.20753A37.78566,37.78566,0,0,1,88.53,126.86322a1.27133,1.27133,0,0,1-.96311-.96806Z" style="fill: #fff"/>
        <path d="M82.96385,68.36148h1.066c.05816,1.008.03989,1.97435.186,2.91423a28.60177,28.60177,0,0,0,.72233,2.7996l-2.30147,1.53437a.77034.77034,0,0,1-.56958-.73234,10.23727,10.23727,0,0,1-.19344-2.0076,10.53138,10.53138,0,0,1,.35966-2.737l-.01685.07358a3.989,3.989,0,0,1,.74724-1.84483Z" style="fill: #fff"/>
        <path d="M96.371,85.49632c1.60077-1.27356,5.679-1.35663,8.379.59786-.03652.06143-.06143.166-.11294.18262a20.271,20.271,0,0,1-4.10144.89334c-.08023.00576-.17376.009-.26808.009a3.9726,3.9726,0,0,1-1.53827-.30771l.02624.00975q-.81206-.30717-1.61407-.63439a1.11744,1.11744,0,0,1-.77047-.75061Z" style="fill: #fff"/>
        <path d="M108.31842,118.64872c-1.90627,1.42143-6.52747,1.04112-8.384-.67916a5.00056,5.00056,0,0,1,.5015-.20061l.03989-.01188c.77047-.21587,1.53606-.45159,2.31468-.62109a5.06916,5.06916,0,0,1,3.55518.26569c.41507.21249.86843.35035,1.30512.52145a.96177.96177,0,0,1,.66648.7194l.00115.00629Z" style="fill: #fff"/>
        <path d="M122.2369,128.29467c.95646,1.62737.60443,5.82181-.53137,7.288H120.681c-.06472-.99635-.05479-1.94448-.20257-2.85944s-.455-1.80334-.7124-2.78134Z" style="fill: #fff"/>
        <path d="M75.5614,125.65109a1.34313,1.34313,0,0,1,.40389-.06081,1.36737,1.36737,0,0,1,.96116.39308l-.00018-.00018c.8186.73891,1.64058,1.47791,2.39783,2.27488a2.93016,2.93016,0,0,0,1.34661.90832,7.20728,7.20728,0,0,1,2.24669,1.20716,3.0716,3.0716,0,0,1,1.21381,2.04739,2.828,2.828,0,0,1-.89662.14273,2.87372,2.87372,0,0,1-1.54129-.44529l.01188.007a7.16115,7.16115,0,0,1-2.84277-2.70164,6.77692,6.77692,0,0,0-2.26832-2.53843l-.02482-.01552a4.14083,4.14083,0,0,1-.74937-.64449l-.00284-.0032a2.47611,2.47611,0,0,1-.25567-.57126Z" style="fill: #fff"/>
        <path d="M120.49163,71.48661a3.90137,3.90137,0,0,1,3.06032.6991c.47828.37526.94485.76719,1.38482,1.18562a5.27467,5.27467,0,0,1,.65194.81018l.01232.02013c.34538.49822.65425,1.02285.99635,1.51939A4.7709,4.7709,0,0,0,128.01,77.06427l.0203.0117a4.73675,4.73675,0,0,1,.82924.67809l.00107.00107a1.641,1.641,0,0,1,.22579.49822,1.01611,1.01611,0,0,1-1.26532-.23076c-.82029-.73394-1.634-1.48118-2.38454-2.28481a2.69352,2.69352,0,0,0-1.33836-.895,6.7059,6.7059,0,0,1-2.524-1.37985,3.75885,3.75885,0,0,1-1.0826-1.976Z" style="fill: #fff"/>
        <path d="M98.02816,95.076l.34866-.28554c.33209.269.65593.5148.96142.78208a8.159,8.159,0,0,0,3.0871,1.76637l.058.01543a4.77994,4.77994,0,0,0,1.30317.17676,4.9214,4.9214,0,0,0,.94121-.09042l-.03086.00506c.31879-.05479.6476-.06144.93492-.08635a4.5388,4.5388,0,0,1,.27394,3.93212c-.18094-.11126-.37358-.2109-.54468-.33209q-3.26616-2.41281-6.52587-4.8321a1.67776,1.67776,0,0,1-.807-1.05114Z" style="fill: #fff"/>
        <path d="M124.01862,117.5959c.651.55965,1.24705,1.13908,1.91123,1.624.636.46657,1.34164.83031,2.069,1.27852-.48492,1.10592-1.08925,2.05237-1.62736,3.10847-.22084-.166-.38023-.26064-.51312-.38519a11.65856,11.65856,0,0,1-2.049-2.61848l-.03-.05665a5.31059,5.31059,0,0,1-.30363-.63448l-.01348-.038a1.60439,1.60439,0,0,1,.19-1.72l-.00239.003c.1312-.17269.23245-.362.36861-.56125Z" style="fill: #fff"/>
        <path d="M78.33946,80.40526a5.39811,5.39811,0,0,1,1.49589,1.46452l.01188.01835A18.137,18.137,0,0,1,80.96309,83.518l.04645.08218c.641,1.10087.53971,1.717-.43333,2.79463a10.52919,10.52919,0,0,0-3.69081-2.73337l-.06693-.02642c-.04645-.70239.42836-1.1491.67419-1.6771s.543-1.008.84688-1.55264Z" style="fill: #fff"/>
        <path d="M117.40639,93.2212c1.4014.81532,3.07363,2.8793,3.16494,3.87564-1.16231,1.08766-4.08655.74724-5.11766-.55469a3.03028,3.03028,0,0,1,.2554-.6811l-.008.01684a5.66082,5.66082,0,0,1,.63741-.757l.00026-.00027a3.544,3.544,0,0,0,.80868-1.3896l.00665-.02518a2.858,2.858,0,0,1,.25912-.49582l-.00674.0109Z" style="fill: #fff"/>
        <path d="M87.45394,81.83494c-.24078,1.1225-.47331,2.20679-.74556,3.4722a18.08477,18.08477,0,0,1-4.25764-7.84093c.30053-.14609.42667.05151.57126.20585.62269.66426,1.22215,1.35326,1.8764,1.98428.57623.553,1.21212,1.0428,1.82656,1.56088Z" style="fill: #fff"/>
        <path d="M89.30879,107.50165a3.75136,3.75136,0,0,1-.42668.7655,5.16856,5.16856,0,0,0-1.4646,2.35289c-.00993.04149-.08139.06808-.12456.10292a7.95413,7.95413,0,0,1-3.18647-3.81917,4.07144,4.07144,0,0,1,5.20249.59786Z" style="fill: #fff"/>
        <path d="M117.25037,122.149c.20257-1.02286.39849-2.01424.60442-3.00217.02-.093.11454-.166.17438-.25407,1.49448,1.02454,3.85074,5.4,4.18947,7.86255a6.22538,6.22538,0,0,1-.64883-.56914l-.00045-.00045a22.44822,22.44822,0,0,0-3.71749-3.53575l-.05683-.041c-.176-.12952-.33537-.28226-.54467-.45992Z" style="fill: #fff"/>
        <path d="M126.57088,74.366a.74391.74391,0,0,1,.85246.00159l-.00239-.0016a10.42782,10.42782,0,0,1,1.18474.80575l-.02243-.017c1.11754.94485,2.21016,1.91957,3.321,2.87274a3.48849,3.48849,0,0,0,.72632.50567l.01924.00913a1.79155,1.79155,0,0,0,1.68012-.0047l-.00958.0047a1.32015,1.32015,0,0,0,.80035-1.32835.53825.53825,0,0,1,.08918-.22934l-.00115.00186c.00992-.01995.04485-.0266.12952-.073.0664.078.17765.15443.21754.25736a1.93492,1.93492,0,0,1,.13635.72011,1.96993,1.96993,0,0,1-1.60033,1.93481l-.01223.002c-.37358.078-.75389.12287-1.13908.18262-.11791.29884-.23909.54636-.31711.807-.53306,1.805-2.34792,1.85148-3.45553.76719.17181-.00922.373-.01454.57544-.01454s.40345.00523.60336.01569l-.02793-.00115a1.46537,1.46537,0,0,0,1.57755-1.67879,2.95107,2.95107,0,0,0-1.17729-2.19518c-.77552-.57455-1.58916-1.09759-2.37789-1.66052a10.01559,10.01559,0,0,1-1.13509-.83385l.01428.01188a6.06735,6.06735,0,0,1-.63457-.83678l-.01472-.02509Z" style="fill: #fff"/>
        <path d="M87.84924,80.35872a.69063.69063,0,0,1-.978-.08635q-1.32836-1.10751-2.64358-2.23666a6.73128,6.73128,0,0,1-.75868-.74254l-.00682-.008a1.22538,1.22538,0,0,1-.34539-1.16231c.72065-.44,1.5061-.93819,2.30972-1.40645.31045-.17934.33208-.14778.84688-.015.166.96639.26729,1.9544.5281,2.896s.69077,1.82993,1.04776,2.76148Z" style="fill: #fff"/>
        <path d="M121.6042,127.79476a12.72368,12.72368,0,0,1-2.767,1.65654l-.08245.03217c-.32375-.06143-.4632-.22083-.4616-.47162a11.51492,11.51492,0,0,0-1.40645-5.20409c-.02154-.04317,0-.10629,0-.19263a.83038.83038,0,0,1,.972.11179l-.00053-.00053c1.08261.93492,2.17195,1.86141,3.2363,2.81459a1.384,1.384,0,0,1,.52046,1.082,1.39851,1.39851,0,0,1-.01143.17864l.0007-.00692Z" style="fill: #fff"/>
        <path d="M98.80855,102.87371c.91825.69582,1.82657,1.41309,2.76813,2.07727,1.40973,1.01461,2.83781,2.00254,4.256,3.00554a1.64344,1.64344,0,0,1,.83031,1.09094c-.264.33208-.51648.22251-.77046,0-.39521-.342-.78377-.69414-1.19059-1.02117a7.31587,7.31587,0,0,0-2.447-1.23429l-.052-.01277a3.82315,3.82315,0,0,0-1.15317-.17411,3.93252,3.93252,0,0,0-.74955.07181l.02465-.004c-.42668.0797-.86683.08139-1.36328.12287a7.41907,7.41907,0,0,1-.37526-3.8557Z" style="fill: #fff"/>
        <path d="M75.5348,122.438c-.4866-.02323-.895-.06311-1.30343-.05975a1.22865,1.22865,0,0,0-1.32835.99635,2.24912,2.24912,0,0,0,.166,1.68544,3.11479,3.11479,0,0,0,1.06479,1.33358l.00949.00647c.77551.52978,1.55759,1.04608,2.34464,1.5576a3.79846,3.79846,0,0,1,1.58419,1.64058.68873.68873,0,0,1-.78873.02659,3.10328,3.10328,0,0,1-.77871-.47561l.00488.004c-1.26195-1.07268-2.50909-2.15866-3.76271-3.24295-.083-.07136-.166-.14441-.25239-.21418a1.83467,1.83467,0,0,0-2.83453.41675l-.176,1.02782c-.17766-.18262-.32047-.264-.36524-.38351a1.91044,1.91044,0,0,1-.11862-.66949,1.9487,1.9487,0,0,1,1.33863-1.85068l.01375-.0039a11.15507,11.15507,0,0,1,1.334-.24937l.06081-.00639c.09628-.24077.22411-.53643.33209-.83031.58456-1.6091,2.14039-1.961,3.45553-.709Z" style="fill: #fff"/>
        <path d="M83.18814,82.58546c-.3968.988-.47827,1.10255-1.02951,1.49448-1.09262-1.541-2.18188-3.08027-3.23966-4.57475a3.75682,3.75682,0,0,1,1.97763-2.29145c.4866.84857.66426,1.82656,1.07268,2.72327s.80539,1.75183,1.21877,2.64854Z" style="fill: #fff"/>
        <path d="M87.74285,72.83827a5.25138,5.25138,0,0,1,.68581-3.04374,4.34357,4.34357,0,0,1,3.35757.99634v3.346Z" style="fill: #fff"/>
        <path d="M121.52947,121.33033a2.59835,2.59835,0,0,1,.99635-1.43473l3.25456,4.59629a5.31643,5.31643,0,0,1-1.8365,2.3762,5.23506,5.23506,0,0,1-.451-.73509l-.014-.03041c-.2258-.56462-.38351-1.16231-.61445-1.71531-.41674-.99466-.86177-1.97435-1.335-3.057Z" style="fill: #fff"/>
        <path d="M115.99161,134.29405c-1.72027-.21755-2.63692-.57952-3.09348-1.1358v-3.29951c.176.05151.31879.088.45824.13449a13.26293,13.26293,0,0,0,3.22965.95477c.098,0,.191.09468.27234.13617a3.46605,3.46605,0,0,1-.86683,3.20979Z" style="fill: #fff"/>
        <path d="M111.35551,144.77358c-.729-.52641-1.4779-1.03615-2.19189-1.58916a.8956.8956,0,0,1,.12287-1.51939,3.49638,3.49638,0,0,1,.34822-.16667l.02535-.0093q1.04608-.4866,2.09394-.97144c.73066-.342,1.11257-.17934,1.38482.59618a2.93417,2.93417,0,0,1-1.7834,3.65978Z" style="fill: #fff"/>
        <path d="M98.279,133.19814l.538-.40841a15.47534,15.47534,0,0,1,6.02766,1.79172c-.11454.14282-.19264.33209-.33209.40177a4.57773,4.57773,0,0,1-3.3128.66426c-.61613-.14778-1.24537-.24406-1.85981-.40017-1.07268-.279-1.39315-.88509-1.06107-2.04908Z" style="fill: #fff"/>
        <path d="M106.432,70.78919l-.5679.45327a15.10375,15.10375,0,0,1-6.03926-1.77674,2.37153,2.37153,0,0,1,.39875-.44237l.0031-.00257a4.20326,4.20326,0,0,1,2.31814-.68935q.18936,0,.37455.01631l-.01605-.00115a17.40125,17.40125,0,0,1,2.55749.47587l-.12154-.02748c1.02782.24743,1.35495.84689,1.09263,1.9943Z" style="fill: #fff"/>
        <path d="M93.42521,59.25692c.68253.5148,1.25371.99635,1.87143,1.39484a1.06229,1.06229,0,0,1,.47827,1.37817,6.807,6.807,0,0,1-.69529.43324l-.037.01844c-.69245.33209-1.4014.63439-2.0989.95814-.74227.347-1.11257.19929-1.38482-.57295a3.00069,3.00069,0,0,1,1.49448-3.55518,1.29969,1.29969,0,0,1,.37163-.05478h.00026Z" style="fill: #fff"/>
        <path d="M74.67967,92.99522a2.836,2.836,0,0,1-.20088-.8303c.09964-.92658.25239-1.84652.40017-2.85944a2.4618,2.4618,0,0,1,.69077.1179c.80034.42668,1.59412.86843,2.37124,1.32835.52473.31551.51152.33209.77047,1.04449-.10293.51311-.21091,1.04777-.31383,1.55432a1.14645,1.14645,0,0,1-1.07933.05975,6.41741,6.41741,0,0,0-2.63861-.41507Z" style="fill: #fff"/>
        <path d="M126.30847,110.43077c1.36328.01161,2.46592.79378,3.76112.58616a7.03757,7.03757,0,0,1-.37358,3.68638c-.15274,0-.22083.03484-.26063.01161q-1.4397-.80867-2.87274-1.63065a.98279.98279,0,0,1-.49706-1.06576l-.00107.00639c.073-.48661.15106-.973.24406-1.59413Z" style="fill: #fff"/>
        <path d="M93.89347,138.65958c-.26729.66426-.49822,1.33836-.802,1.981a.81459.81459,0,0,1-.98544.44184l.00576.0016c-.98305-.26064-1.95937-.54964-2.92247-.88-.49822-.166-.59122-.51312-.342-.988a3.10129,3.10129,0,0,1,1.2061-1.30893l.01436-.00781a1.48924,1.48924,0,0,1,.75628-.20363,1.51537,1.51537,0,0,1,.18927.01179l-.00736-.00079c.8851.18759,1.75352.4616,2.62363.71408.09131.01826.15771.1312.264.23909Z" style="fill: #fff"/>
        <path d="M101.7577,116.48c-.04645.05975-.08466.14946-.14946.18262a8.39,8.39,0,0,1-2.951.88172l-.03794.00337c-.01667.0008-.03617.00124-.05585.00124a1.25531,1.25531,0,0,1-.59193-.14733l.00683.00328c-1.26363-.62109-2.519-1.26027-3.77432-1.89634-.04317-.02154-.06472-.08466-.15106-.20425a8.06018,8.06018,0,0,1,1.0006-.34725l.06214-.01472a5.8694,5.8694,0,0,1,3.26121.166c.88.32047,1.79341.55469,2.68338.84857.2773.09627.62437.12783.69742.52313Z" style="fill: #fff"/>
        <path d="M110.781,65.23476a15.38957,15.38957,0,0,1,1.14573-2.3247,12.66881,12.66881,0,0,1,3.89391.983c.0664.15443.12952.23244.12615.30549a2.27258,2.27258,0,0,1-2.76477,1.96274c-.553-.166-1.11416-.31879-1.67213-.475-.33705-.08962-.35035-.08962-.729-.45158Z" style="fill: #fff"/>
        <path d="M110.62822,88.59a2.556,2.556,0,0,1-1.41141.49821,4.88112,4.88112,0,0,1-1.092.12048,5.00624,5.00624,0,0,1-1.55707-.24671l.03537.01c-.94147-.3171-1.89137-.60947-2.83284-.92489-.27562-.093-.538-.2258-.89006-.37526.166-.20585.249-.38191.3703-.42509.83031-.28554,1.66885-.573,2.519-.79706a1.38048,1.38048,0,0,1,.28864-.02979,1.40941,1.40941,0,0,1,.60336.13475l-.00859-.00363c1.19883.56294,2.37788,1.1623,3.56013,1.76513a4.11519,4.11519,0,0,1,.42553.28156l-.01046-.00754Z" style="fill: #fff"/>
        <path d="M110.76439,62.7207a2.69764,2.69764,0,0,1-1.10255,2.54065l-3.07194-.62774c-.5812-.81364.015-1.732-.08962-2.57221a1.16116,1.16116,0,0,1,1.08765-.20585c.81364.12952,1.62569.27731,2.42771.46489a3.11986,3.11986,0,0,1,.74893.40017Z" style="fill: #fff"/>
        <path d="M110.50039,137.22653c1.86646.75389,2.14535.9116,2.47584,1.45468a3.6182,3.6182,0,0,1-.40815.4531l-.00195.00186c-.38687.31214-.82028.56958-1.18562.90335a3.07172,3.07172,0,0,1-4.17281-.802,1.32656,1.32656,0,0,1-.08528-.2992l-.00106-.008Z" style="fill: #fff"/>
        <path d="M94.93131,138.8024a23.987,23.987,0,0,1,3.27618.56789,5.19316,5.19316,0,0,1-.09627,2.65688,3.43849,3.43849,0,0,1-1.84483-.07137c-.5148-.078-1.02622-.191-1.53437-.30381-.66427-.14609-.87011-.44662-.80035-1.10087a2.58671,2.58671,0,0,1,.99963-1.74855Z" style="fill: #fff"/>
        <path d="M91.54226,65.47881a6.0065,6.0065,0,0,1,2.70005-1.961,2.96334,2.96334,0,0,1,.74431-.09264,3.03013,3.03013,0,0,1,2.37452,1.14422l.0047.00612a1.36388,1.36388,0,0,1,.16259.27189l.00346.00869a.7872.7872,0,0,1,.03147.19618v.00142c-1.00459.636-2.27816.81533-3.17655,1.7568Z" style="fill: #fff"/>
        <path d="M85.65228,142.36918a15.06412,15.06412,0,0,0-.347-2.54561c-.3171-.0133-.40682.14441-.33208.362a4.57779,4.57779,0,0,1-.05479,1.888,1.12594,1.12594,0,0,1-.12074.29583l.00283-.00532a4.25579,4.25579,0,0,1-2.18019-1.35,6.68143,6.68143,0,0,0,.84857-.9249,8.51179,8.51179,0,0,0,.52144-1.26363,3.70718,3.70718,0,0,1,.69015.11888l-.02589-.006a4.98358,4.98358,0,0,1,.75469.38909l-.02074-.01224c.64431.3719,1.27524.76551,1.92452,1.12747.85522.47659,1.02782.99635.55629,1.97763a2.49794,2.49794,0,0,1-2.21672-.05151Z" style="fill: #fff"/>
        <path d="M116.96137,61.49856a3.97332,3.97332,0,0,1,2.09722.11125c.05478.41507.12455.86843.166,1.32835.03156.30053,0,.60948.0531.90664a1.24812,1.24812,0,0,0,.264.42171l.166-.04982a10.87109,10.87109,0,0,1-.06011-1.16062l.00036-.091v.0047a12.60519,12.60519,0,0,1,.21232-1.36452l-.01471.08263a3.18176,3.18176,0,0,1,2.245,1.26691,6.63048,6.63048,0,0,0-.8585.92321,6.718,6.718,0,0,0-.4866,1.22374c-.02562.0008-.05567.00133-.08591.00133a2.81885,2.81885,0,0,1-.63216-.07136l.01888.00363a5.50418,5.50418,0,0,1-.8139-.44769l.02021.01268c-.62109-.352-1.23207-.724-1.86646-1.04945a1.24283,1.24283,0,0,1-.42508-2.05236Z" style="fill: #fff"/>
        <path d="M93.661,67.63259l-1.5974,2.47088c-.95814-.76718-2.1935-.68084-3.28781-.98305a3.33121,3.33121,0,0,1,1.97267-2.627,2.71867,2.71867,0,0,1,.61559-.06879A2.78474,2.78474,0,0,1,93.655,67.62337l.006.00913Z" style="fill: #fff"/>
        <path d="M111.0151,136.32158c.55628-.84023,1.08765-1.639,1.66052-2.50244.89671.93491,2.1786.66426,3.22965,1.0826a3.33559,3.33559,0,0,1-1.87967,2.55555,2.856,2.856,0,0,1-3.0105-1.1358Z" style="fill: #fff"/>
        <path d="M91.67834,59.32164a14.92365,14.92365,0,0,0-.7655,2.26991,12.93093,12.93093,0,0,0,.00993,2.27984s-.03484.09965-.098.11622a2.93217,2.93217,0,0,1-2.30812-.18093,1.18728,1.18728,0,0,1-.51817-1.56594,3.72409,3.72409,0,0,1,1.46975-1.8177l.0148-.00886c.57455-.37526,1.18562-.69077,1.78508-1.02286a1.60773,1.60773,0,0,1,.40655-.06959l.00355-.00009Z" style="fill: #fff"/>
        <path d="M113.13386,144.679a1.77846,1.77846,0,0,1,.06312-.61772,5.02723,5.02723,0,0,0,.50646-3.75447c-.01161-.04814.01995-.10629.03156-.166a2.23452,2.23452,0,0,1,3.01547.67916,2.08552,2.08552,0,0,1-.55469,1.82656,7.26287,7.26287,0,0,1-3.062,2.03251Z" style="fill: #fff"/>
        <path d="M105.52538,139.21081c.66426.48989,1.252.90167,1.81495,1.33836a1.66452,1.66452,0,0,1,.29451.409l.00434.0094a.791.791,0,0,1-.59786.68252,7.656,7.656,0,0,1-2.22807.48032l-.02358.00124a1.35842,1.35842,0,0,1-.15035.00815,1.38969,1.38969,0,0,1-1.03908-.46506l-.00116-.00133a2.49353,2.49353,0,0,1-.85521-2.08729c.50983-.08138.96479-.166,1.42311-.22748s.92827-.10124,1.35823-.14778Z" style="fill: #fff"/>
        <path d="M101.93208,64.36793a3.94952,3.94952,0,0,1-.59157.17269l-.02783.005c-.73394.083-1.47126.1461-2.15866.2125-.66426-.49822-1.28021-.94484-1.87807-1.4248-.12783-.10292-.166-.31214-.249-.45824a1.6052,1.6052,0,0,1,.97569-.66222l.01064-.002c.53138-.13785,1.066-.264,1.60742-.35868a1.59588,1.59588,0,0,1,.34211-.03617,1.63481,1.63481,0,0,1,1.32994.68226l.00337.00487a2.37613,2.37613,0,0,1,.636,1.86478Z" style="fill: #fff"/>
        <path d="M78.077,97.24294c-.95318.26232-1.8-.48-2.77806-.22748-.60283-1.05113-.42-2.18188-.75885-3.18984a1.22421,1.22421,0,0,1,1.07259-.07846l-.00825-.00292c.8054.25407,1.60405.53306,2.43764.812a4.49325,4.49325,0,0,1,.03484,2.68675Z" style="fill: #fff"/>
        <path d="M129.67765,107.24092a27.076,27.076,0,0,1,.37855,2.959,1.95907,1.95907,0,0,1-1.38651-.11622c-.631-.1843-1.2537-.39352-2.01424-.63439a4.76528,4.76528,0,0,1-.12952-2.64853,7.60884,7.60884,0,0,1,3.15164.44Z" style="fill: #fff"/>
        <path d="M123.94885,103.14108a12.7999,12.7999,0,0,1,.284,8.68949,2.505,2.505,0,0,1-.6476-1.99261,8.67353,8.67353,0,0,0-.52472-4.38212,7.86433,7.86433,0,0,1-.2383-.812l-.01241-.06135C122.68362,103.89,123.097,103.33708,123.94885,103.14108Z" style="fill: #fff"/>
        <path d="M80.70892,100.76328a12.24424,12.24424,0,0,1-.20584-8.57159,2.65283,2.65283,0,0,1,.58784,2.15866,7.67168,7.67168,0,0,0,.44,3.90224,7.87693,7.87693,0,0,1,.3226,1.14236l.0094.05487c.12952.72729-.31214,1.242-1.15406,1.31346Z" style="fill: #fff"/>
        <path d="M104.833,56.86069a7.4801,7.4801,0,0,1,1.11116-.08059,7.68608,7.68608,0,0,1,2.67336.4765l-.05337-.01729a2.37451,2.37451,0,0,1,1.27357,1.35167,2.41255,2.41255,0,0,1,.06311.67587,25.19176,25.19176,0,0,1-2.871.19424,2.16224,2.16224,0,0,1-1.81-1.39484,8.80164,8.80164,0,0,1-.38687-1.20548Z" style="fill: #fff"/>
        <path d="M99.8049,147.11166a7.33685,7.33685,0,0,1-3.74613-.42836,2.33866,2.33866,0,0,1-1.20352-1.28916l-.00532-.016a2.8864,2.8864,0,0,1-.07642-.67916l1.06771-.09131c.33209-.02819.66427-.03156.98634-.08635a2.2356,2.2356,0,0,1,2.57052,1.22375,2.19427,2.19427,0,0,1,.40842,1.28065q0,.04535-.00177.09025l.00018-.00426Z" style="fill: #fff"/>
        <path d="M102.03,62.22089a1.3302,1.3302,0,0,1,1.03571-.6093l.00373-.00018a3.85278,3.85278,0,0,1,2.49083.31879,3.28923,3.28923,0,0,1-.03484,2.627c-.88342.04148-1.77515.04148-2.76149,0-.03989-.86178-.76222-1.46461-.73394-2.33631Z" style="fill: #fff"/>
        <path d="M73.54538,116.63944c-.06977.31383-.20753.48989-.62774.38519a20.47939,20.47939,0,0,1-4.412-8.04189,3.22726,3.22726,0,0,1,1.03376-.16649,3.28415,3.28415,0,0,1,1.23.23741l-.02216-.00789c-.04982.33208-.0797.6858-.16605,1.02782a4.68244,4.68244,0,0,0,.87508,3.91713c.54139.76719,1.1623,1.47462,1.74855,2.21016.12456.14946.23741.30381.34034.43838Z" style="fill: #fff"/>
        <path d="M131.1888,87.34948c.07474-.13945.16605-.31551.25736-.48661.15106.0399.259.03484.30381.08635.37854.43669.77711.86178,1.11257,1.32835a21.548,21.548,0,0,1,3.25287,6.29174c.04645.15275.06808.31214.10957.5148a7.74913,7.74913,0,0,1-1.05361.06977,8.07117,8.07117,0,0,1-1.0952-.07438l.04158.0047c-.30718-.36861-.10125-.69077-.03325-.99635a4.74618,4.74618,0,0,0,.147-1.18642,4.87308,4.87308,0,0,0-.15435-1.22019l.00745.03377a4.69088,4.69088,0,0,0-.8366-1.71947l.008.01072Z" style="fill: #fff"/>
        <path d="M99.14073,139.5413h2.7996c0,.85681.84856,1.42312.69741,2.39447-.96807.74555-2.09553.28555-3.17318.42836a2.66722,2.66722,0,0,1-.32375-2.82292Z" style="fill: #fff"/>
        <path d="M129.16117,106.19307a4.82654,4.82654,0,0,1-2.15865-.166c-.17437-.02819-.357-.25567-.45992-.435a4.95085,4.95085,0,0,1-.25735-3.00385,1.936,1.936,0,0,1,1.38153-.259,5.7903,5.7903,0,0,1,1.49448,3.864Z" style="fill: #fff"/>
        <path d="M77.979,98.07484a4.0811,4.0811,0,0,1,.32207,3.48709l-1.39812.11791A8.88676,8.88676,0,0,1,75.36858,97.839a5.17924,5.17924,0,0,1,2.61033.23581Z" style="fill: #fff"/>
        <path d="M99.66705,58.20907c-.37526.11454-.5945.191-.82029.24742a9.55916,9.55916,0,0,0-1.03518.23972l.06871-.0172a2.28106,2.28106,0,0,0-1.30087,1.07578l-.00594.01188a6.82205,6.82205,0,0,1-.50043.716l.01054-.01365a9.84574,9.84574,0,0,1-2.21344-1.84483c.05647-.10461.06312-.13945.08467-.15106a9.22142,9.22142,0,0,1,4.42236-1.1623h.00461c.52472-.01658.80371.42,1.28517.8983Z" style="fill: #fff"/>
        <path d="M108.51939,143.66269a4.32452,4.32452,0,0,1,2.29146,1.80166,2.85939,2.85939,0,0,1-1.21107.60735l-.01932.00372c-.68749.1976-1.38482.36524-2.08224.52313a2.249,2.249,0,0,1-2.22177-.54964.51269.51269,0,0,1-.08014-.13758l-.00124-.00355a.77457.77457,0,0,1-.00435-.083.82163.82163,0,0,1,.00461-.08653l-.00026.00355a2.92118,2.92118,0,0,1,.62472-.20089l.0196-.00337a2.94529,2.94529,0,0,0,2.53063-1.732c.02154-.04318.06977-.073.14946-.14282Z" style="fill: #fff"/>
        <path d="M107.063,134.10974a1.34077,1.34077,0,0,1,.94139-.58883l.00673-.00071c1.06772-.11453,2.13543-.21586,3.20474-.31551a2.32371,2.32371,0,0,1,.44672.04912l-.01507-.00266a3.82725,3.82725,0,0,1-.987,2.08968l.00222-.00239a1.66473,1.66473,0,0,1-1.97435.29388c-.646-.33714-1.32834-.58616-1.59244-1.35a1.204,1.204,0,0,1-.03253-.16622l-.00071-.00648Z" style="fill: #fff"/>
        <path d="M92.96192,70.76756c.39681-1.1756.73891-2.19518,1.93286-2.56556a1.0316,1.0316,0,0,1,.641-.06312c.81861.37854,1.71868.67756,2.09226,1.67878a1.21558,1.21558,0,0,1-.88847.62357l-.00656.0008a27.94917,27.94917,0,0,1-3.73912.32491l-.03192.00053Z" style="fill: #fff"/>
        <path d="M88.799,141.15041a23.46441,23.46441,0,0,1,3.98523,1.35326c-.19592.99635-.58953,1.35991-1.46629,1.45636a3.857,3.857,0,0,1-2.49908-.68084.6832.6832,0,0,1-.33147-.70983l-.00062.00408c.07642-.45992.19264-.90664.31214-1.42312Z" style="fill: #fff"/>
        <path d="M116.23416,61.30432c-.09627.4234-.20425.8983-.30886,1.35494a9.86321,9.86321,0,0,1-3.91882-1.1623,1.18471,1.18471,0,0,1,1.0561-1.3732,4.1649,4.1649,0,0,1,2.49083.347,1.15031,1.15031,0,0,1,.6796.82622l.00124.00736Z" style="fill: #fff"/>
        <path d="M83.61987,67.01815a7.97625,7.97625,0,0,1,3.17982-4.2127,4.74766,4.74766,0,0,0,.35363,1.05114,4.29857,4.29857,0,0,0,.78049.75885c-.18431.15443-.31879.28555-.47163.39184-.88172.60611-1.77009,1.20219-2.65687,1.81a1.09438,1.09438,0,0,1-1.18562.20088Z" style="fill: #fff"/>
        <path d="M117.87634,141.16867c-.166-.83031-.166-.83031-1.11257-1.80165a5.149,5.149,0,0,1,.45788-.398l.012-.00886c.93651-.62774,1.888-1.23039,2.8113-1.87639a1.04838,1.04838,0,0,1,.98217-.18723l-.00745-.002c.0133.1046.08138.25407.03821.352a9.78628,9.78628,0,0,1-2.90093,3.84906.91192.91192,0,0,1-.27659.07269l-.004.00036Z" style="fill: #fff"/>
        <path d="M100.5704,60.88412a10.516,10.516,0,0,1-3.74613.80371c-.45992-1.68881.88-2.90262,2.989-2.66849Z" style="fill: #fff"/>
        <path d="M104.853,144.9281c-.24078-.61941-.46657-1.20389-.719-1.85485a5.19522,5.19522,0,0,1,1.88968-.53643,3.68371,3.68371,0,0,1,1.888-.25239c.26064,1.83818-1.01293,2.93249-3.05864,2.64358Z" style="fill: #fff"/>
        <path d="M110.07522,129.19465l1.57418-.40016a4.86347,4.86347,0,0,1,.31045,3.26457,1.77736,1.77736,0,0,1-1.883.30053,2.99639,2.99639,0,0,1-.00168-3.16493Z" style="fill: #fff"/>
        <path d="M94.56766,71.58794a3.25178,3.25178,0,0,1,.49751,1.73791,3.30479,3.30479,0,0,1-.03289.46648l.002-.01746c-.08138.626-.31551,1.10752-1.04449,1.1623-.3171.02492-.631.10789-.978.166a4.90945,4.90945,0,0,1-.28891-3.21635,2.30633,2.30633,0,0,1,1.84483-.29884Z" style="fill: #fff"/>
        <path d="M123.07714,96.19012c1.35663.61444,3.8557,3.80092,4.24763,5.20905-.812.63767-1.541.49822-1.89137-.40682a27.02675,27.02675,0,0,0-2.0974-4.27245l.06826.1211c-.12455-.20753-.21914-.43333-.32712-.651Z" style="fill: #fff"/>
        <path d="M81.443,107.93993a15.99635,15.99635,0,0,1-4.15126-5.38679,3.42713,3.42713,0,0,1,.47535-.25336l.02287-.009a.98658.98658,0,0,1,1.41478.5945c.28891.59281.52473,1.21212.8186,1.80334.45159.9116.93323,1.8083,1.39981,2.71334.06976.13617.12615.28058.18758.42Z" style="fill: #fff"/>
        <path d="M93.01839,130.84188l4.769,1.80831c-.13617.43173-.269.8585-.39521,1.26026-1.53269.171-3.84746-1.41975-4.37387-3.06866Z" style="fill: #fff"/>
        <path d="M107.65424,132.83281c-.75389-.43333-.68749-1.07765-.62773-1.67214.07473-.72233.35363-1.32835,1.21053-1.448a9.33828,9.33828,0,0,0,1.10007-.27579l-.06728.01844a13.78966,13.78966,0,0,0-.098,1.63065,10.93606,10.93606,0,0,0,.28723,1.49447,3.55658,3.55658,0,0,1-1.805.25239Z" style="fill: #fff"/>
        <path d="M111.67767,73.1255l-4.764-1.77843c.12615-.41506.24238-.80371.35532-1.18393C108.73854,69.84435,110.96359,71.28067,111.67767,73.1255Z" style="fill: #fff"/>
        <path d="M97.03517,71.12287c.83031.46489.70575,1.22879.60283,1.9162a1.31845,1.31845,0,0,1-1.14573,1.23207,7.69814,7.69814,0,0,0-1.01417.28776l.05435-.01711c-.26064-.57791.11294-1.07764,0-1.58082s-.19929-1.01462-.30886-1.57259a11.07252,11.07252,0,0,1,1.81167-.26568Z" style="fill: #fff"/>
        <path d="M89.83183,144.98288a.84078.84078,0,0,1,.93154-.475,2.79279,2.79279,0,0,0,.34512.02065,2.87635,2.87635,0,0,0,1.5561-.45433l-.01153.00691a2.40538,2.40538,0,0,1,.90832-.14778,2.25134,2.25134,0,0,1,.66426,2.30972,6.06593,6.06593,0,0,1-.79325-.055l.031.00345a15.27988,15.27988,0,0,1-3.63159-1.20884Z" style="fill: #fff"/>
        <path d="M114.78782,58.94461a.32647.32647,0,0,1,.02048.1148.33207.33207,0,0,1-.33208.33209.33639.33639,0,0,1-.03688-.002l.00151.00018a5.61843,5.61843,0,0,0-2.90758.70575.32254.32254,0,0,1-.166-.00993,2.01023,2.01023,0,0,1-.95149-2.1802.72175.72175,0,0,1,.77215-.093c1.16231.33208,2.3247.66426,3.48709,1.01461.04646.0133.07474.07642.11294.1179Z" style="fill: #fff"/>
        <path d="M135.44468,96.36113l1.13411-.22083a41.40631,41.40631,0,0,1,1.0577,6.09574,1.45443,1.45443,0,0,1-1.28021-.166,1.55793,1.55793,0,0,1,.12118-1.2819,2.88632,2.88632,0,0,0-.13448-2.39446c-.28058-.62934-.553-1.24706-.8983-2.03251Z" style="fill: #fff"/>
        <path d="M69.2099,107.63772l-1.11257.15443a44.041,44.041,0,0,1-1.04608-5.9695h1.28517a2.68505,2.68505,0,0,1,.06977.5898v.00142a2.98437,2.98437,0,0,1-.19973.82046l.00709-.02012a2.794,2.794,0,0,0,.09468,2.3247c.20257.45159.41507.9.61613,1.35326.088.19264.16107.3968.28554.74555Z" style="fill: #fff"/>
        <path d="M90.5491,132.03575a1.52589,1.52589,0,0,1,1.71868-.94316,23.60555,23.60555,0,0,0,1.73854,1.82657c.59618.49822,1.30512.87011,1.93614,1.35166a20.88269,20.88269,0,0,1-5.39336-2.235Z" style="fill: #fff"/>
        <path d="M90.79662,91.76812l-.73891.38022a16.842,16.842,0,0,0-1.77346-1.60574,18.13639,18.13639,0,0,0-2.19518-1.11585l.89174-1.32835Z" style="fill: #fff"/>
        <path d="M117.05108,64.54062l.973.49822c-.15612.42668-.28395.78048-.40346,1.10752.07474.57951.53643,1.11753-.03989,1.75351-.86843.0664-1.42143-.65264-2.18356-1.01292Z" style="fill: #fff"/>
        <path d="M89.29877,137.09533,87.69472,139.332a1.11178,1.11178,0,0,1-1.01461-.52145,1.60337,1.60337,0,0,0,.07136-1.9677l.26232-.78545c.95646-.02987,1.541.60948,2.28481,1.03784Z" style="fill: #fff"/>
        <path d="M114.86246,111.96017a7.06172,7.06172,0,0,0,3.78266,2.55058l-.93323,1.37658-3.776-3.60668a.76734.76734,0,0,1,.92658-.32048Z" style="fill: #fff"/>
        <path d="M112.44318,72.92621a17.41808,17.41808,0,0,0-1.66053-1.82656c-.59946-.49822-1.272-.83031-1.888-1.29023a19.4697,19.4697,0,0,1,5.239,2.10218,1.535,1.535,0,0,1-1.6904,1.01461Z" style="fill: #fff"/>
        <path d="M99.84976,73.53737a4.89827,4.89827,0,0,1-1.75024.17766c.0515-.8585.09964-1.66052.14778-2.48081a2.666,2.666,0,0,1,1.81664,0,2.9168,2.9168,0,0,1-.21418,2.30307Z" style="fill: #fff"/>
        <path d="M106.47687,132.798h-1.86646a3.50577,3.50577,0,0,1,.176-2.37957l1.84979-.26064c-.06143.52145-.12783.94148-.15274,1.36328s-.00665.81532-.00665,1.27693Z" style="fill: #fff"/>
        <path d="M111.1197,61.42879a2.73514,2.73514,0,0,1-.48882.04282q-.06809,0-.13528-.00319l.00629.00026c-1.21877-.21586-2.43436-.44831-3.65313-.68412-.06312-.0133-.11126-.10124-.18094-.166.05975-.07642.09628-.166.15771-.19264a4.93311,4.93311,0,0,1,2.2575-.53873,5.03365,5.03365,0,0,1,.82526.06781l-.02917-.004a1.41131,1.41131,0,0,1,1.24041,1.47791Z" style="fill: #fff"/>
        <path d="M93.495,142.56014a6.22084,6.22084,0,0,1,2.34792.3437c.72393.10789,1.41142.20921,2.21016.33208-.10629.16605-.14946.33209-.23244.352a18.58323,18.58323,0,0,1-2.02621.50823l-.13244.02154a1.97946,1.97946,0,0,1-1.9279-.8967,2.073,2.073,0,0,1-.23909-.6609Z" style="fill: #fff"/>
        <path d="M90.12908,113.01459a11.12264,11.12264,0,0,1,4.608,1.04608c-.11622.12287-.19592.26232-.31551.32207a2.77263,2.77263,0,0,1-.75318.29025l-.01906.00363a1.56077,1.56077,0,0,1-.88668,0c-.83031-.42-1.634-.91824-2.4427-1.39315-.06312-.02988-.09468-.12952-.191-.269Z" style="fill: #fff"/>
        <path d="M114.48561,90.94118c-1.60574.1312-3.01219-.5663-4.48344-1.04449.77047-.5148,1.49448-.96142,2.44766-.35868a7.56414,7.56414,0,0,1,2.03578,1.40308Z" style="fill: #fff"/>
        <path d="M102.37374,73.40121h-1.53437V71.2625h1.3998c.67091.75557.68749,1.02782.13448,2.13871Z" style="fill: #fff"/>
        <path d="M116.44666,74.75447c-.33209-.40017-.64095-.80868-.983-1.19387-.25736-.28891-.56294-.53474-.817-.8303-.0797-.08963-.06472-.26232-.13617-.60283a21.0795,21.0795,0,0,1,4.23424,3.605c-.58616.13449-.75726.06809-2.2981-.978Z" style="fill: #fff"/>
        <path d="M103.87487,132.82625a3.42409,3.42409,0,0,1-1.64226-.19423,1.65926,1.65926,0,0,1,.05479-1.89634l1.45795-.15611c.25567.37854.04486.7655.07473,1.13411s.03484.70576.05479,1.11257Z" style="fill: #fff"/>
        <path d="M90.21542,131.47778c-.98633-.01658-3.59169-2.22674-4.15126-3.33772.48492-.20921.74059.24237,1.08766.37526a8.96,8.96,0,0,1,1.07241.53643l-.0429-.02332c.35531.49822.64094.93155.973,1.32835s.70407.75221,1.06107,1.12082Z" style="fill: #fff"/>
        <path d="M99.33336,131.75357c.07474-.30053.166-.631.24575-.99635h2.0856c-.13785.53137-.26728,1.02622-.4101,1.56921a1.94487,1.94487,0,0,1-1.92125-.57295Z" style="fill: #fff"/>
        <path d="M105.25472,72.05442a1.1167,1.1167,0,0,1-.27561,1.1623H103.101c.10461-.52144.20426-1.01789.31551-1.56593a2.1598,2.1598,0,0,1,1.83818.40345Z" style="fill: #fff"/>
        <path d="M98.61263,69.43416c-.33209-.24743-.631-.48492-.94316-.70079s-.59281-.37189-.99635-.62774a33.49644,33.49644,0,0,1,3.9354.14282Z" style="fill: #fff"/>
        <path d="M75.65936,134.94005a.56387.56387,0,0,1-.0774-.41037l-.00062.00355a.94414.94414,0,0,1,1.873-.01171.89562.89562,0,0,1-.802.973.74306.74306,0,0,1-.15825.01649.76466.76466,0,0,1-.60929-.302l-.00133-.00186a2.05154,2.05154,0,0,1-.21995-.261l-.00425-.00629Z" style="fill: #fff"/>
        <path d="M128.98352,68.98913a1.06562,1.06562,0,0,1,.05771.34973,1.08447,1.08447,0,0,1-.102.46063l.00284-.00665c-.166.43005-.45992.46826-.812.45992a.83781.83781,0,0,1-.88341-.87011.809.809,0,0,1,.85016-.89333,1.28925,1.28925,0,0,1,.74893.28226.43213.43213,0,0,1,.13706.21445l.0007.003Z" style="fill: #fff"/>
        <path d="M107.89334,135.83675h-3.781l-.03156-.10461a9.37106,9.37106,0,0,0,1.05317-.55531l-.04193.02385c.31551-.21418.553-.553,1.07436-.52978Z" style="fill: #fff"/>
        <path d="M92.05857,130.25076a2.49234,2.49234,0,0,1-1.66239.63146q-.0867,0-.17189-.00576l.00771.00044a3.84738,3.84738,0,0,1-1.02951-1.448,10.6644,10.6644,0,0,1,2.85608.822Z" style="fill: #fff"/>
        <path d="M96.733,131.37822l.1461-.62774h2.059a2.40328,2.40328,0,0,1-.26728,1.22374,4.13644,4.13644,0,0,1-1.93783-.59617Z" style="fill: #fff"/>
        <path d="M107.84024,73.20183h-2.13206c.09131-.4367.166-.81533.264-1.2686.39849.093.71568.15443,1.02454.24574s.56463.19929.92162.33209c-.02659.23413-.0515.45664-.078.69077Z" style="fill: #fff"/>
        <path d="M114.58357,73.11717c.31551.42836.62109.8452.92826,1.26026a6.91925,6.91925,0,0,1-2.89-.66231l.04229.018a2.409,2.409,0,0,1,1.63189-.63324,2.43561,2.43561,0,0,1,.29937.01835l-.01179-.00115Z" style="fill: #fff"/>
        <path d="M115.54667,59.19877a9.67755,9.67755,0,0,1,2.83613,1.49448C117.003,61.29271,116.33541,60.74307,115.54667,59.19877Z" style="fill: #fff"/>
        <path d="M86.275,143.19453h1.78508l1.23544,1.55263a1.888,1.888,0,0,1-.48.02491,11.45057,11.45057,0,0,1-2.54065-1.57754Z" style="fill: #fff"/>
        <path d="M74.89713,100.96584a3.36542,3.36542,0,0,1-.34689-.24414l.00656.005c-.13944-.1312-.26728-.27561-.38687-.40017a1.68016,1.68016,0,0,1,.19592-1.28517,2.815,2.815,0,0,1,.53138,1.92452Z" style="fill: #fff"/>
        <path d="M130.28545,105.00417a4.67911,4.67911,0,0,1-.56125-1.92125C130.69058,103.49967,130.82675,103.968,130.28545,105.00417Z" style="fill: #fff"/>
        <path d="M103.31025,147.25111l.78714-.744a1.222,1.222,0,0,1,1.19723.45823,4.54712,4.54712,0,0,1-1.63632.29867q-.18364,0-.36391-.01409l.01587.001Z" style="fill: #fff"/>
        <path d="M106.26269,133.54353c-.57127.65592-1.13243.65592-2.47425-.02492C104.70668,133.47047,105.459,133.53688,106.26269,133.54353Z" style="fill: #fff"/>
        <path d="M101.29938,56.796c-.94316.90336-1.11913.91665-1.82657.18431A3.69969,3.69969,0,0,1,101.29938,56.796Z" style="fill: #fff"/>
        <path d="M94.14089,130.48479a1.82447,1.82447,0,0,1,.345-.03324h.00036c.52978.09468,1.05938.19592,1.61407.30053l-.12784.3952a2.17824,2.17824,0,0,1-1.83153-.66257Z" style="fill: #fff"/>
        <path d="M110.48877,73.56725l-1.85484-.34866c.04814-.19264.07642-.31214.11294-.46161a3.26709,3.26709,0,0,1,1.805.64759Z" style="fill: #fff"/>
        <path d="M100.68831,70.40223H98.40182a.843.843,0,0,1,.9186-.45585l-.00532-.00088a2.31968,2.31968,0,0,1,1.35663.47659Z" style="fill: #fff"/>
        <path d="M97.73756,134.8404l-.8718-.26728C97.369,134.39546,97.369,134.39546,97.73756,134.8404Z" style="fill: #fff"/>
        <path d="M107.94147,69.50889c-.45824.09468-.802.10461-1.07436-.35531a2.48414,2.48414,0,0,1,1.085.36143Z" style="fill: #fff"/>
        <path d="M100.67173,70.42218l.06143.01826c.05479.04485,0,0-.04486-.03821Z" style="fill: #fff"/>
      </g>
    </g>
  </g>
</svg>
