<svg xmlns="http://www.w3.org/2000/svg" viewBox="0 0 204.40449 204.40449">
  <g id="Layer_2" data-name="Layer 2">
    <g class="gambit-prime">
      <circle cx="102.20225" cy="102.11232" r="88.11834" style="fill: none;stroke: #fff;stroke-miterlimit: 10;opacity: 0.15"/>
      <rect class="polygon inner" x="44.1393" y="44.04938" width="116.12589" height="116.12589" transform="translate(102.13866 -42.3599) rotate(45)" style="fill: none;stroke: #fff;stroke-miterlimit: 10;opacity: 0.15"/>
      <g style="opacity: 0.15">
        <polygon points="102.202 75.843 135.648 117.125 169.094 158.406 102.202 158.406 35.311 158.406 68.756 117.125 102.202 75.843" style="fill: none;stroke: #fff;stroke-miterlimit: 10"/>
        <polygon points="102.202 128.381 68.756 87.1 35.311 45.818 102.202 45.818 169.094 45.818 135.648 87.1 102.202 128.381" style="fill: none;stroke: #fff;stroke-miterlimit: 10"/>
      </g>
      <circle cx="102.20225" cy="102.11232" r="51.97753" style="fill: #1f3e39"/>
      <g>
        <path d="M74.52534,113.2a11.03941,11.03941,0,0,1-12.35053-10.66188A10.82577,10.82577,0,0,1,66.1,93.91851a11.53216,11.53216,0,0,1,9.22821-2.55586c-1.06516-.98072-2.08109-2.02277-3.20766-2.927a8.99727,8.99727,0,0,0-5.14282-1.873,6.52624,6.52624,0,0,0-4.39419,1.32252A17.74572,17.74572,0,0,0,56.411,96.02071a17.69546,17.69546,0,0,0,4.26282,19.0567,8.19317,8.19317,0,0,0,6.643,2.44861,9.03823,9.03823,0,0,0,4.861-2.003C72.986,114.85983,73.67477,114.05127,74.52534,113.2Z" style="fill: #fff"/>
        <path d="M129.87915,113.2a11.0394,11.0394,0,0,0,12.35053-10.66188,10.82576,10.82576,0,0,0-3.92514-8.61961,11.53217,11.53217,0,0,0-9.22821-2.55586c1.06516-.98072,2.08109-2.02277,3.20766-2.927a8.99724,8.99724,0,0,1,5.14282-1.873,6.52622,6.52622,0,0,1,4.39418,1.32252,17.74558,17.74558,0,0,1,6.17247,8.13548,17.69546,17.69546,0,0,1-4.26282,19.0567,8.19317,8.19317,0,0,1-6.643,2.44861,9.0382,9.0382,0,0,1-4.861-2.003C131.41853,114.85983,130.72973,114.05127,129.87915,113.2Z" style="fill: #fff"/>
        <path d="M113.17177,129.73829a11.50928,11.50928,0,0,1,3.95281,5.37071,7.99281,7.99281,0,0,1-.5293,6.223,11.77017,11.77017,0,0,1-3.4889,3.98332,17.12956,17.12956,0,0,1-8.353,3.4511,17.60238,17.60238,0,0,1-16.57289-6.7039,7.24349,7.24349,0,0,1-1.17023-7.27765,8.85665,8.85665,0,0,1,1.78938-3.21669c.81031-.91515,1.72739-1.73576,2.68485-2.68428a10.9723,10.9723,0,0,0,3.23079,10.12642,10.85343,10.85343,0,0,0,8.02524,3.02771A11.02281,11.02281,0,0,0,113.17177,129.73829Z" style="fill: #fff"/>
        <path d="M112.91007,75.16989c.00922-.79766.02364-1.59529.02682-2.393a10.781,10.781,0,0,0-8.24792-10.2558A10.9253,10.9253,0,0,0,91.38223,70.456a14.67655,14.67655,0,0,0-.315,2.364c-.04534.50114-.00847,1.00971-.00847,1.54a10.36257,10.36257,0,0,1-4.16537-6.23622A8.136,8.136,0,0,1,89.298,60.667a16.60983,16.60983,0,0,1,10.27928-5.19409,17.65337,17.65337,0,0,1,14.95758,4.94216,13.81311,13.81311,0,0,1,2.21354,2.68213,7.3994,7.3994,0,0,1,.41411,6.70452,8.53688,8.53688,0,0,1-2.13806,3.37751c-.69791.67106-1.42575,1.311-2.14023,1.96481Z" style="fill: #fff"/>
        <path d="M74.88423,78.48966A3.5507,3.5507,0,0,1,71.233,74.85542a3.68045,3.68045,0,0,1,3.7144-3.62465,3.61508,3.61508,0,0,1,3.58751,3.7434A3.47459,3.47459,0,0,1,74.88423,78.48966Z" style="fill: #fff"/>
        <path d="M128.17621,78.48965a3.55064,3.55064,0,0,1-3.672-3.61388,3.66112,3.66112,0,1,1,7.32169.07807A3.53823,3.53823,0,0,1,128.17621,78.48965Z" style="fill: #fff"/>
        <path d="M74.8965,131.75405a3.55524,3.55524,0,0,1-3.66282-3.62361,3.6815,3.6815,0,0,1,3.70359-3.6344,3.63535,3.63535,0,0,1,3.60357,3.61731A3.51232,3.51232,0,0,1,74.8965,131.75405Z" style="fill: #fff"/>
        <path d="M128.17665,131.75431a3.54921,3.54921,0,0,1-3.67224-3.61169,3.66012,3.66012,0,1,1,7.31979.07143A3.54424,3.54424,0,0,1,128.17665,131.75431Z" style="fill: #fff"/>
        <path d="M67.837,102.86148v-1.42325l13.963-.9137,1.81114,1.59635-1.784,1.66175Z" style="fill: #fff"/>
        <path d="M100.55645,81.94867l.90383-14.13508h1.25927a134.195,134.195,0,0,1,1.02238,14.046l-1.41018,1.57519Z" style="fill: #fff"/>
        <path d="M122.56031,100.52459l13.919.90965.06121,1.38695c-4.67684.42023-9.33011.60066-14.017.97534l-1.76256-1.65218Z" style="fill: #fff"/>
        <path d="M102.89855,136.49318h-1.36173c-.06008-.38229-.15072-.75772-.17371-1.13724-.17981-2.96781-.34133-5.93671-.51992-8.90458-.07832-1.30166-.18329-2.60171-.278-3.92887l1.57758-1.79589,1.66065,1.77614Z" style="fill: #fff"/>
        <path d="M112.88419,75.144l-.06238.08477.08826-.0589Z" style="fill: #fff"/>
        <path d="M134.33436,119.07237a11.41872,11.41872,0,0,1-4.88409-2.96277q-6.62335-6.65221-13.26164-13.28961c-.22351-.224-.432-.463-.64806-.69564.104-.12527.16712-.21492.24347-.2914q6.90163-6.91428,13.80748-13.82435a11.23282,11.23282,0,0,1,4.85514-2.8038c.15664-.04635.31009-.10343.4926-.1648-.09327-.11659-.12578-.20117-.17468-.21205a17.44615,17.44615,0,0,0-6.81341-.22719,18.05513,18.05513,0,0,0-10.11592,5.37c-2.22915,2.29808-4.51568,4.54054-6.77939,6.805-.14178.14184-.30667.26055-.53323.45083l-3.32093-3.49986c.21089-.22568.44651-.49329.69822-.74477q3.51348-3.51037,7.02955-7.0181a17.1392,17.1392,0,0,0,3.46629-5.11325,18.24737,18.24737,0,0,0,1.45959-9.04082,11.92588,11.92588,0,0,0-.19587-1.28984c-.07206-.38606-.17131-.76707-.31589-1.402a12.3059,12.3059,0,0,1-3.27458,5.99722q-6.52769,6.5164-13.05512,13.03309c-.253.25247-.518.49293-.81684.77647-.2939-.27691-.5597-.515-.81184-.76674-4.274-4.26768-8.53455-8.549-12.82532-12.7998a12.50927,12.50927,0,0,1-3.39569-5.49441,3.31454,3.31454,0,0,0-.28-.51964,15.77377,15.77377,0,0,0-.30689,7.062,17.60226,17.60226,0,0,0,5.09418,9.78653c2.28768,2.24009,4.54053,4.51575,6.80643,6.778.25313.25272.49064.52109.65841.70006-1.13068,1.21336-2.21414,2.37606-3.31151,3.55366-.21437-.19385-.354-.30928-.48136-.43689q-3.43182-3.43768-6.86017-6.87882A17.73885,17.73885,0,0,0,70.91955,84.574c-.48437.061-.95858.2028-1.43485.30646.02541.11132.02376.16682.04212.1745a3.76967,3.76967,0,0,0,.40042.147,11.662,11.662,0,0,1,5.09661,3.02162Q81.60844,94.83735,88.2083,101.436c.22179.22231.42727.46089.64777.69994-.13938.152-.23338.26242-.3355.36473q-6.863,6.87572-13.73343,13.74405A14.0915,14.0915,0,0,1,73.196,117.5659a12.98308,12.98308,0,0,1-4.03065,1.80388,6.90143,6.90143,0,0,0,.911.28433,19.69965,19.69965,0,0,0,5.965.10565,17.90866,17.90866,0,0,0,10.51227-5.48751c2.22951-2.29775,4.51748-4.53879,6.78212-6.80238a3.41881,3.41881,0,0,1,.32962-.27906c1.16616,1.15524,2.26724,2.246,3.45637,3.424-.22111.18953-.51337.40957-.7704.66506-2.374,2.35992-4.80978,4.66247-7.09667,7.10429a17.54939,17.54939,0,0,0-4.69681,15.04781c.06.44028.20112.8695.3163,1.3533.1363-.12419.21814-.16178.23129-.216a11.91614,11.91614,0,0,1,3.41474-5.71757c4.24432-4.19424,8.454-8.42361,12.67193-12.64446.282-.28224.51792-.61057.79783-.94437.291.26575.48141.42665.65726.60216q6.75965,6.74634,13.5103,13.50163a14.8058,14.8058,0,0,1,1.394,1.67206,12.67046,12.67046,0,0,1,1.793,4.031,14.9726,14.9726,0,0,0,.46165-6.50335,17.69448,17.69448,0,0,0-5.42883-10.77568c-2.27228-2.20351-4.48728-4.46608-6.72452-6.70562-.17041-.17058-.31461-.36732-.42178-.4938l3.44181-3.4701c.15565.14527.34621.31246.5249.49149q3.47022,3.47644,6.93781,6.95553a17.75829,17.75829,0,0,0,14.54579,5.31452c.82237-.0618,1.63357-.27218,2.65562-.44947C134.862,119.26114,134.60242,119.15249,134.33436,119.07237Zm-32.34054-13.7943-2.94748-3.11425,3.23493-3.24309c.97908.986,2.04622,2.06071,3.05914,3.0808Z" style="fill: #fff"/>
      </g>
    </g>
  </g>
</svg>
