<svg xmlns="http://www.w3.org/2000/svg" viewBox="0 0 204.40449 204.40449">
  <g class="Layer_2" data-name="Layer 2">
    <g class="reckoning">
      <path d="M165.1356,71.02832l-.58557-.58557L133.37614,39.26886h0L102.20225,8.095,71.02843,39.26886h-.00007L39.85447,70.44275l-.58557.58557L8.095,102.20221,39.2689,133.3761l.58557.58557L70.44279,164.55l.58557.58557,31.17389,31.17389,31.17389-31.17389.58557-.58557L164.55,133.96167l.58557-.58557,31.17389-31.17389Zm-62.93335.82867,30.34528,30.34522-30.34528,30.34528L71.857,102.20221Zm31.17389,29.51661L103.03087,71.02832l30.34527-30.34521,30.34528,30.34521ZM102.20225,9.50928l30.34528,30.34521L102.20225,70.19971,71.857,39.85449ZM71.02836,40.68311l30.34528,30.34521L71.02836,101.3736,40.68309,71.02832Zm-61.5191,61.5191L39.85447,71.857l30.34528,30.34522L39.85447,132.54749ZM40.68309,133.3761l30.34527-30.34522,30.34528,30.34522L71.02836,163.72137Zm61.51916,61.51916L71.857,164.55l30.34527-30.34522L132.54753,164.55Zm31.17389-31.17389L103.03087,133.3761l30.34527-30.34522,30.34528,30.34522ZM164.55,132.54749l-30.34527-30.34528L164.55,71.857l30.34528,30.34522Z" style="fill: #fff;opacity: 0.15"/>
      <polygon class="polygon inner" points="133.465 27.903 70.653 27.903 26.238 72.317 26.238 135.129 70.653 179.543 133.465 179.543 177.879 135.129 177.879 72.317 133.465 27.903" style="fill: none;stroke: #fff;stroke-miterlimit: 10;opacity: 0.15"/>
      <circle cx="101.95225" cy="101.95225" r="51.97753" style="fill: #1f3e39"/>
      <path d="M147.97554,99.204a45.62293,45.62293,0,0,0-5.86744-19.89938l.11843.22642,5.34309-7.38293H137.09779a46.02609,46.02609,0,0,0-70.23633-.06592l-.05458.06592H56.47609l5.26447,7.27441a45.11506,45.11506,0,0,0-5.80539,19.65377l-.00621.12762-.08907-.08664v5.67019l.08907-.08664a46.10566,46.10566,0,0,0,92.04018.13033l.00639-.13033.08908.08664v-5.6702ZM133.90532,72.14808H117.96369L103.704,58.26826A43.54111,43.54111,0,0,1,133.88127,72.122Zm-19.37394,0H89.3733l12.579-12.24373ZM100.20079,58.26826,85.941,72.14808H69.999a43.51377,43.51377,0,0,1,30.11506-13.877l.08674-.0028ZM63.28911,81.5623l5.36443,7.41256L58.33077,99.02259a43.26167,43.26167,0,0,1,5.072-17.691Zm-4.95834,23.31989,41.87,40.754a43.80868,43.80868,0,0,1-41.86218-40.615l-.00784-.13905Zm42.445,37.973L58.75262,101.95243,70.072,90.93482l30.75163,42.49227ZM71.80557,89.24739h0L63.09115,77.20594l38.93162,35.189,38.93189-35.18932L102.0225,131.00079Zm31.412,44.185,30.69768-42.41724L145.152,101.95234,103.17,142.81528Zm.48643,12.20384,41.86976-40.754a43.81866,43.81866,0,0,1-41.77988,40.75107l-.08988.00306Zm31.62966-56.58095,5.34228-7.38176a42.68118,42.68118,0,0,1,4.89052,17.21531l.0073.13374Z" style="fill: #fff"/>
    </g>
  </g>
</svg>
