<svg xmlns="http://www.w3.org/2000/svg" viewBox="0 0 204.40449 204.40449">
  <rect class="orange" x="55.21411" y="54.78736" width="93.97648" height="93.97648" transform="translate(101.90059 -42.45859) rotate(45)" style="fill: #cc3c1d;opacity: 0.8"/>
  <g class="orange-border" style="opacity: 0.2">
    <path d="M102.20234,36.7384l65.03724,65.0372-65.03724,65.03721L37.16514,101.7756l65.0372-65.0372m0-1.4142-66.4514,66.4514,66.4514,66.4514,66.45142-66.4514L102.20234,35.3242Z" style="fill: #fff"/>
  </g>
  <rect class="square" x="45.66131" y="45.66111" width="113.08208" height="113.08208" transform="translate(102.20221 -42.33365) rotate(45)" style="fill: none;stroke: #fff;stroke-miterlimit: 10;stroke-width: 0.75px;opacity: 0.15"/>
  <polygon class="polygon inner ani" points="129.91 34.893 74.494 34.893 35.309 74.078 35.309 129.494 74.494 168.679 129.91 168.679 169.096 129.494 169.096 74.078 129.91 34.893" style="fill: none;stroke: #fff;stroke-miterlimit: 10;stroke-width: 0.75px;opacity: 0.4"/>
  <polygon class="polygon inner" points="129.91 34.893 74.494 34.893 35.309 74.078 35.309 129.494 74.494 168.679 129.91 168.679 169.096 129.494 169.096 74.078 129.91 34.893" style="fill: none;stroke: #fff;stroke-miterlimit: 10;stroke-width: 0.75px;opacity: 0.4"/>
  <polygon class="polygon outer" points="135.7 21.241 68.704 21.241 21.331 68.614 21.331 135.61 68.704 182.984 135.7 182.984 183.074 135.61 183.074 68.614 135.7 21.241" style="fill: none;stroke: #fff;stroke-miterlimit: 10;stroke-width: 0.75px;opacity: 0.15"/>
  <g class="breakthrough">
    <g>
      <g>
        <g>
          <path d="M103.115,102.46612a1.03985,1.03985,0,0,0,0-1.18464l-.59228.59231Z" style="fill: #fff"/>
          <path d="M102.25547,101.60656l.59229-.59231a1.03987,1.03987,0,0,0-1.18457,0Z" style="fill: #fff"/>
          <path d="M101.396,101.28148a1.03985,1.03985,0,0,0,0,1.18464l.5923-.59233Z" style="fill: #fff"/>
          <path d="M102.25547,102.141l-.59231.59233a1.03986,1.03986,0,0,0,1.18462,0Z" style="fill: #fff"/>
        </g>
        <g>
          <path d="M99.90724,99.25827a3.5036,3.5036,0,0,1,4.69647,0l1.208-1.208-3.55622-3.55622-3.55622,3.55622Z" style="fill: #fff"/>
          <path d="M106.07893,105.43008l3.55626-3.55626-3.55626-3.55629-1.208,1.208a3.50357,3.50357,0,0,1,0,4.69654Z" style="fill: #fff"/>
          <path d="M104.60371,104.48931a3.5036,3.5036,0,0,1-4.6965,0l-1.208,1.208,3.55624,3.55622,3.55622-3.55622Z" style="fill: #fff"/>
          <path d="M99.64,104.22207a3.50356,3.50356,0,0,1,0-4.69656l-1.208-1.208-3.55629,3.55629,3.55626,3.55626Z" style="fill: #fff"/>
        </g>
      </g>
      <g>
        <path d="M85.68792,142.2778l-2.11128-2.11126.45369-.45369c-.76383-.00062-1.39927-.00938-1.98656-.028-.10609-.00347-.211-.00417-.31617-.00538l2.598,2.598Z" style="fill: #fff"/>
        <path d="M83.99056,63.94931l-.41416-.41416,2.14732-2.14732h-1.362L81.7351,64.01448c.27254-.00144.55358-.00882.85986-.024C83.04842,63.96813,83.50935,63.9544,83.99056,63.94931Z" style="fill: #fff"/>
        <path d="M115.40994,146.06958c-.39782.12657-.54567.24653-.94343.3614l-2.69772,2.69772-2.27813-2.27813q-.59641.09485-1.19028.17175l2.78741,2.78738-5.61885,6.36888v1.362l11.33634-12.08641C116.797,145.458,115.72645,145.96847,115.40994,146.06958Z" style="fill: #fff"/>
        <path d="M93.1916,149.78139l2.8328-2.83279q-.5877-.08764-1.17488-.18712l-2.33892,2.33891-2.86931-2.61925c-.30937-.13192-.61771-.269-.9235-.41828l-1.67311-.8163L99.28522,157.237q.0067-.67371.00906-1.35292Z" style="fill: #fff"/>
        <path d="M114.30508,69.87583l-2.579,2.57906-7.00872-7.00865a7.88458,7.88458,0,0,0-.29385,1.06812l6.62157,6.62153-8.934,8.934-8.91962-8.91968,6.88032-6.8803a7.42408,7.42408,0,0,0-.32331-1.03866l-7.238,7.238L90.178,70.13679c-.00265.42727-.007.85234-.01232,1.27206l-.00091.07672,1.66467,1.66467-8.80407,8.804L79.60647,78.5354q-.41842.26438-.824.538l3.56188,3.56185-8.93394,8.93391-3.10231-3.1023q-.23451.44844-.45225.90974l2.87356,2.87356-5.3735,5.37347c-.08409.51845-.15561,1.047-.21963,1.58161l6.27413-6.27407,8.91974,8.91968-8.91965,8.91971-6.2428-6.24274q.0877.79531.20559,1.56756l5.35621,5.35618L69.83,114.35113c.14547.30694.29815.60858.45461.90743l3.12594-3.126,8.93391,8.93388-3.56259,3.56262q.40519.27366.82444.53755l3.41915-3.41917,8.80413,8.8041-1.59471,1.59475c.02557.44467.03715.89114.02134,1.34063l2.25437-2.25437,6.76872,6.76868c-.01408-.47186-.02666-.93979-.03484-1.39683l-6.05288-6.05286,8.91966-8.91971,8.93393,8.93388-5.66973,5.66979c-.01011.47183-.0303.94331-.05255,1.41453l6.40329-6.40332,2.5141,2.51408a12.43518,12.43518,0,0,1-.00444-1.36642l-1.82866-1.82866,8.93388-8.93391,3.53522,3.5352q.41922-.264.82435-.53765l-3.67857-3.67855,8.80389-8.80393,3.28285,3.28288c.1584-.29718.30955-.59976.457-.905L131.507,111.4659l5.64042-5.64048q.11212-.76749.19529-1.55729l-6.51672,6.51677-8.93387-8.93394,8.934-8.93408,6.55432,6.55428q-.08982-.79716-.20888-1.57087l-5.66444-5.66441,3.0377-3.0377q-.22143-.45771-.45855-.90345l-3.26015,3.26015L122.022,82.7508l3.67852-3.67854q-.40455-.27434-.8241-.53791L121.341,82.0698l-8.93394-8.93391,1.90905-1.90905Q114.30755,70.55586,114.30508,69.87583ZM120.66,82.7508l-5.78375,5.78375c.2109.2.4188.40452.62195.6156.02039.02119.03918.04365.05949.065L121.341,83.4318l8.8041,8.80408-8.934,8.93408-.68379-.68379c.0301.49961.04268,1.0004.02787,1.50142.00438.41413-.01111.82577-.03572,1.236l.69164-.69164,8.93388,8.93393-8.80389,8.80393-5.79895-5.79894c-.069.07213-.13462.1465-.205.21775-.15623.15814-.31746.30928-.47825.461l5.80118,5.80118-8.93387,8.93391-8.93394-8.93388.83914-.83914c-.457.03377-.91615.05644-1.37908.05644l-.039-.00038-.10208.10208-.10418-.10417c-.05761-.00071-.115-.00059-.17286-.00177-.42572-.00955-.84793-.03888-1.2683-.07739l.86434.86433-8.91966,8.91971-8.80413-8.8041,5.95306-5.95306c-.16411-.15673-.32819-.31355-.48733-.477-.06566-.06743-.12686-.138-.19138-.20631l-5.95535,5.95535-8.93391-8.93388,8.91965-8.91971,1.03353,1.03352c-.04515-.47571-.06764-.95583-.07622-1.43822l-.27631-.2763.27205-.27205c.00546-.48179.0308-.96009.07286-1.43487l-1.02591,1.02592-8.91974-8.91969,8.93394-8.9339,5.93239,5.93239c.13566-.14274.26975-.28662.41052-.42563.08854-.08741.181-.16945.271-.25484l-5.93292-5.93293,8.80408-8.804,8.91962,8.91968-.85355.85354c.47566-.045.956-.06772,1.43872-.07671l.09583-.09583.09133.09133c.05658-.0005.11266-.00406.16934-.00406l.13027.00047c.36981.00253.7372.01981,1.10322.04442l-.81316-.81316,8.934-8.934Z" style="fill: #fff"/>
        <path d="M120.37125,139.71308c-.05879,0-.12008-.00044-.17925-.00053l.24647.24647-2.6822,2.68221,1.21941.14259,3.08884-3.08888C121.55933,139.70705,121.01254,139.71308,120.37125,139.71308Z" style="fill: #fff"/>
        <path d="M49.48466,106.07483l-4.2239-4.22387,4.20867-4.20869q.06724-.76349.16079-1.52279l-5.42976,5.42978-.30179.30162,5.74769,5.74762C49.583,107.0926,49.5314,106.58417,49.48466,106.07483Z" style="fill: #fff"/>
        <path d="M154.94343,96.88581q.07836.74448.13078,1.49278l3.47226,3.47226-3.48813,3.48813c-.0381.50229-.08566,1.00269-.1398,1.50183l4.30893-4.309.01587.01587.681-.681Z" style="fill: #fff"/>
        <path d="M87.62887,59.05371c.21757-.07993.43606-.14859.65393-.225l4.22751-4.22751L94.9521,57.043c.39118-.07158.78244-.12822,1.17368-.18836l-2.93447-2.93444,8.71225-8.7123,8.93414,8.93414-2.67415,2.67415c.39138.05776.78276.11864,1.17423.18777l2.18092-2.18092,3.61762,3.61761q.88253.28286,1.76267.60267l.3181.11611L102.523,44.46533l-.62271-.61607L86.15435,59.5952Z" style="fill: #fff"/>
        <path d="M118.07272,61.3771l2.36555,2.36554-.20535.20535c.57556.00232,1.12168.016,1.656.04251.05738.00285.10979.004.16561.0064l-2.61948-2.61948Z" style="fill: #fff"/>
      </g>
      <g>
        <path d="M129.46947,141.43505c-1.80681-2.44086-4.28674-3.043-7.068-2.95381-1.7549.05629-3.51307.0105-5.72972.0105l1.44784-1.08573-.51314-2.24095H115.6976a12.64618,12.64618,0,0,1-.13264-4.56747c14.59364-4.42108,22.71373-13.875,23.18741-29.34706-1.01232-14.81512-9.0035-23.90608-23.21569-28.14427,0-1.90548-.08375-3.90444.02989-5.89212.07391-1.29285.92592-1.95482,2.29807-2.01243,1.31961-.0554,2.646-.07415,3.96436-.00859,2.95133.14676,5.67907-.25395,7.52758-2.82958,11.72137,5.04479,23.424,18.71937,24.54524,36.45143A44.00671,44.00671,0,0,1,129.46947,141.43505Zm-9.44671-7.09521a12.14125,12.14125,0,0,0,.36715,1.34838c.16095.38652.39718.74169.68635,1.26577l2.44584-1.10529-1.1277-2.45245Zm25.07189-22.31532-2.651-.83691c-.30628.907-.55366,1.63954-.85607,2.53508l2.60874.89013ZM142.68889,93.519l2.71131-.87638-.99535-2.63634-2.48264.98659Zm.77965,12.714-.48015,2.523,2.72955.55389c.15343-.99529.27749-1.8.43106-2.79632Zm-4.04792-26.05022-2.21184,1.693,1.48544,2.12212,2.32059-1.567ZM120.9428,69.69917l2.46359.90029,1.06681-2.50116c-.55148-.24888-.87566-.42643-1.22052-.5426-.39887-.13437-.816-.21471-1.38932-.36015Zm16.80252,8.25358-1.90124-1.94637-2.08372,1.76031,1.90689,2.09011Zm2.15743,8.19218,1.1353,2.44869,2.55111-1.21546-1.22489-2.43234Zm3.3127,31.10022-2.59044-1.20781-1.1926,2.32472,2.35235,1.32261Zm-5.10193,3.26554-1.51952,2.2066,2.20827,1.61983,1.61106-2.27379Zm-5.09675,5.93639,2.07725,2.06326,1.94178-2.08373-2.15663-1.892Zm-8.31088,5.96422,1.39422,2.48764,2.36049-1.51014-1.45208-2.26532Zm.92518-60.70366,2.33821,1.37748,1.36687-2.43956-2.35134-1.332Zm3.54833,58.09059,1.71655,2.17988,2.11993-1.73007-1.837-2.08089ZM118.53974,68.9703l.72989-2.74789-2.74127-.48583-.52956,2.60151Zm25.01249,29.314a2.72,2.72,0,0,0,2.68326-.45609l-.3-2.37377-2.74734.45593Zm2.81551,5.35841v-2.53259H143.789v2.53259Zm-14.64366-31.377-1.73482,2.22008,2.06315,1.67246,1.77781-2.12065Z" style="fill: #fff"/>
        <path d="M118.86936,101.9669a16.61222,16.61222,0,1,1-16.37808-16.76165A16.579,16.579,0,0,1,118.86936,101.9669Zm-5.65021-.15431a10.95743,10.95743,0,1,0-10.90891,10.98872A11.058,11.058,0,0,0,113.21915,101.81259Z" style="fill: #fff"/>
        <path d="M104.26491,146.34671v15.09648c1.49549,1.13138,2.81021.07976,4.36876-.22545l.13285,2.42948-4.88732-.40127c-1.40092,3.18871-.68991,6.35426-.91912,9.4548.63027.66987,1.25871,1.3289.74025,2.52069l-1.43079.9997-1.32959-.89352a1.85892,1.85892,0,0,1,.61783-2.524c-.19832-3.18068.37484-6.2791-.61752-9.213-1.74052-.60671-3.26013-.1217-4.95935.19343v-2.53343c1.47466.30785,2.79951,1.26387,4.41827.15447.18-4.85482.0793-9.85941.04516-15.075-4.28916-.585-8.53094-.93727-12.44849-2.8489,1.9831,0,3.96621.0053,5.94929-.00153a7.37867,7.37867,0,0,0,5.03306-1.82608,3.96447,3.96447,0,0,0,1.51446-3.28831c-.0814-2.45341-.09018-4.91484.01555-7.36665a21.28027,21.28027,0,0,1,.66047-4.07686,10.11261,10.11261,0,0,1,1.07042-2.06707,7.89405,7.89405,0,0,1,1.84585,5.27025c.0955,2.64173.16859,5.29578.01826,7.9313-.1237,2.16861.99321,3.41363,2.62115,4.42106a7.36438,7.36438,0,0,0,3.97823,1.00827,49.43828,49.43828,0,0,1,5.91193.23479c-.356.15219-.70236.33493-1.06965.45179a40.90883,40.90883,0,0,1-9.60913,1.87731A15.65605,15.65605,0,0,0,104.26491,146.34671Z" style="fill: #fff"/>
        <path d="M88.04389,60.18381a40.14129,40.14129,0,0,1,28.44242-.00935c-1.75194,0-3.50391-.00671-5.25582.00127-5.07974.02316-8.06188,2.95144-8.21147,8.05674-.03991,1.36206-.07682,2.7242-.12757,4.52989l-1.31424.00792s-.02184-1.72939-.03263-2.16715c-.02324-.94232.01441-1.88749-.04132-2.82743-.27871-4.70034-3.20274-7.50992-7.90055-7.58691C91.75024,60.15843,89.89686,60.18381,88.04389,60.18381Z" style="fill: #fff"/>
        <path d="M50.582,98.815c1.12126-17.73206,12.82388-31.40664,24.54525-36.45143,1.84851,2.57563,4.57625,2.97634,7.52757,2.82958,1.3184-.06556,2.64476-.04681,3.96437.00859,1.37215.05761,2.22415.71958,2.29807,2.01243.11364,1.98768.02989,3.98664.02989,5.89212C74.735,77.34445,66.74378,86.43541,65.73146,101.25053c.47368,15.47208,8.59377,24.926,23.18741,29.34706a12.64618,12.64618,0,0,1-.13265,4.56747H86.87737l-.51315,2.24095,1.44784,1.08573c-2.21664,0-3.97482.04579-5.72972-.0105-2.78125-.08921-5.26117.51295-7.068,2.95381A44.00673,44.00673,0,0,1,50.582,98.815Zm31.50743,34.58128-1.1277,2.45245,2.44584,1.10529c.28916-.52408.5254-.87925.68635-1.26577a12.13943,12.13943,0,0,0,.36714-1.34838ZM60.28748,114.61282l2.60873-.89013c-.3024-.89554-.54979-1.6281-.85607-2.53508l-2.651.83691Zm2.27414-23.62L60.079,90.00627l-.99536,2.63634,2.71132.87638Zm-4.22679,15.52072c.15357.9963.27763,1.801.43106,2.79632l2.72955-.55389-.48016-2.523ZM63.469,82.43093l2.32058,1.567L67.275,81.87578l-2.21183-1.693ZM82.62047,67.19555c-.57338.14544-.99045.22578-1.38932.36015-.34486.11617-.669.29372-1.22053.5426l1.06682,2.50116,2.46359-.90029ZM68.81658,79.8568l1.90689-2.09011-2.08372-1.76031-1.90124,1.94637Zm-6.697,5.089-1.22489,2.43234,2.5511,1.21546,1.13531-2.44869Zm.5795,34.73885,2.35236-1.32261-1.1926-2.32472-2.59044,1.20781Zm1.37143,2.37866,1.61107,2.27379,2.20827-1.61983-1.51952-2.2066Zm5.53417,2.47131-2.15663,1.892,1.94177,2.08373,2.07726-2.06326Zm7.87065,6.58884-1.45208,2.26532,2.36049,1.51014,1.39422-2.48764ZM77.499,69.3136l-2.35134,1.332,1.36687,2.43956,2.33821-1.37748Zm-4.1941,58.85355-1.837,2.08089,2.11993,1.73007,1.71655-2.17988ZM88.485,68.33809l-.52955-2.60151-2.74128.48583.7299,2.74789ZM61.29568,95.91032l-2.74735-.45593-.3,2.37377a2.72,2.72,0,0,0,2.68326.45609Zm-.60083,7.73234v-2.53259H58.11608v2.53259Zm9.95876-29.60509,1.77781,2.12065,2.06315-1.67246-1.73482-2.22008Z" style="fill: #fff"/>
      </g>
    </g>
  </g>
</svg>
