<svg xmlns="http://www.w3.org/2000/svg" viewBox="0 0 204.40449 204.40449">
  <rect class="orange" x="55.21411" y="54.78736" width="93.97648" height="93.97648" transform="translate(101.90059 -42.45859) rotate(45)" style="fill: #cc3c1d;opacity: 0.8"/>
  <g class="orange-border" style="opacity: 0.2">
    <path d="M102.20234,36.7384l65.03724,65.0372-65.03724,65.03721L37.16514,101.7756l65.0372-65.0372m0-1.4142-66.4514,66.4514,66.4514,66.4514,66.45142-66.4514L102.20234,35.3242Z" style="fill: #fff"/>
  </g>
  <rect class="square" x="45.66131" y="45.66111" width="113.08208" height="113.08208" transform="translate(102.20221 -42.33365) rotate(45)" style="fill: none;stroke: #fff;stroke-miterlimit: 10;stroke-width: 0.75px;opacity: 0.15"/>
  <polygon class="polygon inner ani" points="129.91 34.893 74.494 34.893 35.309 74.078 35.309 129.494 74.494 168.679 129.91 168.679 169.096 129.494 169.096 74.078 129.91 34.893" style="fill: none;stroke: #fff;stroke-miterlimit: 10;stroke-width: 0.75px;opacity: 0.4"/>
  <polygon class="polygon inner" points="129.91 34.893 74.494 34.893 35.309 74.078 35.309 129.494 74.494 168.679 129.91 168.679 169.096 129.494 169.096 74.078 129.91 34.893" style="fill: none;stroke: #fff;stroke-miterlimit: 10;stroke-width: 0.75px;opacity: 0.4"/>
  <polygon class="polygon outer" points="135.7 21.241 68.704 21.241 21.331 68.614 21.331 135.61 68.704 182.984 135.7 182.984 183.074 135.61 183.074 68.614 135.7 21.241" style="fill: none;stroke: #fff;stroke-miterlimit: 10;stroke-width: 0.75px;opacity: 0.15"/>
  <g class="clash">
    <g>
      <path d="M109.22965,73.07344a.10231.10231,0,0,0-.00027-.14471l-1.23861-1.23327a.10245.10245,0,0,0-.11041-.02245l-.98826.23039a.10143.10143,0,0,1-.1104-.02244c-.44867-.45209-3.4773-3.50741-4.34738-4.37845a.09843.09843,0,0,1-.01911-.11118,27.63648,27.63648,0,0,1,6.2058-9.00626s5.53143-5.50241,6.06123-6.04052c.03-.03043,1.08418,1.07538,1.08418,1.07538l2.83894-2.82461a7.73989,7.73989,0,0,0-.51642-1.453l-.06494-2.10711-2.10712-.06494a7.73988,7.73988,0,0,0-1.453-.51642l-2.82461,2.83893s1.1058,1.05421,1.07537,1.08418c-.53811.52981-6.04052,6.06123-6.04052,6.06123A27.63682,27.63682,0,0,1,97.66789,62.644a.09842.09842,0,0,1-.11118-.01911c-.871-.87008-3.92636-3.89871-4.37845-4.34738a.10147.10147,0,0,1-.02245-.11041l.23039-.98826a.10241.10241,0,0,0-.02244-.1104l-1.23327-1.23861a.10233.10233,0,0,0-.14472-.00028l-2.7286,2.71829a.1023.1023,0,0,0-.00011.14474l1.23932,1.23931a.10232.10232,0,0,0,.11248.02174l1.04711-.17956a.10185.10185,0,0,1,.11362.02288c.44616.46463,3.40613,3.49062,3.7858,3.87758a.09577.09577,0,0,1,.02525.08643l-.20119,1.16555a.09168.09168,0,0,1-.02608.05253c-1.00464,1.00236-38.722,38.63224-39.41321,39.29779-.69733.6716-6.49911,7.96485-7.33729,10.48393a24.33014,24.33014,0,0,0-.71435,2.40993,24.33285,24.33285,0,0,0,2.40993-.71435c2.51908-.83819,9.81233-6.64,10.48393-7.3373.66555-.69119,38.29543-38.40857,39.29778-39.41321a.09172.09172,0,0,1,.05254-.02607l1.16555-.20119a.09577.09577,0,0,1,.08643.02525c.387.37966,3.41295,3.33963,3.87758,3.78579a.10185.10185,0,0,1,.02288.11362l-.17957,1.04712a.10232.10232,0,0,0,.02174.11248l1.23932,1.23932a.10229.10229,0,0,0,.14474-.00012Z" style="fill: #fff"/>
      <path d="M69.82474,104.27435a.10233.10233,0,0,0,.00028.14472l1.23861,1.23327a.10241.10241,0,0,0,.1104.02244l.98826-.23039a.10147.10147,0,0,1,.11041.02245c.44867.45209,3.4773,3.50741,4.34738,4.37845a.09842.09842,0,0,1,.01911.11118,27.637,27.637,0,0,1-6.2058,9.00625s-5.53143,5.50241-6.06123,6.04052c-.03.03043-1.08419-1.07537-1.08419-1.07537L60.449,126.75248a7.73988,7.73988,0,0,0,.51642,1.453l.06494,2.10712,2.10711.06494a7.73989,7.73989,0,0,0,1.453.51642l2.82461-2.83894s-1.1058-1.0542-1.07537-1.08418c.53811-.5298,6.04051-6.06123,6.04051-6.06123a27.63648,27.63648,0,0,1,9.00626-6.2058.09843.09843,0,0,1,.11118.01911c.871.87008,3.92636,3.89871,4.37845,4.34738a.10143.10143,0,0,1,.02244.1104l-.23039.98826a.10245.10245,0,0,0,.02245.11041l1.23327,1.23861a.10231.10231,0,0,0,.14471.00027L89.79722,118.8a.10229.10229,0,0,0,.00012-.14474L88.558,117.41589a.10234.10234,0,0,0-.11248-.02174l-1.04711.17957a.10187.10187,0,0,1-.11363-.02288c-.44616-.46463-3.40612-3.49062-3.78579-3.87758a.09577.09577,0,0,1-.02525-.08643l.20119-1.16555a.09172.09172,0,0,1,.02607-.05254c1.00464-1.00235,38.722-38.63223,39.41322-39.29778.69733-.6716,6.4991-7.96485,7.33729-10.48393a24.33285,24.33285,0,0,0,.71435-2.40993,24.33285,24.33285,0,0,0-2.40993.71435c-2.51908.83818-9.81233,6.64-10.48393,7.33729-.66555.6912-38.29543,38.40858-39.29779,39.41321a.09168.09168,0,0,1-.05253.02608l-1.16555.20119a.09577.09577,0,0,1-.08643-.02525c-.387-.37967-3.41295-3.33964-3.87758-3.7858a.10185.10185,0,0,1-.02288-.11362l.17956-1.04711a.10234.10234,0,0,0-.02173-.11248l-1.23932-1.23932a.1023.1023,0,0,0-.14474.00011Z" style="fill: #fff"/>
      <path d="M135.43305,99.27684a.10233.10233,0,0,0-.00027-.14471l-1.23861-1.23327a.10243.10243,0,0,0-.11041-.02245l-.98826.23039a.10145.10145,0,0,1-.11041-.02245c-.44866-.45209-3.47729-3.50741-4.34737-4.37844a.09841.09841,0,0,1-.01912-.11118,27.63672,27.63672,0,0,1,6.20581-9.00626s5.53142-5.50241,6.06123-6.04052c.03-.03043,1.08418,1.07538,1.08418,1.07538l2.83894-2.82461a7.7404,7.7404,0,0,0-.51642-1.453l-.06494-2.10711-2.10712-.06495a7.73934,7.73934,0,0,0-1.453-.51641l-2.82461,2.83893s1.10581,1.05421,1.07538,1.08418c-.53811.52981-6.04052,6.06123-6.04052,6.06123a27.63672,27.63672,0,0,1-9.00626,6.20581.09841.09841,0,0,1-.11118-.01912c-.871-.87008-3.92635-3.89871-4.37844-4.34737a.10145.10145,0,0,1-.02245-.11041l.23039-.98826a.10243.10243,0,0,0-.02244-.1104l-1.23328-1.23862a.10233.10233,0,0,0-.14471-.00027l-2.7286,2.71829a.10228.10228,0,0,0-.00011.14473l1.23932,1.23932a.10232.10232,0,0,0,.11248.02174l1.04711-.17957a.10187.10187,0,0,1,.11362.02288c.44616.46464,3.40613,3.49062,3.78579,3.87759a.09576.09576,0,0,1,.02526.08643l-.2012,1.16555a.09166.09166,0,0,1-.02607.05253c-1.00464,1.00236-38.722,38.63223-39.41321,39.29779-.69733.6716-6.49911,7.96485-7.3373,10.48393a24.33236,24.33236,0,0,0-.71434,2.40993,24.33367,24.33367,0,0,0,2.40993-.71435c2.51908-.83819,9.81232-6.64,10.48392-7.3373.66556-.69119,38.29543-38.40857,39.29779-39.41321a.09166.09166,0,0,1,.05254-.02607l1.16554-.2012a.09578.09578,0,0,1,.08643.02526c.387.37966,3.413,3.33963,3.87759,3.78579a.10187.10187,0,0,1,.02288.11362l-.17957,1.04711a.10234.10234,0,0,0,.02174.11249l1.23932,1.23931a.10228.10228,0,0,0,.14473-.00011Z" style="fill: #fff"/>
      <path d="M96.02814,130.47775a.10232.10232,0,0,0,.00028.14471l1.23861,1.23328a.10243.10243,0,0,0,.1104.02244l.98826-.23039a.10145.10145,0,0,1,.11041.02245c.44867.45209,3.4773,3.50741,4.34737,4.37844a.09841.09841,0,0,1,.01912.11118,27.63672,27.63672,0,0,1-6.20581,9.00626s-5.53142,5.50241-6.06123,6.04052c-.03.03043-1.08418-1.07538-1.08418-1.07538l-2.83893,2.82461a7.74011,7.74011,0,0,0,.51641,1.453l.06495,2.10712,2.10711.06494a7.7404,7.7404,0,0,0,1.453.51642l2.82461-2.83894s-1.10581-1.05421-1.07538-1.08418c.53811-.52981,6.04052-6.06123,6.04052-6.06123a27.63672,27.63672,0,0,1,9.00626-6.20581.09841.09841,0,0,1,.11118.01912c.871.87008,3.92635,3.89871,4.37844,4.34738a.10141.10141,0,0,1,.02245.1104l-.23039.98826a.10245.10245,0,0,0,.02245.11041l1.23327,1.23861a.10233.10233,0,0,0,.14471.00027l2.7286-2.71829a.10228.10228,0,0,0,.00011-.14473l-1.23931-1.23932a.10232.10232,0,0,0-.11248-.02174l-1.04712.17957a.10187.10187,0,0,1-.11362-.02288c-.44616-.46464-3.40613-3.49062-3.78579-3.87759a.09575.09575,0,0,1-.02525-.08643l.20119-1.16554a.09166.09166,0,0,1,.02607-.05254c1.00464-1.00236,38.722-38.63223,39.41321-39.29779.69733-.6716,6.49911-7.96484,7.3373-10.48392a24.33367,24.33367,0,0,0,.71435-2.40993,24.33236,24.33236,0,0,0-2.40993.71434c-2.51908.83819-9.81233,6.64-10.48393,7.3373-.66556.69119-38.29543,38.40857-39.29779,39.41321a.09163.09163,0,0,1-.05253.02607l-1.16555.2012a.09578.09578,0,0,1-.08643-.02525c-.387-.37967-3.41295-3.33964-3.87759-3.7858a.10186.10186,0,0,1-.02288-.11362l.17957-1.04711a.10232.10232,0,0,0-.02174-.11248L98.89116,127.749a.10228.10228,0,0,0-.14473.00011Z" style="fill: #fff"/>
      <path d="M102.66585,143.5748a41.76326,41.76326,0,1,1,29.53028-12.23242h0A41.48927,41.48927,0,0,1,102.66585,143.5748Zm.00049-82.50391a40.752,40.752,0,1,0,28.82276,69.56446h0a40.74171,40.74171,0,0,0-28.82276-69.56446Z" style="fill: #fff"/>
    </g>
  </g>
</svg>
