<svg xmlns="http://www.w3.org/2000/svg" viewBox="0 0 204.40449 204.40449">
  <rect class="orange" x="55.21411" y="54.78736" width="93.97648" height="93.97648" transform="translate(101.90059 -42.45859) rotate(45)" style="fill: #cc3c1d;opacity: 0.8"/>
  <g class="orange-border" style="opacity: 0.2">
    <path d="M102.20234,36.7384l65.03724,65.0372-65.03724,65.03721L37.16514,101.7756l65.0372-65.0372m0-1.4142-66.4514,66.4514,66.4514,66.4514,66.45142-66.4514L102.20234,35.3242Z" style="fill: #fff"/>
  </g>
  <rect class="square" x="45.66131" y="45.66111" width="113.08208" height="113.08208" transform="translate(102.20221 -42.33365) rotate(45)" style="fill: none;stroke: #fff;stroke-miterlimit: 10;stroke-width: 0.75px;opacity: 0.15"/>
  <polygon class="polygon inner ani" points="129.91 34.893 74.494 34.893 35.309 74.078 35.309 129.494 74.494 168.679 129.91 168.679 169.096 129.494 169.096 74.078 129.91 34.893" style="fill: none;stroke: #fff;stroke-miterlimit: 10;stroke-width: 0.75px;opacity: 0.4"/>
  <polygon class="polygon inner" points="129.91 34.893 74.494 34.893 35.309 74.078 35.309 129.494 74.494 168.679 129.91 168.679 169.096 129.494 169.096 74.078 129.91 34.893" style="fill: none;stroke: #fff;stroke-miterlimit: 10;stroke-width: 0.75px;opacity: 0.4"/>
  <polygon class="polygon outer" points="135.7 21.241 68.704 21.241 21.331 68.614 21.331 135.61 68.704 182.984 135.7 182.984 183.074 135.61 183.074 68.614 135.7 21.241" style="fill: none;stroke: #fff;stroke-miterlimit: 10;stroke-width: 0.75px;opacity: 0.15"/>
  <g class="countdown">
    <g>
      <path d="M104.996,124.33862a.07654.07654,0,0,0,.10824-.00151l.91125-.93764a.07661.07661,0,0,0,.01579-.08278l-.18128-.73712a.0759.0759,0,0,1,.01579-.08279c.3341-.33969,2.592-2.63274,3.23565-3.29143a.07362.07362,0,0,1,.083-.01531,20.67311,20.67311,0,0,1,6.79277,4.5603s4.16583,4.0876,4.57313,4.479c.023.02214-.79455.82069-.79455.82069l2.13848,2.0979a5.78946,5.78946,0,0,0,1.08214-.39943l1.57551-.06766.02949-1.57668a5.79019,5.79019,0,0,0,.37312-1.09149l-2.14907-2.08707s-.77852.83668-.80122.81419c-.40116-.3977-4.58843-4.46334-4.58843-4.46334a20.67332,20.67332,0,0,1-4.72343-6.68036.07363.07363,0,0,1,.01329-.08333c.64292-.65941,2.88063-2.97218,3.21213-3.3144a.07589.07589,0,0,1,.08238-.01779l.74129.16338a.07663.07663,0,0,0,.08238-.01779l.9153-.93369a.07653.07653,0,0,0-.00111-.10824l-2.05795-2.01634a.07652.07652,0,0,0-.10827.00122l-.91577.93822a.07655.07655,0,0,0-.01524.08433l.1438.7816a.07622.07622,0,0,1-.01608.0852c-.34351.33793-2.5801,2.57935-2.8661,2.86684a.07163.07163,0,0,1-.06442.01967l-.87364-.13993a.06857.06857,0,0,1-.03953-.019c-.75885-.74238-29.24711-28.6137-29.7512-29.12468-.50866-.51551-6.01646-4.78912-7.9083-5.39326a18.20206,18.20206,0,0,0-1.80906-.51249,18.20043,18.20043,0,0,0,.55615,1.79612c.64976,1.87665,5.05547,7.27937,5.58315,7.7754.523.49157,29.076,28.29665,29.83649,29.0373a.06867.06867,0,0,1,.02.03906l.161.87a.07162.07162,0,0,1-.0181.06488c-.28048.29288-2.4671,2.58309-2.79661,2.93467a.07619.07619,0,0,1-.08478.01814l-.78486-.12483a.07653.07653,0,0,0-.08393.01728l-.91577.93822a.07652.07652,0,0,0,.00139.10826Z" style="fill: #fff"/>
      <path d="M86.71511,110.36515a.07653.07653,0,0,0-.002.10823l.90727.94149a.07661.07661,0,0,0,.08222.01849l.74266-.157a.07591.07591,0,0,1,.08223.0185c.32856.345,2.54639,2.67688,3.18365,3.34176a.07361.07361,0,0,1,.01257.08344,20.67324,20.67324,0,0,1-4.78042,6.6397s-4.2219,4.02966-4.62646,4.42391c-.02288.0223-.79421-.821-.79421-.821l-2.16685,2.06859a5.78957,5.78957,0,0,0,.36376,1.09465l.016,1.57688,1.57487.08114a5.78874,5.78874,0,0,0,1.07868.40867l2.15636-2.07953s-.81072-.80551-.7875-.82746c.41063-.38791,4.61129-4.43972,4.61129-4.43972a20.67331,20.67331,0,0,1,6.83154-4.502.07364.07364,0,0,1,.08286.016c.638.66418,2.87619,2.97647,3.20736,3.319a.07587.07587,0,0,1,.01508.08292l-.18758.73554a.07663.07663,0,0,0,.01508.08291l.9032.9454a.07652.07652,0,0,0,.10822.00244l2.08269-1.99078a.0765.0765,0,0,0,.00232-.10824l-.9077-.946a.07653.07653,0,0,0-.08379-.018l-.78589.11811a.07619.07619,0,0,1-.08462-.01887c-.3265-.35439-2.49343-2.66322-2.7714-2.95849a.07164.07164,0,0,1-.01755-.065l.16849-.86859a.06854.06854,0,0,1,.02031-.03888c.76684-.73412,29.55666-28.29385,30.08388-28.78092.5319-.4915,4.98368-5.85631,5.64948-7.72733a18.20359,18.20359,0,0,0,.5715-1.7913,18.20151,18.20151,0,0,0-1.81339.497c-1.89693.58793-7.4411,4.81425-7.95416,5.32539-.50844.50664-29.23416,28.13316-29.99933,28.869a.06859.06859,0,0,1-.0397.01869l-.8748.13245a.07165.07165,0,0,1-.06425-.02022c-.28353-.28993-2.50086-2.55041-2.84146-2.89126a.0762.0762,0,0,1-.01535-.08533l.15048-.78034a.07655.07655,0,0,0-.01452-.08446l-.90771-.946a.07652.07652,0,0,0-.10825-.00216Z" style="fill: #fff"/>
    </g>
    <g>
      <polygon points="129.474 143.543 130.795 143.543 123.045 133.543 121.767 133.543 129.474 143.543" style="fill: #fff"/>
      <polygon points="120.005 133.543 105.295 133.543 105.295 143.543 127.711 143.543 120.005 133.543" style="fill: #fff"/>
      <rect x="101.03228" y="133.54252" width="1.75281" height="10" style="fill: #fff"/>
      <polygon points="74.354 143.543 73.033 143.543 80.783 133.543 82.061 133.543 74.354 143.543" style="fill: #fff"/>
      <polygon points="83.823 133.543 98.533 133.543 98.533 143.543 76.117 143.543 83.823 133.543" style="fill: #fff"/>
      <rect x="76.11142" y="144.91752" width="51.59454" height="0.75" style="fill: #fff"/>
      <rect x="93.90869" y="130.66752" width="16" height="1.5" style="fill: #fff"/>
      <rect x="95.40869" y="128.96668" width="13" height="0.75" style="fill: #fff"/>
    </g>
    <g>
      <rect x="121.21124" y="105.0499" width="13" height="0.75" style="fill: #fff"/>
      <rect x="71.04675" y="105.0499" width="13" height="0.75" style="fill: #fff"/>
    </g>
    <g>
      <path d="M95.47168,66.04566l3.8759,2.39008,2.28282-2.94219,2.229,2.22907,4.15343-1.00463-1.72365,3.43174,3.01609,2.16879-3.11345,2.10225,1.66925,3.19622c-.10577.10577-.24994.32978-.32055.30859-1.09966-.33-2.18981-.69165-3.80679-1.21622l-1.5591,3.04748-1.703-3.05568L95.8331,78.10034,97.57928,74.51l-3.06717-2.25594,3.08016-2.01373Zm3.24715,6.49344L99.94432,75.035h4.00246l1.39907-3.34154-3.59949-2.14535Z" style="fill: #fff"/>
      <path d="M121.76271,72.09757h2.03442L113.594,61.8945l-1.30982,1.30982-.74609-.74616,1.30981-1.30981L102.43629,50.737v2.03412h-1.05518V50.737L91.261,60.857l1.33716,1.33709-.7461.74616-1.33716-1.3371L80.02027,72.09757H82.0547V73.1528H80.02027L90.4319,83.5643l1.42016-1.4201.7461.74621L91.178,84.31052l10.20312,10.203V92.47934h1.05518v2.03412L112.93068,84.019l-1.39258-1.39277.74609-.74615,1.39282,1.39276,10.11988-10.12h-2.03418Zm-6.99024,3.02423c-.12939-.6051-.22021-1.03076-.3772-1.765-1.24047.66926-2.42333,1.30732-3.397,1.83252-.59277,1.995.68018,4.12708-1.68921,5.54615h-4.64746c-.5039,1.07647-.93091,1.98938-1.37182,2.93164.34228.623.68872,1.2536,1.00219,1.82422a2.6694,2.6694,0,0,1-3.34961,1.78961c-.759-.759-1.53-1.53-2.33618-2.33618.65308-.30658,1.29029-.60553,2.10669-.98853-.53564-1.10272-1.03808-2.137-1.5437-3.17792H94.37745c-.35278-.42932-.74585-.90771-1.3938-1.69647V75.33707c-1.18457-.684-2.281-1.3169-3.39111-1.95783-.22192.58735-.425,1.12452-.64575,1.70771-2.06836.34094-2.17944-1.87824-4.09351-2.39875,1.4209-1.41778,2.4292-2.424,3.739-3.731.47656,1.07843.74975,1.69684,1.03344,2.33917,1.10669-.6546,2.21045-1.3075,3.39869-2.01025V65.369c1.752-2.53961,4.1958-.94842,6.17211-1.57532.43726-.87719.88746-1.78015,1.37427-2.75683-.35107-.60395-.7124-1.22492-1.041-1.7901.59253-1.63379,1.71362-2.15235,2.62768-2.00293,1.03467.76086,1.64258,1.208,2.2732,1.67169-.44214.80823-.7876,1.43951-1.13453,2.07367.42847.92517.85132,1.83765,1.30225,2.81164,1.2854.00672,2.70288.62952,3.908-.9168.66382.849,1.31006,1.676,2.332,2.98272v3.45514c1.18652.68512,2.28516,1.31928,3.39111,1.95777.22217-.588.42554-1.1258.66016-1.74567,1.06177,1.17956,2.06982,2.29932,3.2085,3.56415C117.19874,73.64536,116.04469,74.34769,114.77247,75.1218Z" style="fill: #fff"/>
    </g>
  </g>
</svg>
