<svg xmlns="http://www.w3.org/2000/svg" viewBox="0 0 204.40449 204.40449">
  <rect class="orange" x="55.21411" y="54.78736" width="93.97648" height="93.97648" transform="translate(101.90059 -42.45859) rotate(45)" style="fill: #cc3c1d;opacity: 0.8"/>
  <g class="orange-border" style="opacity: 0.2">
    <path d="M102.20234,36.7384l65.03724,65.0372-65.03724,65.03721L37.16514,101.7756l65.0372-65.0372m0-1.4142-66.4514,66.4514,66.4514,66.4514,66.45142-66.4514L102.20234,35.3242Z" style="fill: #fff"/>
  </g>
  <rect class="square" x="45.66131" y="45.66111" width="113.08208" height="113.08208" transform="translate(102.20221 -42.33365) rotate(45)" style="fill: none;stroke: #fff;stroke-miterlimit: 10;stroke-width: 0.75px;opacity: 0.15"/>
  <polygon class="polygon inner ani" points="129.91 34.893 74.494 34.893 35.309 74.078 35.309 129.494 74.494 168.679 129.91 168.679 169.096 129.494 169.096 74.078 129.91 34.893" style="fill: none;stroke: #fff;stroke-miterlimit: 10;stroke-width: 0.75px;opacity: 0.4"/>
  <polygon class="polygon inner" points="129.91 34.893 74.494 34.893 35.309 74.078 35.309 129.494 74.494 168.679 129.91 168.679 169.096 129.494 169.096 74.078 129.91 34.893" style="fill: none;stroke: #fff;stroke-miterlimit: 10;stroke-width: 0.75px;opacity: 0.4"/>
  <polygon class="polygon outer" points="135.7 21.241 68.704 21.241 21.331 68.614 21.331 135.61 68.704 182.984 135.7 182.984 183.074 135.61 183.074 68.614 135.7 21.241" style="fill: none;stroke: #fff;stroke-miterlimit: 10;stroke-width: 0.75px;opacity: 0.15"/>
  <g class="default">
    <g>
      <path d="M64.93163,62.89709l.20833.42c.44974,1.07805.84,2.17263,1.38229,3.20769a8.703,8.703,0,0,0,2.4967,2.63891l.02977.01984c2.98282,2.36112,5.97225,4.6991,8.9187,7.09329s5.89289,4.8876,8.83934,7.3347a.92993.92993,0,0,0,.334.17857h.00661a79.34068,79.34068,0,0,0-8.99145-8.73351l-.13227-.10582-.129-.10913.07936-.13889h.31747c2.295.377,4.59658.72421,6.885,1.21033,1.76588.34061,3.51192.72421,4.74209,2.23546.44973.5291.8168,1.13757,1.23016,1.6799.15873.20834.34722.40675.60847.72421a51.9395,51.9395,0,0,0,1.08466-8.94846l.00331-.0959-.15211-.05953a5.77119,5.77119,0,0,0-.31747.68453l-.01322.03968v.043c-.086.26786-.10252.56548-.16535.84a1.3339,1.3339,0,0,1-.17527.291l.00331-.0033c-.09259-.07937-.23148-.14551-.27447-.24471a4.38528,4.38528,0,0,1-.41-1.86509,4.463,4.463,0,0,1,.42-1.89155l-.00992.02646c.3836-.81681.87633-1.57078,1.2963-2.31483-.5787.05952-1.2467.15873-1.91138.18188-.85318,0-1.51456-.34061-1.65014-.91932h.83a1.83263,1.83263,0,0,0,1.746-1.27646l.00331-.01323c.40675-.97884.83334-1.95438,1.31614-2.89684a1.36463,1.36463,0,0,0,.15874-.64154v-.00992h0a1.48856,1.48856,0,0,0-.11905-.582l.00331.00993a6.9992,6.9992,0,0,0-1.713-2.72158h0a1.71111,1.71111,0,0,0-1.07474-.44974h-.1455a5.77911,5.77911,0,0,0-1.68652.248l.03968-.00992h.043a1.97522,1.97522,0,0,1-2.34789-.64815l-.00331-.00662a3.11009,3.11009,0,0,0-.96562-.71429l-.01984-.00661a1.51213,1.51213,0,0,0-.79365-.22156,1.53545,1.53545,0,0,0-1.47818,1.121l-.00331.00992c-.07937.20834-.15212.42-.26125.72422a2.1548,2.1548,0,0,1-.37368-.33731l-.0033-.0033a4.18111,4.18111,0,0,1-.75728-2.41735,4.23028,4.23028,0,0,1,1.76588-3.43917l.01323-.00992a4.14331,4.14331,0,0,1,1.48479-.66138l.02646-.00661c.58532-.19511,1.13757-.49273,1.70967-.72421a3.60915,3.60915,0,0,1,1.336-.291h.0033c1.60054.09259,3.19116.26786,4.7917.39683a15.05573,15.05573,0,0,0,1.83533.10912h.45966a2.75669,2.75669,0,0,0,2.70174-2.2057l.0033-.01653a2.06062,2.06062,0,0,1,.1422-.41006l-.00661.01323a2.11228,2.11228,0,0,1,.23148-.27447h0c.07275.09259.17527.18188.19511.28109a2.56816,2.56816,0,0,1-1.13757,3.03242c-.46958.23148-.93255.47619-1.51456.78043l1.44842.53571,1.44842.55887-1.01191.84c1.07805.72421,2.41072,1.08467,3.03242,2.32475l-.07275.129a3.56606,3.56606,0,0,1-.5754-.27116l.01653.00992a2.9408,2.9408,0,0,0-1.63691-.49273h0a2.905,2.905,0,0,0-1.09128.2381l.01984-.00662a14.86919,14.86919,0,0,1,2.467,3.97159l.03637.0992v.10252c.58533,1.51456,1.21033,3.03242,1.84525,4.633-.84-.26125-1.30953-.94908-2.07012-1.30292.21826.42.42.83334.63823,1.23678a8.37232,8.37232,0,0,1,1.22025,3.48547l.00331.03968v.22487h0a5.62841,5.62841,0,0,1-.129,1.18718l.00661-.03638V69.5175a11.16811,11.16811,0,0,0-1.81879-2.42727h0c-.7672,1.30292,1.2004,8.30362,2.75134,9.71567,1.60715-1.65014,3.43917-8.16473,2.65544-9.61977a3.41664,3.41664,0,0,0-1.08466,1.13427l-.00993.01653c-.1455.23149-.24471.49273-.377.72421a1.38574,1.38574,0,0,1-.31746.23479l-.00662.00331a1.00012,1.00012,0,0,1-.14881-.32408l-.00331-.00661c-.00331-.06614-.00661-.1422-.00661-.21825s.00331-.15212.00661-.22818v.00331a5.68586,5.68586,0,0,1,.53572-2.41734l-.01323.03637v.03638c.40675-.89617.8631-1.76588,1.34591-2.75134l-2.11311,1.44842-.11574-.11574a1.791,1.791,0,0,1,.14881-.40013l-.00661.00992c.78043-1.80887,1.57739-3.67727,2.49009-5.48614a17.44355,17.44355,0,0,1,1.67-2.48018l-.02645.03307c.21825-.30423.18849-.42659-.15212-.54894a1.92046,1.92046,0,0,0-.46958-.05953h-.00992a1.77643,1.77643,0,0,0-.97222.2877l.00661-.0033c-.44312.20172-.8631.44973-1.29631.66468a.37121.37121,0,0,1-.17526.043H103.91a4.95769,4.95769,0,0,1,3.33666-2.58269l-.55886-.40674-.506-.377,2.80094-1.11442c-1.19379-.6217-2.53969-.98546-2.75134-2.47687v-.54233a11.77949,11.77949,0,0,1,.07606-1.24009l-.00661.05291v.04961h.20172c.06614.18187.13889.377.18849.54233a2.90214,2.90214,0,0,0,1.70967,2.1131l.01984.00662a3.18164,3.18164,0,0,0,1.088.18849h.29432c1.73612-.11574,3.46893-.28109,5.20505-.4332a4.45858,4.45858,0,0,0,.70768-.07606l-.02645.00331c.13889-.01323.29762-.02315.45966-.02315a4.865,4.865,0,0,1,2.51654.69445l-.02314-.01323a4.10083,4.10083,0,0,0,1.08135.38029l.02645.00331a3.15605,3.15605,0,0,1,2.6356,2.21562l.00662.02315a4.65929,4.65929,0,0,1-.086,3.72687l.01322-.02976a6.04988,6.04988,0,0,1-.55225.80688l.00992-.00992a5.20683,5.20683,0,0,1-.2877-.63823l-.00992-.03307v-.03638c-.26124-1.13757-1.2963-1.80225-2.67858-.72421a5.52618,5.52618,0,0,0-.797.77382l-.00662.00992a1.44848,1.44848,0,0,1-1.15741.57871h-.02315a1.33306,1.33306,0,0,1-.34722-.0463l.00992.00331c-.53572-.10252-1.07144-.21826-1.60054-.32739a1.59657,1.59657,0,0,0-.49934-.07936h0a1.63605,1.63605,0,0,0-1.44181.89617l-.0033.00992c-.51257.83334-1.01191,1.6799-1.44842,2.54962a1.18148,1.18148,0,0,0-.0496.35053,1.21044,1.21044,0,0,0,.11243.51257l-.0033-.00662c.31084.79035.72421,1.5344.99868,2.32475a2.32327,2.32327,0,0,0,1.51456,1.746,7.48029,7.48029,0,0,0,.93916.05953h.00662a5.58188,5.58188,0,0,0,.78042-.03638h0a2.03275,2.03275,0,0,1-.26124.38691v-.00331a2.68484,2.68484,0,0,1-1.69644.60186h-.00662c-.05952.00331-.129.00661-.19841.00661s-.13889-.0033-.20833-.00661h.00992l-1.67329-.29762c1.83863,1.961,2.4967,4.04764,1.2963,6.4716-.34061-.65146-.15873-1.52118-.92593-2.1065a61.65688,61.65688,0,0,0,.9623,9.58009l-.05621-.37368-.0496-.37038.1455.04961c.26125-.31746.51257-.64485.78043-.9557a23.51488,23.51488,0,0,1,1.81548-2.0172l.00331-.00331a6.82394,6.82394,0,0,1,3.32343-1.3922l.03637-.00331c2.27184-.463,4.57675-.85318,6.86843-1.27316l.72421-.129.10251.15212L116.678,84.07777l.11574.129c.40675-.32407.8102-.63823,1.21032-.96892,2.53309-2.11972,5.06617-4.256,7.60256-6.34263,2.21562-1.80887,4.48085-3.56153,6.72623-5.32741,1.52117-1.18057,3.03243-2.295,4.504-3.53177a9.05283,9.05283,0,0,0,2.88692-5.09923l.00992-.05622V62.821a3.21184,3.21184,0,0,1,.21164-.539l-.00661.01653a14.27078,14.27078,0,0,1,2.02713,4.12371l.02645.10251v.10251a7.43285,7.43285,0,0,1,.291,2.08666v.00661h0a7.79826,7.79826,0,0,1-.34062,2.28507l.01323-.05622v-.05953a4.56859,4.56859,0,0,1-2.32475,2.74473l-.02645.01323c-2.44049,1.36905-4.90082,2.72157-7.32478,4.09724-2.74472,1.57078-5.50267,3.11179-8.19449,4.78508A110.7829,110.7829,0,0,0,113.95971,89.683l.22817-.17526.2381-.18188c-.15211.129-.29762.25463-.42659.3836h0l.07275.086c.54233-.377,1.09458-.72421,1.63692-1.15742a77.53924,77.53924,0,0,1,6.70308-4.27912l.82342-.43321c2.40411-1.37567,4.78508-2.79433,7.19581-4.13362,2.17263-1.21694,4.43125-2.36773,6.66009-3.52515,1.44842-.72421,2.89684-1.40543,4.342-2.13626a24.58656,24.58656,0,0,0,2.98613-1.713l-.08929.05622-.09259.05952a10.283,10.283,0,0,0,1.43519-1.42858l.01323-.01653c.10913-.11574.1951-.2381.35384-.44313a4.47333,4.47333,0,0,1,.25463,1.50464,4.57374,4.57374,0,0,1-.56879,2.21893l.01322-.02315a3.70717,3.70717,0,0,1-1.06151,1.23678l-.00992.00662c-2.79432,1.81548-5.41339,3.87237-8.07875,5.86974a34.28858,34.28858,0,0,1-7.89026,4.45439l-.23478.08267-.23149.07937c-1.70966.65807-3.47555,1.13757-5.21828,1.69974-1.54763.49934-3.11179.97884-4.66934,1.44842a4.40976,4.40976,0,0,0-.63823.31085l.02315-.01323.03637.11574,8.31023-1.57077.10252.12235a3.28321,3.28321,0,0,1-.32408.377h0c-1.33267,1.01191-2.672,2.04035-4.0311,3.03242a24.15657,24.15657,0,0,1-2.28837,1.5344l-.11575.06283-.12235.06614a5.67409,5.67409,0,0,1-2.62568.63823h-.00992a3.91458,3.91458,0,0,1-.65146-.03637h-1.63691c-.15874,0-.30424.18188-.45636.28108.12236.129.23148.377.377.377,1.82541.26786,3.67066.63823,5.44977-.20172a21.83,21.83,0,0,0,1.9643-1.18387l-.07606.04961a5.421,5.421,0,0,1,2.55292-.62831h.07275l11.5543-.28109a8.22376,8.22376,0,0,1,1.43849.129l-.0496-.00661h-.0496a2.59957,2.59957,0,0,1-.33069.35384l-.0033.0033c-2.12964,1.54763-4.24937,3.10518-6.39224,4.63958a19.49207,19.49207,0,0,1-1.8221,1.18718l-.0959.0496-.10251.04961a4.90065,4.90065,0,0,1-2.30491.56548h-.01323a5.06818,5.06818,0,0,1-1.42527-.205l.03637.00992c-2.30821-.56548-4.59658-1.19379-6.885-1.80887-1.09458-.29762-2.17263-.6217-3.27052-.92593-.22487-.06614-.49273-.1885-.61509.15211a.48334.48334,0,0,0-.0496.20834h0a.45493.45493,0,0,0,.24471.40344h.0033a.76254.76254,0,0,0,.13889.043h.00662l2.59261.82672,4.70571,1.51456,3.22754,1.04829c.06614,0,.129.05952.25463.22487-.5225.25463-1.02184.5291-1.54763.72421a13.66755,13.66755,0,0,1-7.50666.58532c-1.10781-.15873-2.22885-.20833-3.33666-.39683a1.90449,1.90449,0,0,0-.34723-.03307,1.8187,1.8187,0,0,0-1.61045.97223l-.00331.00992c-.88294,1.31615-1.82541,2.54962-2.715,3.84262a.91609.91609,0,0,0-.129.47619h0v2.95306c0,.00992.00331.01984.00331.03307a.10191.10191,0,0,1-.00331.03307h0c.00662.07936.00992.172.00992.26455s-.0033.18518-.00992.27778v-.01323l-2.31482-1.37567a3.51091,3.51091,0,0,0-.05622.45635v7.12306a1.62976,1.62976,0,0,0-.01323.18849,1.44785,1.44785,0,0,0,1.088,1.40212l.00992.00331a8.58667,8.58667,0,0,1,2.77779,1.69974l-.00661-.00661c.506.377.97884.8168,1.44842,1.22355a1.0312,1.0312,0,0,1,.33069.30093l.0033.0033a4.587,4.587,0,0,1-1.80887.36376,4.66192,4.66192,0,0,1-1.83864-.377l.02977.00993a7.631,7.631,0,0,1-2.88361-2.24869l-.01323-.01654c-.04961.28109-.09259.44313-.10913.60847-.01323.21826-.01984.47619-.01984.73413a13.67565,13.67565,0,0,0,1.19048,5.59527l-.03637-.086c.506,1.2963.93254,2.61906,1.38889,3.93851a2.64119,2.64119,0,0,1,.14551.873,2.66781,2.66781,0,0,1-.82673,1.93453h0c-1.08466,1.22356-2.22223,2.39751-3.34327,3.621l-.15211.16535c-.59194.65146-.60847.67461-1.22356,0-1.18717-1.27977-2.3512-2.56946-3.51854-3.85915a2.59956,2.59956,0,0,1-.72421-1.77911h0a2.60364,2.60364,0,0,1,.2381-1.088l-.00661.01653c.68783-1.89816,1.38889-3.793,2.05689-5.68125a5.00656,5.00656,0,0,0,.27447-1.4385v-.00992c.043-1.05821,0-2.11311,0-3.30028-.463.35383-.82673.65807-1.21694.92593-.62831.44313-1.25993.88294-1.92461,1.25993a2.38056,2.38056,0,0,1-1.08467.26786h0c-.81019.043-1.6303,0-2.44049,0l-.0496-.15874.4332-.39683c.84657-.72421,1.65676-1.44842,2.5397-2.12964a6.54857,6.54857,0,0,1,1.59061-.83334l.0463-.01322h.043a1.449,1.449,0,0,0,1.14088-1.41535c0-.0463-.00331-.08929-.00661-.13228v-6.96433a6.90928,6.90928,0,0,0-.06945-.76058l.00331.03637v.03638l-2.53308,1.32606c0-.20172-.043-.32738-.043-.44974v-2.1594a4.33117,4.33117,0,0,0-1.131-2.90015l.00331.0033a23.68682,23.68682,0,0,1-1.70967-2.29829l-.05622-.09259-.05952-.09259a1.45167,1.45167,0,0,0-1.28308-.77382H92.121c-.03307-.0033-.07276-.00661-.11244-.00661s-.07937.0033-.11574.00661h.00331c-1.7229.1885-3.43917.31747-5.16207.4762a11.313,11.313,0,0,1-1.43188.08928,11.60993,11.60993,0,0,1-5.53575-1.3922l.06283.02977a7.515,7.515,0,0,1-.69114-.51588l.00992.00992,1.44842-.50595,5.13892-1.65015c1.36905-.4332,2.7348-.85318,4.10386-1.2963a.95254.95254,0,0,0,.48281-.34392l.0033-.00331a.54536.54536,0,0,0,.043-.20833V96.429h0a.56084.56084,0,0,0-.07275-.27778v.00331c-.043-.07937-.27447-.11574-.377-.07937-1.73612.47619-3.459.97884-5.19844,1.44842s-3.57476,1.02845-5.38694,1.44842a5.70885,5.70885,0,0,1-1.1541.11574,5.80071,5.80071,0,0,1-3.75664-1.36905l.00992.00661c-1.89816-1.44842-3.85915-2.82409-5.79038-4.22621-.377-.27448-.72421-.53572-1.13757-.797a2.96739,2.96739,0,0,0-.37037-.17526l-.01984-.00662.15211-.23809a4.48328,4.48328,0,0,1,.51588-.04961h.01323l11.68327.28109a17.75649,17.75649,0,0,1,2.15609.13889l-.086-.00992h-.07936a3.79879,3.79879,0,0,1,2.06681.92924l-.00331-.00331a4.32093,4.32093,0,0,0,2.96959,1.17395h.17858c1.13757-.04961,2.23546-.15874,3.35319-.24472.26125,0,.47619-.10912.44974-.49934h-.55887c-.88955.086-1.92461.13889-2.9762.13889h-.1885a6.14387,6.14387,0,0,1-3.44909-1.58069l.00331.0033c-1.30292-1.00529-2.65544-1.97752-3.95836-2.95967-.3836-.27447-.72421-.549-1.07144-.84a.78061.78061,0,0,1-.13558-.21826l-.0033-.00661.05952-.1455,8.26063,1.44842.03637-.07937a4.59716,4.59716,0,0,0-.539-.2414l-.03307-.00992h-.043c-2.80094-.85318-5.625-1.67329-8.41936-2.56946a38.85769,38.85769,0,0,1-10.91276-5.90282l.08929.06614c-2.35121-1.69974-4.71233-3.36642-7.06684-5.06616a4.73344,4.73344,0,0,1-.85649-.78374l-.00661-.00661a1.867,1.867,0,0,1-.52249-1.27316h0a1.86832,1.86832,0,0,1,.08267-.54894l-.00331.01323c.15873-.54234.291-1.1012.44974-1.65015a1.5747,1.5747,0,0,1,.22156-.3869l-.00331.0033a1.78025,1.78025,0,0,1,.26456.25794l.0033.00331a7.337,7.337,0,0,0,3.62106,2.77118c1.44842.65146,2.81747,1.27977,4.17,1.99075,3.31682,1.72951,6.63033,3.459,9.90416,5.26128,2.4901,1.36905,4.93059,2.82409,7.3843,4.27251A57.20233,57.20233,0,0,1,90.98669,90.47l-.12567-.09591-.086-.07936a3.821,3.821,0,0,0,.38361.2414l.02314.00992.07937-.12235c-.32408-.26786-.64484-.55887-.98546-.81019-1.38228-1.03506-2.75134-2.07673-4.17-3.07542a101.31009,101.31009,0,0,0-8.70045-5.62172L76.896,80.6452l-.549-.291c-2.0635-1.15742-4.14023-2.32475-6.20374-3.50531-1.75265-1.0053-3.51192-2.0139-5.24143-3.08534A4.78232,4.78232,0,0,1,62.63,69.749V69.21a9.9125,9.9125,0,0,1,1.92462-5.883l-.01984.02646c.12235-.15874.26124-.29763.4332-.506Zm36.3428,34.9506a4.33012,4.33012,0,0,0-.162-.68453l.00993.03307A2.91779,2.91779,0,0,0,99.406,95.49318l-.01984-.00662a7.73127,7.73127,0,0,1-4.25267-3.94182l-.01984-.0463v-.0496a7.15243,7.15243,0,0,1,.06613-6.885,7.73213,7.73213,0,0,1,10.1158-3.20769l-.04629-.01984a7.13376,7.13376,0,0,1,3.06549,2.99605l.01984.03968a7.61468,7.61468,0,0,1-1.5311,9.80165l-.00992.00992a13.31354,13.31354,0,0,1-1.99075,1.412l-.06614.03307H104.664a3.6479,3.6479,0,0,0-1.7229,1.95769l-.00661.02645c-.11574.377,0,.49273.3836.42a10.50381,10.50381,0,0,0,1.27316-.26455l-.07276.01653h-.06613a9.75729,9.75729,0,0,0,5.84-4.32873l.02314-.043a9.57927,9.57927,0,0,0,.95239-7.54633l.01653.06614v.07275a9.25377,9.25377,0,0,0-5.15545-6.34594l-.05622-.02315h-.05952a9.611,9.611,0,0,0-3.95836-.84h-.02646a10.42151,10.42151,0,0,0-2.24207.25133l.06944-.01323h.06614a9.0347,9.0347,0,0,0-5.05955,2.80756l-.00662.00661a9.06934,9.06934,0,0,0-2.44049,6.20374v.01654h0v.00661a8.94711,8.94711,0,0,0,.26786,2.18255l-.01322-.06283V90.1294A9.48682,9.48682,0,0,0,98.76449,97.398l.06614.01984a6.02824,6.02824,0,0,0,2.30491.44974h.19511ZM91.29752,52.96317c-.60185-.45636-1.1012-.96892-1.73612-.88294a13.77587,13.77587,0,0,0-2.66205.75727l.09259-.03306h.09259c-.26786.086-.25463.31746,0,.44973a6.90552,6.90552,0,0,0,.94247.42l.0496.01653h.04961a1.85273,1.85273,0,0,0,.63492.10913h.086a1.97016,1.97016,0,0,0,.39683-.03968l-.01323.00331c.67461-.1885,1.29631-.49935,2.08335-.80358Zm25.80041-.09921c-.62831-.23148-1.21694-.463-1.80887-.66469a2.31364,2.31364,0,0,0-2.17263.60847c1.0582.97884,3.12832,1.32607,3.97489.07275Z" style="fill: #fff"/>
      <path d="M91.05281,119.85509a19.76021,19.76021,0,0,1-2.02713.55887,14.75221,14.75221,0,0,0-7.01062,3.416l.01653-.01323c-.56548.47619-1.11442.97884-1.6799,1.44842-.21826.18188-.28109.34061-.07937.60185.66469.84657,1.30953,1.70967,1.95438,2.56946a.52828.52828,0,0,0,.4332.23149h0a.54393.54393,0,0,0,.07606.00661.64147.64147,0,0,0,.07936-.00661H82.812a3.82406,3.82406,0,0,0,1.66006-.88625l-.00331.0033a1.95865,1.95865,0,0,0,.93916-1.38559v-.00992c0-.31746.46958-.6217.72421-.88294h.15212a.49762.49762,0,0,1,.34061.13228h0c.49934.61508.95569,1.25331,1.44842,1.89815a.30939.30939,0,0,1,.10251.23149v.0033h0v.00331a.32215.32215,0,0,1-.10251.23478h-.04961a1.39478,1.39478,0,0,1-1.07805.506h-.26124a1.09611,1.09611,0,0,0-.63824.205l.00331-.00331c-.78042.54233-1.541,1.13757-2.30821,1.68652a.87539.87539,0,0,0-.4332.7209h0v.00331a.828.828,0,0,0,.08267.36376l-.00331-.00662a16.006,16.006,0,0,0,.83665,1.67l-.043-.07936v-.07937a53.42982,53.42982,0,0,0,4.41471,6.15414l-.06945-.086a.50957.50957,0,0,0,.4332.2381h.00331a.513.513,0,0,0,.27447-.07937H89.234l.07936-.03637c.26786-.20172.4332-.11574.65808.09259a1.45117,1.45117,0,0,1,.3373,2.05359l.00331-.00331a1.89369,1.89369,0,0,1-1.43851,1.0549h-.00992a1.65046,1.65046,0,0,1-2.10649-.91931,1.73568,1.73568,0,0,0-.17527-.27778l.00331.0033c-.41336-.63823-.42659-.65146.129-1.13757.29762-.24471.15873-.44974,0-.65807-.57871-.81019-1.18057-1.60715-1.75927-2.41735a29.11627,29.11627,0,0,0-3.48216-4.06748l-.00662-.00661c-.72421-.72421-1.21693-.72421-1.99736-.043-.56548.48612-1.21033.87633-1.746,1.38228a6.59545,6.59545,0,0,0-.70768,1.03837l-.01654.03307a10.90794,10.90794,0,0,1-.80357,1.06482l.01323-.01653c-.04961.05622-.334,0-.3836-.06614-.54234-.67461-1.05821-1.36244-1.59393-2.04036a.31159.31159,0,0,1,0-.44974h0l.07937-.05622a1.71675,1.71675,0,0,1,1.25-.53572h.00992c.03969-.0033.086-.00662.13228-.00662s.09259.00331.13889.00662h.06944a1.01528,1.01528,0,0,0,.6217-.21164l-.00331.00331c.48612-.35384.93255-.72421,1.39882-1.13758a1.72453,1.72453,0,0,0,.30093-.32076l.00331-.00662a.662.662,0,0,0,.20172-.47619h0v-.00331a.65142.65142,0,0,0-.18188-.453h0c-.60847-.72421-1.13757-1.51456-1.68652-2.24538a1.3707,1.3707,0,0,0-.51257-.37369l-.00992-.0033A3.58278,3.58278,0,0,1,74.3232,126.955l-.0033-.00331c-.07937-.11574-.31746-.15873-.48612-.18849-.59193-.09259-.72421-.2381-.76058-.81019a.77774.77774,0,0,0-.29432-.48281h-.0033c-.84-.5787-.96231-.94247-.52911-1.875a.9406.9406,0,0,0,.11574-.453v-.00331h0v-.0033a.9965.9965,0,0,0-.23148-.63492h0q-3.03241-4.0245-5.9954-8.03577c-1.832-2.4967-3.70042-4.96034-5.50268-7.5-1.04829-1.44842-2.004-2.98943-2.98944-4.49407a5.67452,5.67452,0,0,1-.96892-3.19116v-.00992h0c-.0033-.06614-.00661-.14219-.00661-.22156s.00331-.15542.00661-.23148v.00992c0-.463.17527-.58532.63823-.51257a5.534,5.534,0,0,1,3.53508,2.1561l.00992.01323q2.82408,3.53177,5.582,7.0999c1.99737,2.59261,3.95836,5.19845,5.92927,7.81089.94908,1.25332,1.89816,2.52647,2.81748,3.7864.086.12236.10251.29762.20833.3836a1.969,1.969,0,0,0,.45966.32739l.00992.00661a3.384,3.384,0,0,1,.82011.43321l-.00992-.00662a4.50385,4.50385,0,0,0,2.629,1.55755l.02977.00331a1.43353,1.43353,0,0,0,.17526.00992,1.63213,1.63213,0,0,0,.18188-.00992h.00992a1.84314,1.84314,0,0,0,.60516-.09921l-.01322.0033a13.74676,13.74676,0,0,0,4.51722-2.66866l-.01323.01323a1.52977,1.52977,0,0,0,.32408-1.90478l.00331.00662c-.13889.15211-.2381.26125-.334.377s-.2381.53572-.61508.28108a1.06285,1.06285,0,0,0-.28109.23148h0a2.06,2.06,0,0,1-1.508.81019h-.00661a3.56229,3.56229,0,0,0-.07606-2.67859l.00992.02315a2.55642,2.55642,0,0,1-2.14286,1.16072,2.51493,2.51493,0,0,1-1.14419-.27117l.01323.00662.52249-.549a2.39077,2.39077,0,0,0,.44973-2.79763l.00662.01323a9.06931,9.06931,0,0,1-.377-.90609l-.02315-.06945v-.07275a2.51778,2.51778,0,0,1-.17526-.92262v-.0033h0v-.00331a2.49783,2.49783,0,0,1,.668-1.69974h0a5.43934,5.43934,0,0,1,1.67329-1.4352l.02646-.01322c2.27183-1.13758,4.547-2.338,6.81882-3.51193l1.75927-.88955c-.56548,2.03374.45635,3.664,1.04167,5.50267l4.547-2.629a3.73544,3.73544,0,0,1,.05622.51257v2.414a1.18316,1.18316,0,0,1-.60847.98876l-.00661.0033a7.2603,7.2603,0,0,1-.99538.625l-.03968.01985h-.043c-.79035.41336-.89617,1.1078-.91932,1.9676V115.619c.07937.54233-.334.84657-.78042,1.07805-.72421.3836-1.44842.79035-2.17263,1.15742-.377.19511-.49273.3836-.18188.72421a10.87312,10.87312,0,0,1,.69444,1.08135l.02977.05622v.06614Z" style="fill: #fff"/>
      <path d="M108.22222,107.19959l3.14155,1.81549c.34062.1951.67461.40674,1.02845.58532a.39621.39621,0,0,0,.2381.07936h.00662a.454.454,0,0,0,.334-.15873h0a.609.609,0,0,0,.07275-.15543v-.0033a19.57068,19.57068,0,0,0,.69114-2.17594l.03307-.15543.043-.17526a9.29025,9.29025,0,0,0,.12236-1.28969v-.57871h0v-.50595h0c.31747.1455.5721.23148.81019.35384,1.746.9127,3.49539,1.80887,5.22821,2.72819,1.04828.56548,2.11972,1.1012,3.12171,1.75927a6.39514,6.39514,0,0,1,1.43519,1.42858l.01323.01984a1.829,1.829,0,0,1,.15542,1.84194l.00331-.00992c-.25463.72421-.49273,1.44842-.68122,2.17263a2.02771,2.02771,0,0,0-.10252.63493v.00992h0v.0033a1.99242,1.99242,0,0,0,.78374,1.58731l.0033.00331c.32739.26124.30423.40674-.086.55886a2.025,2.025,0,0,1-.7209.129h-.07937a2.02793,2.02793,0,0,1-1.20371-.39683l.00662.00331a10.02919,10.02919,0,0,1-.93255-.76721l.00662.00662a3.568,3.568,0,0,0-.05622,2.54962l-.00661-.02645a2.1001,2.1001,0,0,1-1.65345-.88295l-.00331-.00661c-.72421.72421-.64484-.44974-1.08466-.42659a1.27733,1.27733,0,0,0,.20173,1.60385h0a3.16711,3.16711,0,0,0,.56879.4795l.01322.00661c1.13757.68784,2.24539,1.37567,3.37965,2.03374a3.06737,3.06737,0,0,0,3.793-.57209c.24471-.21826.44974-.49934.72421-.72421a4.281,4.281,0,0,1,.60516-.28439l.03307-.00993a1.64836,1.64836,0,0,0,.55887-.34061h0c1.60054-2.10649,3.17793-4.23613,4.77186-6.34924,1.18717-1.584,2.38758-3.16471,3.621-4.74871,1.60053-2.11972,3.13494-4.342,4.83468-6.35586a26.28342,26.28342,0,0,1,3.15809-2.94975l.05621-.043.05622-.043a3.57248,3.57248,0,0,1,1.29961-.453l.01985-.00331c.29762-.086.30423.13889.334.34061.00662.10912.00992.23479.00992.36375a5.99778,5.99778,0,0,1-.87963,3.13825l.01653-.02645a46.719,46.719,0,0,1-4.23614,6.0913l.06614-.08267q-3.11179,4.26258-6.2831,8.51195l-3.98151,5.35717a.90241.90241,0,0,0-.22487.59525h0v.00661a.8796.8796,0,0,0,.10251.41337l-.0033-.00331c.44974,1.0053.3836,1.25993-.49273,1.918a.80478.80478,0,0,0-.26125.46628v.0033c-.05621.5721-.18849.72421-.72421.86972a3.96482,3.96482,0,0,0-.79035.37037l.01654-.00992c-.463.2447-.93255.48611-1.3889.72421a2.98456,2.98456,0,0,0-.72091.60516l-.0033.00331c-.5721.72421-1.08466,1.52117-1.63692,2.23546a.58071.58071,0,0,0-.16534.40675h0a.60439.60439,0,0,0,.1455.38359h0a5.80664,5.80664,0,0,0,.668.72091l.0033.0033c.20834.18849.49273.31085.72421.506a1.45352,1.45352,0,0,0,1.14088.55555,1.43718,1.43718,0,0,0,.31746-.03637l-.00992.0033h.09921a1.13628,1.13628,0,0,1,.56548.14882l-.00662-.00331c.79035.334.83995.60847.31747,1.27316-.35384.45635-.72421.91931-1.03506,1.38228-.18849.27447-.377.36045-.65807.10913a1.87369,1.87369,0,0,1-.77381-1.21364V135.123a.92463.92463,0,0,0-.37369-.54233l-.0033-.0033c-.80358-.61509-1.6303-1.21694-2.45372-1.80888a.70756.70756,0,0,0-.45635-.16534h0a.69274.69274,0,0,0-.45636.16865h0a13.08875,13.08875,0,0,0-2.87369,2.75465l-.02315.02976c-1.02845,1.3889-1.99075,2.8241-2.996,4.21961-.26124.35384-.334.61508.0926.87632a.43512.43512,0,0,1,.29762.41337h0a.5438.5438,0,0,1,.00661.07606.64131.64131,0,0,1-.00661.07936v-.0033a.47951.47951,0,0,1-.129.18849h0c-.34722.44974-.62831.92593-.97884,1.36244a.70228.70228,0,0,1-.49934.20834h0a7.14064,7.14064,0,0,0-.80027-.09921h-.02645c-.90609.10913-1.26654-.44313-1.584-1.15742-.49273-1.13757-.51257-1.13757.24471-2.07673l.23148-.28108c.54233-.72421.549-.72421,1.31615-.29762.27447.1455.39683,0,.5291-.18188.72421-.91271,1.44842-1.789,2.11311-2.7282.88294-1.26654,1.70967-2.56284,2.53309-3.86576a5.9424,5.9424,0,0,0,.4795-1.078l.01322-.043v-.043a.71115.71115,0,0,0,.07937-.32408h0v-.01984a.72106.72106,0,0,0-.34392-.61509l-.0033-.0033c-.72421-.54895-1.49141-1.13758-2.27184-1.67329a2.166,2.166,0,0,0-.80027-.23149h-.00992a4.23937,4.23937,0,0,1-.75067-.086l.02646.0033c-.79035-.2381-.88956-.61508-.3836-1.2467.3836-.49273.72421-1.0053,1.13757-1.51456.17526-.24471.31747-.25463.55887-.10251a1.39781,1.39781,0,0,1,.81019,1.26654h0c0,.18188.20833.38359.377.54232a4.41046,4.41046,0,0,0,2.2057,1.30292l.02976.00662h.0926a.58977.58977,0,0,0,.40674-.15874h0c.63824-.79035,1.22356-1.60715,1.86178-2.40411a.55942.55942,0,0,0,.18188-.41336h0a.5483.5483,0,0,0-.15211-.3836h0a.53343.53343,0,0,0-.1422-.11574h-.0033c-.82672-.68122-1.61377-1.44842-2.47687-2.05689a12.82715,12.82715,0,0,0-3.9319-2.03043l-.09259-.02646H117.346c-1.05821-.30423-2.17263-.51257-3.22092-.72421-.13889-.02976-.25463-.06283-.37037-.09921l.02314.00662c-.35384-.10251-.4332-.27447-.20172-.58532s.35384-.56548.54233-.84a.32777.32777,0,0,0,0-.4762h0a.34047.34047,0,0,0-.12236-.07937h-.0033c-.72421-.40674-1.37567-.82672-2.07012-1.21693s-.76058-.58532-.90609-1.44842c-.043-1.27316.42659-2.09327-.291-2.89684a6.30861,6.30861,0,0,0-1.62369-1.23679l-.03307-.01653a1.35672,1.35672,0,0,1-.91931-1.28307v-.01323h0c-.00331-.03307-.00662-.07275-.00662-.11244s.0033-.07936.00662-.11574v.00331c0-.49273.05621-1.06483.05621-1.64353v-.88955Z" style="fill: #fff"/>
      <path d="M102.35248,138.8929c.42-2.10649,2.0635-3.22092,3.18454-4.71894l.15873.0496a5.2811,5.2811,0,0,0,.0926.8168c.25463,1.54763.46957,3.10517.76058,4.65611a12.94558,12.94558,0,0,1,.49934,3.29037v.01653a7.24834,7.24834,0,0,1-.69114,2.85385l.01985-.043v-.043c-1.1012,2.27184-2.22885,4.547-3.34328,6.78906-.15873.31085-.29762.62831-.45635.94246a1.93446,1.93446,0,0,1-.25132.2877h0a1.38408,1.38408,0,0,1-.30093-.2877l-.00331-.0033c-.72421-1.36245-1.37567-2.72819-2.0635-4.09725-.5291-1.04828-1.08466-2.09326-1.60715-3.15478a8.62367,8.62367,0,0,1-.79035-3.63428v-.03307a9.35436,9.35436,0,0,1,.12235-1.50133l-.00661.05291v.0496c.26786-2.209.64484-4.40147.97884-6.60056a1.93767,1.93767,0,0,1,.172-.39352l-.00331.00992a2.06678,2.06678,0,0,1,.35715.248l-.00331-.00331c.58532.6217,1.1508,1.28308,1.68321,1.97422l.0463.05952.043.05622a16.597,16.597,0,0,1,1.06813,1.82541l.0463.10251.043.10913.21825.36045Z" style="fill: #fff"/>
      <path d="M69.27689,58.489l.92593,1.31615a25.34128,25.34128,0,0,0,4.1237,4.24275l.0463.03637a11.45787,11.45787,0,0,1,1.11773.959l-.00331-.0033a5.62087,5.62087,0,0,0,3.24407,1.56416,6.7494,6.7494,0,0,1,3.77978,2.56615l.01323.01984c1.30292,1.68652,2.52647,3.43918,3.7864,5.16868a6.41165,6.41165,0,0,1,.33069.55226l.01653.03307a3.08822,3.08822,0,0,1-.84-.06614c-1.7295-.30424-3.459-.60186-5.18191-.92594-1.541-.28108-3.09194-.54894-4.60981-.93254a5.07487,5.07487,0,0,1-1.79565-.97554l.00662.00662c-1.25993-1.01191-2.4901-2.07674-3.67727-3.17132a7.38105,7.38105,0,0,1-2.414-5.4663,7.29163,7.29163,0,0,1,.05953-.93585l-.00331.03638a14.81217,14.81217,0,0,1,1.0053-3.99474l-.03638.09921-.03638.10251a1.59841,1.59841,0,0,1,.12567-.26124l-.00331.00661Z" style="fill: #fff"/>
      <path d="M134.88574,58.75024a16.20471,16.20471,0,0,1,.69114,1.84855l.03307.129v.13889a7.50646,7.50646,0,0,1,.32739,2.21893,7.62548,7.62548,0,0,1-1.07144,3.91206l.01985-.03638a13.05405,13.05405,0,0,1-2.09,2.4438l-.00993.00992c-.9623.9127-2.047,1.69313-3.06218,2.56285a6.48965,6.48965,0,0,1-2.71828,1.19709l-.03968.00662c-1.3459.334-2.72157.55886-4.09063.81019-1.60715.30423-3.2143.59193-4.82145.88294l-.72421.10913a2.382,2.382,0,0,1,.18849-.4762l-.00662.01323c1.30292-1.80226,2.59261-3.621,3.9319-5.38694a6.13609,6.13609,0,0,1,3.82608-2.44049l.03968-.00661h.043a7.17552,7.17552,0,0,0,3.95836-2.1098l.0033-.00331c1.30953-1.30291,2.65544-2.57607,3.93852-3.89552.506-.51257.92593-1.11443,1.38889-1.67329l.291-.26125Z" style="fill: #fff"/>
      <path d="M149.47907,84.296c-.32738.42659-.54894.72421-.81019,1.0582a15.68984,15.68984,0,0,1-6.14752,4.24937l-.10913.03637h-.10913a22.56211,22.56211,0,0,1-7.05031,1.25993h-.02315c-3.38626.17527-6.77583.377-10.13564.57209l-.88955.043c.0496-.15211.05622-.24471.10251-.27447a40.86135,40.86135,0,0,1,4.60321-3.2606l.18188-.10252a14.16586,14.16586,0,0,1,4.30558-1.37236l.07936-.00992h.07937c2.08334-.34061,4.17-.64484,6.2831-.93254,1.875-.26125,3.75664-.463,5.625-.72421,1.0053-.13889,1.99736-.34723,2.99605-.49935.10913-.00661.23478-.00992.36044-.00992s.25463.00331.3803.00992h.26455Z" style="fill: #fff"/>
      <path d="M79.65724,91.52159l-1.44842-.086c-1.35252-.07275-2.715-.129-4.0741-.21825-2.31483-.15212-4.62635-.26786-6.92795-.49935a31.26643,31.26643,0,0,1-4.92728-.84987l.21495.0463.20172.043a14.66634,14.66634,0,0,1-6.46829-3.62436l.00331.00331c-.49934-.4762-.96892-.99207-1.44842-1.51456a3.23028,3.23028,0,0,1-.31085-.496l-.00992-.01984a4.41133,4.41133,0,0,1,.99868.06614l12.79769,1.79565a18.376,18.376,0,0,1,6.11115,1.40543,24.85982,24.85982,0,0,1,2.96629,1.875l-.1422-.0992c.72421.49934,1.44842,1.07805,2.11311,1.63691.15211.12236.291.26125.42659.377Z" style="fill: #fff"/>
      <path d="M70.27557,84.98385,68.58905,84.802c-.72421-.07275-1.38889-.12235-2.07673-.21825-1.31614-.18188-2.63559-.3836-3.94513-.58532l-4.8942-.77382c-1.13758-.16534-2.24539-.31746-3.36643-.49273-.6746-.09259-.92593-.39021-1.04167-1.0582a11.42589,11.42589,0,0,1-.13889-1.77911,11.54323,11.54323,0,0,1,1.174-5.086l-.02976.06944-.03638.07276c.16535-.3836.334-.76059.52249-1.11443a2.01765,2.01765,0,0,1,.291-.3836h0c.20833.54233.3836,1.02183.56548,1.49141a3.8629,3.8629,0,0,0,1.60054,1.68321l.01984.00992c1.40543.88295,2.85385,1.64353,4.24936,2.51986,2.82409,1.7725,5.625,3.55491,8.43259,5.344a3.17458,3.17458,0,0,1,.40344.34722h0Z" style="fill: #fff"/>
      <path d="M133.34141,84.92433c.66469-.45635,1.32607-.94246,2.004-1.38228,2.047-1.31615,4.09063-2.64883,6.16075-3.922,1.67329-1.03506,3.373-2.02052,5.06617-3.03243.29762-.17526.58532-.377.88294-.54894a2.9007,2.9007,0,0,0,1.29961-1.98745l.0033-.01653a2.859,2.859,0,0,1,.18188-.64485c.086.07937.14551.10913.15874.15212.48611,1.412,1.02183,2.81748,1.44842,4.24936a7.72238,7.72238,0,0,1,.23148,1.91139,8.0308,8.0308,0,0,1-.34723,2.338l.01654-.05621V81.925c-.12236.49934-.549.6217-.96892.72421-1.51456.25463-3.03243.48612-4.52384.72421L138.229,84.43821l-4.48084.72421h-.377Z" style="fill: #fff"/>
      <path d="M96.8002,142.68591a1.29579,1.29579,0,0,1-.34392-.17527l.00331.00331a16.59322,16.59322,0,0,1-3.25068-4.27913,5.77534,5.77534,0,0,1-.5721-2.52316v-.02646h0a5.98405,5.98405,0,0,1,1.02845-3.35981l-.01323.01985a39.61221,39.61221,0,0,1,2.52647-3.621c.72421-1.02183,1.54763-2.0139,2.31483-3.02582a2.3774,2.3774,0,0,0,.21164-.39683l.00661-.01653.22487.17526c-.10251.28109-.18849.5721-.29762.85318-.54233,1.36245-1.09458,2.715-1.64353,4.0741a1.54311,1.54311,0,0,0-.13888.63824v.0033h0a1.61546,1.61546,0,0,0,.17857.73413l-.00331-.00992a7.23267,7.23267,0,0,0,.69445,1.11112l-.01323-.01984a3.15246,3.15246,0,0,1,.72421,2.01721v.02645h0v.00662a3.05082,3.05082,0,0,1-.09259.74074l.00331-.01984c-.52911,2.23547-.96892,4.49407-1.44842,6.74607a2.01562,2.01562,0,0,1-.10913.3836Z" style="fill: #fff"/>
      <path d="M107.832,142.72228c-.11575-.53572-.24471-1.07143-.377-1.60715l-1.21694-5.71762c-.07275-.32739-.16534-.64485-.20833-.96892-.00331-.03638-.00662-.07606-.00662-.11905s.00331-.08267.00662-.12566v0a1.4937,1.4937,0,0,1,.56217-1.17064l.0033-.00331a2.48649,2.48649,0,0,0,.96892-1.97091v-.00331h0a2.5112,2.5112,0,0,0-.22487-1.045l.00662.01654c-.42659-1.13758-.82673-2.30822-1.22356-3.46894a3.00371,3.00371,0,0,1-.0992-.60516v-.00993l.129-.05621a2.911,2.911,0,0,1,.33069.30092v.00331c.90609,1.22355,1.89816,2.41734,2.70173,3.70041a24.57726,24.57726,0,0,1,2.037,3.60122l.06283.15543.06614.15873a5.64863,5.64863,0,0,1,.39351,2.08665,5.71626,5.71626,0,0,1-.711,2.77118l.01653-.02976c-.72421,1.57738-2.03374,2.758-3.03242,4.14023Z" style="fill: #fff"/>
      <path d="M114.8757,76.59426a2.04205,2.04205,0,0,1-.06614-.44644v-.0033c.09259-1.81549.129-3.62106.32739-5.43654a7.33674,7.33674,0,0,1,1.52448-3.32344l-.00992.01323,3.49538-4.95042a.80186.80186,0,0,1,.36377-.30755l.00661-.0033c.043.5291.12236,1.05821.13889,1.59392,0,.42659.043.92593.043,1.44842a14.88391,14.88391,0,0,1-.0496,1.498v-.07275a8.01011,8.01011,0,0,1-1.422,4.19645l.01654-.02645c-1.35253,1.8254-2.64883,3.68388-3.96828,5.52913a3.69064,3.69064,0,0,0-.19842.39683l-.01322.02976Z" style="fill: #fff"/>
      <path d="M83.44364,62.08028l1.75266,2.424c.66468.91932,1.31614,1.85186,1.99075,2.76456a8.257,8.257,0,0,1,1.82541,5.19514c0,.129-.00331.26125-.00993.38691V72.831c-.06614,1.078,0,2.17263,0,3.22753a1.83694,1.83694,0,0,1-.129.47619l.0033-.01322a1.5141,1.5141,0,0,1-.377-.27448h0c-1.21694-1.6799-2.41734-3.373-3.62106-5.06616a8.92109,8.92109,0,0,1-1.627-4.96366v-.00992c-.06614-1.30953.06614-2.629.11574-3.95174a1.15261,1.15261,0,0,1,.0959-.1918l-.0033.00331Z" style="fill: #fff"/>
      <path d="M105.74535,109.58056c.58532.34061,1.07144.60847,1.541.89617.84.50595,1.66337,1.02183,2.49671,1.55755a1.69122,1.69122,0,0,1,.88955,1.49141h0v.12236c-.06614,1.15741-.086,2.32474-.13889,3.48878,0,.54233-.086.57209-.54233.31746-1.164-.64484-2.32475-1.28969-3.46894-1.961a1.50128,1.50128,0,0,1-.72421-1.28308v-.01984h0c0-.01323-.0033-.02977-.0033-.0463a.25077.25077,0,0,1,.0033-.0496v-3.98481a1.9168,1.9168,0,0,1-.00992-.20172c0-.06945.00331-.1422.00992-.21164v-.11905Z" style="fill: #fff"/>
      <path d="M98.73143,109.75582v3.9286c.00331.02976.00331.06944.00331.10582s0,.07275-.00331.10913v-.00662a1.78826,1.78826,0,0,1-.86641,1.52448l-.00661.00331c-1.13758.72421-2.33137,1.38889-3.50531,2.08334a1.64085,1.64085,0,0,1-.36046.10582h-.00992c0-.53572-.06614-1.02845-.09259-1.52117a16.17261,16.17261,0,0,0-.086-2.04036c-.00331-.0463-.00661-.10251-.00661-.15873s.00331-.11244.00661-.16534v.00331a2.27444,2.27444,0,0,1,1.29631-2.05359l.01322-.00661c1.1012-.56548,2.17263-1.18718,3.25068-1.77911a2.28077,2.28077,0,0,1,.30093-.11905l.01653-.00331Z" style="fill: #fff"/>
      <path d="M108.36773,122.13354c1.1078.05622,2.22223.06614,3.32342.17526a2.24,2.24,0,0,1,1.0516.50926l-.0033-.0033c1.04167.80358,2.047,1.64353,3.06879,2.47687a1.55141,1.55141,0,0,1,.17858.21164l.0033.0033c0,.0496,0,.09259-.0496.09259-.4795.0463-1.03836.07275-1.60384.07275s-1.12435-.02645-1.6733-.07936l.06945.00661a5.66031,5.66031,0,0,1-2.07012-1.14087l.00662.00661c-.78043-.58532-1.44842-1.28968-2.21562-1.94115a1.205,1.205,0,0,1-.11905-.162l-.0033-.00662Z" style="fill: #fff"/>
      <path d="M111.48613,128.98212c-.377-.29762-.76058-.5787-1.10781-.88294s-.82672-.72421-1.27315-1.09458a4.45921,4.45921,0,0,1-1.832-3.57475h0c0-.463-.043-.92594-.07275-1.44843a3.23111,3.23111,0,0,1,.51588.31085l-.00992-.00661c.96231.85317,1.961,1.67329,2.84393,2.59922a3.629,3.629,0,0,1,.78374,1.584l.0033.02315a16.25162,16.25162,0,0,1,.29432,2.26853l.0033.0463v.0496Z" style="fill: #fff"/>
      <path d="M95.95363,122.41794l-2.89684,2.24538c-.28109.22487-.56548.45635-.8631.65807a1.46019,1.46019,0,0,1-.62831.31085l-.00992.00331c-1.13757.09259-2.24538.1455-3.35981.21825l-.05952-.18188a3.09725,3.09725,0,0,1,.32407-.3836h0c.91271-.72421,1.84525-1.44842,2.74473-2.22885a3.92331,3.92331,0,0,1,2.28837-.83334h.00662c.79035-.07275,1.584,0,2.381,0Z" style="fill: #fff"/>
      <path d="M97.24,122.15007c-.30424,1.3889-.21826,2.89684-1.44842,3.99474-.72421.65146-1.44842,1.33929-2.17263,2.004a8.80553,8.80553,0,0,1-.84657.72421l-.15873-.07275c.086-.62831.17527-1.25993.24471-1.89816.19511-1.80887,1.36905-2.89684,2.75134-3.90875.28109-.20172.53572-.4332.82672-.62831a6.369,6.369,0,0,1,.60516-.34392l.03969-.01653h.043Z" style="fill: #fff"/>
      <path d="M88.32131,53.15166c.72421.42,1.11443,0,1.81549-.28109C89.32,52.31171,88.87687,53.03592,88.32131,53.15166Z" style="fill: #fff"/>
      <path d="M114.17464,52.87057c.72421.13889,1.121.56548,1.81548.13889C115.43126,53.00946,115.01128,52.16951,114.17464,52.87057Z" style="fill: #fff"/>
    </g>
  </g>
</svg>
