<svg xmlns="http://www.w3.org/2000/svg" viewBox="0 0 204.40449 204.40449">
  <title>doubles</title>
  <g class="Layer_2" data-name="Layer 2">
    <g class="base1">
      <rect class="orange" x="55.21411" y="54.78736" width="93.97648" height="93.97648" transform="translate(101.90059 -42.45859) rotate(45)" style="fill: #cc3c1d;opacity: 0.8"/>
      <g class="orange-border" style="opacity: 0.2">
        <path d="M102.20234,36.7384l65.03724,65.0372-65.03724,65.03721L37.16514,101.7756l65.0372-65.0372m0-1.4142-66.4514,66.4514,66.4514,66.4514,66.45142-66.4514L102.20234,35.3242Z" style="fill: #fff"/>
      </g>
      <rect class="square" x="45.66131" y="45.66111" width="113.08208" height="113.08208" transform="translate(102.20221 -42.33365) rotate(45)" style="fill: none;stroke: #fff;stroke-miterlimit: 10;stroke-width: 0.75px;opacity: 0.15"/>
      <polygon class="polygon inner ani" points="129.91 34.893 74.494 34.893 35.309 74.078 35.309 129.494 74.494 168.679 129.91 168.679 169.096 129.494 169.096 74.078 129.91 34.893" style="fill: none;stroke: #fff;stroke-miterlimit: 10;stroke-width: 0.75px;opacity: 0.4"/>
      <polygon class="polygon inner" points="129.91 34.893 74.494 34.893 35.309 74.078 35.309 129.494 74.494 168.679 129.91 168.679 169.096 129.494 169.096 74.078 129.91 34.893" style="fill: none;stroke: #fff;stroke-miterlimit: 10;stroke-width: 0.75px;opacity: 0.4"/>
      <polygon class="polygon outer" points="135.7 21.241 68.704 21.241 21.331 68.614 21.331 135.61 68.704 182.984 135.7 182.984 183.074 135.61 183.074 68.614 135.7 21.241" style="fill: none;stroke: #fff;stroke-miterlimit: 10;stroke-width: 0.75px;opacity: 0.15"/>
    </g>
    <g class="doubles">
      <g>
        <path d="M140.56736,131.529c3.85315-1.10459,6.33683-3.3271,8.15133-7.6023-3.67491.68991-6.35984,1.147-9.029,3.247-1.78175,1.40183-2.53579,2.60191-2.43291,4.33011A21.63041,21.63041,0,0,0,140.56736,131.529Z" style="fill: #fff"/>
        <path d="M137.212,132.45454c-4.75365,1.7294-4.7709,1.766-6.01179,4.91328,4.59946,2.19823,9.34336.45107,12.09708-4.55986l-1.37316-.49405A18.53913,18.53913,0,0,1,137.212,132.45454Z" style="fill: #fff"/>
        <path d="M125.50714,143.78758a13.1738,13.1738,0,0,0,2.4254.68336c.39949.06536.80081.115,1.203.15561a13.36959,13.36959,0,0,0,7.2351-3.52491c-5.513-2.90538-9.36753-2.50146-12.91248,1.21248l.56671.96472C124.50374,143.49336,125.05812,143.62255,125.50714,143.78758Z" style="fill: #fff"/>
        <path d="M127.21284,146.89541a19.18936,19.18936,0,0,0-5.175-2.48265c-.011-.00373-.01963-.0094-.03-.01364a13.20893,13.20893,0,0,0-3.25309-.37228c.11085.16137.23358.315.3425.47769l-.82371.4815a7.33735,7.33735,0,0,1-.50564-.74513.47942.47942,0,0,1-.02786-.06642,5.181,5.181,0,0,0-2.68293,1.67868c1.00177,1.84218,4.56154,2.74146,4.66167,2.76813a9.5329,9.5329,0,0,0,2.08487.11218c.61852.00732,1.23706.00371,1.8542-.0268a12.574,12.574,0,0,0,1.75294-.32065,14.06049,14.06049,0,0,0,2.49426-.73809c.07214-.03467.14061-.07481.20942-.11444C127.81249,147.32308,127.51123,147.11176,127.21284,146.89541Z" style="fill: #fff"/>
        <path d="M60.92539,133.48175c5.19938-2.4397,10.08191-.8011,12.32516,3.872C68.74365,139.62375,66.381,138.91334,60.92539,133.48175Z" style="fill: #fff"/>
        <path d="M147.7029,104.88858c-1.75522,1.74451-3.316,3.29565-4.82022,4.79067-.24968.5366-.435,1.10927-.60975,1.58082a12.25727,12.25727,0,0,0-.71,4.41994c2.94451.50719,4.33225-1.27247,5.49618-3.191a8.83134,8.83134,0,0,0,1.14688-7.836A4.71907,4.71907,0,0,0,147.7029,104.88858Z" style="fill: #fff"/>
        <path d="M86.0879,144.3945c-.07562.00062-.15128.00137-.2269.00178a20.77737,20.77737,0,0,0-3.48538.37349,16.19169,16.19169,0,0,0-4.91838,1.59111L76.193,147.75719c5.85786,2.77053,10.83829,1.83837,12.77744-2.21712-.79591-.42485-1.42-.75028-1.955-.99788Q86.55355,144.45531,86.0879,144.3945Z" style="fill: #fff"/>
        <path d="M114.12686,151.72251c.21033-.10591.42346-.2063.63485-.31106a4.17654,4.17654,0,0,0,.45049-.25375c.006-.004.02243-.01783.04043-.0325a.21022.21022,0,0,1,.06488-.04443q.08417-.07018.16764-.14123a8.27124,8.27124,0,0,0,.73525-.69342q.08591-.09364.16711-.19138l.03317-.04107c.03494-.04956.06419-.10245.09761-.15275-4.28534-3.34118-7.65909-3.54234-10.62986-.53248,2.50483,1.49485,4.53817,3.75685,7.96018,2.4518A.94326.94326,0,0,1,114.12686,151.72251Z" style="fill: #fff"/>
        <path d="M141.27033,111.27628c-2.40794.73913-4.00191-.55845-5.36091-2.24388-1.66468-2.06454-2.1894-4.61-1.85119-8.51345,4.63446,2.25192,6.976,5.8137,7.11874,10.85554Z" style="fill: #fff"/>
        <path d="M84.70976,142.2626c-4.617-2.54322-5.49859-5.40171-3.79272-11.53663C85.61109,133.71111,87.048,137.84431,84.70976,142.2626Z" style="fill: #fff"/>
        <path d="M138.55812,121.022c-.40744.57317-.4879.48816-1.452.69188-4.32107-3.02226-4.10811-7.24968-2.84212-12.12078C138.36161,112.69619,140.40187,118.42832,138.55812,121.022Z" style="fill: #fff"/>
        <path d="M75.279,144.197a7.74645,7.74645,0,0,0,2.96085-.18841,6.48864,6.48864,0,0,0,2.03131-1.06877l.37881-.4948c-2.71965-3.45162-12.2651-1.62276-13.39683-.65056C68.90685,141.70655,74.08724,144.10389,75.279,144.197Z" style="fill: #fff"/>
        <path d="M75.82483,90.57327c-1.20326,5.25429-3.469,8.894-8.83921,9.61992C65.63455,95.952,68.257,92.98071,75.82483,90.57327Z" style="fill: #fff"/>
        <path d="M59.68546,93.86289c4.35916,4.95039,4.99212,8.27025,2.3996,12.58607C57.93422,103.934,57.27829,100.49365,59.68546,93.86289Z" style="fill: #fff"/>
        <path d="M64.98128,83.42339c3.17562,5.02869,3.08187,9.3153-.09346,12.56661C61.50149,92.91215,61.48388,90.09227,64.98128,83.42339Z" style="fill: #fff"/>
        <path d="M116.86665,136.90808c-2.60013,6.73863-5.12433,8.79811-9.62774,8.13947C107.48414,140.399,109.63512,138.51294,116.86665,136.90808Z" style="fill: #fff"/>
        <path d="M128.29248,124.64741c2.17579,4.59237,3.52938,8.62026.25026,12.775C124.70511,135.18281,124.54358,130.79036,128.29248,124.64741Z" style="fill: #fff"/>
        <path d="M69.74281,131.74091c-2.83722-4.89329-2.10621-8.28434,2.44707-12.83588C73.45482,123.51,74.40443,127.88348,69.74281,131.74091Z" style="fill: #fff"/>
        <path d="M76.01218,137.64219c-4.04171-4.39466-2.04071-8.46042-.28255-12.66876C79.72671,129.3656,79.88687,133.74457,76.01218,137.64219Z" style="fill: #fff"/>
        <path d="M98.55755,148.78937c-3.48825,3.61528-5.63953,4.10089-12.88868,3.11567C90.03349,147.02711,93.548,146.12866,98.55755,148.78937Z" style="fill: #fff"/>
        <path d="M77.39422,80.8837c-.75316,4.94923-2.41788,8.95729-7.71745,10.35295C68.46358,86.2991,70.99461,82.83325,77.39422,80.8837Zm-3.964,6.44948-.592-.81283-.918.69019c.16342.21243.361.62127.48381.59994A4.07155,4.07155,0,0,0,73.43022,87.33318Z" style="fill: #fff"/>
        <path d="M123.0497,137.87744l-.477-.477.63314-.04122s-.27844-.43578-.15615-.43578h.81447a20.119,20.119,0,0,0-.31574-6.43957c-4.468,2.4688-5.801,5.93237-4.33521,11.74015,2.42306-1.22625,3.80637-2.46121,4.41676-4.34659Z" style="fill: #fff"/>
        <path d="M132.56972,117.96411c1.68408,3.67089,3.63111,6.19064,3.67883,9.09453.03039,1.84926-.77495,3.02309-1.35146,4.39715C130.88753,128.93676,130.12177,125.14983,132.56972,117.96411Z" style="fill: #fff"/>
        <path d="M144.59832,93.63623c1.31612,4.93563,2.47121,9.36853-2.02553,12.94777C139.2758,102.49721,139.68892,99.66339,144.59832,93.63623Z" style="fill: #fff"/>
        <path d="M64.53561,123.65778c-5.36945-.06453-7.60944-1.76719-9.7759-7.12807C59.74711,115.73519,63.688,118.51166,64.53561,123.65778Z" style="fill: #fff"/>
        <path d="M140.901,120.21038a4.98708,4.98708,0,0,0-1.03911,2.96408,14.726,14.726,0,0,0,4.77578-1.09467,17.93156,17.93156,0,0,0,3.19291-2.19216,10.5147,10.5147,0,0,0,1.78115-3.87007A14.01131,14.01131,0,0,0,140.901,120.21038Zm2.412.101c.0195.00282.335.10131.35449.10654.038.01605.27333-.264.31133-.248.07167.0424.0086.59787-.02627.65261a.83989.83989,0,0,1-.28506.21922,2.69113,2.69113,0,0,1-.94951-.32916,11.42526,11.42526,0,0,1,.63644-1.69888" style="fill: #fff"/>
        <path d="M70.31308,100.70181c.36982,6.09146-1.66568,9.54854-6.22438,10.57142C62.9294,106.528,64.80468,103.343,70.31308,100.70181Z" style="fill: #fff"/>
        <path d="M87.21521,136.75216c7.03867,1.80309,9.01359,3.50621,9.97292,8.28954C92.9487,145.796,89.81931,143.2821,87.21521,136.75216Z" style="fill: #fff"/>
        <path d="M58.92466,113.82008c-3.40876-2.0834-3.59351-4.97327-3.188-8.59994,5.60539,2.82255,7.1552,5.26416,6.61468,10.431a2.40235,2.40235,0,0,1-3.35025-1.66047c1.67781-.40252,1.38175.09091.64588-1.39064C59.31252,113.41872,59.16793,113.22466,58.92466,113.82008Z" style="fill: #fff"/>
        <path d="M128.3694,90.312c1.20327,5.25429,3.469,8.894,8.83921,9.61992C138.55969,95.69073,135.93727,92.71948,128.3694,90.312Z" style="fill: #fff"/>
        <path d="M139.213,83.16217c-3.17561,5.02868-3.08186,9.31529.09347,12.56661C142.69275,92.65092,142.71035,89.831,139.213,83.16217Z" style="fill: #fff"/>
        <path d="M134.51747,90.97542c-5.29958-1.39566-6.96429-5.40372-7.71746-10.35295C133.19962,82.572,135.73066,86.03787,134.51747,90.97542Z" style="fill: #fff"/>
        <rect x="100.1782" y="144.31812" width="4.46598" height="4.46598" transform="translate(-73.63174 115.33947) rotate(-45)" style="fill: #fff"/>
        <path d="M66.64749,130.869c-5.33883.57629-7.76589-.84707-10.55623-5.91131C60.94832,123.57407,65.19218,125.86073,66.64749,130.869Z" style="fill: #fff"/>
        <path d="M65.8268,121.47146c-1.35165-5.08582.06542-8.0172,5.0847-11.16628C70.95731,114.78233,70.78113,118.97911,65.8268,121.47146Z" style="fill: #fff"/>
        <path d="M122.97908,76.13868a.07887.07887,0,0,0-.079-.07874l-1.34749.00291a.079.079,0,0,0-.07242.048l-.41314.66432a.07822.07822,0,0,1-.07242.048c-.491-.00187-3.80755-.01642-4.75668-.01694a.07589.07589,0,0,1-.071-.05019,21.30625,21.30625,0,0,1-1.5266-8.2925s.01582-6.01483.01129-6.597c-.00024-.03293,1.17724-.0048,1.17724-.0048l.00781-3.08735a5.967,5.967,0,0,0-1.07358-.51055l-1.184-1.11324-1.184,1.11324a5.967,5.967,0,0,0-1.07358.51055l.00781,3.08735s1.17748-.02813,1.17723.0048c-.00452.58215.0113,6.597.0113,6.597a21.306,21.306,0,0,1-1.52661,8.2925.07586.07586,0,0,1-.071.05019c-.94913.00052-4.26565.01507-4.75668.01694a.07821.07821,0,0,1-.07242-.048l-.41314-.66432a.079.079,0,0,0-.07242-.048l-1.34749-.00291a.07887.07887,0,0,0-.079.07874l-.00562,2.96924a.07885.07885,0,0,0,.07883.079h1.35117a.07888.07888,0,0,0,.07317-.04947l.47292-.66869a.07853.07853,0,0,1,.07441-.04947c.4965.01007,3.7596.04606,4.17751.05a.07384.07384,0,0,1,.06089.03335l.52569.74505a.07069.07069,0,0,1,.01443.04285c-.00125,1.09406-.049,42.16785-.06292,42.90745-.014.74624.799,7.88469,1.71531,9.71482a18.75825,18.75825,0,0,0,.9243,1.70313,18.75619,18.75619,0,0,0,.92431-1.70313c.9163-1.83013,1.72934-8.96858,1.71531-9.71482-.014-.7396-.06167-41.81339-.06292-42.90745a.07069.07069,0,0,1,.01443-.04285l.52569-.74505a.07384.07384,0,0,1,.06088-.03335c.41791-.004,3.681-.04,4.17752-.05a.07854.07854,0,0,1,.07441.04947l.47292.66869a.07887.07887,0,0,0,.07316.04947h1.35117a.07885.07885,0,0,0,.07884-.079Z" style="fill: #fff"/>
        <path d="M100.06945,76.13868a.07888.07888,0,0,0-.079-.07874l-1.34749.00291a.079.079,0,0,0-.07242.048l-.41313.66432a.07822.07822,0,0,1-.07242.048c-.491-.00187-3.80755-.01642-4.75668-.01694a.07589.07589,0,0,1-.071-.05019,21.30577,21.30577,0,0,1-1.5266-8.2925s.01582-6.01483.01129-6.597c-.00025-.03293,1.17724-.0048,1.17724-.0048l.0078-3.08735a5.96681,5.96681,0,0,0-1.07357-.51055l-1.184-1.11324-1.184,1.11324a5.967,5.967,0,0,0-1.07358.51055l.00781,3.08735s1.17748-.02813,1.17723.0048c-.00452.58215.01129,6.597.01129,6.597a21.30577,21.30577,0,0,1-1.5266,8.2925.07587.07587,0,0,1-.071.05019c-.94913.00052-4.26565.01507-4.75668.01694a.0782.0782,0,0,1-.07242-.048l-.41314-.66432a.079.079,0,0,0-.07242-.048l-1.34749-.00291a.07887.07887,0,0,0-.079.07874l-.00562,2.96924a.07885.07885,0,0,0,.07883.079h1.35117a.07889.07889,0,0,0,.07317-.04947l.47292-.66869a.07853.07853,0,0,1,.07441-.04947c.4965.01007,3.7596.04606,4.17751.05a.07381.07381,0,0,1,.06088.03335l.5257.74505a.07068.07068,0,0,1,.01442.04285c-.00124,1.09406-.04894,42.16785-.06292,42.90745-.014.74624.799,7.88469,1.71532,9.71482a18.75575,18.75575,0,0,0,.9243,1.70313,18.75869,18.75869,0,0,0,.92431-1.70313c.9163-1.83013,1.72934-8.96858,1.71531-9.71482-.014-.7396-.06167-41.81339-.06292-42.90745a.07069.07069,0,0,1,.01443-.04285l.52569-.74505a.07384.07384,0,0,1,.06088-.03335c.41791-.004,3.681-.04,4.17751-.05a.07852.07852,0,0,1,.07441.04947l.47293.66869a.07887.07887,0,0,0,.07316.04947h1.35117a.07885.07885,0,0,0,.07884-.079Z" style="fill: #fff"/>
      </g>
    </g>
  </g>
</svg>
