<svg xmlns="http://www.w3.org/2000/svg" viewBox="0 0 204.40449 204.40449">
  <g id="Layer_2" data-name="Layer 2">
    <g id="base0">
      <circle id="circle_circle4" data-name="circle circle4" cx="102.25304" cy="102.11232" r="73.26325" style="fill: none;stroke: #fff;stroke-miterlimit: 10;stroke-width: 0.75px;opacity: 0.02"/>
      <circle id="circle_circle3" data-name="circle circle3" cx="102.25304" cy="102.11232" r="69.77452" style="fill: none;stroke: #fff;stroke-miterlimit: 10;stroke-width: 0.75px;opacity: 0.05"/>
      <circle id="circle_circle2" data-name="circle circle2" cx="102.25304" cy="102.11232" r="67.12316" style="fill: none;stroke: #fff;stroke-miterlimit: 10;stroke-width: 0.75px;opacity: 0.1"/>
      <circle id="circle_circle1" data-name="circle circle1" cx="102.25304" cy="102.11232" r="65.10946" style="fill: none;stroke: #fff;stroke-miterlimit: 10;stroke-width: 0.75px;opacity: 0.15"/>
    </g>
    <g id="elimination">
      <circle id="orange" cx="102.20241" cy="103.11435" r="52.77734" style="fill: #cc3c1d;opacity: 0.8"/>
      <g>
        <path d="M102.20244,49.337a53.77734,53.77734,0,1,0,53.77735,53.77734A53.838,53.838,0,0,0,102.20244,49.337Zm0,106.55468a52.77734,52.77734,0,1,1,52.77735-52.77734A52.83707,52.83707,0,0,1,102.20244,155.89171Z" style="fill: #fff"/>
        <path d="M146.05454,61.66232c-4.48989-6.18877-2.5874-4.98516-4.82036-10.09727-.53638-1.228-6.1314-9.70034-12.617-11.486.26514.7832.49263,1.45517.821,2.42534-1.90859-1.00381-3.51611-1.69463-4.95527-2.64146-2.31182-1.52094-4.9417-1.83725-7.44512-2.88032-.90967-.379-4.2771-2.95137-5.11518-3.496-.74824-.48633-1.482-.99488-2.22217-1.49356a60.27449,60.27449,0,0,0,10.66934,13.51582,62.40645,62.40645,0,0,0,8.31328,5.97383,70.00045,70.00045,0,0,1,6.96655,3.82451,22.23571,22.23571,0,0,1,5.32446,4.72764,58,58,0,1,1-77.54355,0A22.2349,22.2349,0,0,1,68.755,55.30719a70.00683,70.00683,0,0,1,6.9666-3.82451,62.40977,62.40977,0,0,0,8.31328-5.97383A60.27591,60.27591,0,0,0,94.7042,31.993c-.74019.49868-1.47393,1.00723-2.22217,1.49356-.83808.54467-4.20556,3.117-5.11513,3.496C84.86338,38.0257,82.2335,38.342,79.92178,39.863c-1.43926.94683-3.04668,1.63765-4.95527,2.64146.32832-.97017.55585-1.64214.821-2.42534-6.48564,1.78564-12.08057,10.258-12.617,11.486-2.23291,5.11211-.33047,3.9085-4.82041,10.09727a60.40008,60.40008,0,1,0,87.70444,0Z" style="fill: #fff"/>
      </g>
      <path d="M158.35479,135.8089H46.04971L102.20244,30.59484ZM56.72,129.4089h90.96445L102.20244,44.187Z" style="fill: #fff"/>
      <g>
        <rect x="87.80225" y="26.67418" width="28.8" height="1.41347" style="fill: #fff"/>
        <path d="M109.59531,20.03146l-7.39316-12.6-7.393,12.6-7.00693-10.8V25.07418h28.8V9.23146Zm-7.39306,3.8a2.2,2.2,0,1,1,2.2-2.2A2.2,2.2,0,0,1,102.20225,23.83146Z" style="fill: #fff"/>
      </g>
      <rect x="135.21045" y="164.11427" width="5.33253" height="5.33253" transform="translate(304.65725 28.90382) rotate(90)" style="fill: #fff"/>
      <rect x="154.77979" y="147.1632" width="5.33253" height="5.33253" transform="translate(307.27552 -7.61658) rotate(90)" style="fill: #fff"/>
      <rect x="118.53688" y="180.1787" width="5.33253" height="5.33253" transform="translate(304.0481 61.64182) rotate(90)" style="fill: #fff"/>
      <rect x="63.03206" y="164.11427" width="5.33253" height="5.33253" transform="translate(232.47886 101.08221) rotate(90)" style="fill: #fff"/>
      <rect x="43.46272" y="147.1632" width="5.33253" height="5.33253" transform="translate(195.95845 103.70048) rotate(90)" style="fill: #fff"/>
      <rect x="79.70563" y="180.1787" width="5.33253" height="5.33253" transform="translate(265.21685 100.47307) rotate(90)" style="fill: #fff"/>
      <path d="M120.4297,95.74693a.15294.15294,0,0,0-.15325-.15267l-2.61285.00564a.15314.15314,0,0,0-.14043.093l-.80109,1.28815a.15164.15164,0,0,1-.14043.093c-.95212-.00362-7.383-.03183-9.22343-.03284a.14714.14714,0,0,1-.13773-.09732,41.31286,41.31286,0,0,1-2.96015-16.07957s.03067-11.66307.02189-12.79189c-.00048-.06385,2.28271-.00931,2.28271-.00931l.01514-5.98652a11.56967,11.56967,0,0,0-2.08171-.99l-2.29593-2.15863-2.29592,2.15863a11.56988,11.56988,0,0,0-2.08172.99l.01514,5.98652s2.2832-.05454,2.28272.00931c-.00878,1.12882.02189,12.79189.02189,12.79189a41.3131,41.3131,0,0,1-2.96016,16.07957.14712.14712,0,0,1-.13772.09732c-1.84041.001-8.27131.02922-9.22344.03284a.15166.15166,0,0,1-.14043-.093l-.80109-1.28815a.15313.15313,0,0,0-.14042-.093l-2.61285-.00564a.153.153,0,0,0-.15326.15267l-.0109,5.75751a.15291.15291,0,0,0,.15287.15311h2.62a.153.153,0,0,0,.14187-.09591l.917-1.29664a.15228.15228,0,0,1,.14429-.09592c.96273.01953,7.29.08931,8.1004.097a.14314.14314,0,0,1,.11805.06467l1.01935,1.44468a.137.137,0,0,1,.028.08309c-.00241,2.12145-.0949,74.45721-.122,75.89134-.0272,1.447,1.54932,15.2888,3.32607,18.83753a36.37481,36.37481,0,0,0,1.79228,3.30244,36.37481,36.37481,0,0,0,1.79228-3.30244c1.77675-3.54873,3.35328-17.39054,3.32608-18.83753-.0271-1.43413-.1196-73.76989-.122-75.89134a.13708.13708,0,0,1,.028-.08309l1.01935-1.44468a.14316.14316,0,0,1,.118-.06467c.81035-.00772,7.13767-.0775,8.10041-.097a.15227.15227,0,0,1,.14428.09592l.917,1.29664a.153.153,0,0,0,.14188.09591h2.62a.1529.1529,0,0,0,.15287-.15311Z" style="fill: #fff"/>
    </g>
  </g>
</svg>
