<svg xmlns="http://www.w3.org/2000/svg" viewBox="0 0 204.40449 204.40449">
  <g class="Layer_2" data-name="Layer 2">
    <g class="Layer_3" data-name="Layer 3">
      <rect class="square" x="45.66131" y="45.66111" width="113.08208" height="113.08208" transform="translate(102.20221 -42.33365) rotate(45)" style="fill: none;stroke: #fff;stroke-miterlimit: 10;stroke-width: 0.75px;opacity: 0.15"/>
      <polygon class="polygon outer" points="135.7 21.241 68.704 21.241 21.331 68.614 21.331 135.61 68.704 182.984 135.7 182.984 183.074 135.61 183.074 68.614 135.7 21.241" style="fill: none;stroke: #fff;stroke-miterlimit: 10;stroke-width: 0.75px;opacity: 0.15"/>
    </g>
    <g class="iron-banner">
      <path d="M102.213,31.786a70,70,0,1,0,69.99973,70.00027A70.07927,70.07927,0,0,0,102.213,31.786Zm0,137.9965a67.9965,67.9965,0,1,1,67.99623-67.99623A68.07337,68.07337,0,0,1,102.213,169.78245Z" style="fill: #fff;opacity: 0.2"/>
      <path class="polygon inner ani" d="M102.213,31.786a70,70,0,1,0,69.99973,70.00027A70.07927,70.07927,0,0,0,102.213,31.786Zm0,137.9965a67.9965,67.9965,0,1,1,67.99623-67.99623A68.07337,68.07337,0,0,1,102.213,169.78245Z" style="fill: #fff;"/>
      <circle cx="102.21274" cy="101.78599" r="58.04531" style="fill: #3c4d38;opacity: 0.9"/>
      <g>
        <g>
          <path d="M56.92661,95.13952c5.05485,1.54635,7.16754.619,10.06715-4.37735C62.87777,90.3585,58.83761,89.88873,56.92661,95.13952Z" style="fill: #ccc"/>
          <path d="M64.94269,101.17878c3.79185,1.03158,5.5116-.01277,6.757-4.10327C66.44627,97.312,66.16249,97.48431,64.94269,101.17878Z" style="fill: #ccc"/>
          <path d="M47.13847,75.26022c3.14594,2.10269,6.02513,1.53139,8.9801-.57828C51.65087,72.20772,50.513,72.289,47.13847,75.26022Z" style="fill: #ccc"/>
          <path d="M86.45115,95.3047c-2.76352,4.74681-4.522,5.55021-9.55372,4.36488C78.0215,95.08945,81.101,94.15682,86.45115,95.3047Z" style="fill: #ccc"/>
          <path d="M70.06892,92.56883c2.78829-2.60227,5.65344-2.49459,8.73467-.61963C75.872,94.79136,73.67682,94.95268,70.06892,92.56883Z" style="fill: #ccc"/>
          <path d="M92.73915,54.38c-.30669-4.76708-.48684-4.99877-4.5357-6.11223C86.90316,51.71513,87.99052,53.26481,92.73915,54.38Z" style="fill: #ccc"/>
          <path d="M95.12523,60.06933c-3.784,1.93709-4.63417,1.73288-7.25918-1.74366C91.81024,56.08606,92.70221,56.30031,95.12523,60.06933Z" style="fill: #ccc"/>
          <path d="M60.91149,68.55717c-4.661-4.6671-6.31924-5.07879-10.26486-2.66768C52.68956,69.8011,55.37009,70.5466,60.91149,68.55717Z" style="fill: #ccc"/>
          <path d="M71.69964,57.12383a7.01784,7.01784,0,0,0,7.784,4.15025C77.65786,57.0423,76.26778,56.304,71.69964,57.12383Z" style="fill: #ccc"/>
          <path d="M58.32218,86.64492c3.31587,2.5182,4.59807,2.462,7.276-.15271C61.9,84.052,61.88684,84.052,58.32218,86.64492Z" style="fill: #ccc"/>
          <path d="M50.64663,87.31367a3.90916,3.90916,0,0,1-1.84893,2.30149l-.026.0107q-.12067.049-.24226.096c-.01859.00718-.03756.01331-.05615.02044-.35922.04793-.71816.09871-1.07895.13271a5.12777,5.12777,0,0,1-1.13843.02858C46.19143,87.37672,47.51715,86.60393,50.64663,87.31367Z" style="fill: #ccc"/>
          <path d="M69.69437,76.09069c2.42384-4.68555,4.14085-5.388,9.78926-4.22481C76.79537,76.57842,74.64974,77.54974,69.69437,76.09069Z" style="fill: #ccc"/>
          <path d="M72.35115,68.65925c-2.97418,2.21477-5.78734,2.70123-8.89754.96372C65.88963,66.4309,67.23906,66.28286,72.35115,68.65925Z" style="fill: #ccc"/>
          <path d="M90.11933,83.263c-.11193-.11935-.227-.23584-.34862-.34539-.06148-.05539-.12557-.10689-.1891-.1599l-.00228-.00219-.01393-.01013c-.03081-.02282-.06148-.04574-.09248-.06837-.10075-.07356-.20317-.14483-.30559-.21606a4.93066,4.93066,0,0,1-.84668-.40976c-2.02733-.61275-3.53554-.05777-4.64349,2.02552a4.87589,4.87589,0,0,0,5.51865.93137,7.15831,7.15831,0,0,0,1.01386-1.10929c.07532-.10032.13984-.20759.2084-.31224C90.319,83.4789,90.22023,83.37063,90.11933,83.263Z" style="fill: #ccc"/>
          <path d="M91.77826,88.071a11.65957,11.65957,0,0,0,1.212.0784c2.44813-.46706,2.62339-.886,2.87776-3.124C92.40746,85.32887,92.20543,85.37941,91.77826,88.071Z" style="fill: #ccc"/>
          <path d="M58.70892,58.5006c1.868,3.29072,4.69743,4.072,8.28484,3.51254C64.11123,57.79733,63.05784,57.35941,58.70892,58.5006Z" style="fill: #ccc"/>
          <path d="M86.3839,104.25985c3.79185,1.03157,5.51161-.01278,6.757-4.10328C87.88749,100.393,87.6037,100.56537,86.3839,104.25985Z" style="fill: #ccc"/>
          <path d="M77.3511,50.54862a11.662,11.662,0,0,0,.45528,1.126c1.48309,2.003,1.93663,1.97907,4.06327,1.23717C80.09467,49.92562,79.96147,49.76553,77.3511,50.54862Z" style="fill: #ccc"/>
          <path d="M99.83864,55.14552a3.90918,3.90918,0,0,1-2.80529-.91965l-.01916-.02053q-.08836-.09568-.17514-.19293c-.01327-.01487-.02569-.03046-.03891-.04535-.17141-.31931-.34538-.63735-.50429-.963a5.12742,5.12742,0,0,1-.42779-1.05539C98.21018,50.99812,99.40045,51.96662,99.83864,55.14552Z" style="fill: #ccc"/>
          <path d="M147.49887,95.13952c-5.05486,1.54635-7.16755.619-10.06716-4.37735C141.54771,90.3585,145.58787,89.88873,147.49887,95.13952Z" style="fill: #ccc"/>
          <path d="M139.48279,101.17878c-3.79185,1.03158-5.51161-.01277-6.75695-4.10327C137.9792,97.312,138.263,97.48431,139.48279,101.17878Z" style="fill: #ccc"/>
          <path d="M157.287,75.26022c-3.14594,2.10269-6.02513,1.53139-8.9801-.57828C152.7746,72.20772,153.91249,72.289,157.287,75.26022Z" style="fill: #ccc"/>
          <path d="M117.97433,95.3047c2.76352,4.74681,4.522,5.55021,9.55371,4.36488C126.404,95.08945,123.3245,94.15682,117.97433,95.3047Z" style="fill: #ccc"/>
          <path d="M134.35655,92.56883c-2.78828-2.60227-5.65344-2.49459-8.73466-.61963C128.55352,94.79136,130.74866,94.95268,134.35655,92.56883Z" style="fill: #ccc"/>
          <path d="M111.68633,54.38c.30668-4.76708.48684-4.99877,4.5357-6.11223C117.52232,51.71513,116.435,53.26481,111.68633,54.38Z" style="fill: #ccc"/>
          <path d="M109.30025,60.06933c3.784,1.93709,4.63416,1.73288,7.25917-1.74366C112.61524,56.08606,111.72327,56.30031,109.30025,60.06933Z" style="fill: #ccc"/>
          <path d="M143.514,68.55717c4.66095-4.6671,6.31924-5.07879,10.26485-2.66768C151.73592,69.8011,149.05539,70.5466,143.514,68.55717Z" style="fill: #ccc"/>
          <path d="M132.72584,57.12383a7.01785,7.01785,0,0,1-7.784,4.15025C126.76762,57.0423,128.15769,56.304,132.72584,57.12383Z" style="fill: #ccc"/>
          <path d="M146.1033,86.64492c-3.31587,2.5182-4.59808,2.462-7.276-.15271C142.52552,84.052,142.53864,84.052,146.1033,86.64492Z" style="fill: #ccc"/>
          <path d="M153.77884,87.31367a3.90921,3.90921,0,0,0,1.84894,2.30149l.026.0107q.12068.049.24225.096c.01859.00718.03757.01331.05616.02044.35922.04793.71816.09871,1.079.13271a5.12777,5.12777,0,0,0,1.13843.02858C158.23405,87.37672,156.90833,86.60393,153.77884,87.31367Z" style="fill: #ccc"/>
          <path d="M134.73111,76.09069c-2.42384-4.68555-4.14085-5.388-9.78927-4.22481C127.63011,76.57842,129.77574,77.54974,134.73111,76.09069Z" style="fill: #ccc"/>
          <path d="M132.07432,68.65925c2.97418,2.21477,5.78734,2.70123,8.89755.96372C138.53585,66.4309,137.18642,66.28286,132.07432,68.65925Z" style="fill: #ccc"/>
          <path d="M114.30615,83.263c.11192-.11935.227-.23584.34862-.34539.06147-.05539.12557-.10689.18909-.1599l.00228-.00219.01394-.01013c.03081-.02282.06147-.04574.09248-.06837.10075-.07356.20317-.14483.30558-.21606a4.93066,4.93066,0,0,0,.84668-.40976c2.02733-.61275,3.53554-.05777,4.64349,2.02552a4.87588,4.87588,0,0,1-5.51865.93137,7.15824,7.15824,0,0,1-1.01385-1.10929c-.07532-.10032-.13984-.20759-.2084-.31224C114.10649,83.4789,114.20525,83.37063,114.30615,83.263Z" style="fill: #ccc"/>
          <path d="M112.64721,88.071a11.65938,11.65938,0,0,1-1.212.0784c-2.44813-.46706-2.62339-.886-2.87777-3.124C112.018,85.32887,112.22005,85.37941,112.64721,88.071Z" style="fill: #ccc"/>
          <path d="M145.71656,58.5006c-1.868,3.29072-4.69744,4.072-8.28485,3.51254C140.31425,57.79733,141.36764,57.35941,145.71656,58.5006Z" style="fill: #ccc"/>
          <path d="M118.04158,104.25985c-3.79186,1.03157-5.51161-.01278-6.75695-4.10328C116.538,100.393,116.82177,100.56537,118.04158,104.25985Z" style="fill: #ccc"/>
          <path d="M127.07438,50.54862a11.65955,11.65955,0,0,1-.45529,1.126c-1.48308,2.003-1.93662,1.97907-4.06326,1.23717C124.3308,49.92562,124.464,49.76553,127.07438,50.54862Z" style="fill: #ccc"/>
          <path d="M104.58684,55.14552a3.9092,3.9092,0,0,0,2.80529-.91965l.01916-.02053q.08837-.09568.17514-.19293c.01326-.01487.02569-.03046.03891-.04535.1714-.31931.34537-.63735.50429-.963a5.128,5.128,0,0,0,.42778-1.05539C106.2153,50.99812,105.025,51.96662,104.58684,55.14552Z" style="fill: #ccc"/>
        </g>
        <path d="M147.94471,81.99659a12.09146,12.09146,0,0,1,6.34093,1.6304,5.404,5.404,0,0,0-.90738-2.35675,5.19076,5.19076,0,0,0-3.11227-1.55536,9.82973,9.82973,0,0,0-1.75195-.17118,12.99092,12.99092,0,0,1-6.67711-.06772,7.83382,7.83382,0,0,1,1.67138-3.47124l.00305-.0078q.093-.2211.18678-.44192l.02662-.06265c.19325-.47651.35517-.96692.51181-1.45809.0114-.12259.02234-.24725.03185-.383.03605-.51523.04661-1.031.04945-1.547-.02616-.0333-.04319-.07324-.068-.10746a23.07187,23.07187,0,0,1-1.75793,2.48407,12.44688,12.44688,0,0,1-3.51225,3.74123,42.79207,42.79207,0,0,1-10.96779,5.70408c-.02387.01027-.048.01854-.07274.02672-.09072.03225-.17973.06751-.27065.0993-.741.25882-1.5413.34795-3.20621.70863,1.065-1.29234,1.974-2.39506,2.81441-3.41486.02132-.05307.03271-.11392.05154-.16888-.15937.08567-.32046.16813-.47736.25809-.88459.50752-1.73664,1.07038-2.62149,1.57686-.06229.05818-.123.1181-.188.17326-.0603.051-.122.10024-.1842.14891l-.21712.16775-.01009.00771c-.03147.02521-.13863.10926-.15537.12257q-.08913.07134-.17784.143c-.1436.116-.28652.23278-.43058.34833-.331.2654-.66718.528-1.01829.7675a4.62992,4.62992,0,0,1-1.56221,1.39846,59.04363,59.04363,0,0,1-6.58038,2.30341c-.1554.07152-.3101.14435-.46541.21587-1.656,1.33761-3.38214,2.60266-4.90575,4.07711a38.3438,38.3438,0,0,0-3.24522,4.14118,17.48077,17.48077,0,0,1,.41517-8.2283c.41179-1.66207.83152-3.29531,2.2399-4.32653,1.94638-1.42509,3.95956-2.81395,6.52141-2.9078,2.00575-2.25414,4.337-3.83215,7.39649-3.96995a9.69237,9.69237,0,0,0,2.53048-.82989c.1743-.07645.34293-.164.51085-.25238a3.41411,3.41411,0,0,0,.256-.661h-4.87211c1.38991-2.50319,2.45611-4.53081,3.64279-6.48511a3.07433,3.07433,0,0,1,1.50215-1.10234c3.25291-1.21844,6.497-2.48018,9.812-3.50825a6.11673,6.11673,0,0,1,4.22592.61982c-.8548-.67945-1.747-1.328-2.61226-1.99282-.14788-.11363-.29319-.21746-.43849-.321-.15746-.04565-.31173-.09194-.47272-.13625a8.618,8.618,0,0,0-3.41173-.08426c-.41117.05-.83055.1181-1.2484.19873a8.457,8.457,0,0,1-1.28074.54917c-3.73505,1.31424-7.48608,2.58309-11.89049,4.09376,1.24794-2.08905,2.173-3.63737,3.09792-5.18592A16.45867,16.45867,0,0,1,122.08,60.9237c.00626-.01874.0136-.03718.01987-.05592a14.407,14.407,0,0,0,.39473-1.45942c.20542-.93335.34757-1.87878.51657-2.81908l.001-.01219c.00656-.15206.00589-.30409.00952-.45615-1.11777,1.16214-2.22513,2.33429-3.26434,3.56976a.98181.98181,0,0,1-.14208.13,13.29335,13.29335,0,0,1-9.1994,7.70842q.50226-2.19659,1.00457-4.39292c-3.22323,3.68568-4.78423,8.30958-7.97483,12.53467,0-1.44194.07-2.33079-.01181-3.20537A18.41646,18.41646,0,0,1,106.223,60.62282a12.91487,12.91487,0,0,0,1.15893-2.44013c.06076-.345.09814-.69343.12456-1.04337-.18332.10574-.36935.20711-.54679.32378-.12932.0851-.25267.17869-.38115.26466a.07075.07075,0,0,1-.01691.0096c-.01114.0098-.01172.01113-.03559.03109-.05893.04974-.11856.09852-.17677.1491-.28881.25154-.55288.53084-.82667.79825-.25523.24942-.5215.48707-.78148.73145-.68621,1.19649-1.50079,2.32223-2.275,3.48354-.77418-1.16131-1.58875-2.28705-2.275-3.48354-.26-.24438-.52626-.482-.78148-.73145-.27379-.26741-.53786-.54671-.82667-.79825-.05821-.05058-.11781-.09936-.17678-.1491-.02386-.02-.02444-.02129-.03558-.03109a.07031.07031,0,0,1-.01691-.0096c-.12848-.086-.2518-.17956-.38116-.26466-.17744-.11667-.36343-.218-.54679-.32378.02645.34994.06381.69836.12457,1.04337a12.91426,12.91426,0,0,0,1.15893,2.44013,18.41646,18.41646,0,0,1,2.78923,11.84267c-.08179.87458-.01177,1.76343-.01177,3.20537-3.19064-4.22509-4.75163-8.849-7.97487-12.53467q.5024,2.19639,1.00457,4.39292a13.29333,13.29333,0,0,1-9.19939-7.70842.98345.98345,0,0,1-.14209-.13c-1.03917-1.23547-2.14656-2.40762-3.2643-3.56976.00359.15206.00293.30409.00951.45615l.00093.01219c.169.9403.31117,1.88573.51657,2.81908a14.41749,14.41749,0,0,0,.39473,1.45942c.00629.01874.0136.03718.01986.05592a16.44753,16.44753,0,0,1,1.06688,1.57306c.9249,1.54855,1.85,3.09687,3.09791,5.18592-4.40441-1.51067-8.15544-2.77952-11.89049-4.09376a8.4605,8.4605,0,0,1-1.28074-.54917c-.41784-.08063-.83722-.14873-1.2484-.19873a8.618,8.618,0,0,0-3.41172.08426c-.161.04431-.31524.0906-.47272.13625-.14531.10357-.29061.2074-.4385.321-.86527.66484-1.75746,1.31337-2.61226,1.99282a6.11676,6.11676,0,0,1,4.22593-.61982c3.315,1.02807,6.55909,2.28981,9.812,3.50825a3.0742,3.0742,0,0,1,1.50212,1.10234c1.18668,1.9543,2.25289,3.98192,3.64279,6.48511H79.973a3.4161,3.4161,0,0,0,.256.661c.16793.08834.33655.17593.51086.25238a9.69218,9.69218,0,0,0,2.53047.82989c3.05949.1378,5.39074,1.71581,7.39649,3.96995,2.56186.09385,4.575,1.48271,6.52145,2.9078,1.40835,1.03122,1.82811,2.66446,2.23986,4.32653a17.48038,17.48038,0,0,1,.41518,8.2283,38.34256,38.34256,0,0,0-3.24522-4.14118c-1.52361-1.47445-3.24978-2.7395-4.90575-4.07711-.15528-.07152-.31-.14435-.46541-.21587a59.04292,59.04292,0,0,1-6.58038-2.30341,4.62992,4.62992,0,0,1-1.56221-1.39846c-.35111-.23945-.68726-.5021-1.01829-.7675-.14406-.11555-.287-.23232-.43058-.34833q-.08876-.07161-.17785-.143c-.01673-.01331-.1239-.09736-.15537-.12257l-.01009-.00771-.21709-.16775c-.06221-.04867-.12393-.09795-.18419-.14891-.06506-.05516-.12573-.11508-.188-.17326-.88485-.50648-1.73689-1.06934-2.62148-1.57686-.15691-.09-.318-.17242-.47736-.25809.01882.055.03022.11581.05154.16888.84044,1.0198,1.74936,2.12252,2.81444,3.41486-1.66494-.36068-2.46525-.44981-3.20624-.70863-.0909-.03179-.17991-.06705-.27063-.0993-.02474-.00818-.0489-.01645-.07277-.02672a42.79288,42.79288,0,0,1-10.96779-5.70408,12.44652,12.44652,0,0,1-3.51222-3.74123,23.069,23.069,0,0,1-1.75792-2.48407c-.02483.03422-.04185.07416-.068.10746.00287.516.01342,1.03178.04944,1.547.00952.13579.02045.26045.03188.383.15661.49117.31857.98158.51178,1.45809l.02663.06265q.0937.22083.18678.44192l.003.0078A7.83339,7.83339,0,0,1,63.09536,79.476a12.99088,12.99088,0,0,1-6.6771.06772,9.82931,9.82931,0,0,0-1.75192.17118,5.19065,5.19065,0,0,0-3.11227,1.55536,5.4042,5.4042,0,0,0-.90742,2.35675,12.09167,12.09167,0,0,1,6.341-1.6304,43.06675,43.06675,0,0,1,6.20265.3237,13.07674,13.07674,0,0,1,4.8411,1.198c5.755,3.32976,12.07452,5.19314,18.30468,7.23123C94.00012,93.25679,97.613,99.01041,99.29,106.27207a44.27308,44.27308,0,0,1,.83256,9.60631c.07668,11.59121.11882,31.66071.00458,43.91165.69259.02448,1.38709.04127,2.08563.04127.869,0,1.7326-.02274,2.59228-.06053-.114-12.25268-.0719-32.30722.00472-43.89239a44.27558,44.27558,0,0,1,.83256-9.60631c1.677-7.26166,5.28987-13.01528,12.954-15.52255,6.23014-2.03809,12.54969-3.90147,18.30465-7.23123a13.07689,13.07689,0,0,1,4.84111-1.198A43.067,43.067,0,0,1,147.94471,81.99659ZM83.17108,70.21582c4.02394.102,8.258,3.48867,13.18265,10.90683C90.31643,78.589,85.11975,76.28128,83.17108,70.21582Zm13.15936,4.90691c-1.3906-1.96752-2.7533-3.95463-4.12818-5.93318l-.57438-.395.66072.30755c2.171.40508,3.51947,1.93745,4.86259,3.50349,1.953,2.27734,2.685,5.08386,3.19424,8.10115C99.00593,78.84627,97.65358,76.99478,96.33044,75.12273Zm25.43078-4.90691c-1.94868,6.06546-7.14536,8.37313-13.18266,10.90683C113.50317,73.70449,117.73727,70.31777,121.76122,70.21582Zm-17.17435,10.4909c.50923-3.01729,1.24126-5.82381,3.19423-8.10115,1.34312-1.566,2.69159-3.09841,4.8626-3.50349l.66071-.30755-.57437.395c-1.37488,1.97855-2.73758,3.96566-4.12816,5.93318C107.27871,76.99478,105.92637,78.84627,104.58687,80.70672Z" style="fill: #ccc"/>
      </g>
      <path class="falling-1" d="M70.06892,92.56883c2.78829-2.60227,5.65344-2.49459,8.73467-.61963C75.872,94.79136,73.67682,94.95268,70.06892,92.56883Z" style="fill: #ccc"/>
      <path class="falling-3" d="M90.11933,83.263c-.11193-.11935-.227-.23584-.34862-.34539-.06148-.05539-.12557-.10689-.1891-.1599l-.00228-.00219-.01393-.01013c-.03081-.02282-.06148-.04574-.09248-.06837-.10075-.07356-.20317-.14483-.30559-.21606a4.93066,4.93066,0,0,1-.84668-.40976c-2.02733-.61275-3.53554-.05777-4.64349,2.02552a4.87589,4.87589,0,0,0,5.51865.93137,7.15831,7.15831,0,0,0,1.01386-1.10929c.07532-.10032.13984-.20759.2084-.31224C90.319,83.4789,90.22023,83.37063,90.11933,83.263Z" style="fill: #ccc"/>
      <path class="falling-2" d="M146.1033,86.64492c-3.31587,2.5182-4.59808,2.462-7.276-.15271C142.52552,84.052,142.53864,84.052,146.1033,86.64492Z" style="fill: #ccc"/>
    </g>
  </g>
</svg>
