<svg xmlns="http://www.w3.org/2000/svg" viewBox="0 0 204.40449 204.40449">
  <title>lockdown</title>
  <g class="Layer_2" data-name="Layer 2">
    <g class="Layer_3" data-name="Layer 3">
      <rect class="orange" x="55.21411" y="54.78736" width="93.97648" height="93.97648" transform="translate(101.90059 -42.45859) rotate(45)" style="fill: #cc3c1d;opacity: 0.8"/>
      <g class="orange-border" style="opacity: 0.2">
        <path d="M102.20234,36.7384l65.03724,65.0372-65.03724,65.03721L37.16514,101.7756l65.0372-65.0372m0-1.4142-66.4514,66.4514,66.4514,66.4514,66.45142-66.4514L102.20234,35.3242Z" style="fill: #fff"/>
      </g>
      <rect class="square" x="45.66131" y="45.66111" width="113.08208" height="113.08208" transform="translate(102.20221 -42.33365) rotate(45)" style="fill: none;stroke: #fff;stroke-miterlimit: 10;stroke-width: 0.75px;opacity: 0.15"/>
      <polygon class="polygon inner ani" points="129.91 34.893 74.494 34.893 35.309 74.078 35.309 129.494 74.494 168.679 129.91 168.679 169.096 129.494 169.096 74.078 129.91 34.893" style="fill: none;stroke: #fff;stroke-miterlimit: 10;stroke-width: 0.75px;opacity: 0.4"/>
      <polygon class="polygon inner" points="129.91 34.893 74.494 34.893 35.309 74.078 35.309 129.494 74.494 168.679 129.91 168.679 169.096 129.494 169.096 74.078 129.91 34.893" style="fill: none;stroke: #fff;stroke-miterlimit: 10;stroke-width: 0.75px;opacity: 0.4"/>
      <polygon class="polygon outer" points="135.7 21.241 68.704 21.241 21.331 68.614 21.331 135.61 68.704 182.984 135.7 182.984 183.074 135.61 183.074 68.614 135.7 21.241" style="fill: none;stroke: #fff;stroke-miterlimit: 10;stroke-width: 0.75px;opacity: 0.15"/>
    </g>
    <g class="lockdown">
      <path d="M106.726,60.09249l-4.62287-3.14778-4.62284,3.14778L81.305,59.97655v34.9525a.65631.65631,0,0,1,0,.38288V116.464c2.36534-.963,15.62045-6.41536,16.17535-6.73789V60.74426l2.96345,1.60046v96.65939l1.63708,1.58525,1.68171-1.58525V62.34475l2.963-1.60023V79.3052l.0843.08478-.0843.833V81.5871l.01486.0118v4.02437h-.01486v24.31536c.82541.30119,13.534,5.42611,16.13117,6.49276V60.09249Z" style="fill: #fff"/>
      <g>
        <rect x="60.75354" y="86.55336" width="11.41379" height="0.95115" style="fill: #fff"/>
        <rect x="132.0577" y="86.55336" width="11.41379" height="0.95115" style="fill: #fff"/>
      </g>
      <g>
        <g>
          <path d="M67.73936,126.9955c4.08627-1.9174,7.92353-.6296,9.68653,3.04308C73.88385,131.82259,72.027,131.26427,67.73936,126.9955Z" style="fill: #fff"/>
          <path d="M86.88087,135.572c-.05944.0005-.1189.00108-.17833.0014a16.32941,16.32941,0,0,0-2.73921.29354,12.7253,12.7253,0,0,0-3.86544,1.25047l-.99356,1.09738c4.60379,2.17741,8.518,1.44481,10.042-1.74246-.62552-.3339-1.116-.58966-1.53645-.78426Q87.24683,135.61978,86.88087,135.572Z" style="fill: #fff"/>
          <path d="M87.066,134.5306c-3.6286-1.99875-4.32142-4.24529-2.98076-9.06681C87.77433,127.80986,88.90363,131.0582,87.066,134.5306Z" style="fill: #fff"/>
          <path d="M74.72128,125.33064c-2.18632-3.575-1.70375-6.09927,1.58967-9.54939C77.32774,119.17,78.107,122.39273,74.72128,125.33064Z" style="fill: #fff"/>
          <path d="M80.40325,130.89269c-3.50036-3.12508-2.24925-6.45945-1.19907-9.8866C82.66944,124.13268,83.13279,127.54517,80.40325,130.89269Z" style="fill: #fff"/>
          <path d="M96.3639,138.70894c-2.74146,2.84131-4.43219,3.223-10.12941,2.44865C89.66472,137.324,92.42684,136.61785,96.3639,138.70894Z" style="fill: #fff"/>
          <path d="M69.94259,119.27469c-4.21993-.05072-5.98038-1.38886-7.683-5.60206A6.36359,6.36359,0,0,1,69.94259,119.27469Z" style="fill: #fff"/>
          <path d="M66.99805,104.74222c3.50708,3.27166,4.2177,6.34348,2.173,9.39333C65.9425,112.05836,65.28782,109.22834,66.99805,104.74222Z" style="fill: #fff"/>
          <path d="M89.035,129.88282c5.5318,1.41707,7.08392,2.75557,7.83787,6.51487C93.54107,136.99052,91.08164,135.01479,89.035,129.88282Z" style="fill: #fff"/>
          <path d="M72.23645,124.94213c-4.19587.45291-6.10333-.66573-8.2963-4.6458A6.36359,6.36359,0,0,1,72.23645,124.94213Z" style="fill: #fff"/>
          <path d="M72.0487,118.4267c-1.72074-3.76081-1.01125-6.21937,2.45993-9.32372C75.13715,112.56525,75.55655,115.83972,72.0487,118.4267Z" style="fill: #fff"/>
          <path d="M82.836,134.02645c-3.45519,2.42323-5.66571,2.36506-9.50833-.06071A6.36359,6.36359,0,0,1,82.836,134.02645Z" style="fill: #fff"/>
        </g>
        <g>
          <path d="M136.27881,126.9955c-4.08627-1.9174-7.92352-.6296-9.68653,3.04308C130.13432,131.82259,131.9912,131.26427,136.27881,126.9955Z" style="fill: #fff"/>
          <path d="M117.13731,135.572c.05943.0005.11889.00108.17833.0014a16.32963,16.32963,0,0,1,2.73921.29354,12.72524,12.72524,0,0,1,3.86543,1.25047l.99356,1.09738c-4.60379,2.17741-8.518,1.44481-10.042-1.74246.62552-.3339,1.116-.58966,1.53645-.78426Q116.77135,135.61978,117.13731,135.572Z" style="fill: #fff"/>
          <path d="M116.95221,134.5306c3.6286-1.99875,4.32143-4.24529,2.98076-9.06681C116.24384,127.80986,115.11454,131.0582,116.95221,134.5306Z" style="fill: #fff"/>
          <path d="M129.2969,125.33064c2.18632-3.575,1.70374-6.09927-1.58968-9.54939C126.69043,119.17,125.9112,122.39273,129.2969,125.33064Z" style="fill: #fff"/>
          <path d="M123.61492,130.89269c3.50037-3.12508,2.24926-6.45945,1.19907-9.8866C121.34873,124.13268,120.88538,127.54517,123.61492,130.89269Z" style="fill: #fff"/>
          <path d="M107.65427,138.70894c2.74147,2.84131,4.43219,3.223,10.12941,2.44865C114.35346,137.324,111.59133,136.61785,107.65427,138.70894Z" style="fill: #fff"/>
          <path d="M134.07558,119.27469c4.21993-.05072,5.98038-1.38886,7.683-5.60206A6.36359,6.36359,0,0,0,134.07558,119.27469Z" style="fill: #fff"/>
          <path d="M137.02012,104.74222c-3.50708,3.27166-4.2177,6.34348-2.173,9.39333C138.07567,112.05836,138.73035,109.22834,137.02012,104.74222Z" style="fill: #fff"/>
          <path d="M114.98314,129.88282c-5.5318,1.41707-7.08392,2.75557-7.83787,6.51487C110.47711,136.99052,112.93654,135.01479,114.98314,129.88282Z" style="fill: #fff"/>
          <path d="M131.78173,124.94213c4.19586.45291,6.10332-.66573,8.29629-4.6458A6.36358,6.36358,0,0,0,131.78173,124.94213Z" style="fill: #fff"/>
          <path d="M131.96947,118.4267c1.72074-3.76081,1.01125-6.21937-2.45992-9.32372C128.881,112.56525,128.46162,115.83972,131.96947,118.4267Z" style="fill: #fff"/>
          <path d="M121.18221,134.02645c3.45519,2.42323,5.66571,2.36506,9.50833-.06071A6.36359,6.36359,0,0,0,121.18221,134.02645Z" style="fill: #fff"/>
        </g>
      </g>
    </g>
  </g>
</svg>
