<svg xmlns="http://www.w3.org/2000/svg" viewBox="0 0 204.40449 204.40449">
  <rect class="orange" x="55.21411" y="54.78736" width="93.97648" height="93.97648" transform="translate(101.90059 -42.45859) rotate(45)" style="fill: #cc3c1d;opacity: 0.8"/>
  <g class="orange-border" style="opacity: 0.2">
    <path d="M102.20234,36.7384l65.03724,65.0372-65.03724,65.03721L37.16514,101.7756l65.0372-65.0372m0-1.4142-66.4514,66.4514,66.4514,66.4514,66.45142-66.4514L102.20234,35.3242Z" style="fill: #fff"/>
  </g>
  <rect class="square" x="45.66131" y="45.66111" width="113.08208" height="113.08208" transform="translate(102.20221 -42.33365) rotate(45)" style="fill: none;stroke: #fff;stroke-miterlimit: 10;stroke-width: 0.75px;opacity: 0.15"/>
  <polygon class="polygon inner ani" points="129.91 34.893 74.494 34.893 35.309 74.078 35.309 129.494 74.494 168.679 129.91 168.679 169.096 129.494 169.096 74.078 129.91 34.893" style="fill: none;stroke: #fff;stroke-miterlimit: 10;stroke-width: 0.75px;opacity: 0.4"/>
  <polygon class="polygon inner" points="129.91 34.893 74.494 34.893 35.309 74.078 35.309 129.494 74.494 168.679 129.91 168.679 169.096 129.494 169.096 74.078 129.91 34.893" style="fill: none;stroke: #fff;stroke-miterlimit: 10;stroke-width: 0.75px;opacity: 0.4"/>
  <polygon class="polygon outer" points="135.7 21.241 68.704 21.241 21.331 68.614 21.331 135.61 68.704 182.984 135.7 182.984 183.074 135.61 183.074 68.614 135.7 21.241" style="fill: none;stroke: #fff;stroke-miterlimit: 10;stroke-width: 0.75px;opacity: 0.15"/>
  <g class="mayhem">
    <g>
      <path d="M101.71688,138.98639c-.005-1.19862-.1907-2.39643-.29326-3.59847a15.86773,15.86773,0,0,1-7.73145-5.34394q.37726,1.94976.75319,3.89328c-.33125.36186-.58236.63619-.7017.76661a3.48664,3.48664,0,0,1-3.41093-.95872,12.80862,12.80862,0,0,1-1.42784-2.07981c-.4839-.74795-.94315-1.51188-1.42751-2.2595-.03927-.06054-.18956-.0492-.369-.08927-.08665.32152-.17438.6468-.25976.96328a2.05764,2.05764,0,0,1-1.73339-.75232c-.457-.45321-.90744-.91321-1.36555-1.36535a5.43715,5.43715,0,0,0-2.208-1.48234,4.17088,4.17088,0,0,1-2.29521-1.85965c-.45013-.76017-.92764-1.50416-1.35615-2.19573q-4.26159,2.38331-8.33153,4.65955c10.75165,10.77393,21.42429,21.46866,32.17185,32.23843C101.73064,152.60433,101.74534,145.79529,101.71688,138.98639ZM99.915,153.85154c-.37992-.37911-.64338-.62531-.88952-.89012q-5.0148-5.39378-10.02262-10.79514a5.7846,5.7846,0,0,1-.436-.60632c1.22232-.23433,5.10237,1.84441,8.27649,1.88334,1.216.1566,1.92744.04034,3.02966.19506.09465,1.60464.02726,3.30132.03941,4.99423C99.92429,150.28986,99.915,151.94733,99.915,153.85154Z" style="fill: #fff"/>
      <path d="M135.71017,125.77159a2.88942,2.88942,0,0,0,.70876.41341q11.511-11.5299,22.85294-22.89052H134.23138a12.61053,12.61053,0,0,1-.01282,1.82306c-.389,2.5386-.76876,5.08109-1.26755,7.59921-.22553,1.13868-.31038,2.44-1.70714,3.17875a8.967,8.967,0,0,1-.90187-1.239,13.38433,13.38433,0,0,1-.88388-2.17391c-.51416-1.73473-.96449-3.48846-1.44066-5.23446-.28722,1.88293.56135,3.63021.455,5.48711-.10572,1.84387.19157,3.70721-.25137,5.42355C130.74837,120.733,133.22132,123.26018,135.71017,125.77159Zm7.4604-15.01866c.40281-1.83287.5921-3.70479.87905-5.5878a68.38868,68.38868,0,0,1,9.57531-.07565c-.07719.18009-.09806.37173-.21358.47785q-5.77125,5.303-11.55928,10.59089l-.20284-.093C142.1652,114.29609,142.7769,112.54438,143.17057,110.75293Z" style="fill: #fff"/>
      <path d="M105.02833,111.92436c1.63391-.763,3.1417-1.467,4.81138-2.24674.67332.36219,1.5139.78178,2.3228,1.25553,2.71278,1.58888,5.40247,3.21748,8.12767,4.78447a25.7058,25.7058,0,0,0,2.42274,1.08941s-5.34555-5.41-8.06088-8.04034c-.79534-.77044-1.62613-1.49081-2.3626-2.33985a10.33479,10.33479,0,0,0-.04034-9.38649c1.22641-1.10633,2.40334-2.10586,3.50906-3.179,2.10055-2.0386,4.16325-4.11633,6.23326-6.18627.25332-.25333.85615-1.12787.811-1.03169,0,0-.45489.16459-.57652.23272-1.28124.71788-2.55262,1.45348-3.82487,2.18741-2.85837,1.64888-5.71567,3.29964-8.4845,4.89831-1.67613-.80253-3.22681-1.545-4.90845-2.35032-.21224-1.17922-.44784-2.45912-.672-3.741-.26152-1.49617-.50806-2.995-.77038-4.49094a44.12485,44.12485,0,0,0-1.14263-5.46006c-.84676,4.7497-1.8669,9.26843-2.66472,13.74373-1.69426.79225-3.29656,1.54148-4.97242,2.32514-2.962-1.71922-5.93831-3.47429-8.94389-5.17774-1.21808-.69043-3.74641-1.99644-3.74641-1.99644a7.791,7.791,0,0,0,.58941.75466q3.07451,3.06918,6.16694,6.12042c1.1674,1.157,2.33468,2.31414,3.516,3.48517a10.60249,10.60249,0,0,0-.29567,8.25185,5.46707,5.46707,0,0,1,.105,1.29319c-3.34937,3.2201-10.32676,10.248-10.27225,10.15546.15814-.01363,4.30984-2.2548,6.12586-3.2983,2.31165-1.32823,4.62921-2.64626,6.84776-3.91361,1.727.81367,3.32434,1.56632,4.84287,2.28178.83025,4.66788,2.46731,13.76467,2.58531,13.77125C103.23057,121.07445,104.1374,116.3863,105.02833,111.92436Z" style="fill: #fff"/>
      <path d="M76.59524,118.16178c-.47375-1.62552-.1717-3.3381-.28306-5.02658-.111-1.684.65674-3.32293.20983-5.28541-.21009.84984-.33763,1.45435-.51013,2.04571-.42315,1.4508-.8177,2.91314-1.32548,4.33447a2.28844,2.28844,0,0,1-1.27246,1.57693,2.427,2.427,0,0,1-1.26352-1.695,42.81994,42.81994,0,0,1-1.28132-6.94408c-.16827-1.298-.30776-2.59982-.45892-3.889H45.23908C53.06,111.09069,60.7313,118.7532,68.4524,126.46545,71.18465,123.67923,73.88253,120.92812,76.59524,118.16178Zm-14.51913-2.87327q-5.12323-4.6592-10.23983-9.32455c-.30226-.27473-.65036-.50745-1.21493-.94321H60.7609a95.59135,95.59135,0,0,0,1.81776,9.50779,10.64249,10.64249,0,0,1,.22453,1.2995A8.84167,8.84167,0,0,1,62.07611,115.28851Z" style="fill: #fff"/>
      <path d="M93.91214,74.504c1.80124-2.43208,3.02779-3.32381,7.16331-5.20876V45.16062q-15.709,15.73862-31.53136,31.591c2.73071,1.78487,5.76353,3.15861,8.531,4.85011a22.7231,22.7231,0,0,0,1.41368-2.03947,3.26286,3.26286,0,0,1,1.86354-1.63411A7.05726,7.05726,0,0,0,84.408,75.75587a4.76093,4.76093,0,0,1,.92637-.88669c.45892-.27528.86958-.83052,1.52913-.51732l.36589,1.14962c.33065-.44516.5294-.67614.68767-.93221.58075-.93952,1.15956-1.88059,1.71768-2.8336.90368-1.54283,2.42234-2.74373,3.99826-1.90945a1.62468,1.62468,0,0,1,.718.795,2.79573,2.79573,0,0,1-.40818,2.38643C93.64431,73.54913,93.70426,73.58222,93.91214,74.504ZM92.10632,61.7409c-1.19432.2938-2.75936.70439-3.94,1.0639-.04779-.09766,7.43033-8.08686,11.1464-12.12149v9.854c-1.21084.17411-2.43751.33064-3.65794.53154C94.46765,61.26433,93.27594,61.45314,92.10632,61.7409Z" style="fill: #fff"/>
      <path d="M68.35333,77.76306,45.25841,100.89388c1.93966.20319,24.04055.14445,25.12828-.05913.26-1.7442.51316-3.45919.77192-5.17331.22754-1.50685.37716-3.03236.723-4.51189a3.07622,3.07622,0,0,1,1.55786-2.39508,3.12656,3.12656,0,0,1,1.30467,1.77816c.83313,1.90018,1.12707,3.95757,1.8773,5.91012-.17237-3.57934-.68029-7.1562.02349-10.768C73.89555,83.05142,71.153,80.43449,68.35333,77.76306ZM60.80788,99.17211a71.20872,71.20872,0,0,1-9.86971.01322c4.0835-3.86844,8.00456-7.52114,12.06081-11.10686A47.2495,47.2495,0,0,0,60.80788,99.17211Z" style="fill: #fff"/>
      <path d="M103.40294,69.27977a14.34992,14.34992,0,0,1,7.63459,5.27158c-.16284-1.46852-1.01054-2.823-.46913-4.34622a1.68242,1.68242,0,0,1,1.90831-.38006,4.55059,4.55059,0,0,1,2.03316,1.09344,12.355,12.355,0,0,1,1.45221,2.2344c.44657.70861.89777,1.41435,1.45187,2.28654.11539-.48395-.05524-.92616.27581-1.15686a1.00129,1.00129,0,0,1,1.02806.14747c.71446.534,1.35267,1.16975,2.02188,1.76446a13.75026,13.75026,0,0,0,1.40744,1.22,14.3141,14.3141,0,0,0,1.55491.74749,3.56007,3.56007,0,0,1,1.71392,1.5645,19.37051,19.37051,0,0,0,1.23111,1.8975c2.93811-1.65988,5.79937-3.27634,8.75708-4.94731-10.70178-10.63438-21.26622-21.13237-31.99578-31.79441C103.40838,45.98126,103.40294,65.045,103.40294,69.27977Zm1.75312-16.22836V50.59967c3.87784,4.19365,7.5731,8.18989,11.45262,12.38542-.884-.2452-1.57062-.4324-2.25561-.62659-.74379-.21083-1.48583-.42885-2.229-.6423-.69708-.20016-1.3873-.43905-2.09377-.58639a44.50783,44.50783,0,0,0-4.78071-.555c-.03477-.91724-.06652-1.53954-.09827-2.37643Q105.15372,55.62494,105.15606,53.05141Z" style="fill: #fff"/>
      <path d="M135.24233,127.28307q-4.24749-2.36527-8.46631-4.71452c-.41885.68291-.794,1.3099-1.18412,1.92744a4.71871,4.71871,0,0,1-2.45765,2.17062,5.62237,5.62237,0,0,0-2.4618,1.63875c-.55847.577-1.13237,1.1419-1.73534,1.67136a3.85444,3.85444,0,0,1-.88045.42832c-.25265-.38247-.46872-.70963-.77138-1.16775-.66633,1.08042-1.29863,2.10552-1.93086,3.13069-.93583,1.51759-2.05525,2.72225-4.176,2.37616-.22835-.24728-.51061-.553-.89267-.96677.25768-1.23634.51993-2.49457.85427-4.09881-2.0204,2.98436-4.7264,4.42818-7.73983,5.64821a22.574,22.574,0,0,0-.32957,2.696c-.02746,6.80441-.01531,13.609-.01551,20.41355v1.18956C106.62492,156.40914,134.44591,128.45612,135.24233,127.28307Zm-30.21675,26.47215a75.68388,75.68388,0,0,1-.08746-9.96644c3.78863-.211,11.18774-2.38435,11.19868-2.34152C116.14922,141.496,105.20392,153.62849,105.02558,153.75522Z" style="fill: #fff"/>
      <path d="M136.20876,77.72037c-.29091.34615-.60531.72-.91965,1.094l-.36132.35394L131.044,82.98l-.31844.31454c-.87649.80688-1.753,1.61377-2.64156,2.43187a13.99362,13.99362,0,0,1,.41328,2.72869l.00859.3189.00765.64827c-.01456.32045-.02262.6413-.04484.96121-.10276,1.47671-.12787,2.96536-.3481,4.42455a6.21823,6.21823,0,0,0-.14686,2.52242c.72567-2.47771,1.38038-4.71291,2.035-6.94818l.40716-.95953.35831-.54725.91086-.09511.63572.66391-.00812-.00651a12.52123,12.52123,0,0,1,.64673,1.64552c.04564.19251,1.30716,9.45228,1.30716,9.84978,5.211.24393,24.05625.14479,25.399-.1435C159.10983,100.3081,136.875,77.97,136.20876,77.72037Zm7.84086,21.3722c-.28695-1.89133-.47624-3.77152-.87905-5.6125-.39367-1.7993-1.00537-3.55873-1.52134-5.33562l.20284-.09343q5.78283,5.31594,11.55928,10.63753c.11552.1066.13639.299.21358.48A68.09568,68.09568,0,0,1,144.04962,99.09257Z" style="fill: #fff"/>
    </g>
  </g>
</svg>
