<svg xmlns="http://www.w3.org/2000/svg" viewBox="0 0 204.40449 204.40449">
  <g class="Layer_2" data-name="Layer 2">
    <g class="base1">
      <rect class="orange" x="55.21411" y="54.78736" width="93.97648" height="93.97648" transform="translate(101.90059 -42.45859) rotate(45)" style="fill: #cc3c1d;opacity: 0.8"/>
      <g class="orange-border" style="opacity: 0.2">
        <path d="M102.20234,36.7384l65.03724,65.0372-65.03724,65.03721L37.16514,101.7756l65.0372-65.0372m0-1.4142-66.4514,66.4514,66.4514,66.4514,66.45142-66.4514L102.20234,35.3242Z" style="fill: #fff"/>
      </g>
      <rect class="square" x="45.66131" y="45.66111" width="113.08208" height="113.08208" transform="translate(102.20221 -42.33365) rotate(45)" style="fill: none;stroke: #fff;stroke-miterlimit: 10;stroke-width: 0.75px;opacity: 0.15"/>
      <polygon class="polygon inner ani" points="129.91 34.893 74.494 34.893 35.309 74.078 35.309 129.494 74.494 168.679 129.91 168.679 169.096 129.494 169.096 74.078 129.91 34.893" style="fill: none;stroke: #fff;stroke-miterlimit: 10;stroke-width: 0.75px;opacity: 0.4"/>
      <polygon class="polygon inner" points="129.91 34.893 74.494 34.893 35.309 74.078 35.309 129.494 74.494 168.679 129.91 168.679 169.096 129.494 169.096 74.078 129.91 34.893" style="fill: none;stroke: #fff;stroke-miterlimit: 10;stroke-width: 0.75px;opacity: 0.4"/>
      <polygon class="polygon outer" points="135.7 21.241 68.704 21.241 21.331 68.614 21.331 135.61 68.704 182.984 135.7 182.984 183.074 135.61 183.074 68.614 135.7 21.241" style="fill: none;stroke: #fff;stroke-miterlimit: 10;stroke-width: 0.75px;opacity: 0.15"/>
    </g>
    <g class="momentumcontrol">
      <g>
        <path d="M91.7601,67.39672a.14166.14166,0,0,0-.20034.00037l-1.70729,1.71469a.1418.1418,0,0,0-.03107.15284l.31894,1.3681a.14043.14043,0,0,1-.03107.15284c-.62586.62112-4.85551,4.81383-6.06134,6.01833a.13624.13624,0,0,1-.15391.02646,38.25907,38.25907,0,0,1-12.46789-8.59106s-6.43181-6.472-7.17675-7.20543c-.04212-.04149,1.48871-1.50089,1.48871-1.50089l-3.91027-3.93011a10.71545,10.71545,0,0,0-2.01146.71491l-2.917.0899-.0899,2.917a10.71468,10.71468,0,0,0-.71491,2.01146l3.9301,3.91027s1.4594-1.53083,1.5009-1.4887c.73344.74493,7.20542,7.17675,7.20542,7.17675a38.25883,38.25883,0,0,1,8.591,12.46789.13624.13624,0,0,1-.02646.15391c-1.2045,1.20583-5.39721,5.43548-6.01833,6.06134a.14043.14043,0,0,1-.15284.03107l-1.36811-.31894a.14179.14179,0,0,0-.15284.03107l-1.71468,1.70729a.14166.14166,0,0,0-.00038.20034l3.76309,3.77736a.14159.14159,0,0,0,.20036.00015l1.71566-1.71566a.14167.14167,0,0,0,.0301-.15571L73.349,91.725a.141.141,0,0,1,.03167-.15729c.64323-.61765,4.83227-4.7153,5.368-5.2409a.13258.13258,0,0,1,.11965-.035l1.61354.27852a.127.127,0,0,1,.07272.03609c1.38763,1.39079,48.54129,48.66562,49.46265,49.62248.92974.96535,11.0262,8.9971,14.51351,10.15745a33.685,33.685,0,0,0,3.33621.98891,33.68654,33.68654,0,0,0-.98891-3.3362c-1.16036-3.48731-9.19209-13.58379-10.15745-14.51352-.95686-.92137-48.23165-48.07506-49.62243-49.46269a.1269.1269,0,0,1-.0361-.07272l-.27852-1.61354a.13261.13261,0,0,1,.035-.11965c.52559-.53569,4.62325-4.72474,5.2409-5.368a.141.141,0,0,1,.15729-.03168l1.44958.24859a.14166.14166,0,0,0,.15571-.03009l1.71566-1.71566a.1416.1416,0,0,0-.00015-.20037Z" style="fill: #fff"/>
        <g>
          <path d="M128.6351,114.09159a30.78781,30.78781,0,0,0,2.50036-7.20354l.01191-.05408q.1224-.57918.22185-1.16238l.02337-.1391q.09606-.57367.1711-1.14984c.00432-.03389.00784-.0678.01211-.10174a31.09208,31.09208,0,0,0,.22541-4.8766c-.00147-.0443-.00149-.08871-.00306-.13311-.01271-.34767-.03418-.69484-.05844-1.04211-.00733-.1038-.014-.20768-.02238-.31142q-.03966-.49347-.09575-.98564c-.013-.1156-.027-.23111-.04127-.34652-.04062-.32773-.085-.655-.13608-.98159-.01568-.0998-.03382-.19937-.05031-.29922-.05765-.34591-.11763-.69146-.18707-1.03567l0,0c-.091-.45141-.19038-.9012-.3018-1.34875l-.00008-.00008-.00861-.03215q-.13046-.52235-.28021-1.04044c-.05533-.19271-.11473-.38448-.17385-.57634q-.1068-.34587-.222-.68968c-.06008-.17933-.11849-.3593-.182-.53776q-.19207-.54054-.40481-1.07512c-.06553-.16471-.13536-.32793-.20364-.49191q-.15795-.37676-.3257-.75058c-.0697-.155-.13832-.31043-.21082-.46436q-.25705-.547-.5358-1.0861c-.06585-.12682-.13579-.252-.20354-.378q-.22355-.41629-.46041-.827c-.07383-.12785-.1471-.25593-.22305-.38282-.21924-.36742-.44531-.73164-.68124-1.09145-.0534-.08157-.11015-.16148-.16437-.24271q-.30585-.45634-.62946-.90422c-.07554-.10448-.151-.20894-.22811-.31262-.2689-.36229-.54417-.7213-.83119-1.07392-.03094-.03828-.06384-.07542-.09522-.11336q-.39889-.48573-.822-.95781-.12033-.13481-.24216-.26878c-.31639-.3465-.63864-.68959-.97372-1.02467l-.02082-.01966c-.408-.40727-.82612-.79833-1.251-1.1777-.13-.11647-.2641-.2259-.39565-.33969-.312-.26914-.62617-.53433-.94626-.78881-.14413-.11481-.29019-.22575-.43595-.33754q-.48988-.37587-.99085-.73037-.19521-.13791-.392-.27276-.58009-.39543-1.17365-.7619c-.0788-.04869-.15678-.09927-.236-.14719a30.76063,30.76063,0,0,0-6.3903-2.92182q-.76311-.24792-1.53556-.45541A31.10081,31.10081,0,0,0,96.636,69.88752l.08707.08668c.013.013.02154.02849.03406.04178l2.41869,2.41869a28.19917,28.19917,0,0,1,11.581,1.68721l.00219.00065.00007.00008a27.87672,27.87672,0,0,1,2.57349,1.10242l.02581.01269q.55645.27282,1.10286.57109c.02906.01594.058.03249.087.04845.34353.18955.68435.38528,1.02134.59029.05692.03454.113.07091.16963.10595.30937.19129.61682.38644.92007.59089.09227.06179.18238.12759.274.19064.26788.1853.53522.3716.798.5672.13509.10036.26676.20694.40037.31007.21876.169.43834.33608.653.51253.195.15991.385.32865.57651.4947.15178.13172.30619.25873.45566.3943q.51412.46551,1.0106.96044l.01831.01946c.373.37375.73068.75693,1.07816,1.14609.10692.11965.20786.24258.31232.36364.24679.28614.489.57465.72236.86823.10494.132.2068.26545.3088.3991q.3477.45363.67417.91806c.08159.11594.16338.23168.24292.34866q.37992.55819.72948,1.13043c.03333.05417.06857.10755.1014.162a28.14746,28.14746,0,0,1-.23307,29.34328q1.036,1.03249,2.02182,2.01487c.23969-.36694.48257-.733.70521-1.10775.40621-.68358.77709-1.382,1.12585-2.08873Z" style="fill: #fff"/>
          <path d="M115.74624,124.272a28.14628,28.14628,0,0,1-29.2892.1432c-.07289-.04395-.14433-.09069-.21686-.13543q-.53869-.33262-1.06514-.6912c-.11941-.08159-.23807-.16476-.35667-.24823q-.45486-.32116-.899-.66281c-.133-.1021-.26627-.20337-.39794-.308-.29025-.2312-.57526-.47145-.8582-.7158-.1203-.10371-.24244-.20385-.36132-.31-.38533-.34442-.76464-.699-1.13482-1.06844l-.02094-.01978q-.49311-.49311-.9553-1.00508c-.12875-.14225-.24975-.28873-.37507-.433-.17113-.197-.3444-.39263-.50908-.5932-.1655-.201-.32242-.40655-.48124-.6113-.1124-.14481-.22752-.2881-.33663-.43465-.18246-.24459-.35662-.49323-.53011-.74235-.07417-.107-.15038-.2129-.223-.32061-.191-.28248-.37377-.56866-.55324-.85656-.04595-.07373-.09293-.147-.13811-.22108q-.28946-.47412-.55721-.9574c-.02509-.04476-.05044-.08941-.07506-.13448q-.28506-.51834-.54642-1.04578l-.0299-.06078q-.27376-.55508-.52162-1.11938l-.00116-.00231.00005,0q-.30854-.70272-.5764-1.41843l-.00005-.00005-.00074-.00229a28.194,28.194,0,0,1-1.74054-11.53629L70.46379,96.229l-.02472-.02472-.00061.00557c-.07436.54463-.13186,1.09107-.1771,1.63818-.00736.088-.01242.1759-.019.26389q-.05232.70367-.07282,1.40866-.00467.16263-.00777.32527-.01279.69861.00635,1.39714c.00231.09493.00323.18962.00656.28441.0191.53428.05036,1.06837.097,1.60125l.00384.05323a31.06689,31.06689,0,0,0,.48985,3.37293c.01954.09711.04291.19341.06339.2903q.13935.65974.307,1.31421c.03714.14443.07708.28818.1164.43207q.16052.5883.34482,1.171c.04877.15489.09773.30959.14918.46368.13.38976.26987.77694.41588,1.16222.05241.13847.102.27758.15646.4154q.27387.693.5831,1.37458c.02434.05328.04534.10786.06994.161q.35391.76952.75305,1.52253c.05561.1054.11721.20829.1744.313.20846.38327.42326.764.6493,1.13978.09887.16447.2033.3264.30542.4895.19686.31378.39823.62552.60744.93352.11931.176.24167.35049.36511.52449q.31385.44177.64566.8745c.12993.16968.25911.33976.3929.50751.24075.30173.49142.59793.7451.89252.12335.143.2425.28842.36881.42978.37734.4221.76611.8375,1.17085,1.243l.02074.0219c.35438.35438.71648.69641,1.08357,1.02993.11594.10513.23489.20479.35194.308.254.22387.50925.44557.7686.65977.14319.11811.28889.23178.43373.3469.23933.19033.48.37814.72378.56017.15538.11639.31213.23031.46941.34321q.36138.2595.7286.5071c.15953.10781.31917.21536.48031.31977.25228.16352.50731.32092.76314.47642.1562.09483.31162.1916.46907.28344.285.16618.57347.32418.86273.48031.13065.07083.25981.14558.39157.21405q.62459.32589,1.26041.62212c.10957.05092.22112.09609.331.14578.31948.14389.63985.28521.96321.41755.17534.07192.35262.13767.5291.20609.2607.10133.52162.20171.78454.2956.19613.07.39337.1356.59052.20154.24592.08229.49239.16244.74.23832q.31064.09529.623.18381c.24054.068.48163.13239.72333.19464.21362.055.42719.11.64183.16022.24005.05637.48105.10711.72221.15764.2163.04535.43212.09291.64914.13357.24408.04573.48906.08386.73408.12359.28487.04638.56981.09167.8556.1301.3593.04826.71874.09358,1.07927.12918.25168.02477.50389.04042.756.05906.2059.01527.41159.033.61766.04421.25935.01392.5187.02089.77819.02839.19843.00586.397.01221.59545.01428.26461.00258.52922.00015.79373-.00393q.28678-.00438.57357-.01377.40658-.01368.813-.03756c.18012-.0109.35995-.02479.53978-.03868.28108-.02185.56207-.04457.84272-.07419.15686-.0164.31344-.03734.47015-.05622.30237-.03645.60485-.07241.90614-.11766.06742-.01015.13442-.02341.20178-.034a30.94577,30.94577,0,0,0,3.34607-.719c.11068-.03017.22182-.058.33231-.08948.30746-.08769.613-.18313.9183-.28069.132-.042.2643-.08341.39613-.12754.2983-.09957.59535-.205.89114-.314q.1992-.07344.39746-.14976c.29717-.1142.59333-.23212.88774-.356.12115-.051.24141-.10436.362-.157.30537-.133.61009-.26822.91194-.41171.08239-.03916.16365-.0814.2457-.12129a30.57019,30.57019,0,0,0,3.26621-1.83967l.00238-.00147Q116.78533,125.31455,115.74624,124.272Z" style="fill: #fff"/>
        </g>
        <g style="opacity: 0.6">
          <path d="M62.42563,67.02675a28.68627,28.68627,0,0,0-5.92614,15.23792l1.045,1.045A27.589,27.589,0,0,1,63.224,67.82207C62.95,67.54921,62.6823,67.28265,62.42563,67.02675Z" style="fill: #fff"/>
          <path d="M83.6851,92.119a28.68736,28.68736,0,0,0,7.99059,19.44573,27.85612,27.85612,0,0,1-16.93905-1.26562l.00005.00005q.26815.7156.57637,1.41841a28.99508,28.99508,0,0,0,16.82743.885,29.01133,29.01133,0,0,0,.1239,14.46712l1.27471.38366a27.88952,27.88952,0,0,1-.35325-14.41321,28.67942,28.67942,0,0,0,18.70446,7.36393l-1.16123-1.1647a27.54186,27.54186,0,0,1-16.88826-7.116,28.62837,28.62837,0,0,0,6.69568-3.107q-.40317-.40376-.80444-.80676a27.49542,27.49542,0,0,1-5.96058,2.76429,27.4669,27.4669,0,0,1,2.7731-5.96065l-.8048-.80711a28.63583,28.63583,0,0,0-3.12692,6.72285,27.56094,27.56094,0,0,1-7.7667-17.6458Q84.24531,92.68057,83.6851,92.119Z" style="fill: #fff"/>
          <path d="M132.8137,71.27961a28.80467,28.80467,0,0,0-27.78264-7.44673,28.83029,28.83029,0,0,0-37.51144-1.89766c.25561.25639.52176.5237.79418.79728a27.71828,27.71828,0,0,1,35.47354,1.4597,28.54775,28.54775,0,0,0-8.507,4.34468l.79455.79147a27.47839,27.47839,0,0,1,8.641-4.25359l.03.02848a27.63187,27.63187,0,0,1,4.29044,5.5427q.77093.20712,1.53242.45459l-.00019-.00019a28.67668,28.67668,0,0,0-4.61959-6.35307A27.66085,27.66085,0,0,1,139.3341,98.1996a28.59328,28.59328,0,0,0-8.4291-5.27937l.00008.00008c.11142.44755.21082.89734.3018,1.34875a27.50045,27.50045,0,0,1,7.79831,5.158,27.59521,27.59521,0,0,1-10.37009,14.66456c-.34878.70666-.71947,1.40493-1.1257,2.08849l.00014-.00025a28.67145,28.67145,0,0,0,12.39165-15.87417,27.71168,27.71168,0,0,1,3.21912,34.58374q.35064.47394.7.95622a28.82887,28.82887,0,0,0-3.39485-36.61026c-.05509-.05509-.113-.10564-.16855-.16A28.80507,28.80507,0,0,0,132.8137,71.27961Z" style="fill: #fff"/>
          <path d="M92.35006,82.93365c.36074.35959.73736.73505,1.13566,1.13258a27.55386,27.55386,0,0,1,18.4,7.807l-.03493.12947a28.603,28.603,0,0,0-7.1473,3.25085q.402.40143.80845.80651a27.57435,27.57435,0,0,1,5.94989-2.75838,27.57588,27.57588,0,0,1-2.75942,5.93959l.80789.80557a28.60628,28.60628,0,0,0,3.25007-7.13263l.11635-.03146a27.53829,27.53829,0,0,1,7.32773,17.827l1.13566,1.13219a28.68517,28.68517,0,0,0-7.23193-19.2582,27.87469,27.87469,0,0,1,13.95491.52357l-.3715-1.26294a29.00264,29.00264,0,0,0-14.46693-.2113c-.03078-.03155-.06083-.06353-.09163-.0951a28.9831,28.9831,0,0,0-.95738-16.84306c-.46805-.20332-.93994-.39581-1.4166-.57224l-.00007-.00008a27.83985,27.83985,0,0,1,1.43211,16.49312A28.68261,28.68261,0,0,0,92.35006,82.93365Z" style="fill: #fff"/>
        </g>
        <path d="M121.63478,142.8a.81644.81644,0,0,1-.08649-.58122,2.073,2.073,0,0,0-.14766-2.20027,22.70134,22.70134,0,0,0-2.07707-1.79884,1.08676,1.08676,0,0,0-.88384-.37946,10.77833,10.77833,0,0,0,.6044,3.14016c.27978.83046.53812,1.25319,1.407,1.49843a3.9276,3.9276,0,0,1,.55668.28039c-1.25924-.07878-2.48335-.13553-3.61542-.17279-.09739-.3081-.27539-.53356-.18055-.82694a2.51373,2.51373,0,0,0-.29869-2.65771,27.51546,27.51546,0,0,0-2.61442-2.06644,1.31811,1.31811,0,0,0-1.09136-.41178,13.07843,13.07843,0,0,0,.903,3.77181c.38424.99088.72007,1.48917,1.7863,1.73883a3.82327,3.82327,0,0,1,.80244.38527.65173.65173,0,0,1,.046.04757c-1.46293-.03973-2.7406-.04547-3.68433-.02173-.22618.00574-.46253.01136-.70444.01719-.1273-.443-.46933-.67347-.39958-1.071a2.73589,2.73589,0,0,0-.722-2.81935,29.98876,29.98876,0,0,0-3.12866-1.83318,1.4345,1.4345,0,0,0-1.23824-.27928,14.23844,14.23844,0,0,0,1.54117,3.92876,2.44421,2.44421,0,0,0,2.187,1.6047,4.15223,4.15223,0,0,1,.92269.29444.40708.40708,0,0,1,.16386.19088c-1.31593.03087-2.79244.06556-4.25194.11261-.16343-.40616-.49505-.61467-.4532-1.00349a2.73623,2.73623,0,0,0-.9089-2.7647,29.99525,29.99525,0,0,0-3.24421-1.61995,1.43506,1.43506,0,0,0-1.25428-.19575,14.23089,14.23089,0,0,0,1.80048,3.81682,2.44367,2.44367,0,0,0,2.28934,1.455,4.16019,4.16019,0,0,1,.94028.23215.39808.39808,0,0,1,.12913.10366c-1.736.06157-3.40339.143-4.6911.26a6.58034,6.58034,0,0,1-.22923-1.551,2.42123,2.42123,0,0,0-1.20527-2.46833,29.99518,29.99518,0,0,0-3.24421-1.61994,1.435,1.435,0,0,0-1.25425-.19573,14.23024,14.23024,0,0,0,1.80047,3.81682,3.17522,3.17522,0,0,0,2.58569,1.75137c.1143.00277.23159.15132.34753.23214l-.05255.21449c-1.20351-.008-2.40758-.01575-3.54505-.02329a2.01355,2.01355,0,0,1-.35932-1.94346,2.14114,2.14114,0,0,0-.51451-1.93115,12.85851,12.85851,0,0,0-4.70186-3.10577,13.73042,13.73042,0,0,0,1.57485,4.69294,2.99148,2.99148,0,0,0,1.9331,1.61165,2.41926,2.41926,0,0,1,.62681.34856,10.43174,10.43174,0,0,1-4.12793-.51549c.11591-.68676.175-1.26513.31581-1.81746a2.23762,2.23762,0,0,0-.2333-1.85718,12.378,12.378,0,0,0-4.39155-3.80188,16.62473,16.62473,0,0,0,1.01133,4.83176,3.12048,3.12048,0,0,0,1.72057,1.86567c.23357.09156.415.34982.62041.53165a15.263,15.263,0,0,1-3.15965-.73039c-.73-.24181-.89548-.60143-.71158-1.36954a3.6146,3.6146,0,0,1,.29112-.75584,2.42081,2.42081,0,0,0-.201-2.49291,13.156,13.156,0,0,0-3.57807-3.70657,12.68718,12.68718,0,0,0,.44136,5.15979,2.78175,2.78175,0,0,0,1.21337,1.63169,4.01167,4.01167,0,0,1,.61506.57685l-.1464.25339c-1.15135-.52077-2.30312-1.0416-3.606-1.63094a10.52975,10.52975,0,0,1,.6378-1.60815,2.26788,2.26788,0,0,0,.19481-2.09939,11.82715,11.82715,0,0,0-3.1479-4.33725c-.05244,1.62894-.15929,2.95109-.11621,4.27459a2.96677,2.96677,0,0,0,1.2216,2.53058c.1541.10432.19778.39806.41617.8754-1.2448-.77516-2.23-1.38838-3.36454-2.09454a8.58557,8.58557,0,0,1,.78249-1.48044,2.43075,2.43075,0,0,0,.43-2.31951,12.20629,12.20629,0,0,0-2.461-4.29054,12.399,12.399,0,0,0-.75186,4.59868,2.64506,2.64506,0,0,0,.8211,1.9954,3.29606,3.29606,0,0,1,.46012.72292l-.18289.18217c-.946-.74414-1.89249-1.48806-2.97944-2.34231a7.99382,7.99382,0,0,1,.93562-1.39484,2.27182,2.27182,0,0,0,.69991-2.22408,11.56818,11.56818,0,0,0-1.96627-4.53368,11.13675,11.13675,0,0,0-1.26617,4.66361,2.33148,2.33148,0,0,0,.58484,1.80352,4.02407,4.02407,0,0,1,.44972,1.01005,4.86912,4.86912,0,0,1-.53479-.3403c-.466-.43976-.93417-.87783-1.38452-1.33512-1.047-1.06208-1.06244-1.39972.03839-2.25117a2.09927,2.09927,0,0,0,.88133-1.859,9.32347,9.32347,0,0,0-1.38256-4.57591,9.64375,9.64375,0,0,0-1.7,4.30117,2.085,2.085,0,0,0,.41631,1.70446c.13126.15364.11423.44726.16534.67666a8.06657,8.06657,0,0,1-1.6412-1.68133c-.71782-.93509-.66889-1.38551.30817-1.95593a2.00919,2.00919,0,0,0,1.11714-1.39624,9.79109,9.79109,0,0,0-.76992-5.20973c-.57845.79614-1.0164,1.39858-1.45437,2.001-.17593.4585-.37908.90714-.52249,1.37808a2.74369,2.74369,0,0,0,.08442,2.63253c.103.1451.03861.41873-.12914.70442-.58992-.90251-1.18018-1.805-1.73207-2.6486a1.3953,1.3953,0,0,1,.91114-1.28233c.44675-.24516.8567-.55917,1.28315-.84317A10.33256,10.33256,0,0,0,67.015,115.406a10.42451,10.42451,0,0,0-2.38283,3.18266,2.73279,2.73279,0,0,0-.18164,2.3823c.07347.17187-.07935.44238-.17435.68775l-.001-.0014-.03483-.05027c-.02673-.03946-.05292-.07916-.07921-.119q-.14949-.23169-.27826-.47662a.30135.30135,0,0,0-.06806-.08272c-.23309-.465-.46371-.931-.668-1.40855-.40922-.95875-.2223-1.31325.67668-1.66536a2.77237,2.77237,0,0,0,1.17681-.69675c.75709-.94937.89028-3.69386.26447-5.105-.78693.90487-1.56959,1.731-2.267,2.63207a2.37578,2.37578,0,0,0-.497,2.1796c.11623.40219.04845.74154-.29466.83141l-.008-.02224q-.08292-.23169-.166-.46316a.20975.20975,0,0,0-.0515-.077.07664.07664,0,0,0-.0033-.02569c-.16457-.48409-.33723-.96548-.50356-1.449-.46448-1.34936-.32092-1.5755.92962-1.93108a2.21688,2.21688,0,0,0,1.265-.79036,8.2636,8.2636,0,0,0,.82931-4.84037c-1.66925,1.44807-3.65387,2.18715-3.46548,4.787.01671.227-.06363.50982-.29321.54959-.00454-.02923-.01062-.05807-.0145-.08743l-.00456-.03234c-.0026-.03232-.00571-.06437-.00825-.09662a.46035.46035,0,0,0-.06092-.20641.3558.3558,0,0,0-.0924-.09935,3.36215,3.36215,0,0,0-.34459-1.4089c-.41757-1.45719-.201-1.90979,1.16562-2.00843a1.64458,1.64458,0,0,0,1.33595-.68233,8.47927,8.47927,0,0,0,1.285-4.546,8.92518,8.92518,0,0,0-3.17058,2.09429,2.34085,2.34085,0,0,0-.75933,1.81077,3.05749,3.05749,0,0,1-.32462,1.0083c-.171-.859-.3299-1.72031-.46957-2.58432a.16716.16716,0,0,0-.05712-.10111c.26218-1.05105.32879-1.14767,1.211-1.0909a1.87736,1.87736,0,0,0,1.95409-1.2489c.42557-.92315.73034-1.91231,1.08776-2.87275q-.143-.15105-.28682-.30149c-.83553.438-1.66756.884-2.508,1.31209-.96169.48969-1.03793,1.5974-1.51226,2.66206a21.14274,21.14274,0,0,1-.235-2.83021c.463-.653.53985-.68307,1.259-.57442a1.65471,1.65471,0,0,0,1.565-.43163,8.00235,8.00235,0,0,0,1.82974-3.75737c-1.95761.77574-3.95606.97038-4.42235,3.46936-.09836-.04008-.1835-.07544-.25959-.10716-.00574-.77175.08186-1.53854.05689-2.31177a.15943.15943,0,0,0-.00494-.03582c.27416-.51423.59089-.774,1.103-.57649,1.20245.46422,1.92293-.20764,2.51423-1.0928.45729-.68382.81912-1.44033,1.353-2.39679-2.172.2866-3.99185.57415-4.77243,3.14011l-.00172-.00325c.13712-.967.18323-1.95313.2499-2.93033a.99315.99315,0,0,1,1.21171-.19182,1.34994,1.34994,0,0,0,1.48623-.14,6.55885,6.55885,0,0,0,2.03882-2.79615c-.30112.00605-.47027-.00642-.63411.015-1.422.18569-2.908.231-3.634,1.86514-.02624.059-.15731.06305-.31608.05671a4.75178,4.75178,0,0,1,.17054-.99411,1.8932,1.8932,0,0,1,.41632-.29838,2.65966,2.65966,0,0,0,1.48433-2.50513,5.53557,5.53557,0,0,0-.51885-3.20087c-.60008.88912-1.143,1.63545-1.62643,2.424a2.5808,2.5808,0,0,0-.14026,2.96047,1.66066,1.66066,0,0,1,.17578.58329,4.95051,4.95051,0,0,0-.15648,1.02168c-.07429-.00328-.14889-.00533-.21671-.00253.03787-2.29646-1.65735-2.95708-3.0549-3.99728a6.14021,6.14021,0,0,0,.74911,3.54961,1.627,1.627,0,0,0,1.3146.833,1.16061,1.16061,0,0,1,1.05771.81652c-.0588.884-.10528,1.77407-.22093,2.65019-.25052-.41106-.44374-.651-.45-.88526a2.0606,2.0606,0,0,0-.73331-1.43681,9.13521,9.13521,0,0,0-3.09484-1.91051c.36923,1.15532.60215,2.079.95978,2.95066A2.09988,2.09988,0,0,0,57.784,97.4652c.49278-.02627.88864.2164.98731.89816.02159.76214-.06288,1.51817-.05733,2.27893-.37271-.16471-.387-.21989-.46236-.44847a3.23021,3.23021,0,0,0-.373-1.00356,7.6065,7.6065,0,0,0-3.71834-2.19789,8.54225,8.54225,0,0,0,1.38105,3.39508,1.82848,1.82848,0,0,0,1.90983.99794,1.08657,1.08657,0,0,1,1.29876.93485,21.59,21.59,0,0,0,.22286,2.54291c-.23111-.29016-.40636-.49975-.55816-.72449a5.32084,5.32084,0,0,0-.7304-1.1271,7.21908,7.21908,0,0,0-3.73266-1.518,12.65612,12.65612,0,0,0,1.92941,3.37462,1.6449,1.6449,0,0,0,1.6507.65623,1.17688,1.17688,0,0,1,1.58483.95928.11083.11083,0,0,0-.02043.1019c.14332.88425.30588,1.76575.48154,2.64491a3.51623,3.51623,0,0,1-.68684-.85548,2.58907,2.58907,0,0,0-1.26749-1.38944,9.85828,9.85828,0,0,0-4.0453-1.07771c.71452,1.09541,1.23269,2.01724,1.87141,2.83694.7658.98384,1.64537,1.69824,2.97746,1.18031.69968-.272,1.07992-.0226,1.33406.74479a24.19461,24.19461,0,0,1,.58,2.35244.2132.2132,0,0,0-.00454.03946c.00642.09015.023.17814.03635.26673a4.091,4.091,0,0,1-.52832-.40175c-.34821-.34705-.61742-.842-1.0178-1.05986a8.02337,8.02337,0,0,0-4.27828-.77351,10.13263,10.13263,0,0,0,2.20712,2.83151,2.2827,2.2827,0,0,0,2.76328.63657c.82966-.40291,1.25908-.12631,1.65236.81495.26041.62239.46258,1.2695.75707,2.09114l.00451-.02907.09865.27462a1.67247,1.67247,0,0,1-.66045-.35211c-.42421-.31538-.77325-.81763-1.2312-.99619a8.11986,8.11986,0,0,0-4.26319-.24015A11.4778,11.4778,0,0,0,58.81086,118.96a2.05094,2.05094,0,0,0,2.23387.13417c1.09056-.57924,1.47631-.36791,2.0317.87323a10.32955,10.32955,0,0,0,.49656,1.12905.55678.55678,0,0,0,.05625.1724,6.10688,6.10688,0,0,0,.4222.68539c-.21717.12513-.43566-.05632-.65018-.25655a5.21017,5.21017,0,0,0-6.01175-.54159c.9039.70208,1.73209,1.42067,2.62821,2.02041,1.10479.739,2.2104,1.12409,3.379.1116.65985-.572,1.09556-.38322,1.62989.40156.48414.70989.93113,1.4467,1.395,2.17142l-.13061.27807a3.21235,3.21235,0,0,0-3.0638-1.274,7.76513,7.76513,0,0,0-3.44782.99854c.95849.61851,1.73,1.1751,2.54937,1.63092,1.33115.74188,2.65093,1.1355,3.81957-.2243a.77221.77221,0,0,1,1.27188.005c.6405.74971,1.23749,1.54042,1.85349,2.31348-2.4315-1.59023-4.37522-.32864-6.39286.69771a15.54648,15.54648,0,0,0,2.7361,1.46841c1.31033.53158,2.567.7228,3.51757-.67719a.84015.84015,0,0,1,1.3797-.14731c.733.71023,1.4357,1.45577,2.15073,2.18662a2.135,2.135,0,0,1-.896-.20562,3.761,3.761,0,0,0-1.39941-.26832,9.16728,9.16728,0,0,0-4.47492,2.1132c1.12572.40563,2.02285.79105,2.94668,1.04727,1.51573.42054,2.97523.58032,3.87458-1.15759a.82215.82215,0,0,1,1.22729-.407c.87547.6173,1.69267,1.3303,2.62723,2.0777a8.84712,8.84712,0,0,0-2.45939-.22578,8.6256,8.6256,0,0,0-4.03878,2.57906,11.31318,11.31318,0,0,0,4.53016.80774,2.09012,2.09012,0,0,0,1.94261-1.32637,6.13392,6.13392,0,0,1,.79134-1.09611,7.95981,7.95981,0,0,1,3.13968,1.98853c-2.37084-.82568-4.3777,1.1218-5.7649,3.1124a10.48839,10.48839,0,0,0,4.4359.18056,2.04112,2.04112,0,0,0,1.75851-1.57338,1.40244,1.40244,0,0,1,.9984-1.20317c.52726.24208,1.1.49181,1.66322.76677a7.33724,7.33724,0,0,1,1.82652.94435c-2.237.041-2.44455.09237-3.606,1.19921a10.273,10.273,0,0,0-2.40651,3.23037c1.62638-.16845,3.02147-.22821,4.3771-.47948a2.40739,2.40739,0,0,0,2.16626-2.184,5.86469,5.86469,0,0,1,.61375-1.44889c1.39931.42644,2.6398.80482,3.88021,1.18313a1.56232,1.56232,0,0,1-.7475.27244,4.97624,4.97624,0,0,0-1.65993.62847,10.6351,10.6351,0,0,0-2.82454,4.14254,9.36776,9.36776,0,0,0,4.70854-1.0252,2.29128,2.29128,0,0,0,1.33469-2.145,1.732,1.732,0,0,1,.65823-1.56148c.6534.11044,1.30691.19937,1.95305.33612.58262.12339,1.21818.01532,1.78034.48795-1.67255-.03208-2.54078,1.05583-3.20584,2.37084-.50061.98936-.90291,2.03728-1.3824,3.13575a8.38262,8.38262,0,0,0,4.70143-1.74508,2.29148,2.29148,0,0,0,.93463-2.24173,1.5198,1.5198,0,0,1,.50288-1.62807c.6263.01232,1.28067.00024,1.93439.04655a4.39838,4.39838,0,0,1,1.84987.13878,8.53384,8.53384,0,0,0-1.749.938c-1.04435.93572-1.953,3.69432-1.86082,5.371a11.12811,11.12811,0,0,0,3.94194-2.27533,2.412,2.412,0,0,0,.82912-2.678,1.50592,1.50592,0,0,1,.28605-1.589,45.89694,45.89694,0,0,1,4.59668-.20626c-.02446.19512-.17178.31446-.5791.40688a8.53234,8.53234,0,0,0-1.749.938c-1.04435.93572-1.953,3.6943-1.86082,5.371a11.1283,11.1283,0,0,0,3.942-2.27533,2.412,2.412,0,0,0,.82911-2.678,2.65508,2.65508,0,0,1-.05926-1.76573c1.47009-.00829,2.97446-.00431,4.37753-.036-.04146.1623-.19312.27228-.55555.36521a8.53156,8.53156,0,0,0-1.722.987c-1.01744.96457-1.84819,3.74779-1.70878,5.42116a11.12747,11.12747,0,0,0,3.87627-2.38538,2.41223,2.41223,0,0,0,.75352-2.70031,2.77059,2.77059,0,0,1-.13137-1.69775c1.213-.02537,2.84928-.01218,4.41414.02257-.061.11192-.19606.19833-.471.27457a7.8432,7.8432,0,0,0-1.56467.93753,7.73018,7.73018,0,0,0-1.47361,5.01148,10.22571,10.22571,0,0,0,3.51909-2.26057,2.2164,2.2164,0,0,0,.64414-2.49441,2.74094,2.74094,0,0,1-.18289-1.45753c1.65538.04192,3.15234.10642,3.87654.17265-.01751.143-.12535.23586-.42527.31374a6.46443,6.46443,0,0,0-1.30271.75145,6.37453,6.37453,0,0,0-1.28344,4.11147,8.43177,8.43177,0,0,0,2.93216-1.8156,1.82781,1.82781,0,0,0,.56523-2.04772,2.11889,2.11889,0,0,1-.10668-1.27557,58.22311,58.22311,0,0,1,9.22527,1.55815c1.069.37322,2.3999.64984,2.88257-.52186C131.33806,143.73866,126.32383,143.11793,121.63478,142.8Z" style="fill: #fff"/>
      </g>
    </g>
  </g>
</svg>
