<svg xmlns="http://www.w3.org/2000/svg" viewBox="0 0 204.40449 204.40449">
  <g id="Layer_2" data-name="Layer 2">
    <g id="base0">
      <circle id="circle_circle4" data-name="circle circle4" cx="102.25304" cy="102.11232" r="73.26325" style="fill: none;stroke: #fff;stroke-miterlimit: 10;stroke-width: 0.75px;opacity: 0.02"/>
      <circle id="circle_circle3" data-name="circle circle3" cx="102.25304" cy="102.11232" r="69.77452" style="fill: none;stroke: #fff;stroke-miterlimit: 10;stroke-width: 0.75px;opacity: 0.05"/>
      <circle id="circle_circle2" data-name="circle circle2" cx="102.25304" cy="102.11232" r="67.12316" style="fill: none;stroke: #fff;stroke-miterlimit: 10;stroke-width: 0.75px;opacity: 0.1"/>
      <circle id="circle_circle1" data-name="circle circle1" cx="102.25304" cy="102.11232" r="65.10946" style="fill: none;stroke: #fff;stroke-miterlimit: 10;stroke-width: 0.75px;opacity: 0.15"/>
    </g>
    <g id="rumble">
      <ellipse id="orange" cx="102.19698" cy="102.80163" rx="54.63372" ry="55.24839" style="fill: #cc3c1d;opacity: 0.8"/>
      <g>
        <rect x="116.79428" y="119.90172" width="3.97322" height="3.97322" transform="translate(120.97818 -48.2905) rotate(45)" style="fill: #fff"/>
        <rect x="116.21048" y="103.6976" width="3.97322" height="3.97322" transform="translate(109.34914 -52.62378) rotate(45)" style="fill: #fff"/>
        <rect x="82.97197" y="119.90172" width="3.97322" height="3.97322" transform="translate(111.07185 -24.37452) rotate(45)" style="fill: #fff"/>
        <rect x="82.97197" y="103.6976" width="3.97322" height="3.97322" transform="translate(99.61381 -29.1206) rotate(45)" style="fill: #fff"/>
        <rect x="116.21048" y="88.84925" width="3.97322" height="3.97322" transform="translate(98.84977 -56.97276) rotate(45)" style="fill: #fff"/>
        <rect x="82.97197" y="88.84925" width="3.97322" height="3.97322" transform="translate(89.11444 -33.46958) rotate(45)" style="fill: #fff"/>
      </g>
      <path d="M163.27343,102.62683l-6.18542-3.033A55.29241,55.29241,0,0,0,141.29555,63.776l3.09523-8.026-8.227,3.394A55.23139,55.23139,0,0,0,102.36121,47.142,55.23139,55.23139,0,0,0,68.55863,59.14405l-8.227-3.394,3.09523,8.026A55.29186,55.29186,0,0,0,47.63446,99.59381l-6.18547,3.033,6.15806,2.28663a55.28871,55.28871,0,0,0,15.78977,36.51337l-2.50628,7.66276,7.17207-3.40493A55.25484,55.25484,0,0,0,91.072,156.79032V153.0912a51.74429,51.74429,0,0,1-21.41123-10.80036L66.1843,144.0834l-1.80171.929,1.97893-5.73883A51.71389,51.71389,0,0,1,51.1867,103.74969l-4.38042-1.46486.76074-.3581,3.652-1.719A51.729,51.729,0,0,1,66.71517,65.62566L65.198,62.04626l-1.063-2.50784,2.59383,1.11879,3.74287,1.61447a51.61,51.61,0,0,1,31.88947-11.52107,51.61,51.61,0,0,1,31.88947,11.52107l3.74287-1.61447,2.59383-1.11879-1.063,2.50784-1.51717,3.5794a51.729,51.729,0,0,1,15.49617,34.58206l3.652,1.719.76074.3581-4.38042,1.46486a51.71411,51.71411,0,0,1-15.17482,35.52388l1.97893,5.73883-1.80172-.929-3.47648-1.79256a51.7316,51.7316,0,0,1-21.93421,10.91249V156.899a55.24776,55.24776,0,0,0,23.53238-11.21436l7.17208,3.40493-2.50628-7.66276a55.28894,55.28894,0,0,0,15.78981-36.51337Z" style="fill: #fff"/>
      <path d="M120.36819,67.50673a.15523.15523,0,0,0-.15554-.15494l-2.65172.00572a.15542.15542,0,0,0-.14252.09436l-.813,1.30731a.15389.15389,0,0,1-.14252.09436c-.96629-.00367-7.49288-.0323-9.36066-.03333a.14932.14932,0,0,1-.13978-.09876,41.92761,41.92761,0,0,1-3.0042-16.31882s.03113-11.83659.02222-12.98221c-.00049-.06479,2.31668-.00944,2.31668-.00944l.01536-6.0756a11.74224,11.74224,0,0,0-2.11269-1.00471l-2.33008-2.19075-2.33009,2.19075A11.74239,11.74239,0,0,0,97.427,33.33538l.01536,6.0756s2.31717-.05535,2.31668.00944c-.00891,1.14562.02222,12.98221.02222,12.98221A41.92761,41.92761,0,0,1,96.777,68.72145a.14933.14933,0,0,1-.13978.09876c-1.86779.001-8.39437.02966-9.36066.03333a.15389.15389,0,0,1-.14252-.09436l-.813-1.30731a.15542.15542,0,0,0-.14252-.09436l-2.65172-.00572a.15523.15523,0,0,0-.15554.15494l-.01106,5.84318a.15518.15518,0,0,0,.15515.15538h2.659a.15525.15525,0,0,0,.144-.09734L87.249,72.092a.15455.15455,0,0,1,.14643-.09734c.97706.01982,7.39853.09064,8.22093.09847a.14529.14529,0,0,1,.11981.06563L96.77066,73.625a.139.139,0,0,1,.02838.08432c-.00245,2.153-.09631,82.98215-.12382,84.43761-.0276,1.46852,1.57238,15.51628,3.37556,19.1178a36.91721,36.91721,0,0,0,1.819,3.35159,36.91426,36.91426,0,0,0,1.81894-3.35159c1.80319-3.60152,3.40317-17.64928,3.37557-19.1178-.02751-1.45546-.12138-82.28459-.12382-84.43761a.139.139,0,0,1,.02838-.08432l1.03452-1.46618a.14529.14529,0,0,1,.11981-.06563c.8224-.00783,7.24386-.07865,8.22092-.09847a.15455.15455,0,0,1,.14644.09734l.93066,1.31593a.15523.15523,0,0,0,.144.09734h2.659a.15518.15518,0,0,0,.15515-.15538Z" style="fill: #fff"/>
    </g>
  </g>
</svg>
