<svg xmlns="http://www.w3.org/2000/svg" viewBox="0 0 204.40449 204.40449">
  <rect class="orange" x="55.21411" y="54.78736" width="93.97648" height="93.97648" transform="translate(101.90059 -42.45859) rotate(45)" style="fill: #cc3c1d;opacity: 0.8"/>
  <g class="orange-border" style="opacity: 0.2">
    <path d="M102.20234,36.7384l65.03724,65.0372-65.03724,65.03721L37.16514,101.7756l65.0372-65.0372m0-1.4142-66.4514,66.4514,66.4514,66.4514,66.45142-66.4514L102.20234,35.3242Z" style="fill: #fff"/>
  </g>
  <rect class="square" x="45.66131" y="45.66111" width="113.08208" height="113.08208" transform="translate(102.20221 -42.33365) rotate(45)" style="fill: none;stroke: #fff;stroke-miterlimit: 10;stroke-width: 0.75px;opacity: 0.15"/>
  <polygon class="polygon inner ani" points="129.91 34.893 74.494 34.893 35.309 74.078 35.309 129.494 74.494 168.679 129.91 168.679 169.096 129.494 169.096 74.078 129.91 34.893" style="fill: none;stroke: #fff;stroke-miterlimit: 10;stroke-width: 0.75px;opacity: 0.4"/>
  <polygon class="polygon inner" points="129.91 34.893 74.494 34.893 35.309 74.078 35.309 129.494 74.494 168.679 129.91 168.679 169.096 129.494 169.096 74.078 129.91 34.893" style="fill: none;stroke: #fff;stroke-miterlimit: 10;stroke-width: 0.75px;opacity: 0.4"/>
  <polygon class="polygon outer" points="135.7 21.241 68.704 21.241 21.331 68.614 21.331 135.61 68.704 182.984 135.7 182.984 183.074 135.61 183.074 68.614 135.7 21.241" style="fill: none;stroke: #fff;stroke-miterlimit: 10;stroke-width: 0.75px;opacity: 0.15"/>
  <g class="showdown">
    <g>
      <path d="M111.05429,127.1688a.1003.1003,0,0,0,.14186-.00027l1.209-1.21425a.10043.10043,0,0,0,.022-.10823l-.22586-.96883a.09944.09944,0,0,1,.022-.10823c.4432-.43985,3.43844-3.40892,4.29234-4.26188a.09648.09648,0,0,1,.109-.01874,27.09289,27.09289,0,0,1,8.82914,6.08376s5.3942,5.42264,5.92172,5.942c.02984.02939-1.05422,1.06286-1.05422,1.06286l2.76906,2.78311a7.58778,7.58778,0,0,0,1.42441-.50627l2.06568-.06366.06366-2.06568a7.58778,7.58778,0,0,0,.50627-1.42441l-2.78311-2.76906s-1.03348,1.08406-1.06286,1.05423c-.51939-.52753-5.942-5.92173-5.942-5.92173a27.09289,27.09289,0,0,1-6.08376-8.82914.09648.09648,0,0,1,.01874-.109c.853-.8539,3.822-3.84914,4.26188-4.29234a.09944.09944,0,0,1,.10823-.022l.96883.22586a.10043.10043,0,0,0,.10823-.022l1.21425-1.209a.1003.1003,0,0,0,.00027-.14186l-2.66483-2.67494a.10027.10027,0,0,0-.14189-.00011l-1.21494,1.21494a.10033.10033,0,0,0-.02132.11027l.176,1.02652a.09987.09987,0,0,1-.02243.11139c-.4555.43738-3.422,3.33914-3.80133,3.71134a.09387.09387,0,0,1-.08473.02476L119.041,113.591a.08986.08986,0,0,1-.0515-.02556c-.98265-.98488-37.8725-37.96052-38.525-38.63812-.65839-.68361-7.80821-6.3713-10.27775-7.193a23.856,23.856,0,0,0-2.36254-.7003,23.856,23.856,0,0,0,.7003,2.36254c.8217,2.46954,6.50939,9.61936,7.193,10.27775.6776.65247,37.65324,37.54232,38.63812,38.525a.08986.08986,0,0,1,.02556.0515l.19724,1.14262a.09387.09387,0,0,1-.02476.08473c-.3722.37936-3.274,3.34583-3.71134,3.80133a.09987.09987,0,0,1-.11139.02243l-1.02652-.176a.10031.10031,0,0,0-.11027.02131l-1.21494,1.21494a.10027.10027,0,0,0,.00011.14189Z" style="fill: #fff"/>
      <path d="M76.44564,110.26405a.10031.10031,0,0,0,.00027.14187l1.21425,1.209a.1004.1004,0,0,0,.10823.022l.96883-.22586a.09944.09944,0,0,1,.10823.022c.43985.4432,3.40892,3.43843,4.26188,4.29234a.09646.09646,0,0,1,.01874.109,27.09289,27.09289,0,0,1-6.08376,8.82914s-5.42264,5.3942-5.942,5.92173c-.02939.02983-1.06286-1.05423-1.06286-1.05423l-2.78311,2.76906a7.58779,7.58779,0,0,0,.50627,1.42442l.06366,2.06567,2.06568.06367a7.58825,7.58825,0,0,0,1.42441.50626l2.76906-2.78311s-1.08406-1.03347-1.05423-1.06285c.52753-.51939,5.92173-5.942,5.92173-5.942A27.0933,27.0933,0,0,1,87.78,120.48838a.09649.09649,0,0,1,.109.01874c.8539.853,3.84914,3.822,4.29234,4.26188a.09946.09946,0,0,1,.022.10824l-.22586.96882a.10045.10045,0,0,0,.022.10824l1.209,1.21425a.1003.1003,0,0,0,.14186.00027l2.67494-2.66483a.10027.10027,0,0,0,.00011-.14189l-1.21494-1.215a.10031.10031,0,0,0-.11027-.02131l-1.02652.176a.09987.09987,0,0,1-.11139-.02243c-.43738-.4555-3.33914-3.422-3.71134-3.80133a.09388.09388,0,0,1-.02476-.08473l.19724-1.14263a.08986.08986,0,0,1,.02556-.0515c.98488-.98265,37.96052-37.8725,38.63812-38.525.68361-.6584,6.3713-7.80822,7.193-10.27776a23.85656,23.85656,0,0,0,.7003-2.36253,23.85365,23.85365,0,0,0-2.36254.70029c-2.46954.82171-9.61936,6.50939-10.27775,7.193-.65247.6776-37.54232,37.65323-38.525,38.63812a.08992.08992,0,0,1-.0515.02556l-1.14262.19723a.09389.09389,0,0,1-.08473-.02475c-.37936-.3722-3.34583-3.274-3.80133-3.71135a.09986.09986,0,0,1-.02243-.11138l.176-1.02652a.1003.1003,0,0,0-.02131-.11027l-1.21494-1.215a.10028.10028,0,0,0-.14189.00011Z" style="fill: #fff"/>
      <g>
        <rect x="97.67607" y="62.80296" width="2.26274" height="2.26274" transform="translate(-16.26837 88.59335) rotate(-45)" style="fill: #fff"/>
        <rect x="103.89382" y="62.80296" width="2.26274" height="2.26274" transform="translate(-14.44723 92.98996) rotate(-45)" style="fill: #fff"/>
        <rect x="97.67607" y="69.02072" width="2.26274" height="2.26274" transform="translate(-20.66499 90.41448) rotate(-45)" style="fill: #fff"/>
        <rect x="103.89382" y="69.02072" width="2.26274" height="2.26274" transform="translate(-18.84385 94.8111) rotate(-45)" style="fill: #fff"/>
      </g>
      <g>
        <rect x="97.67607" y="139.02523" width="2.26274" height="2.26274" transform="translate(-70.16565 110.91833) rotate(-45)" style="fill: #fff"/>
        <rect x="103.89382" y="139.02523" width="2.26274" height="2.26274" transform="translate(-68.34451 115.31494) rotate(-45)" style="fill: #fff"/>
        <rect x="97.67607" y="145.24298" width="2.26274" height="2.26274" transform="translate(-74.56227 112.73947) rotate(-45)" style="fill: #fff"/>
        <rect x="103.89382" y="145.24298" width="2.26274" height="2.26274" transform="translate(-72.74113 117.13608) rotate(-45)" style="fill: #fff"/>
      </g>
    </g>
  </g>
</svg>
