<svg xmlns="http://www.w3.org/2000/svg" viewBox="0 0 500 500" class="defeat">
  <g class="Layer_2" data-name="Layer 2">
    <g class="Layer_1-2" data-name="Layer 1">
      <g>
        <g style="opacity: 0.04">
          <path d="M345.3313,154.663v63.04944H282.282V154.663H345.3313m1-1H281.282v65.04944H346.3313V153.663Z" style="fill: #fff"/>
          <path d="M345.3313,218.47528v63.04944H282.282V218.47528H345.3313m1-1H281.282v65.04944H346.3313V217.47528Z" style="fill: #fff"/>
          <path d="M345.3313,282.28754V345.337H282.282V282.28754H345.3313m1-1H281.282V346.337H346.3313V281.28754Z" style="fill: #fff"/>
          <path d="M281.51905,154.663v63.04944H218.46973V154.663h63.04932m1-1H217.46973v65.04944h65.04932V153.663Z" style="fill: #fff"/>
          <path d="M281.51905,218.47528v63.04944H218.46973V218.47528h63.04932m1-1H217.46973v65.04944h65.04932V217.47528Z" style="fill: #fff"/>
          <path d="M281.51905,282.28754V345.337H218.46973V282.28754h63.04932m1-1H217.46973V346.337h65.04932V281.28754Z" style="fill: #fff"/>
          <path d="M217.70679,154.663v63.04944H154.65747V154.663h63.04932m1-1H153.65747v65.04944h65.04932V153.663Z" style="fill: #fff"/>
          <path d="M217.70679,218.47528v63.04944H154.65747V218.47528h63.04932m1-1H153.65747v65.04944h65.04932V217.47528Z" style="fill: #fff"/>
          <path d="M217.70679,282.28754V345.337H154.65747V282.28754h63.04932m1-1H153.65747V346.337h65.04932V281.28754Z" style="fill: #fff"/>
        </g>
        <g style="opacity: 0.2">
          <rect x="173.61308" y="173.61308" width="152.77383" height="152.77383" transform="translate(250 -103.55339) rotate(45)" style="fill: none;stroke: #fff;stroke-miterlimit: 10"/>
          <rect x="184.30725" y="184.30725" width="131.3855" height="131.3855" transform="translate(250 -103.55339) rotate(45)" style="fill: none;stroke: #fff;stroke-miterlimit: 10"/>
        </g>
        <g style="opacity: 0.1">
          <path d="M355.37915,197.92945,407.44947,250l-52.07032,52.07055L303.3086,250l52.07055-52.07055m0-1.41422L301.89429,250l53.48486,53.48477L408.86377,250l-53.48462-53.48477Z" style="fill: #fff"/>
          <path d="M302.68946,250.619,354.76,302.68953l-52.07055,52.07056-52.07032-52.07056L302.68946,250.619m0-1.41421-53.48462,53.48476,53.48462,53.48478,53.48486-53.48478-53.48486-53.48476Z" style="fill: #fff"/>
          <path d="M250,303.30852l52.07056,52.07055L250,407.44963l-52.07055-52.07056L250,303.30852m0-1.41422-53.48486,53.48477L250,408.86384l53.48487-53.48477L250,301.8943Z" style="fill: #fff"/>
          <path d="M302.68946,145.23991,354.76,197.31047,302.68946,249.381l-52.07032-52.07055,52.07032-52.07056m0-1.41421-53.48462,53.48477,53.48462,53.48477,53.48486-53.48477L302.68946,143.8257Z" style="fill: #fff"/>
          <path d="M250,197.92944,302.07056,250,250,302.07055,197.92945,250,250,197.92944m0-1.41421L196.51514,250,250,303.48477,303.48487,250,250,196.51523Z" style="fill: #fff"/>
          <path d="M197.31055,250.619l52.07031,52.07055-52.07031,52.07056L145.24,302.68953,197.31055,250.619m0-1.41421-53.48486,53.48476,53.48486,53.48478,53.48462-53.48478-53.48462-53.48476Z" style="fill: #fff"/>
          <path d="M250,92.55037l52.07056,52.07055L250,196.6915l-52.07055-52.07058L250,92.55037m0-1.41422-53.48486,53.48477L250,198.10571l53.48487-53.48479L250,91.13615Z" style="fill: #fff"/>
          <path d="M197.31055,145.23991l52.07031,52.07056L197.31055,249.381,145.24,197.31047l52.07056-52.07056m0-1.41421-53.48486,53.48477,53.48486,53.48477,53.48462-53.48477L197.31055,143.8257Z" style="fill: #fff"/>
          <path d="M144.62085,197.92945,196.69141,250l-52.07056,52.07055L92.55054,250l52.07031-52.07055m0-1.41422L91.13623,250l53.48462,53.48477L198.10572,250l-53.48487-53.48477Z" style="fill: #fff"/>
        </g>
        <g>
          <circle cx="250.02507" cy="250" r="80.89888" style="opacity: 0.8"/>
          <circle cx="250.02507" cy="250" r="68.60225" style="fill: #fff;opacity: 0.4"/>
          <circle cx="250.02507" cy="250" r="64.7191" style="fill: #333;opacity: 0.8"/>
          <circle cx="250.02507" cy="250" r="58.24719" style="fill: #fff;opacity: 0.6"/>
          <g class='knives'>
            <path class="knife knife4" data-name="knife knife4" d="M177.90764,311.21655a.06468.06468,0,0,0,.00018.09148l.783.77963a.06477.06477,0,0,0,.06979.01419l.62474-.14565a.06414.06414,0,0,1,.06979.01419c.28363.2858,2.1982,2.21724,2.74823,2.76788a.06221.06221,0,0,1,.01209.07028,17.471,17.471,0,0,1-3.92306,5.69338s-3.49674,3.4784-3.83166,3.81857c-.01895.01924-.68537-.67981-.68537-.67981l-1.79466,1.7856a4.89253,4.89253,0,0,0,.32646.91852l.041,1.332,1.332.04106a4.893,4.893,0,0,0,.91852.32646l1.7856-1.79466s-.699-.66643-.67981-.68538c.34018-.33492,3.81857-3.83166,3.81857-3.83166a17.47064,17.47064,0,0,1,5.69339-3.923.06222.06222,0,0,1,.07028.01208c.55063.55,2.48208,2.46461,2.76787,2.74824a.06411.06411,0,0,1,.01419.06979l-.14564.62474a.06474.06474,0,0,0,.01419.06979l.77962.783a.06468.06468,0,0,0,.09148.00017l1.72491-1.71839a.06465.06465,0,0,0,.00007-.09149l-.78344-.78345a.06468.06468,0,0,0-.07111-.01374l-.66194.11351a.06438.06438,0,0,1-.07183-.01446c-.282-.29372-2.15321-2.20663-2.39322-2.45125a.06053.06053,0,0,1-.016-.05464l.12718-.73681a.058.058,0,0,1,.01649-.03321c.63509-.63365,24.47846-24.4217,24.9154-24.84244.44083-.42456,4.10847-5.035,4.63834-6.62751a15.38335,15.38335,0,0,0,.45158-1.52346,15.38031,15.38031,0,0,0-1.52346.45159c-1.59246.52986-6.20295,4.19751-6.6275,4.63833-.42074.43695-24.2088,24.28032-24.84245,24.91541a.058.058,0,0,1-.03321.01648l-.73681.12719a.06055.06055,0,0,1-.05464-.016c-.24462-.24-2.15752-2.11117-2.45125-2.39322a.0644.0644,0,0,1-.01446-.07182l.11352-.66195a.06469.06469,0,0,0-.01375-.0711l-.78344-.78345a.06468.06468,0,0,0-.0915.00007Z" style="fill: #fff"/>
            <path class="knife knife3" data-name="knife knife3" d="M311.24162,322.11742a.06468.06468,0,0,0,.09148-.00017l.77962-.783a.06474.06474,0,0,0,.01419-.06979l-.14564-.62474a.06413.06413,0,0,1,.01419-.06979c.28579-.28363,2.21724-2.19821,2.76787-2.74824a.06222.06222,0,0,1,.07028-.01208,17.47064,17.47064,0,0,1,5.69339,3.923s3.4784,3.49674,3.81857,3.83166c.01923.019-.67981.68538-.67981.68538l1.7856,1.79466a4.89278,4.89278,0,0,0,.91852-.32646l1.332-.04106.041-1.332a4.89253,4.89253,0,0,0,.32646-.91852l-1.79466-1.7856s-.66642.699-.68537.67981c-.33492-.34017-3.83166-3.81857-3.83166-3.81857a17.471,17.471,0,0,1-3.92306-5.69338.06221.06221,0,0,1,.01209-.07028c.55-.55064,2.4646-2.48208,2.74823-2.76788a.06414.06414,0,0,1,.06979-.01419l.62474.14565a.06479.06479,0,0,0,.0698-.01419l.783-.77963a.06468.06468,0,0,0,.00018-.09148l-1.71839-1.72491a.06468.06468,0,0,0-.0915-.00007l-.78344.78345a.06469.06469,0,0,0-.01375.0711l.11352.66195a.0644.0644,0,0,1-.01446.07182c-.29373.28205-2.20663,2.15322-2.45125,2.39322a.06055.06055,0,0,1-.05464.016l-.73681-.12719a.058.058,0,0,1-.03321-.01648c-.63365-.63509-24.42171-24.47846-24.84244-24.91541-.42456-.44082-5.03505-4.10847-6.62751-4.63833a15.38031,15.38031,0,0,0-1.52346-.45159,15.38335,15.38335,0,0,0,.45158,1.52346c.52987,1.59246,4.19751,6.20295,4.63834,6.62751.43694.42074,24.28031,24.20879,24.91541,24.84244a.058.058,0,0,1,.01648.03321l.12718.73681a.06053.06053,0,0,1-.016.05464c-.24.24462-2.11118,2.15753-2.39322,2.45125a.06438.06438,0,0,1-.07183.01446l-.66194-.11351a.06468.06468,0,0,0-.07111.01374l-.78344.78345a.06465.06465,0,0,0,.00007.09149Z" style="fill: #fff"/>
            <path class="knife knife2" data-name="knife knife2" d="M322.14249,188.78345a.06468.06468,0,0,0-.00018-.09148l-.783-.77963a.06479.06479,0,0,0-.0698-.01419l-.62474.14565a.06414.06414,0,0,1-.06979-.01419c-.28363-.2858-2.1982-2.21724-2.74823-2.76788a.06221.06221,0,0,1-.01209-.07028,17.471,17.471,0,0,1,3.92306-5.69338s3.49674-3.4784,3.83166-3.81857c.019-.01924.68537.67981.68537.67981l1.79466-1.7856a4.89253,4.89253,0,0,0-.32646-.91852l-.041-1.332-1.332-.04106a4.89278,4.89278,0,0,0-.91852-.32646l-1.7856,1.79466s.699.66643.67981.68538c-.34017.33492-3.81857,3.83166-3.81857,3.83166a17.47064,17.47064,0,0,1-5.69339,3.92305.06222.06222,0,0,1-.07028-.01208c-.55063-.55-2.48208-2.46461-2.76787-2.74824a.06413.06413,0,0,1-.01419-.06979l.14564-.62474a.06474.06474,0,0,0-.01419-.06979l-.77962-.783a.06468.06468,0,0,0-.09148-.00017l-1.72491,1.71839a.06465.06465,0,0,0-.00007.09149l.78344.78345a.06468.06468,0,0,0,.07111.01374l.66194-.11351a.06438.06438,0,0,1,.07183.01446c.282.29372,2.15321,2.20663,2.39322,2.45125a.06053.06053,0,0,1,.016.05464l-.12718.73681a.058.058,0,0,1-.01648.03321c-.6351.63365-24.47847,24.4217-24.91541,24.84244-.44083.42456-4.10847,5.03505-4.63834,6.62751a15.38335,15.38335,0,0,0-.45158,1.52346,15.38031,15.38031,0,0,0,1.52346-.45159c1.59246-.52986,6.20295-4.19751,6.62751-4.63833.42073-.43695,24.20879-24.28032,24.84244-24.91541a.058.058,0,0,1,.03321-.01648l.73681-.12719a.06055.06055,0,0,1,.05464.016c.24462.24,2.15752,2.11117,2.45125,2.39322a.0644.0644,0,0,1,.01446.07182l-.11352.66195a.06469.06469,0,0,0,.01375.0711l.78344.78345a.06468.06468,0,0,0,.0915-.00007Z" style="fill: #fff"/>
            <path class="knife knife1" data-name="knife knife1" d="M188.80851,177.88258a.06468.06468,0,0,0-.09148.00017l-.77962.783a.06474.06474,0,0,0-.01419.06979l.14564.62474a.06411.06411,0,0,1-.01419.06979c-.28579.28363-2.21724,2.19821-2.76787,2.74824a.06222.06222,0,0,1-.07028.01208,17.47064,17.47064,0,0,1-5.69339-3.92305s-3.47839-3.49674-3.81857-3.83166c-.01923-.01895.67981-.68538.67981-.68538l-1.7856-1.79466a4.893,4.893,0,0,0-.91852.32646l-1.332.04106-.041,1.332a4.89253,4.89253,0,0,0-.32646.91852l1.79466,1.7856s.66642-.699.68537-.67981c.33492.34017,3.83166,3.81857,3.83166,3.81857a17.471,17.471,0,0,1,3.92306,5.69338.06221.06221,0,0,1-.01209.07028c-.55.55064-2.4646,2.48208-2.74823,2.76788a.06414.06414,0,0,1-.06979.01419l-.62474-.14565a.06477.06477,0,0,0-.06979.01419l-.783.77963a.06468.06468,0,0,0-.00018.09148l1.71839,1.72491a.06468.06468,0,0,0,.0915.00007l.78344-.78345a.06469.06469,0,0,0,.01375-.0711l-.11352-.66195a.0644.0644,0,0,1,.01446-.07182c.29373-.282,2.20663-2.15322,2.45125-2.39322a.06055.06055,0,0,1,.05464-.016l.73681.12719a.058.058,0,0,1,.03321.01648c.63365.63509,24.42171,24.47846,24.84245,24.91541.42455.44082,5.035,4.10847,6.6275,4.63833a15.38031,15.38031,0,0,0,1.52346.45159,15.38335,15.38335,0,0,0-.45158-1.52346c-.52987-1.59246-4.19751-6.20295-4.63834-6.62751-.43694-.42074-24.28031-24.20879-24.9154-24.84244a.058.058,0,0,1-.01649-.03321l-.12718-.73681a.06053.06053,0,0,1,.016-.05464c.24-.24462,2.11118-2.15753,2.39322-2.45125a.06438.06438,0,0,1,.07183-.01446l.66194.11351a.06468.06468,0,0,0,.07111-.01374l.78344-.78345a.06465.06465,0,0,0-.00007-.09149Z" style="fill: #fff"/>
          </g>
          <g>
            <path d="M232.00523,262.69453h-.49043a11.61812,11.61812,0,0,0-1.08723-4.25436l.02955.0709a12.41654,12.41654,0,0,0-2.49353-3.46849h0c-1.05768-1.034-2.399-1.684-3.63985-2.70625a1.604,1.604,0,0,1-.17136.00591,2.03242,2.03242,0,0,1-.82724-.17135l.01182.0059a6.42752,6.42752,0,0,0-1.359-.43134l-.04136-.00591a2.51667,2.51667,0,0,0-2.12128.36045,8.71442,8.71442,0,0,0-2.4758,2.919l-.02363.04727a2.56911,2.56911,0,0,0-.21863,1.034,2.494,2.494,0,0,0,.08864.6677l-.00591-.01773a6.87021,6.87021,0,0,0,1.24085,2.5349l-.01181-.01773a13.17681,13.17681,0,0,1,1.22313,2.02674l.03545.07682a2.48359,2.48359,0,0,1,.2718,1.93218c-.62043.56134-1.2704.24817-1.90264-.02954a7.7676,7.7676,0,0,1-2.139-1.62492,14.51551,14.51551,0,0,1-2.62943-3.57485l-.03545-.07682c-.37817-.715-.31317-1.52447-.7977-2.21581,1.105-.63225,1.83175-1.58947,3.02533-1.814.39589-.07682.57906-.44317.80951-.72088a7.506,7.506,0,0,1,3.21441-2.11536,2.72115,2.72115,0,0,0,1.19358-1.05177l.00591-.01182c1.28813-.01182,1.30585-1.37676,2.14491-1.79629a3.7743,3.7743,0,0,0-1.72538,1.02223,32.24148,32.24148,0,0,1-3.92347,2.64125l-.15954.08272a9.05792,9.05792,0,0,1-2.19218.88633l-.065.01182c-.18908-.78.455-1.19949.76815-1.76084l.17135-.09454c-.04136-.02954-.08272-.07682-.13-.08273s-.10636.05319-.08273.14182l-1.26449.08863c-.39.24817-.56134.53179-.39589.94541.61452.2009.61452.2009.95723.73861-.59089.67951-1.46539.98677-2.204,1.72537a6.04577,6.04577,0,0,1,.08864-2.3458,27.90354,27.90354,0,0,1,1.24085-4.6857l-.05909.195a26.543,26.543,0,0,0,1.105-6.25155c.24817-3.2144.36635-6.44063.38407-9.66685,0-.98678.09454-1.94992.14772-2.90125l.98677-.94541c.13591-.04727.24817-.10636.23045-.27771.02363,0,.04727.00591.0709.00591a.64235.64235,0,0,0,.4668-.20091h0a9.49146,9.49146,0,0,0,1.944-1.25267,8.72384,8.72384,0,0,0,3.09623-2.06809,8.45626,8.45626,0,0,0-3.09623,2.06218c-.51407-.15954-.88042.31317-1.359.2659-.14772.39589-.65588.5318-.56134,1.01632a.44381.44381,0,0,0-.15363-.02955.40851.40851,0,0,0-.36635.23045h0c-.13.04727-.26.09454-.24817.27771-.195-.05318-.41362.04136-.60861-.15363a2.73435,2.73435,0,0,1,1.749-1.72538,5.71447,5.71447,0,0,0,3.114-2.76534l.01773-.02954c.2718-.5377.83314-.78,1.21131-1.31177-.24817-.56724.15363-.99859.46089-1.45948a30.75527,30.75527,0,0,1,12.92263-10.89l.195-.07681a32.93779,32.93779,0,0,1,15.47525-3.244,34.55123,34.55123,0,0,1,21.60271,8.57372,29.9806,29.9806,0,0,1,6.36382,8.02421l.07681.15954a6.02277,6.02277,0,0,0,3.1435,2.95442,3.82872,3.82872,0,0,1,2.4049,3.80529c.0709,1.8022,0,3.6103.08863,5.4125a61.62242,61.62242,0,0,0,.969,10.62409c.27773,1.27631.64406,2.5349,1.034,3.78757a22.56175,22.56175,0,0,1,.86859,4.6089l.00591.08863a5.37449,5.37449,0,0,1,.02954.56133,5.321,5.321,0,0,1-.34272,1.89673l.01182-.03545a12.88441,12.88441,0,0,1-4.6857,6.10382l-.04136.02954a4.07127,4.07127,0,0,1-1.18768.56134l-.02954.0059a1.14432,1.14432,0,0,1-.43134.08273,1.15758,1.15758,0,0,1-.81543-.3309h0a2.34454,2.34454,0,0,1,.24817-1.89673,11.86431,11.86431,0,0,1,1.15222-1.92628l-.02363.02954a10.28087,10.28087,0,0,0,1.22314-2.18036l.02363-.0709a2.804,2.804,0,0,0-.41362-2.90124l.00591.00591c-.50225-.64406-1.05177-1.25267-1.59539-1.86719a2.49858,2.49858,0,0,0-1.90265-.88042,2.44993,2.44993,0,0,0-.80951.13591l.01773-.00591c-4.69753,1.37676-7.971,4.23663-9.23551,9.10552a7.04241,7.04241,0,0,0-.195,1.66629,7.13086,7.13086,0,0,0,.17135,1.55994l-.01182-.04727a27.15134,27.15134,0,0,1,.24817,5.27068c0,1.11086-.27772,1.57176-.969,1.77857a2.41615,2.41615,0,0,1-2.58216-.67361,5.46665,5.46665,0,0,1-.93951-2.50535c-.04726-.27772-.05909-.57316-.08272-.85678-.37816-4.01211-2.79488-6.51154-6.19247-8.2192a15.6341,15.6341,0,0,0-6.05065-1.47721c-.61452-.05319-1.32949-.08272-2.04446-.08272a25.1452,25.1452,0,0,0-6.43472.83315l.17726-.04137a11.67641,11.67641,0,0,0-7.516,5.9443l-.02955.065a5.53552,5.53552,0,0,0-.6677,2.32218v.01772a8.82709,8.82709,0,0,1-.69724,3.34441,2.17066,2.17066,0,0,1-2.464,1.40039c-1.02814-.10045-1.489-.51407-1.49494-1.56584a23.41451,23.41451,0,0,1,.2009-5.1466,4.37579,4.37579,0,0,0,.07091-.59089v-.0059c.14772-.65.63225-.69134.78588-1.04.1359-.08272.3368-.13591.1359-.35453.15954.12409.2009.065.2009-.15362l-.15954.18317h-.01182a.24025.24025,0,0,0-.24226.22454h0Zm-3.4094-17.41334c-.08863,0-.2009-.05909-.21862.09455.14772.08272.16545-.02954.2009-.12409l.04136-.04727Zm-14.323,5.09932c.15363.11818.195.04136.18908-.11226l-.14772.14181c-.15363.02954-.30726.05909-.21862.27772-.13-.02363-.26-.05318-.325.11818a.20487.20487,0,0,0,.29544-.14772c.14182-.03545.37817,0,.21272-.2718Zm2.06219-.91c-.17136-.11817-.31318-.11226-.41953.08863.195.10636.29544,0,.37816-.11818l.18318-.17135C216.27,249.26375,216.18728,249.29919,216.335,249.47055Zm9.50141-4.75661c.24817.08272.43725.05909.52588-.21272.01773,0,.03545.00591.05909.00591a.45137.45137,0,0,0,.44907-.41952h0c-.29544.03545-.54361.04726-.49043.44316a.32075.32075,0,0,0-.17136-.04136.35618.35618,0,0,0-.34271.26h0c-.0709.03545-.22453,0-.15954.17726.16545-.0059.18908-.08862.13-.2068Zm2.21581-1.47721c.15363.02363.33681.1359.38407-.1359a.22487.22487,0,0,0-.11226-.02364.25345.25345,0,0,0-.24227.18908h0l-.05318.04728c-.01181.05909,0-.00592.01182-.07682Zm-7.841,5.188c.15363-.24817.67361,0,.65-.49043-.70906-.40772-.36634.41952-.61451.5377-.05909.04726-.24817-.065-.17136.15362Zm3.72848-2.42262c.62634-.0709.99859-.52589,1.51266-.95724h-.8686c-.08864.41362-.57316.52589-.67952.9336-.31907.15363-.70906.23045-.92178.845.48453-.27181,1.00451-.17136.95133-.82724Zm36.87706-22.9263a4.1749,4.1749,0,0,0-.56134-.04136,4.42278,4.42278,0,0,0-.69134.05909l.02364-.00591c-1.15223.11227-1.50675.43726-1.64857,1.57175a2.53028,2.53028,0,0,0-.01772.30726,2.88668,2.88668,0,0,0,.01772.31908v-.01182c.15955,2.23945.14772,4.49072.39589,6.73017a4.87572,4.87572,0,0,0,1.45358,3.01351h0a10.584,10.584,0,0,0,5.51885,2.74761,55.01062,55.01062,0,0,0,8.036,1.21722l.20681.01182c.11818.00591.26.00591.4018.00591a10.04405,10.04405,0,0,0,2.58217-.33681l-.0709.01773a2.69936,2.69936,0,0,0,1.97945-1.66038l.00591-.01773a7.76839,7.76839,0,0,0-.49044-7.18515,10.9677,10.9677,0,0,0-6.13337-4.46708,48.40484,48.40484,0,0,0-10.80727-2.2749l-.20681-.01773Zm-19.13282.4018a1.72747,1.72747,0,0,0-1.11677-.40771h-.01773c-.23635-.01182-.51406-.01773-.79178-.01773a16.42524,16.42524,0,0,0-2.23354.15363l.08272-.01181c-2.269.31907-4.49662.85087-6.72426,1.37085a16.28436,16.28436,0,0,0-7.23833,3.42122,7.73933,7.73933,0,0,0-2.49944,7.652,5.834,5.834,0,0,0,.41953,1.31766l-.01182-.03545A2.83014,2.83014,0,0,0,223.591,238.681l.01773.00591a10.83722,10.83722,0,0,0,2.55262.30135c.12408,0,.25408,0,.37817-.00591h-.01773a56.35259,56.35259,0,0,0,8.12465-1.19358,11.37346,11.37346,0,0,0,4.90434-2.139,5.03629,5.03629,0,0,0,2.15672-3.55712,68.958,68.958,0,0,0,.37817-7.3506h0a2.29848,2.29848,0,0,0-.41953-1.2704l.00591.00591Zm2.19809,17.50789c0,.69133-.02363,1.38857,0,2.08582a7.4393,7.4393,0,0,0,.22454,1.25858l-.01182-.05318a4.04007,4.04007,0,0,0,1.04586,2.17445,1.78767,1.78767,0,0,0,2.62353,0h0c.26-.26.4668-.57316.7386-.82723a2.05526,2.05526,0,0,1,3.05487.03545c.26.26.47271.56134.7386.81542a1.79745,1.79745,0,0,0,1.294.54953,1.76058,1.76058,0,0,0,1.24085-.50225h0a3.31679,3.31679,0,0,0,.98087-1.65448l.0059-.02363a14.71148,14.71148,0,0,0,.49044-3.823q0-.35452-.01773-.70906v.03545a18.87414,18.87414,0,0,0-3.65757-9.99776,5.77835,5.77835,0,0,0-1.25858-1.31176l-.01182-.01182a1.87459,1.87459,0,0,0-2.48171-.10635,4.81386,4.81386,0,0,0-1.54812,1.51857l-.01181.01773c-.50817.79178-1.01632,1.58947-1.44767,2.42262a15.40442,15.40442,0,0,0-2.00309,8.10692Zm-8.14238,19.80643c.975.01773,1.14631-.13591,1.38267-1.28221a2.12992,2.12992,0,0,0-1.38267,1.294Zm-9.41278-14.18122a1.56214,1.56214,0,0,0,1.25267-.78587A1.56214,1.56214,0,0,0,226.32684,246.61067Zm7.20879,15.5048a.79423.79423,0,0,0,.12408.0059,1.3519,1.3519,0,0,0,.89815-.3368h0c.18317-.13.24817-.325,0-.4727a1.60686,1.60686,0,0,0-1.01632.8036Zm-8.89872-14.37621c-.49043-.08273-.6027.2009-.79769.36635A.97254.97254,0,0,0,224.63691,247.73926Zm-10.97862,8.19556c.13.17727.21863.44317.57316.24817C214.14282,255.84028,213.95965,255.76938,213.65829,255.93482Zm6.05656-7.10834c-.40771-.08862-.6027-.04726-.6677.24817C219.30714,249.15147,219.39577,248.89739,219.71485,248.82648Zm4.52026-6.8897-.21862.03545c.02363.065-.21863.11227-.01773.16545C224.05194,242.1495,224.14648,242.01359,224.23511,241.93678Zm-8.27237,13.289c-.08863-.14772-.18908-.08863-.28953,0C215.76775,255.36167,215.86229,255.30848,215.96274,255.22576Zm-.41362-5.51886c-.24817-.02363-.36635-.08863-.39.12409.11818.10045.20681.0709.39-.11818ZM235.131,263.575c.07681-.07682.17726-.14772.065-.27181a.10045.10045,0,0,0-.09455,0h0C234.97737,263.40359,235.04237,263.49222,235.131,263.575Zm-4.96933-9.10553c.08272.02954.17136.16545.21862-.02363Zm-8.32556-7.20877-.08863.0709c.02954.02954.05318.0709.08272.0709s.05909-.04136.08864-.065Zm.54362-.17727c-.05318-.10636-.11818-.11227-.17136,0,0,0,.05318.0709.08272.0709s.05909-.05319.08864-.07682Zm4.91024-3.22032c-.02363-.02363-.04727-.065-.0709-.065s-.05318.04137-.07682.065l.11227.0709Zm.69133,1.83175.08864-.0709-.08272-.07682-.08864.11226Z" style="opacity: 0.8"/>
            <path d="M227.28407,287.01532a.66611.66611,0,0,1-.18908.02953.60227.60227,0,0,1-.39-.1359h0a79.04251,79.04251,0,0,1-1.58357-18.73693c.51407-.36635,1.04587-.7386,1.56585-1.12268.21272-.15954.54361-.2659.43134-.65l-.02954.01773c.41361.0709.62633-.15954.76815-.51407l-.02955.02364c.31317-.02954.63815-.05319.50816-.52l-.02363.02954c.08863.17727.2718.07682.5377.20681v12.574c-.00591.09455-.01182.20681-.01182.31908a4.16641,4.16641,0,0,0,.16545,1.16405l-.00591-.02954a2.13208,2.13208,0,0,0,1.63084,1.50084,1.88165,1.88165,0,0,0,2.01491-.85678,4.04675,4.04675,0,0,0,.60861-1.164l.00591-.02954a10.59448,10.59448,0,0,1,2.984-4.43162,17.15474,17.15474,0,0,1,7.906-4.25436,22.3942,22.3942,0,0,1,16.1075,1.66629,15.31818,15.31818,0,0,1,5.09933,4.278l.02954.03546a7.52276,7.52276,0,0,1,1.32949,2.40489l.01773.05319a4.86339,4.86339,0,0,0,.64406,1.3413l-.01182-.01773a1.87748,1.87748,0,0,0,2.19809.93951,2.1716,2.1716,0,0,0,1.57175-1.83766v-.01182c.01773-.18908.02954-.41362.02954-.63815,0-.07682,0-.15363-.00591-.23044v.01182c.01773-3.97665.01773-7.9533.05909-11.93a9.72846,9.72846,0,0,1,.9986-4.75071,2.56988,2.56988,0,0,1,1.85537-1.5304c.85679.31317,1.01633,1.06359,1.01633,1.8672,0,1.96764.05909,3.93528-.07682,5.90883-.12409,1.8022-.08272,3.6044-.12409,5.4125a73.28833,73.28833,0,0,1-1.35312,12.78082l.07682-.46088a21.28718,21.28718,0,0,1-1.54811,4.79207l.05318-.13a6.04185,6.04185,0,0,1-7.2915,2.95442,12.85433,12.85433,0,0,1-3.82893-2.204l.01773.01772a23.30774,23.30774,0,0,0-9.48959-4.408,7.7096,7.7096,0,0,0-1.57766-.15954,7.81714,7.81714,0,0,0-2.36354.36635l.05318-.01773a23.90045,23.90045,0,0,0-8.84553,4.38436,9.84526,9.84526,0,0,1-4.30163,2.204,3.65021,3.65021,0,0,0-3.32077-.50816.82074.82074,0,0,1-.57316-.4668V292.546c.89224-.18908,2.09764.03546,2.03855-1.45948l1.79038-1.3354c.27181-.4668-.30135-.62634-.17726-.98677.22454-.39589.57316-.37226.94541-.28363.67952-.88041,1.79629-1.11086,2.64125-1.7372-.2009-.40771-.62042-.20681-.92768-.34271-.15954-.72088.57315-.81543.83905-1.229l.5318-.21863h1.229c.15363-.47862.839-.455.904-1.0695-.04136,0-.08863-.00591-.1359-.00591a3.00755,3.00755,0,0,0-2.15082.89815h0l-.56134.15362a19.532,19.532,0,0,0-4.93979,2.62353,1.20888,1.20888,0,0,1-.75634.26h-.04727a9.50966,9.50966,0,0,0-4.50254.60861c-.49043-.56725-.195-.89814.16545-1.21131a3.67641,3.67641,0,0,0,1.34721-.88632,2.97627,2.97627,0,0,0-1.57174.6677l.00591-.0059Zm14.68937-4.22483c-1.034.325-1.034.325-1.359,1.18768l1.68993-.65v-.04727a.52335.52335,0,0,0-.33089-.49044h0Z" style="opacity: 0.8"/>
          </g>
        </g>
      </g>
    </g>
  </g>
</svg>
