<svg xmlns="http://www.w3.org/2000/svg" viewBox="0 0 500 500" class="victory">
  <g class="Layer_2" data-name="Layer 2">
    <g class="Layer_1-2" data-name="Layer 1">
      <g>
        <g style="opacity: 0.2">
          <rect x="173.61308" y="173.61308" width="152.77383" height="152.77383" transform="translate(250 -103.55339) rotate(45)" style="fill: none;stroke: #fff;stroke-miterlimit: 10"/>
          <rect x="184.30725" y="184.30725" width="131.3855" height="131.3855" transform="translate(250 -103.55339) rotate(45)" style="fill: none;stroke: #fff;stroke-miterlimit: 10"/>
        </g>
        <g style="opacity: 0.1">
          <path d="M355.379,197.92946,407.4496,250,355.379,302.07051,303.30873,250,355.379,197.92946m0-1.41424L301.89442,250,355.379,303.48476,408.8639,250,355.379,196.51522Z" style="fill: #fff"/>
          <path d="M302.68959,250.619l52.07031,52.07049-52.07031,52.07056L250.619,302.68953,302.68959,250.619m0-1.41425-53.48487,53.48474,53.48487,53.48481,53.48462-53.48481-53.48462-53.48474Z" style="fill: #fff"/>
          <path d="M249.99989,303.30855l52.07056,52.0705L249.99989,407.4496l-52.07031-52.07055,52.07031-52.0705m0-1.41424-53.48462,53.48474,53.48462,53.4848,53.48486-53.4848-53.48486-53.48474Z" style="fill: #fff"/>
          <path d="M302.68959,145.24l52.07031,52.07049L302.68959,249.381,250.619,197.31044,302.68959,145.24m0-1.41425-53.48487,53.48474,53.48487,53.48481,53.48462-53.48481L302.68959,143.8257Z" style="fill: #fff"/>
          <path d="M249.99989,197.92946,302.07045,250l-52.07056,52.07049L197.92958,250l52.07031-52.07056m0-1.41424L196.51527,250l53.48462,53.48474L303.48475,250l-53.48486-53.4848Z" style="fill: #fff"/>
          <path d="M197.31044,250.619,249.381,302.68953l-52.07055,52.07056-52.07056-52.07056L197.31044,250.619m0-1.41425-53.48487,53.48474,53.48487,53.48481,53.48486-53.48481-53.48486-53.48474Z" style="fill: #fff"/>
          <path d="M249.99989,92.55037l52.07056,52.07056-52.07056,52.0705-52.07031-52.0705,52.07031-52.07056m0-1.41424-53.48462,53.4848,53.48462,53.48474,53.48486-53.48474-53.48486-53.4848Z" style="fill: #fff"/>
          <path d="M197.31044,145.24,249.381,197.31044,197.31044,249.381l-52.07056-52.07056L197.31044,145.24m0-1.41425-53.48487,53.48474,53.48487,53.48481,53.48486-53.48481L197.31044,143.8257Z" style="fill: #fff"/>
          <path d="M144.621,197.92946,196.6913,250,144.621,302.07051,92.55043,250,144.621,197.92946m0-1.41424L91.13612,250,144.621,303.48476,198.1056,250,144.621,196.51522Z" style="fill: #fff"/>
        </g>
        <path d="M134.84385,182.20286q-3.88994-3.33423-3.88994-9.447a34.09543,34.09543,0,0,1,.5557-4.44565q1.66713,5.00136,8.8913,8.33559a80.26392,80.26392,0,0,0,8.33559,4.16779q6.66848,3.0564,10.0027,4.7235,4.44565,2.22284,25.56247,13.89265t30.00812,17.78259a16.24485,16.24485,0,0,0,1.66712,1.38926,3.37368,3.37368,0,0,0,1.66712.83356l1.11141,1.11141q0-.55571.27785-.5557h.27785l-2.22282-1.66712a284.51255,284.51255,0,0,0-35.56517-23.89535q-3.88993-2.22284-8.33559-4.44565t-9.447-5.00135q-5.00134-2.77853-8.33559-4.44565-2.77853-1.66711-6.66847-4.44564-7.77989-4.44566-6.66847-15.00406.55571-6.11277,6.11276-14.44836,3.33424,8.8913,3.88994,9.447a18.27365,18.27365,0,0,0,6.11277,7.22418q23.33965,16.67118,51.68064,40.56653v.5557q-6.11275-6.66846-7.77988-8.33558l-9.447-9.447q-.55569-.55572-10.0027-8.33559,7.22418,1.11141,8.33559,1.11141,13.33693,2.77853,15.00405,2.77853a17.514,17.514,0,0,1,11.66983,7.77988,11.02867,11.02867,0,0,0,3.33423,3.88994q1.11142-3.33423,2.77853-24.45106-1.11141.55571-2.22282,6.66848-5.00136-8.8913,3.33423-18.3383-8.33559,2.22282-11.11411-1.66712h2.77853a4.48661,4.48661,0,0,0,5.00135-2.22282,6.70837,6.70837,0,0,1,.83356-2.22282,6.70871,6.70871,0,0,0,.83356-2.22283,6.0317,6.0317,0,0,0,1.11141-2.22282l1.11141-2.22282a1.60107,1.60107,0,0,0,.55571-1.11142q-1.11141-3.88993-5.55706-9.447-1.11141-1.11141-4.44565-.5557a10.85953,10.85953,0,0,1-2.22282.83356,7.60011,7.60011,0,0,1-1.66712.27785,4.61814,4.61814,0,0,1-4.44565-1.11141,9.92184,9.92184,0,0,0-2.77853-2.77853q-4.44564-2.77853-6.66847,1.66712a9.74762,9.74762,0,0,1-1.11141,2.77853q-3.33423-2.22283-2.22282-8.8913l.5557-1.66712q1.11143-6.66846,8.8913-7.77988a14.02589,14.02589,0,0,0,3.33423-1.66711,3.67459,3.67459,0,0,1,3.33424-.55571,171.36131,171.36131,0,0,1,17.22688,1.11141q8.33559.5557,10.0027-7.22418a1.601,1.601,0,0,0,.55571-1.11141q2.22283,3.88995,0,7.22418-1.11141,2.22282-6.66847,4.44565a73.94713,73.94713,0,0,1,7.77988,2.77853,18.21249,18.21249,0,0,0-2.77853,2.22282,33.3061,33.3061,0,0,1,5.55706,2.77853q1.11142,1.11141,3.88994,4.44565-6.11275-3.88995-10.0027-2.77853v1.11141q4.44566,4.44564,8.33558,13.89264,0,.55571,3.88995,8.8913-1.66713-.55571-6.66847-4.44565,6.66846,10.55841,5.55705,17.22688a18.95982,18.95982,0,0,0-5.00135-7.22417q-1.11141,10.0027,7.22417,26.67388,8.89128-16.11548,7.77988-26.67388a16.70479,16.70479,0,0,0-5.00135,7.77988q-1.66711-7.22418,5.00135-17.78259-3.33423,2.22282-6.11276,4.44565l-.55571-.55571,5.00135-10.0027q3.88994-8.89129,7.77989-12.78124-2.77854-2.22282-10.00271,2.77853a13.4202,13.4202,0,0,1,9.447-7.77988v-.55571q-.55569,0-1.66712-1.11141a1.601,1.601,0,0,0-1.11141-.5557q1.11142-.55571,7.77988-2.77853-6.11277-2.77854-6.66847-4.44565-1.66711-2.22282-.5557-7.77988a1.60108,1.60108,0,0,1,.5557,1.11141v.5557l.55571,1.11142q1.66712,6.66846,8.33559,6.11276,1.11141,0,13.33694-1.11141,5.00135-.55571,5.00135,0a23.224,23.224,0,0,1,3.88994,1.11141,4.5714,4.5714,0,0,1,1.38927.27785q.83355.27786.83355.83356a10.489,10.489,0,0,1,3.33424.55571q5.55708.55571,6.94632,7.502T302.667,135.52357l-1.11141-2.77853q-2.22282-4.44565-6.11277-1.66712a22.07919,22.07919,0,0,0-3.33423,2.77853,3.85961,3.85961,0,0,1-3.88995,1.11141,9.09388,9.09388,0,0,1-2.22282-.55571,9.14233,9.14233,0,0,0-2.77853-.5557,4.48661,4.48661,0,0,0-5.00135,2.22282,51.3161,51.3161,0,0,0-3.88994,7.22418,1.54079,1.54079,0,0,0,.27785,1.945,11.88747,11.88747,0,0,1,1.945,3.61209,2.26421,2.26421,0,0,1,.55571,1.66711l1.11141,1.66712q1.66711,4.44566,6.11276,3.88994h2.22283q-2.77854,3.88995-11.11412,2.22283l1.66712,2.22282q3.33423,3.88993,3.33423,7.22418a11.47594,11.47594,0,0,1-2.22282,8.33559q0-5.00136-1.66712-6.66848,1.11142,20.56113,2.22282,23.89536l.55571.5557a1.1321,1.1321,0,0,1,.27785-.83356,1.13206,1.13206,0,0,0,.27786-.83355q5.55705-6.66848,7.77988-7.77989,3.88994-2.22282,11.11412-3.33423.55572,0,17.22688-2.77853-20.56111,19.44971-27.7853,26.11817l.55571.55571,1.11141-1.11141q27.78531-23.33966,51.12494-40.56653a25.00059,25.00059,0,0,0,9.447-16.11547l.55571-.55571q8.3356,12.78125,5.55706,22.22824a11.79206,11.79206,0,0,1-5.55706,7.22418q-8.33556,5.00134-16.11547,9.447a383.70268,383.70268,0,0,0-52.23635,32.78665q-.5557,0-2.22283,1.66712h.55571q6.66846-5.00136,38.89941-23.33965,17.78259-10.0027,38.3437-19.4497,2.77854-1.66711,6.66847-4.44565a39.20662,39.20662,0,0,0,2.77853-3.88994q3.89,8.8913-3.33423,13.33694a177.21807,177.21807,0,0,0-17.78259,12.78123A118.282,118.282,0,0,1,306.557,214.4338q-1.6671.55571-13.33694,3.88994l-1.66712.55571v.5557q3.88993-1.11141,11.94768-2.50067t11.94767-1.945q-6.66844,4.44564-7.22417,5.00135-7.77987,5.55707-8.8913,6.66847-5.55705,4.44564-13.89265,3.33423H282.1059l-1.11141.55571,1.11141,1.11141q11.66982.55572,12.22553,0a9.95257,9.95257,0,0,0,5.55706-2.77853,14.91312,14.91312,0,0,1,8.89129-2.77853q2.77854,0,32.78665-1.11141h3.33423l-1.11141,1.11141q-20.00538,13.89265-20.00541,14.44836a16.651,16.651,0,0,1-14.44835,2.22282q-2.22282-.55571-27.22959-7.22418h-.55571a1.55326,1.55326,0,0,0,1.11142,2.22283q16.11548,5.00134,27.78529,8.89129l1.11141.55571a24.69984,24.69984,0,0,1-7.77988,3.33423,44.07282,44.07282,0,0,1-14.44835,1.11141,61.0521,61.0521,0,0,0-7.22418-1.11141q-5.00136-.55569-6.11276-.5557a3.20207,3.20207,0,0,0-2.22283,1.11141,24.69708,24.69708,0,0,0-2.50067,3.05638l-2.77853,3.88994-2.50068,3.61209a2.71154,2.71154,0,0,0-.55571,1.945v9.72485l-6.66847-3.33423-.5557,1.11141v19.4497q0,2.77854,3.33423,3.88995a8.45048,8.45048,0,0,1,4.44565,2.22282q.55569.55569,7.77988,6.11276-10.0027,3.33425-17.22688-6.11276l-.55571.55571q0,9.447,1.11142,13.33694a36.00807,36.00807,0,0,1,1.945,4.7235q.83355,2.50066,1.66711,5.2792t1.38927,4.44565a6.524,6.524,0,0,1-1.11141,7.22417q-.55571.5557-11.11412,12.22553l-2.22282-2.22282a30.31613,30.31613,0,0,1-2.22283-2.50068,30.31588,30.31588,0,0,0-2.22282-2.50067l-4.44565-4.44565a7.82977,7.82977,0,0,1-1.66712-8.33559,36.0067,36.0067,0,0,0,1.945-4.7235q.83356-2.50067,1.945-5.55706a54.56914,54.56914,0,0,0,1.66711-5.2792q.55572-.55571,1.11141-12.22553-7.77987,5.55705-8.33558,6.11276a9.87506,9.87506,0,0,1-2.77853.83356,13.61515,13.61515,0,0,1-3.88994,0,29.479,29.479,0,0,0-3.33424-.27785V302.791a1.60108,1.60108,0,0,1,1.11141-.5557l6.66847-5.55706a12.22045,12.22045,0,0,1,5.00136-2.22282,3.93918,3.93918,0,0,0,2.77853-3.88995V270.00439q-.55572,0-6.66848,3.33423v-6.66847a12.77,12.77,0,0,0-2.22282-7.22417,100.88881,100.88881,0,0,1-6.66847-8.33559,1.78007,1.78007,0,0,0-1.66712-1.11141q-10.55841,1.11141-16.67117,1.66711a28.566,28.566,0,0,1-18.3383-3.88994l-.5557-.5557q9.447-3.33424,10.55841-3.33424l18.33829-6.11276a1.55325,1.55325,0,0,0,1.11141-2.22283h-1.11141q-25.56248,7.22418-26.11817,7.22418-8.89131,2.22282-15.55977-2.77853-1.11141-1.11141-19.4497-13.89265-.5557,0-1.11141-1.11141h1.11141q23.89534,1.11141,36.12088,1.11141a11.065,11.065,0,0,1,7.22417,2.77853q3.88995,3.33425,7.77989,3.33424,3.33423,0,10.55841-.55571l1.11141-1.11141-.55571-.55571h-3.88994A20.32212,20.32212,0,0,1,198.75,225.54792q-.55571-.55572-12.22553-8.8913a1.601,1.601,0,0,1-1.11141-.5557l-.55571-.55571v-.5557q2.22283.55571,5.55706,1.11141t5.83491,1.11141q2.50068.5557,5.83491,1.11141t6.11277,1.11141v-.5557l-1.66712-.55571q-17.78258-5.55706-20.56112-6.11276-15.00405-4.44566-31.11952-16.11547-4.44565-3.33424-20.00542-13.89265Zm151.7077-62.23906q-2.77854-1.66712-7.22418,1.66712,7.77989,4.44564,11.66982,0Zm-66.129,1.66712v-.55571l-3.88994-1.66711q-1.11141,0-7.22418,2.22282v.55571a33.27387,33.27387,0,0,0,5.00135,1.66711A45.9498,45.9498,0,0,0,220.42256,121.63092Zm26.11817,68.35182a23.95282,23.95282,0,0,0-16.949,9.16915,24.68476,24.68476,0,0,0-5.2792,18.61615,25.22222,25.22222,0,0,0,4.44564,12.78123,24.22444,24.22444,0,0,0,8.8913,8.05774,22.19481,22.19481,0,0,0,10.0027,2.50067,7.13511,7.13511,0,0,0-4.44564-6.11276q-8.33559-2.77853-12.22553-12.22553-3.33425-7.77988-.55571-14.44835,3.88995-7.22418,8.33559-10.00271a21.98216,21.98216,0,0,1,16.11546-2.77853,19.95261,19.95261,0,0,1,9.447,6.11277,21.34757,21.34757,0,0,1,5.00135,9.447q2.22282,9.447-4.44564,17.22689-2.22282,3.33423-8.33559,6.66847a8.21668,8.21668,0,0,0-4.44565,6.11276,26.36972,26.36972,0,0,0,17.50474-8.89129,22.79577,22.79577,0,0,0,5.83491-18.3383q-.55571-11.66982-9.16915-18.61614a24.3747,24.3747,0,0,0-19.72756-5.27921Zm125.47811,51.73635s0,2.28256-.13859,3.36142c-.15034,1.17035-.5,3.38994-.5,3.38994-.74093,3.7047-2.399,6.90034-6.47418,12.08694Q347.6792,283.897,331.008,306.12527q-1.1114,1.11142-.55571,1.66712,1.11142,2.77854.83356,3.88994t-3.05638,2.77853q.55572,2.77854-1.66712,2.77853a8.70751,8.70751,0,0,0-2.22282,1.66711,6.4645,6.4645,0,0,1-1.66712,1.11142,4.26512,4.26512,0,0,1-1.66712.5557,16.55872,16.55872,0,0,0-2.22282,1.66712q-.55571.55569-5.00136,6.66847a6.33248,6.33248,0,0,0,1.38927,2.50068,27.55154,27.55154,0,0,0,2.22282,1.945q1.38929,1.11141,1.945,1.66711a.69463.69463,0,0,0,1.11141,0q2.22285-.55569,5.00136,2.22283a10.74881,10.74881,0,0,0-1.38927,1.945,29.2726,29.2726,0,0,1-1.66711,2.50067,20.86349,20.86349,0,0,1-1.945,2.22283q-2.77851-2.77854-2.77852-4.44565,0-.55569-1.11142-1.11141-3.88992-2.77854-6.66847-5.00135-.55569-.5557-1.66711,0a8.70772,8.70772,0,0,0-2.22283,1.66711q-3.88994,3.33425-10.55841,12.22553-2.22282,3.33424-4.44565,6.11277a16.5554,16.5554,0,0,1,2.22283,1.66712,39.07883,39.07883,0,0,0-3.88994,5.557q-2.77854-.55569-6.11277-1.11141a9.009,9.009,0,0,1-1.38926-2.50067,8.4331,8.4331,0,0,1-.83356-3.05639l1.38926-1.945,2.50068-3.05638q1.11142,1.11142,1.66712,1.11141,1.11141,0,1.11141-.5557,8.33559-11.11413,9.447-12.78124,1.11142-1.11141,4.44565-7.22417a2.813,2.813,0,0,0-1.11142-3.33424,25.1256,25.1256,0,0,1-3.33423-2.22282,33.62592,33.62592,0,0,1-2.77853-2.22283l-1.11141-.5557q-2.22282.55569-4.44565-1.66712a25.12458,25.12458,0,0,1,2.22282-3.33424,25.12329,25.12329,0,0,0,2.22283-3.33423q3.33423,1.66711,3.33423,3.88994,0,1.11142,2.50068,3.05638t3.61209,1.945h1.66711l2.50068-3.33423s1.204-1.66712,3.61209-5.00135q-10.55841-10.55841-22.22824-12.78124l-5.55705-1.11141-1.66712-1.11141q2.22281-3.33424,2.22282-3.88994-6.11277-3.88993-7.22417-4.44565a1.55325,1.55325,0,0,1-1.11142-2.22282v-4.44565q.5557-4.44566-3.88994-6.66847a8.74786,8.74786,0,0,1-3.33423-2.22283.98235.98235,0,0,1-1.11141-1.11141V265.003l1.66711,1.11142q7.7799,4.44566,9.447,5.55705,1.66711.55571,2.22283-.5557a8.433,8.433,0,0,1,.83356-3.05638,8.43325,8.43325,0,0,0,.83355-3.05639,8.2325,8.2325,0,0,0,0-7.22417,14.02506,14.02506,0,0,1,3.33424,1.66712q18.33829,8.89128,21.11682,10.55841a18.96261,18.96261,0,0,1,3.88994,3.88994,4.666,4.666,0,0,1,1.11142,5.2792,40.215,40.215,0,0,0-1.66712,5.83492,5.04894,5.04894,0,0,0,2.22282,6.11276l.55571.55571q-4.44564,3.88992-8.8913-2.22283a8.23272,8.23272,0,0,0,0,7.22418,8.60979,8.60979,0,0,1-5.00135-3.33424,2.26434,2.26434,0,0,0-.55571,1.66712,6.46459,6.46459,0,0,1-1.11141-1.66712q-.55569-1.11141-1.11141-1.11141a2.77851,2.77851,0,0,0,0,3.33424,3.58,3.58,0,0,0,1.66712,2.22282,105.1234,105.1234,0,0,0,10.0027,6.11277q5.55708,2.77853,10.00271-2.22283a4.35329,4.35329,0,0,0,.83356-1.11141.89007.89007,0,0,1,.83356-.55571q.55572-1.11141,1.11141-1.11141,1.11142.55571,2.77853-1.66711c20.37589-26.67389,32.04571-41.79841,35.00947-45.87359a59.21656,59.21656,0,0,1,7.27988-6.47418A26.32885,26.32885,0,0,1,372.01884,241.71909ZM214.8655,348.91462q3.33423,4.44565,3.88994,5.00135v1.11142l-2.22282,4.44564q-5.00136,1.11142-5.55706,1.11141a1.60112,1.60112,0,0,1-1.11142-.5557,32.07172,32.07172,0,0,0-3.33423-4.44565l2.22282-2.22282q-8.33559-10.55841-8.89129-11.66983L193.193,335.022q0-.55569-1.66712-1.66711-1.11141-.5557-2.77853.5557a33.11032,33.11032,0,0,1-4.44565,3.33424,6.99413,6.99413,0,0,0-2.77852,3.88994l-2.77853,2.77853q-4.44566-6.11277-5.00136-6.66847,2.77854-2.77854,5.00136-2.22283.55571.5557,1.66711,0,2.77854-2.2228,3.88994-3.33423.55572,0,1.66712-2.22282-5.00135-6.66848-6.11276-8.33559l-1.11141-.55571q-3.88995-1.11142-3.88995-2.77853h-1.66711a3.56019,3.56019,0,0,1-2.22283-3.33423l-.5557-.55571q-3.88994-1.11142-1.66712-5.00135a3.58006,3.58006,0,0,0,0-2.77853Q145.958,276.67285,139.2895,267.22586c-3.33424-4.44565-7.01615-8.923-9.75271-14.44835a28.17513,28.17513,0,0,1-2.22282-6.8913c-.14414-.75113-.55545-3.90767-.55545-3.90767a37.26822,37.26822,0,0,1,4.52827,1.74055,34.05992,34.05992,0,0,1,7.27989,5.19565c2.96376,2.96377,4.24229,3.86277,6.83558,7.197q2.77854,3.88994,31.67524,41.67794,1.11141,1.66712,2.22282,1.66712.55572-.55571,1.66712,1.11141a16.934,16.934,0,0,0,5.55706,3.88994,5.88858,5.88858,0,0,0,5.00135,0A34.20629,34.20629,0,0,0,202.64,297.78968q3.33423-2.77854,1.11141-5.55706a27.18667,27.18667,0,0,0-1.66712,2.77853,1.13212,1.13212,0,0,0-.27785-.83356l-.83356-.83356q-2.22282,3.33425-5.00135,3.33424,2.22282-3.88994.5557-7.22418a6.97219,6.97219,0,0,1-6.11276,3.33424,27.728,27.728,0,0,1-3.33424-.55571q4.44566-3.33423,2.77853-8.89129a23.22564,23.22564,0,0,1-1.11141-3.88994A4.83576,4.83576,0,0,1,189.303,274.45q2.22282-3.33423,3.88994-3.88994,3.88995-2.22281,23.89535-12.22553l.55571-.5557a7.79372,7.79372,0,0,0-.27786,3.88994,21.06258,21.06258,0,0,0,.55571,3.61209l1.11141,3.33423s.4631,1.204,1.38927,3.61209a27.18332,27.18332,0,0,0,2.77853-1.66712q1.66711-1.11141,3.05638-1.945a27.86624,27.86624,0,0,1,3.33423-1.66711,9.65273,9.65273,0,0,0,3.05639-1.945v8.8913q0,.55569-1.11142,1.11141a1.60109,1.60109,0,0,0-1.11141.55571,9.1063,9.1063,0,0,1-1.38926,1.11141,2.70088,2.70088,0,0,1-1.38927.5557,5.74561,5.74561,0,0,0-3.33423,5.55706,34.09187,34.09187,0,0,0,.27785,4.7235,2.017,2.017,0,0,1-1.38926,2.50068,82.2846,82.2846,0,0,1-7.22418,4.44565,10.74738,10.74738,0,0,1,1.38926,1.945,10.74818,10.74818,0,0,0,1.38927,1.945l-2.22282,1.11141a23.36105,23.36105,0,0,0-4.44565.83356q-3.33425.83355-5.00135,1.38926A40.57435,40.57435,0,0,0,189.303,313.90515q3.33423,4.44566,6.11276,7.77988,1.11143,0,6.66847-3.88994,1.11142-.55569,1.11141-1.11141,0-2.22282,2.77853-3.88994,0,.55569,1.945,3.05638a41.69448,41.69448,0,0,0,3.05639,3.61209q-2.77853,2.22282-4.44565,1.66712a1.60108,1.60108,0,0,0-1.11141.5557,25.12623,25.12623,0,0,0-3.33424,2.22283L198.75,326.40853l-.83356,2.22283q-.83357,2.2228.83356,1.945,4.44565,7.77989,6.11276,9.447,1.11142,1.66712,3.33424,4.7235a39.31652,39.31652,0,0,0,3.33423,4.16779q1.11142,2.22282,2.22283.55571A1.60105,1.60105,0,0,0,214.8655,348.91462Zm45.56787-2.77853q1.11142,10.0027,1.66712,11.66983a19.49987,19.49987,0,0,1-1.66712,12.22552q-.55569,1.66713-10.55841,21.67253-.5557-1.11141-1.66712-3.05638t-1.66712-3.05638Q240.428,373.36569,240.428,372.81q-4.44564-7.77989-2.77853-17.78258.55571-.55571,2.77853-15.55977v-.5557q4.44564,5.00135,5.55706,6.11276a26.324,26.324,0,0,1,3.88994,7.22418,14.834,14.834,0,0,1,1.945-5.00136,27.40981,27.40981,0,0,1,3.88994-4.7235,17.99783,17.99783,0,0,0,3.05638-3.61208,4.24942,4.24942,0,0,1,.83356,2.22282,17.464,17.464,0,0,1,.27785,2.77853A4.93229,4.93229,0,0,0,260.43337,346.13609ZM300.9999,165.53168q4.44565-6.66846,13.33694-8.33558a10.45092,10.45092,0,0,0,6.11276-2.77853q.55574-.55571,5.00136-4.44565t6.66847-6.11277q0-.55569,5.55706-7.22417a41.78015,41.78015,0,0,1,2.77853,7.22417q1.66713,8.33559-2.22283,14.44836a37.29878,37.29878,0,0,1-5.55706,6.66847,106.44508,106.44508,0,0,1-8.33558,7.22417,24.792,24.792,0,0,1-8.8913,3.33424q-.55569,0-25.00676,4.44565a16.24615,16.24615,0,0,0,1.38926-1.66712A16.2449,16.2449,0,0,1,293.22,176.6458Q300.44422,166.08739,300.9999,165.53168Zm-134.48081-.5557q-11.11412-8.89129-6.66847-24.45106l1.66711-4.44565q5.00136,7.77988,19.44971,20.00541a3.21806,3.21806,0,0,0,2.22282.55571,25.36858,25.36858,0,0,1,9.447,3.33423,20.18008,20.18008,0,0,1,5.00136,4.44565q1.11141,2.22282,10.55841,14.44835l.5557,1.11142q-5.00135-.55572-12.78123-2.22283-10.55841-2.22282-12.78124-2.22282a16.90112,16.90112,0,0,1-8.89129-4.44565Q172.07615,169.42163,166.51909,164.976ZM348.7906,208.321q4.44566-.55572,26.67389-3.88995h2.22282a25.5412,25.5412,0,0,1-8.89129,8.8913,51.45019,51.45019,0,0,1-23.89536,8.33559q-1.1114,0-24.45106,1.11141a18.14908,18.14908,0,0,1-5.2792.5557,12.65306,12.65306,0,0,0-4.7235.55571h-1.66712l5.55706-4.44565q9.447-7.22418,17.78259-8.89129Q341.01074,209.43245,348.7906,208.321ZM189.303,223.8808q-31.67523-1.66711-35.00947-2.22282-16.67118-1.66713-27.7853-11.66983l-4.44564-5.00135v-.55571q11.11411,1.11141,11.66982,1.66712,3.88995.55572,9.447,1.11141t10.55841,1.38927q5.00136.83355,9.447,1.38926,12.22554,1.66711,20.00541,7.77989.55572.5557,7.22418,5.557Zm190.6071-39.45512a23.4076,23.4076,0,0,1,.55571,13.33694,3.34,3.34,0,0,1-2.22282,2.22283q-7.77987,1.11141-43.34506,6.66847h-.55571q9.447-6.66848,17.22688-11.66983,2.77854-1.66711,6.11277-3.61208t7.502-4.44565q4.16781-2.50068,6.39062-3.61209a10.62874,10.62874,0,0,0,4.44564-6.11276v-1.66712h.55571A92.69382,92.69382,0,0,1,379.91013,184.42568ZM165.40768,206.09821a.49118.49118,0,0,1-.55571-.5557q-15.55977-10.0027-35.56518-21.11683-5.55705-3.33423-5.55706-8.89129h-.5557v.55571a12.861,12.861,0,0,1-1.66712,2.77852q-4.44564,10.00271-2.22282,18.894a2.179,2.179,0,0,0,1.66712,2.22283q12.78123,1.66711,31.67523,4.44564Q153.18215,204.43109,165.40768,206.09821ZM236.538,333.35486a6.01629,6.01629,0,0,1,1.66711,5.55706q-.55569,1.66711-4.44564,20.56111l-1.11141-.5557a16.24379,16.24379,0,0,1-1.38927-1.66712,12.5643,12.5643,0,0,1-1.11141-1.66712,5.96021,5.96021,0,0,0-1.11141-1.38926l-1.38927-1.38927q-8.89128-11.11413-1.11141-22.22823.5557-1.11142,13.33694-17.78259-2.22281,5.55705-5.00135,13.33694a7.03455,7.03455,0,0,0,.5557,6.11276Zm27.78528-14.44836q2.77854,3.88994,7.77988,10.00271,9.447,12.22553-.5557,23.89535a8.70743,8.70743,0,0,1-1.66712,2.22283,30.314,30.314,0,0,0-2.22282,2.50067,14.571,14.571,0,0,0-1.66712,2.50068q-3.33423-13.89264-3.33424-14.72621a11.95275,11.95275,0,0,0-.27785-2.22282q-.27786-1.38925-.5557-2.50068a9.13363,9.13363,0,0,1-.27786-2.22282,6.01621,6.01621,0,0,1,1.11141-5.00135,6.4645,6.4645,0,0,0,1.11142-1.66712,5.03485,5.03485,0,0,0,1.11141-5.55706,128.93692,128.93692,0,0,1-5.00136-13.33694Q263.7676,318.35079,264.32331,318.9065Zm35.56518-173.38023q0,15.00406-1.11141,18.3383a11.926,11.926,0,0,1-2.22283,3.88994q-1.66712,2.77853-11.66982,16.67117h-.55571q.5557-13.89264.55571-15.00406a17.74288,17.74288,0,0,1,3.33423-7.77988Q289.33009,159.41892,299.88849,145.52627Zm-89.46864,15.00406a18.26574,18.26574,0,0,1,4.44565,13.33694v10.55841a16.55667,16.55667,0,0,1-1.66712-2.22282,16.55491,16.55491,0,0,0-1.66712-2.22282q-7.22416-9.447-7.77988-10.55842a25.2222,25.2222,0,0,1-4.44565-12.78123q0-5.00136.55571-11.11412l.55571.55571q1.11141,1.66712,3.05638,4.44564t3.88994,5.27921A28.79555,28.79555,0,0,1,210.41985,160.53033ZM227.091,293.89974l-.55571-1.11141q-.55569-7.22416-.5557-9.447a5.45827,5.45827,0,0,1,2.77852-5.00135q3.88995-2.22282,9.447-5.55706l1.11142-.55571v12.22553a3.74,3.74,0,0,1-1.66712,3.33424,22.40141,22.40141,0,0,1-3.61209,1.945,20.84218,20.84218,0,0,0-3.88994,2.22282A25.04857,25.04857,0,0,1,227.091,293.89974Zm32.78663-21.67253,1.11142.55571q1.11141.55569,4.44564,2.50067t5.00136,3.05639q2.77853,1.66711,2.77853,3.88994v11.66982q-10.55841-5.55705-11.11412-6.11276a3.56019,3.56019,0,0,1-2.22283-3.33424Zm28.341,42.23365h-8.33558a13.75911,13.75911,0,0,1-5.00136-2.77853q-.55569-.5557-7.77988-6.66847h7.77988a13.75881,13.75881,0,0,1,5.00136,2.77853Q280.99449,308.34808,288.21866,314.46086Zm-58.3491-7.22418a43.439,43.439,0,0,1-5.55706,4.44565,6.84231,6.84231,0,0,1-5.55706,2.77853h-7.22418v-.55571q7.7799-6.11277,8.8913-7.22418a13.08178,13.08178,0,0,1,5.00135-1.66711h7.22418A33.63072,33.63072,0,0,0,229.86956,307.23668Zm-5.55706,15.55977q.55571-10.55841,5.55706-13.89265.5557,0,6.66847-5.55706-.5557,6.11277-.55571,6.66847a11.92626,11.92626,0,0,1-2.22282,3.88994Q232.64809,315.01658,224.3125,322.79645Zm45.01216-5.55706q-5.55705-3.33424-6.11276-11.11412a16.70755,16.70755,0,0,0-.55571-2.77853,37.357,37.357,0,0,1,5.00136,3.88994q2.77854,2.77854,3.33423,2.77853A9.153,9.153,0,0,1,274.326,316.128l1.11141,6.66848a6.4645,6.4645,0,0,0-1.66712-1.11142l-2.77853-2.77853Zm-56.682-195.60847q1.11142.5557,5.00136-.55571a2.77854,2.77854,0,0,0-3.33424,0A4.26506,4.26506,0,0,1,212.64267,121.63092Zm70.01894-.55571q3.88992,1.11142,5.00135.55571a4.26515,4.26515,0,0,1-1.66712-.55571,2.77855,2.77855,0,0,0-3.33423,0Z" style="fill: #fff;opacity: 0.2"/>
        <g>
          <rect class="square square2" data-name="square square2" x="156.43842" y="156.43842" width="187.12315" height="187.12315" style="fill: none;stroke: #fff;stroke-miterlimit: 10;opacity: 0.2"/>
          <rect class="square square1" data-name="square square1" x="156.43842" y="156.43842" width="187.12315" height="187.12315" style="fill: none;stroke: #fff;stroke-miterlimit: 10;opacity: 0.2"/>
        </g>
        <circle cx="250" cy="265" r="106.30131" style="fill: none;stroke: #d30f08;stroke-miterlimit: 10;stroke-width: 5px"/>
        <g>
          <g class="chevron chevron4" data-name="chevron chevron4">
            <polyline points="248.694 347.707 185.882 271.711 185.882 245.201 248.694 321.196 248.694 347.707"/>
            <polygon points="314.11 245.201 251.298 321.196 251.298 347.707 314.11 271.711 314.11 245.201"/>
          </g>
          <g class="chevron chevron4 ani" data-name="chevron chevron4 ani">
            <polyline points="248.694 347.707 185.882 271.711 185.882 245.201 248.694 321.196 248.694 347.707" style="fill: #fff"/>
            <polygon points="314.11 245.201 251.298 321.196 251.298 347.707 314.11 271.711 314.11 245.201" style="fill: #fff"/>
          </g>
          <g class="chevron chevron3" data-name="chevron chevron3">
            <polygon points="314.11 218.69 251.298 294.685 251.298 321.196 314.11 245.201 314.11 218.69" style="fill: #8e1e1d"/>
            <polygon points="185.882 245.201 248.694 321.196 248.694 294.685 185.882 218.69 185.882 245.201" style="fill: #8e1e1d"/>
          </g>
          <g class="chevron chevron3 ani" data-name="chevron chevron3 ani">
            <polygon points="314.11 218.69 251.298 294.685 251.298 321.196 314.11 245.201 314.11 218.69" style="fill: #fff"/>
            <polygon points="185.882 245.201 248.694 321.196 248.694 294.685 185.882 218.69 185.882 245.201" style="fill: #fff"/>
          </g>
          <g class="chevron chevron2" data-name="chevron chevron2">
            <polygon points="314.11 192.18 251.298 268.175 251.298 294.685 314.11 218.69 314.11 192.18" style="fill: #d30f08"/>
            <polygon points="185.882 218.69 248.694 294.685 248.694 268.175 185.882 192.18 185.882 218.69" style="fill: #d30f08"/>
          </g>
          <g class="chevron chevron2 ani" data-name="chevron chevron2 ani">
            <polygon points="314.11 192.18 251.298 268.175 251.298 294.685 314.11 218.69 314.11 192.18" style="fill: #fff"/>
            <polygon points="185.882 218.69 248.694 294.685 248.694 268.175 185.882 192.18 185.882 218.69" style="fill: #fff"/>
          </g>
          <g class="chevron chevron1" data-name="chevron chevron1">
            <polygon points="314.11 155.485 251.298 231.48 251.298 268.583 314.11 192.587 314.11 155.485" style="fill: #fff"/>
            <polygon points="185.882 192.587 248.694 268.583 248.694 231.48 185.882 155.485 185.882 192.587" style="fill: #fff"/>
          </g>
          <polygon points="283.47 146.303 249.996 186.802 216.522 146.303 185.882 146.303 185.882 146.334 249.996 223.905 314.11 146.334 314.11 146.303 283.47 146.303" style="fill: #fff"/>
        </g>
      </g>
    </g>
  </g>
</svg>
