<svg xmlns="http://www.w3.org/2000/svg" viewBox="0 0 204.40449 204.40449">
  <g class="Layer_2" data-name="Layer 2">
    <g class="Layer_3" data-name="Layer 3">
      <rect class="orange" x="55.21411" y="54.78736" width="93.97648" height="93.97648" transform="translate(101.90059 -42.45859) rotate(45)" style="fill: #cc3c1d;opacity: 0.8"/>
      <g class="orange-border" style="opacity: 0.2">
        <path d="M102.20234,36.7384l65.03724,65.0372-65.03724,65.03721L37.16514,101.7756l65.0372-65.0372m0-1.4142-66.4514,66.4514,66.4514,66.4514,66.45142-66.4514L102.20234,35.3242Z" style="fill: #fff"/>
      </g>
      <rect class="square" x="45.66131" y="45.66111" width="113.08208" height="113.08208" transform="translate(102.20221 -42.33365) rotate(45)" style="fill: none;stroke: #fff;stroke-miterlimit: 10;stroke-width: 0.75px;opacity: 0.15"/>
      <polygon class="polygon inner ani" points="129.91 34.893 74.494 34.893 35.309 74.078 35.309 129.494 74.494 168.679 129.91 168.679 169.096 129.494 169.096 74.078 129.91 34.893" style="fill: none;stroke: #fff;stroke-miterlimit: 10;stroke-width: 0.75px;opacity: 0.4"/>
      <polygon class="polygon inner" points="129.91 34.893 74.494 34.893 35.309 74.078 35.309 129.494 74.494 168.679 129.91 168.679 169.096 129.494 169.096 74.078 129.91 34.893" style="fill: none;stroke: #fff;stroke-miterlimit: 10;stroke-width: 0.75px;opacity: 0.4"/>
      <polygon class="polygon outer" points="135.7 21.241 68.704 21.241 21.331 68.614 21.331 135.61 68.704 182.984 135.7 182.984 183.074 135.61 183.074 68.614 135.7 21.241" style="fill: none;stroke: #fff;stroke-miterlimit: 10;stroke-width: 0.75px;opacity: 0.15"/>
    </g>
    <g class="supremacy">
      <path d="M143.57329,107.51476a2.1264,2.1264,0,0,0,2.14568-.21523,12.3882,12.3882,0,0,0,3.35788-3.95991c-1.12177.08788-1.96166.11854-2.79272.22637-1.53972.19974-2.95938.64787-3.68072,2.3461-.02619.06174-.15741.07218-.34571.15073.17231-.82464.32462-1.5874.49169-2.34644.34144-1.55105.64249-1.80449,2.04175-1.37149a2.03107,2.03107,0,0,0,2.09592-.47355,11.08714,11.08714,0,0,0,2.861-4.351c-1.1204.24544-2.03858.3901-2.92575.65413-1.33006.39586-2.62262.87468-3.05669,2.5573a.44157.44157,0,0,1-.68991.313c.07085-.38854.14143-.77711.2058-1.16694a7.7791,7.7791,0,0,0,.23378-1.13976c.16583-1.46755.42953-1.82108,1.75917-1.62385a2.21668,2.21668,0,0,0,2.22136-.96163,11.48729,11.48729,0,0,0,1.92389-3.93855,10.01866,10.01866,0,0,0-3.53419,1.26547,2.78132,2.78132,0,0,0-1.58148,1.98757c-.0772.4795-.29306.65773-.57192.66675.03308-.51516.04508-1.03171.0324-1.54809a.2446.2446,0,0,0-.00938-.05608c.02371-.34475.02481-.68936.03626-1.03356.04314-1.28465.32476-1.63712,1.54082-1.55262a2.174,2.174,0,0,0,2.12873-1.17019,11.14652,11.14652,0,0,0,1.54013-4.32417c-.919.43841-1.6194.72793-2.28063,1.0977-1.22061.68256-2.40924,1.40583-2.56377,3.1283a.76831.76831,0,0,1-.56406.5105.32976.32976,0,0,1-.08491-.01319V88.03584a.217.217,0,0,0-.00744-.05767c.05376-.92756.30932-1.1093,1.429-1.1877a2.01475,2.01475,0,0,0,1.72443-1.11078,10.04943,10.04943,0,0,0,1.22668-4.78693c-.99235.65858-1.85056,1.162-2.63958,1.769A3.451,3.451,0,0,0,143.55,85.6079c.00744.235-.23654.48094-.5023.84391a10.1245,10.1245,0,0,0-.41877-3.19828,1.0847,1.0847,0,0,1,1.11543-1.21327,1.94183,1.94183,0,0,0,1.64062-1.44038,10.51673,10.51673,0,0,0,.57991-4.00665,9.5287,9.5287,0,0,0-2.35341,1.84625,2.95334,2.95334,0,0,0-1.109,2.6188.61054.61054,0,0,1-.20608.60072,16.914,16.914,0,0,0-.946-2.86956,1.83116,1.83116,0,0,1,1.27988-1.1045,1.97706,1.97706,0,0,0,.927-.6142,6.12405,6.12405,0,0,0,.42249-4.94688c-.72424.78269-1.4595,1.48546-2.0882,2.28477a2.47968,2.47968,0,0,0-.68468,2.46525.535.535,0,0,1-.29457.71389c-.16665-.35683-.32352-.71884-.45833-1.09089a10.6947,10.6947,0,0,0-.56392-1.46444,1.28088,1.28088,0,0,1,.96008-1.22716,1.79485,1.79485,0,0,0,1.284-1.45382,8.70746,8.70746,0,0,0-.13922-4.17336c-.69322.83641-1.2956,1.46174-1.78233,2.17744a2.88827,2.88827,0,0,0-.67143,2.77321c.06147.16918-.06989.41983-.213.76414-.1242-.36282-.25791-.72176-.413-1.071-.22716-.51142-.52987-.99143-.71141-1.52451a.12435.12435,0,0,0-.01737-.03166,1.18269,1.18269,0,0,1,.767-1.08953,1.94038,1.94038,0,0,0,1.11033-1.93333,6.58544,6.58544,0,0,0-.60775-3.35653c-1.05506,1.67293-2.54295,2.965-1.73408,5.17181-.07747.04316-.14529.08121-.207.11546a7.26919,7.26919,0,0,1-.51278-1.00932.11939.11939,0,0,0-.01241-.02216.84812.84812,0,0,1-.0102-.30984c.40416-1.65057-.42746-2.67711-1.56178-3.53022-.68343-.514-1.40215-.97407-2.26036-1.56537a7.46942,7.46942,0,0,0,1.26747,4.41717c.60583.91783,1.52566.95305,2.42937,1.18507a6.68222,6.68222,0,0,0,.47377.93509c-.29471.15016-.37011.125-.55482-.08446a2.02111,2.02111,0,0,0-1.782-.7188c-.95995.08753-1.91342.25471-3.18806.43217a9.67677,9.67677,0,0,0,2.78018,2.03053,1.6872,1.6872,0,0,0,2.09881-.23032,1.08562,1.08562,0,0,1,1.39085-.18688c.18333.508.46839.97089.68646,1.46192.17438.3923.32256.79661.45792,1.206-.00634.01818-.01309.035-.0193.05361-1.65647-2.20711-3.60917-1.82928-5.955-1.31561,1.05244.86652,1.82395,1.584,2.67183,2.17585a1.85615,1.85615,0,0,0,2.4783.02361.97221.97221,0,0,1,1.30208-.05723.2432.2432,0,0,0,.03019.106,10.33084,10.33084,0,0,1,.61313,1.59256c.11551.31029.24563.61347.3832.91289-.05555.02088-.114.04013-.17465.05808a3.85857,3.85857,0,0,0-2.46424-1.71641,7.27532,7.27532,0,0,0-3.16021.16342,18.01038,18.01038,0,0,0,2.456,2.52415,1.7903,1.7903,0,0,0,2.35617.19312,1.37605,1.37605,0,0,1,1.41235-.07626.1548.1548,0,0,0,.00689.02764q.30147.68522.53952,1.39682l.01379.09266.01571-.00591q.23365.7086.40334,1.43894a1.2066,1.2066,0,0,1-.335.10116c-.59369-.86419-1.15623-1.84384-2.28683-1.9991a7.09359,7.09359,0,0,0-3.35086-.18614c.85436,1.01342,1.527,1.90969,2.29759,2.69584a1.94251,1.94251,0,0,0,2.4437.53854,1.05417,1.05417,0,0,1,1.5972.55111,10.15213,10.15213,0,0,1,.37191,3.161c-.71693-1.27046-1.21014-2.44567-2.44922-2.79016a7.53353,7.53353,0,0,0-3.69753-.61628c.74656,1.12888,1.34467,2.14895,2.05264,3.072a2.43234,2.43234,0,0,0,2.96034,1.08015c.98021-.3445,1.462.11682,1.59293,1.24692v2.459a.7455.7455,0,0,1-.33179-.39363c-.33207-1.6355-1.56123-2.18564-2.79562-2.69226a3.92331,3.92331,0,0,0-2.53868-.51836c.608,1.17643,1.09076,2.26877,1.70954,3.2639a2.40161,2.40161,0,0,0,2.84649,1.375c.94892-.25475,1.33019.21422,1.36907,1.33985.01213.35018.01309.70088.01116,1.05166a.245.245,0,0,0-.01351.07847q.01882.7647-.03184,1.52761a1.68715,1.68715,0,0,1-.3788-.1268c-.6032-2.35168-2.25237-3.76424-4.97245-4.24551a10.877,10.877,0,0,0,1.53683,4.0055,2.15657,2.15657,0,0,0,2.25554,1.16243c1.05823-.1605,1.40339.35185,1.29808,1.55446-.02922.33339-.06534.66609-.10118.9988a.17956.17956,0,0,0-.04094.08855c-.077.47741-.165.95264-.25184,1.42811-.37245-.10626-.3686-.463-.44827-.83631a4.50225,4.50225,0,0,0-.63394-1.76014,9.77514,9.77514,0,0,0-3.99818-2.87014,11.56154,11.56154,0,0,0,1.83457,5.73987c.58529.13118,1.16754.28242,1.75683.389,1.00281.18145,1.28.54937,1.07325,1.60589-.1763.9011-.41257,1.7887-.65627,2.82687-.1821-.28494-.34117-.42219-.32284-.52193.30547-1.66153-.57039-2.7346-1.5852-3.7485a3.8933,3.8933,0,0,1-.345-.46276l-2.35093-1.579c.18512,1.46558.25363,2.61606.48921,3.7258.32572,1.53487.89847,2.87895,2.68548,2.99463a.91909.91909,0,0,1,.91763,1.10387,6.45851,6.45851,0,0,1-1.28292,3.03791,4.18964,4.18964,0,0,0-.81479-3.66273,8.98967,8.98967,0,0,0-2.83656-2.71185c0,1.22422-.066,2.27854.015,3.31974.13082,1.68357.54173,3.15711,2.43268,3.55089a.92715.92715,0,0,1,.70452,1.3755c-.4247,1.00712-.94286,1.96884-1.56784,3.24955a15.00119,15.00119,0,0,0-.04521-3.10063,7.88306,7.88306,0,0,0-1.20132-2.36116c-.49375-.74976-1.11323-1.40434-1.795-2.24508a13.03305,13.03305,0,0,0-.43394,5.02734,2.5756,2.5756,0,0,0,1.641,2.40512,1.63952,1.63952,0,0,1,1.19759,1.4465c-.63836.99506-1.31186,2.04489-1.98537,3.0947l-.32063-.04221c1.462-3.23222-.46729-5.29532-2.00012-7.76594a13.417,13.417,0,0,0-1.01039,4.947,2.79944,2.79944,0,0,0,1.36686,2.61418,7.32881,7.32881,0,0,1,1.23053,1.19836,10.05607,10.05607,0,0,1-2.65832,2.90149,4.50114,4.50114,0,0,0,.41174-3.8848,15.562,15.562,0,0,0-1.75131-3.84034,13.60915,13.60915,0,0,0-1.494,5.01842,2.65889,2.65889,0,0,0,1.03756,2.48147,7.584,7.584,0,0,1,1.11447,1.37742c-.78668.77587-1.42476,1.43695-2.09716,2.05513a11.34175,11.34175,0,0,1-1.09449.80879c.0874-.29765.16238-.60071.27156-.88889a6.55615,6.55615,0,0,0,.63187-1.629,12.46625,12.46625,0,0,0-1.34853-5.98943,15.4173,15.4173,0,0,0-2.22232,4.74949,2.85605,2.85605,0,0,0,.7689,3.14131,2.79411,2.79411,0,0,1,.53552.69418.97581.97581,0,0,1-.25694,1.43423q-1.43992,1.03448-2.87419,2.07766c.32628-.96478.98048-1.7257,1.20159-2.611a9.12189,9.12189,0,0,0,.0357-2.991c-.09139-.95942-.35909-1.89952-.59535-3.07792a13.87405,13.87405,0,0,0-2.93829,4.69746,2.78844,2.78844,0,0,0,.44469,2.94863,7.53612,7.53612,0,0,1,.77716,1.691l-3.83289,2.06856-.26108-.19593c2.92519-2.1235,2.14238-5.14972,1.98758-8.38009-1.67247,1.59779-3.08316,3.01987-3.79582,5.07024a2.35355,2.35355,0,0,0,.295,2.14677,1.89713,1.89713,0,0,1,.27927,1.92841,14.62761,14.62761,0,0,1-3.78107,1.29324,9.55673,9.55673,0,0,0,1.83113-1.96393,12.55821,12.55821,0,0,0,.92438-6.03658,15.17042,15.17042,0,0,0-3.69781,3.35934,3.15752,3.15752,0,0,0-.51567,3.48181c.55647,1.24006.33523,1.56122-.8942,1.87832-2.23707.57694-8.48762,2.36174-8.74732,2.37017-.50078.01625-7.03322-1.92888-10.11583-2.72843a7.13543,7.13543,0,0,1,.33262-1.66395,2.62039,2.62039,0,0,0-.32587-2.9555,32.393,32.393,0,0,0-2.714-2.836c-.31249-.30336-.64346-.70445-1.20614-.65781a15.40718,15.40718,0,0,0,.43959,4.547,3.43859,3.43859,0,0,0,1.99488,2.72928c.11551.04459.18071.23878.26921.36354l-.1315.19934c-1.22378-.44787-2.44743-.89576-3.6038-1.319a2.17953,2.17953,0,0,1,.34364-2.11157,2.31747,2.31747,0,0,0,.18182-2.15573c-.72341-1.99381-2.14527-3.341-3.65673-4.8825a14.87664,14.87664,0,0,0-.10945,5.35715,3.23455,3.23455,0,0,0,1.38092,2.34847,2.63347,2.63347,0,0,1,.51085.58426,11.29116,11.29116,0,0,1-4.0176-2.03351c.36859-.65742.6407-1.22516.98558-1.73651a2.422,2.422,0,0,0,.44152-1.97768,13.40781,13.40781,0,0,0-3.08606-5.4784,17.99035,17.99035,0,0,0-.73484,5.29272,3.37637,3.37637,0,0,0,1.07146,2.52976,2.78072,2.78072,0,0,1,.43765.76837,16.52434,16.52434,0,0,1-2.9522-1.89876c-.65545-.5131-.69267-.94-.22469-1.65541a3.91567,3.91567,0,0,1,.57247-.66383,2.62219,2.62219,0,0,0,.70659-2.61358,14.24294,14.24294,0,0,0-2.29222-5.08407,13.73819,13.73819,0,0,0-1.43482,5.41867,3.006,3.006,0,0,0,.64015,2.10594,4.3516,4.3516,0,0,1,.4156.81256l-.24164.20472c-.9831-.95139-1.96621-1.90279-3.07861-2.97935a11.4067,11.4067,0,0,1,1.23729-1.4056,2.4535,2.4535,0,0,0,.9656-2.068,12.80451,12.80451,0,0,0-1.62257-5.56958c-.64869,1.64071-1.24059,2.94878-1.68059,4.31318a3.21147,3.21147,0,0,0,.32035,3.02487c.11882.16251.05582.4778.10448,1.044-.98558-1.24465-1.76523-2.22944-2.66328-3.36351a9.29594,9.29594,0,0,1,1.33846-1.22256,2.63188,2.63188,0,0,0,1.28581-2.20638,13.21958,13.21958,0,0,0-.94-5.271,13.42237,13.42237,0,0,0-2.44659,4.411,2.86345,2.86345,0,0,0,.10752,2.33326,3.53022,3.53022,0,0,1,.20456.90477l-.2524.11875c-.69253-1.10383-1.38492-2.20766-2.18014-3.47535a8.634,8.634,0,0,1,1.46253-1.07933A2.45994,2.45994,0,0,0,69.861,113.4612a12.52234,12.52234,0,0,0-.34709-5.338,12.05989,12.05989,0,0,0-2.994,4.28925,2.52365,2.52365,0,0,0-.06327,2.05132,4.33315,4.33315,0,0,1,.08905,1.19348,5.30678,5.30678,0,0,1-.42057-.542c-.314-.61842-.63077-1.23584-.92272-1.86627-.67861-1.46486-.57151-1.81445.8618-2.27991a2.27085,2.27085,0,0,0,1.57666-1.572,10.08866,10.08866,0,0,0,.26342-5.1678,10.44389,10.44389,0,0,0-3.30385,3.76152,2.25975,2.25975,0,0,0-.19863,1.88883c.07774.20457-.04673.49745-.07844.74987a8.7344,8.7344,0,0,1-1.05781-2.31281c-.38983-1.21509-.17562-1.65618,1.02873-1.88034a2.175,2.175,0,0,0,1.64806-1.01451A10.59644,10.59644,0,0,0,67.06149,99.832c-.88041.59978-1.54661,1.0536-2.21281,1.50742-.347.403-.71762.78579-1.0359,1.21332a2.96853,2.96853,0,0,0-.87614,2.71323c.05183.18551-.11317.44072-.38872.67061-.27169-1.1352-.54324-2.2704-.79729-3.33165a1.51,1.51,0,0,1,1.39705-.97368c.54448-.08657,1.07739-.25684,1.6154-.39029a11.17942,11.17942,0,0,0,1.80231-5.70435,11.28274,11.28274,0,0,0-3.5907,2.37234,2.95646,2.95646,0,0,0-1.0552,2.36106c.01185.20188-.24288.42173-.42911.637l-.00041-.00174-.0171-.064q-.01963-.07479-.03735-.1501-.06844-.29059-.10945-.58733a.33145.33145,0,0,0-.03915-.10919c-.06768-.5589-.1326-1.118-.166-1.67925-.06686-1.12642.25363-1.41935,1.29752-1.44961a3.00263,3.00263,0,0,0,1.45412-.28c1.11847-.69076,2.25693-3.43855,2.13438-5.105-1.13239.63445-2.23142,1.19039-3.271,1.85352a2.571,2.571,0,0,0-1.30277,2.03929c-.02867.45242-.22192.77341-.604.73953l-.00014-.02553q-.00019-.26629-.00027-.53259a.22155.22155,0,0,0-.02426-.09717.08307.08307,0,0,0,.00606-.02742c.009-.55339.00938-1.107.01641-1.66047.01957-1.54457.24853-1.72266,1.65261-1.62807a2.40027,2.40027,0,0,0,1.57818-.34305,8.94756,8.94756,0,0,0,2.61339-4.62913c-2.23019.86566-4.5224.8936-5.28026,3.6116-.06617.23743-.25129.49617-.49941.4529.00565-.03148.0102-.0631.01681-.09436l.00759-.03469c.00868-.03389.01736-.06773.02674-.10142a.50162.50162,0,0,0,.01337-.2327.38908.38908,0,0,0-.05817-.13485,3.63463,3.63463,0,0,0,.16348-1.56157c.107-1.63731.49335-2.01934,1.92182-1.62057a1.78015,1.78015,0,0,0,1.61058-.20716,9.17954,9.17954,0,0,0,2.97054-4.1626,9.65749,9.65749,0,0,0-3.99569.97551,2.533,2.533,0,0,0-1.43565,1.56763,3.306,3.306,0,0,1-.69942.90882c.13977-.93787.29264-1.87344.46591-2.80491a.17772.17772,0,0,0-.02122-.12388c.65145-.97511.75442-1.04926,1.6329-.66908a2.03237,2.03237,0,0,0,2.44756-.5586c.77069-.78509,1.44268-1.68161,2.15767-2.52969q-.091-.20606-.18181-.41207c-1.01178.14106-2.02245.29162-3.03547.42072-1.15817.14753-1.64076,1.24836-2.513,2.15985a22.83064,22.83064,0,0,1,.79454-2.96973c.71058-.49616.79922-.49871,1.49285-.12525a1.79022,1.79022,0,0,0,1.752.132,8.662,8.662,0,0,0,3.23782-3.16c-2.27843.07522-4.38551-.4567-5.77429,1.91929-.08519-.07682-.15949-.14391-.22524-.204.2761-.78852.64553-1.53784.903-2.33486a.23423.23423,0,0,0,.00744-.03828c.46757-.42382.88538-.57287,1.33475-.18448,1.05561.91248,2.035.49114,2.96144-.19478.71555-.52971,1.3608-1.16834,2.25431-1.94785-2.31827-.50152-4.27745-.87347-6.01015,1.45586l-.00069-.004c.49279-.93513.9004-1.92317,1.3251-2.89454a1.07478,1.07478,0,0,1,1.30456.24732,1.462,1.462,0,0,0,1.56591.40043,7.10129,7.10129,0,0,0,3.099-2.10421c-.30877-.10382-.47694-.17823-.652-.21636-1.51657-.33045-3.04719-.82724-4.384.57268-.04838.05058-.18292.00672-.34268-.05778a5.16315,5.16315,0,0,1,.53676-.95058,2.05773,2.05773,0,0,1,.53332-.15192,2.87845,2.87845,0,0,0,2.42771-2.01026,5.993,5.993,0,0,0,.64112-3.451c-.93679.68673-1.76248,1.24873-2.543,1.87558a2.793,2.793,0,0,0-1.22447,2.96529,1.79885,1.79885,0,0,1-.034.65866,5.36128,5.36128,0,0,0-.5329.98378c-.07444-.03048-.14929-.05985-.22-.0818.87806-2.32611-.60831-3.61859-1.6522-5.18917a6.65632,6.65632,0,0,0-.534,3.89063,1.763,1.763,0,0,0,1.03548,1.32906,1.25586,1.25586,0,0,1,.77937,1.21844c-.38307.87927-.75552,1.76928-1.19318,2.61969a2.51389,2.51389,0,0,1-.1355-1.06644,2.23,2.23,0,0,0-.22193-1.73192,9.88158,9.88158,0,0,0-2.45541-3.07747c-.046,1.31206-.14584,2.33838-.10049,3.35727a2.2736,2.2736,0,0,0,1.57873,2.38533.96918.96918,0,0,1,.67805,1.27593c-.25666.78446-.61906,1.52392-.89144,2.30114-.31911-.30408-.314-.36545-.30725-.62589a3.492,3.492,0,0,0-.0131-1.15888,8.23413,8.23413,0,0,0-2.986-3.59819,9.24769,9.24769,0,0,0,.16679,3.964A1.97953,1.97953,0,0,0,61.94375,77.756a1.17642,1.17642,0,0,1,.98159,1.42719,23.26227,23.26227,0,0,0-.7019,2.67242c-.12972-.38011-.23172-.6577-.3045-.94215a5.77239,5.77239,0,0,0-.33193-1.41537,7.81638,7.81638,0,0,0-3.24871-2.91047,13.6936,13.6936,0,0,0,.7325,4.1435c.297.66413.68605,1.20426,1.44213,1.27183.88951.07955,1.32151.57944,1.26444,1.55651a.1205.1205,0,0,0-.05789.09639c-.17727.95335-.33372,1.9109-.47584,2.871a3.8184,3.8184,0,0,1-.38734-1.12264,2.80134,2.80134,0,0,0-.78337-1.879,10.67458,10.67458,0,0,0-3.72841-2.5761c.32765,1.37709.51926,2.50568.87007,3.57433.42084,1.28229,1.05616,2.33158,2.60277,2.29061.81246-.02154,1.10869.37154,1.087,1.24633a26.18963,26.18963,0,0,1-.26838,2.609.25338.25338,0,0,0-.019.0385c-.02633.09414-.04163.18983-.06051.285a4.47507,4.47507,0,0,1-.39176-.60234,6.11956,6.11956,0,0,0-.64993-1.45184,8.68094,8.68094,0,0,0-4.07647-2.35145A10.9582,10.9582,0,0,0,56.653,90.27893a2.47028,2.47028,0,0,0,2.58293,1.65826c.99275-.10737,1.32923.33134,1.38616,1.43414.03749.72933.007,1.46265.007,2.40739l.01516-.028.00014.31593a1.81438,1.81438,0,0,1-.54435-.60013,7.12107,7.12107,0,0,0-.89019-1.46491,8.7948,8.7948,0,0,0-4.25622-1.80243,12.41418,12.41418,0,0,0,1.9538,3.96117,2.22042,2.22042,0,0,0,2.22729.953c1.32289-.19183,1.63855.16451,1.75062,1.63208a11.34007,11.34007,0,0,0,.0936,1.33183.593.593,0,0,0-.0051.19617,6.6917,6.6917,0,0,0,.17906.85274c-.26687.04812-.42277-.2166-.5682-.499a5.64026,5.64026,0,0,0-5.92826-2.74842c.6651,1.04555,1.24611,2.08038,1.94029,3.01895.85546,1.15655,1.8416,1.953,3.40172,1.34834.88179-.34168,1.25659.00981,1.51463,1.00463.23351.90021.42029,1.81432.62775,2.72231l-.23448.23558A3.478,3.478,0,0,0,59.25,103.791a8.40607,8.40607,0,0,0-3.87811-.24236c.75084.98041,1.33378,1.82947,2.0015,2.59339,1.08566,1.24221,2.28642,2.12562,3.97391,1.16706a.8361.8361,0,0,1,1.29449.46971c.3788.99792.69832,2.02174,1.04293,3.03457-1.896-2.50878-4.33768-1.93353-6.76884-1.62493a16.87287,16.87287,0,0,0,2.25155,2.49594c1.14094,1.0204,2.35162,1.6744,3.83193.59529a.90908.90908,0,0,1,1.45922.35394c.48755.99147.931,2.008,1.39319,3.01382a2.30958,2.30958,0,0,1-.83851-.53678,4.06569,4.06569,0,0,0-1.32771-.78472,9.92433,9.92433,0,0,0-5.33168.518c.999.82475,1.77171,1.54529,2.61946,2.14385,1.39126.98235,2.81946,1.67847,4.37131.23622a.88965.88965,0,0,1,1.399.03364c.66648.949,1.23867,1.974,1.918,3.077a9.57537,9.57537,0,0,0-2.42331-1.12858,9.33662,9.33662,0,0,0-5.0575,1.1521,12.24582,12.24582,0,0,0,4.32059,2.47833,2.26278,2.26278,0,0,0,2.46424-.64164,6.62052,6.62052,0,0,1,1.207-.8278,8.62549,8.62549,0,0,1,2.47252,3.17342c-2.11412-1.70767-4.87087-.45652-7.01145,1.065a11.35482,11.35482,0,0,0,4.45416,1.80475,2.20892,2.20892,0,0,0,2.36637-.96075,1.51842,1.51842,0,0,1,1.4566-.861c.449.43923.94175.90293,1.4147,1.3889a7.93648,7.93648,0,0,1,1.51614,1.62969c-2.29441-.77568-2.52447-.79916-4.11244-.09563a11.12035,11.12035,0,0,0-3.63247,2.41221c1.7185.42264,3.162.87149,4.63515,1.11069a2.6057,2.6057,0,0,0,3.00528-1.43379,6.34839,6.34839,0,0,1,1.15527-1.25223c1.26968.94594,2.39546,1.78467,3.52123,2.62341a1.6927,1.6927,0,0,1-.86153.00452,5.38531,5.38531,0,0,0-1.92086.03383,11.51586,11.51586,0,0,0-4.39157,3.18892,10.1414,10.1414,0,0,0,5.17219.67587,2.47976,2.47976,0,0,0,2.14375-1.698,1.87454,1.87454,0,0,1,1.24129-1.35049c.62553.35124,1.25879.68062,1.86723,1.05615.54849.33855,1.23591.46064,1.6358,1.14765-1.69286-.64378-2.97454.14744-4.133,1.24434-.87159.82521-1.66433,1.746-2.55425,2.69a9.07448,9.07448,0,0,0,5.4283-.06028,2.48,2.48,0,0,0,1.77116-1.94264,1.64554,1.64554,0,0,1,1.10758-1.47522c.633.24151,1.30456.46819,1.95353.75422.58459.25769,1.2865.26375,1.83456.81731a9.23685,9.23685,0,0,0-2.12514.3168c-1.4056.57185-3.33955,3.05068-3.85812,4.79279a12.04272,12.04272,0,0,0,4.84757-.87811,2.61121,2.61121,0,0,0,1.82354-2.42574A1.63052,1.63052,0,0,1,92.268,137.349a43.37857,43.37857,0,0,1,8.50182,2.48639,97.43807,97.43807,0,0,0-9.09413,5.44666c-.58391.50844-1.19387.9827-1.7764,1.49312-.34668.30382-.66262.64789-1.01191.993,1.13818.86829,1.34632.905,2.07689.33611,2.19669-1.71054,4.35505-3.48049,6.59323-5.12579a42.35885,42.35885,0,0,1,4.83006-2.51593,38.22989,38.22989,0,0,1,5.47462,3.147c1.85869,1.36482,3.63219,2.86364,5.4323,4.31935.95306.77084,1.22709.75926,2.14706-.25826a44.31306,44.31306,0,0,0-11.8018-7.85764c.71927-.29337,1.14024-.51282,1.58424-.63826,2.31165-.65291,4.629-1.28189,6.8175-1.8843a1.8858,1.8858,0,0,1,.98848,1.73783,2.19878,2.19878,0,0,0,1.071,1.84415,10.16228,10.16228,0,0,0,5.79511,1.26315,14.71714,14.71714,0,0,0-3.12507-4.14574,2.59985,2.59985,0,0,0-2.72449-.76857c-.06947.0259-.19946-.1351-.42249-.29729,1.427-.52218,2.73193-.9997,3.95392-1.44683a2.12792,2.12792,0,0,1,1.05754,1.65961,2.19306,2.19306,0,0,0,1.48775,1.672,9.33959,9.33959,0,0,0,5.61633.243,15.18316,15.18316,0,0,0-3.30661-3.43429,2.8477,2.8477,0,0,0-3.04787-.54474c-.07.03244-.20939-.10715-.44593-.23868,1.34743-.726,2.57975-1.39,3.97226-2.14029a15.38223,15.38223,0,0,1,1.00212,1.66264,2.337,2.337,0,0,0,1.70141,1.43748A11.12462,11.12462,0,0,0,131.262,135.3a15.23155,15.23155,0,0,0-3.35251-2.77914,3.25464,3.25464,0,0,0-3.47933-.37554c-.09828.0547-.26383-.02934-.577-.075,1.26389-.938,2.40235-1.7829,3.67644-2.72852a6.9165,6.9165,0,0,1,1.15362,1.29137,2.50371,2.50371,0,0,0,2.46438,1.43486,11.44016,11.44016,0,0,0,5.03393-1.37783A15.45331,15.45331,0,0,0,132.43,128.4028a3.17377,3.17377,0,0,0-3.36436.13957c-.07664.05684-.25239-.04005-.5245-.09336,1.08718-1.04427,2.08875-2.00625,3.20295-3.07647a11.2534,11.2534,0,0,1,1.29477,1.20724,2.08184,2.08184,0,0,0,1.86448.85664,10.46978,10.46978,0,0,0,4.99175-1.92444,14.05537,14.05537,0,0,0-3.5397-1.59008,3.20661,3.20661,0,0,0-3.441.60075c-.03571.03412-.1639-.0431-.34379-.09666a21.04383,21.04383,0,0,1,2.64854-3.12346,7.7029,7.7029,0,0,1,1.218.88684,2.03952,2.03952,0,0,0,2.45018.62523c1.21055-.52577,2.37092-1.18868,3.53584-1.82808a4.709,4.709,0,0,0,.78916-.80585c-1.35321-.36314-2.47554-.73974-3.6242-.95152a3.03454,3.03454,0,0,0-3.24581.92244c-.09277.11727-.30147.12909-.67847.27692.56585-.91045.99785-1.59975,1.42448-2.293.8953-1.45526,1.10013-1.52616,2.427-.57616a2.25034,2.25034,0,0,0,1.72581.4541,8.33,8.33,0,0,0,4.52915-3.3087,12.11949,12.11949,0,0,0-4.46822-.49383,2.58478,2.58478,0,0,0-2.07318,1.104c-.12585.18956-.38.28123-.81893.58844.52353-1.11222.90136-1.91343,1.27781-2.71542.61438-1.30863.82293-1.41472,2.05953-.72161a2.04455,2.04455,0,0,0,2.01749.18017,10.18133,10.18133,0,0,0,3.88417-3.656c-1.11681-.041-1.99874-.11411-2.87887-.09658a3.93231,3.93231,0,0,0-3.75295,1.91151c-.0113.02026-.13715-.03333-.20938-.05319-.00951-.04707-.03846-.1009-.02578-.13868.22138-.66124.45075-1.31945.67282-1.98043C141.99525,107.025,142.12606,106.92034,143.57329,107.51476Z" style="fill: #fff"/>
      <g>
        <path d="M100.97168,84.33786l-5.97786-.81725-7.398-1.01147L85.9583,85.33292,78.81748,97.64757l.915,1.16357,7.70825,9.80435,1.20388-.67959,12.71556-7.17892.00122-3.15148c.00305-4.22778.0055-8.22116-.02627-12.29586a2.20862,2.20862,0,0,0-.27241-.77671C101.03215,84.46819,101.00161,84.40314,100.97168,84.33786Z" style="fill: #fff"/>
        <path d="M103.31531,99.83545c.00061.26081.01832.52192.03848.8148l.00916.14338,8.4296,4.78071,5.35424,3.03665,5.06534-6.37878,3.644-4.58914-8.78325-15.14035-2.55374.35182-10.626,1.46423a1.54018,1.54018,0,0,0-.58514,1.52111c.00549,2.79707.00549,5.56864.00549,8.34028Z" style="fill: #fff"/>
        <polygon points="116.08 110.415 105.748 104.59 102.333 102.666 100.735 103.567 88.596 110.416 93.245 122.344 93.508 123.019 111.097 123.019 113.495 116.954 116.08 110.415" style="fill: #fff"/>
        <path d="M106.489,81.77992c.19546-.02382.39091-.04756.58515-.07551l6.92887-.99384.84718-.12147c-.65905-.42015-1.30283-.79908-1.93378-1.17037-.49047-.28875-.96873-.57048-1.43477-.85977H93.16876l-2.737,1.66618-.60042.36556,1.37185.20454c1.98326.29738,4.0337.60492,6.05238.868.51063.0665,1.02065.14438,1.53066.2224a26.11733,26.11733,0,0,0,3.88833.39756,9.79872,9.79872,0,0,0,2.34912-.26463A12.50951,12.50951,0,0,1,106.489,81.77992Z" style="fill: #fff"/>
        <path d="M90.549,120.52541c-1.24969-3.06452-2.49938-6.129-3.77106-9.18386a7.263,7.263,0,0,0-.93635-1.584q-2.679-3.5135-5.39516-6.99981l-1.23137-1.58982c-.171-.221-.34388-.44069-.52956-.675.00611.9756.00916,1.83857-.02138,2.71705a3.3695,3.3695,0,0,0,.51552,1.8598l.82824,1.44851c2.17565,3.80411,4.42583,7.73772,6.56484,11.64987a6.19522,6.19522,0,0,0,2.68261,2.77332c.63706.32181,1.25824.68967,1.90386,1.08042Z" style="fill: #fff"/>
        <path d="M117.54686,119.12928q2.15856-3.83965,4.32933-7.67275,1.87453-3.31489,3.74418-6.632a2.36008,2.36008,0,0,0,.35-.84756c.033-1.13173.02993-2.28972.02565-3.51109l-1.33459,1.72314c-1.87881,2.42623-3.82236,4.93516-5.70667,7.42094a9.29393,9.29393,0,0,0-1.14891,1.994c-1.1996,2.86334-2.38943,5.78882-3.53956,8.618l-.74151,1.82231c.95406-.58178,1.85865-1.13211,2.76569-1.64334A3.14664,3.14664,0,0,0,117.54686,119.12928Z" style="fill: #fff"/>
      </g>
      <g>
        <path d="M93.80128,72.11724a.08357.08357,0,0,0,.07757-.05276l.50452-.71272a.083.083,0,0,1,.0794-.05268c.52895.01069,4.00683.04909,4.45271.05329a.0792.0792,0,0,1,.06474.03558l.5601.79411a.07327.07327,0,0,1,.01527.04566c0,.21233-.00183,2.59008-.00488,6.33121H105.054c-.00305-3.74113-.00488-6.11888-.00549-6.33121a.07718.07718,0,0,1,.01527-.04566l.56071-.79411a.07837.07837,0,0,1,.06474-.03558c.44527-.0042,3.92315-.0426,4.45271-.05329a.08437.08437,0,0,1,.0794.05268l.50391.7128a.08381.08381,0,0,0,.07818.05268h1.43965a.08428.08428,0,0,0,.08429-.08414l-.00611-3.16484a.08409.08409,0,0,0-.08429-.08391l-1.436.00313a.08481.08481,0,0,0-.07757.05108l-.43978.70807a.08389.08389,0,0,1-.07757.05115c-.52345-.002-4.05813-.01756-5.06961-.01809a.08072.08072,0,0,1-.07574-.05353,20.15786,20.15786,0,0,1-1.235-3.9168,23.18382,23.18382,0,0,1-.39213-4.60915s.01649-3.59645.0116-4.21694c0-.03512,1.25519-.00511,1.25519-.00511l.00794-3.29067a6.34521,6.34521,0,0,0-1.144-.54422l-1.26191-1.18655-1.26251,1.18655a6.37469,6.37469,0,0,0-1.144.54414l.00855,3.29075s1.25457-.03,1.25457.00511c-.00488.62049.01222,4.21694.01222,4.21694a23.22917,23.22917,0,0,1-.39274,4.60915,20.11377,20.11377,0,0,1-1.23442,3.9168.08073.08073,0,0,1-.07574.05353c-1.01209.00053-4.54677.016-5.07022.018a.08284.08284,0,0,1-.077-.05107l-.44039-.70807a.08435.08435,0,0,0-.07757-.05115l-1.436-.00306a.084.084,0,0,0-.08429.08391l-.00611,3.16484a.08433.08433,0,0,0,.08429.08414Z" style="fill: #fff"/>
        <path d="M99.50978,125.46809c-.00916,8.57131-.01649,14.77189-.02137,15.00964-.01466.79541.85206,8.404,1.82872,10.35476a19.97323,19.97323,0,0,0,.98521,1.81528,20.28033,20.28033,0,0,0,.98522-1.81528c.97605-1.95074,1.84277-9.55935,1.82811-10.35476-.00427-.23775-.01221-6.43833-.02076-15.00964Z" style="fill: #fff"/>
      </g>
    </g>
  </g>
</svg>
