<svg xmlns="http://www.w3.org/2000/svg" viewBox="0 0 204.40449 204.40449">
  <rect class="orange" x="55.21411" y="54.78736" width="93.97648" height="93.97648" transform="translate(101.90059 -42.45859) rotate(45)" style="fill: #cc3c1d;opacity: 0.8"/>
  <g class="orange-border" style="opacity: 0.2">
    <path d="M102.20234,36.7384l65.03724,65.0372-65.03724,65.03721L37.16514,101.7756l65.0372-65.0372m0-1.4142-66.4514,66.4514,66.4514,66.4514,66.45142-66.4514L102.20234,35.3242Z" style="fill: #fff"/>
  </g>
  <rect class="square" x="45.66131" y="45.66111" width="113.08208" height="113.08208" transform="translate(102.20221 -42.33365) rotate(45)" style="fill: none;stroke: #fff;stroke-miterlimit: 10;stroke-width: 0.75px;opacity: 0.15"/>
  <polygon class="polygon inner ani" points="129.91 34.893 74.494 34.893 35.309 74.078 35.309 129.494 74.494 168.679 129.91 168.679 169.096 129.494 169.096 74.078 129.91 34.893" style="fill: none;stroke: #fff;stroke-miterlimit: 10;stroke-width: 0.75px;opacity: 0.4"/>
  <polygon class="polygon inner" points="129.91 34.893 74.494 34.893 35.309 74.078 35.309 129.494 74.494 168.679 129.91 168.679 169.096 129.494 169.096 74.078 129.91 34.893" style="fill: none;stroke: #fff;stroke-miterlimit: 10;stroke-width: 0.75px;opacity: 0.4"/>
  <polygon class="polygon outer" points="135.7 21.241 68.704 21.241 21.331 68.614 21.331 135.61 68.704 182.984 135.7 182.984 183.074 135.61 183.074 68.614 135.7 21.241" style="fill: none;stroke: #fff;stroke-miterlimit: 10;stroke-width: 0.75px;opacity: 0.15"/>
  <g class="team-scorched">
    <rect x="61.82147" y="75.29049" width="3" height="3" transform="translate(126.64295 153.58099) rotate(-180)" style="fill: #fff"/>
    <path d="M116.09832,60.39407V55.78852a.93672.93672,0,0,0-.3838-.41869,4.01388,4.01388,0,0,0-1.77941-.48846,3.50816,3.50816,0,0,0-1.67475.314.81572.81572,0,0,0-.38379.34891l-.10467,4.57065.52336.3838-.55825.69781-.90716,11.44408-.3489.3838-.24423,1.50029-4.0473,2.72146.48846.83737,1.36073-.55825v-.41868l2.33767-.94205-.314,4.152a1.28359,1.28359,0,0,0-.314.24424,2.1326,2.1326,0,0,0-.27913,1.18628,3.85467,3.85467,0,0,0,.24424,1.39562,1.21765,1.21765,0,0,0,.20934.314l-.20934,1.4654-.45358.48847-4.466,3.20992.45357.7327,1.25606-.3489.10467-.7327.48847-.20934.97693.17445.69781-.41869-.45357,10.15314,1.43051.45358.314,1.50029a9.56637,9.56637,0,0,0-1.25606,1.29095,5.35916,5.35916,0,0,0-1.25605,3.41927,6.01751,6.01751,0,0,0,.80248,3.175,7.59806,7.59806,0,0,0,.80248,1.08161l-1.63985,7.60613.06978.59313q.03489.13957.10467.471a2.14319,2.14319,0,0,0,.13956.471.54671.54671,0,0,1,.10467.13956l-.10467-.20934q-.03489,1.39562,0,2.79124a31.93086,31.93086,0,0,0,.628,5.19868,22.13342,22.13342,0,0,1,.45358,4.37876q.03489,2.45978.06978,2.52956.03489.34892.12211.87226t.13957.88971a4.4786,4.4786,0,0,1,.05233.471l-.03489.17446v.40124q0,.19189.03489.55825t.10467.75014a7.426,7.426,0,0,0,.24424.9246,11.72512,11.72512,0,0,0,.41868,1.09905q.24424.55825.64548,1.29095t.9246,1.50029l.59313.10467a1.32417,1.32417,0,0,0,.87227-.10467q.10467-.10467.9246-.75014t1.58751-1.3084a3.40863,3.40863,0,0,0,.90716-1.01182,5.23567,5.23567,0,0,0,.29657-2.0411q.01744-1.48284.01744-1.51773a10.53055,10.53055,0,0,1,.157-1.08161q.157-.90715.22679-1.70963a61.49125,61.49125,0,0,1,1.0816-8.65285,21.66606,21.66606,0,0,1,1.08161-3.27971l.59314-1.53518a1.78934,1.78934,0,0,0,.66292-.41868,1.741,1.741,0,0,0,.66291-1.5003,7.66039,7.66039,0,0,0-.55824-2.47722l-.55825-1.32584a1.77633,1.77633,0,0,0,.87226-.55825,2.71228,2.71228,0,0,0,.87226-2.09343.10052.10052,0,0,1,.03489-.06978v-.03489l.0349-.03489,1.22116-1.32584,2.44234,1.77941q.17445,1.08162.66292,3.10526a27.117,27.117,0,0,0,1.74452,5.30336l.03489.83737-1.36073,4.22175,1.36073.03489q.03489-.13956.27913-.97693t.38379-1.22117a8.89892,8.89892,0,0,1,1.39562-2.96569l-.97693-3.34949.38379-1.57008.87227.69781,1.04671-2.9308-1.43051-1.50029q.03489-.20934.10467-.61058a3.17736,3.17736,0,0,1,.13956-.5757,2.871,2.871,0,0,0-.10467-1.8143l-.628.10467a2.70379,2.70379,0,0,1-.24423.942q-.3489.90716-.66292.90716l-4.67533-3.3146-1.57007.38379a8.83322,8.83322,0,0,0-.97693-.3489,1.79118,1.79118,0,0,0-1.63986.27912l-.03489-.03489.06978-.628a1.0565,1.0565,0,0,0,.52336-.06978,1.69983,1.69983,0,0,0,.942-.90715v-.87226a1.86427,1.86427,0,0,1-.38379.48846q-.48848.48848-.83737.3838a10.77607,10.77607,0,0,0-.13956-1.39562,5.79334,5.79334,0,0,0-.628-2.30278,3.55627,3.55627,0,0,1-.157-2.21554,3.05149,3.05149,0,0,1,.68036-1.6573q.13956-.17445.68037-.08723a1.68413,1.68413,0,0,0,1.13394-.26168,23.21586,23.21586,0,0,0,2.233-1.77941q.13956-.13956.41869-.40124t.52336-.48847q.24423-.22679.48846-.43613a1.25818,1.25818,0,0,1,.13956-.69781,8.29174,8.29174,0,0,1,2.19811-2.16321q2.26788-1.67475,2.51211-1.8492.38381-.24423.52336-.314l-1.08161-.41869q-1.53518.83738-3.41926,1.98876a22.06516,22.06516,0,0,0-4.64044,3.48905l-1.22117.03489q-.69782-1.74453-.97693-2.51212a15.7326,15.7326,0,0,1-.97694-3.00058l.3838-.10467.628.55825.03489.3489,1.11649.76759.55825-.83737-3.55883-2.79124-.03489-2.68657a2.139,2.139,0,0,0,.20934-.38379,2.995,2.995,0,0,0,.17446-1.22117,2.35571,2.35571,0,0,0-.27913-1.18628l-.24423-.3489-.06978-3.90774.3489-.10467,1.25606.628.10467.38379,1.01183.628.41868-1.04671-3.14014-2.26789-.13956-1.53518-.45358-.45357-.59314-11.793-.20934-.3838Z" style="fill: #fff"/>
    <path d="M137.70593,136.91082c2.50584-3.08323,5.94129-10.70321,6.35355-14.18637.40442-3.41694.08813-6.91919.08813-11.22215,1.47036,2.41653,2.45572,8.036,3.73393,10.1367,1.71741-2.63179,1.7604-9.03651,1.79105-11.46558.07762-6.15141.60694-20.60342,1.04142-21.66546,1.59078,9.19939,3.03225,18.42391,2.36361,27.71945-.65222,9.06761-4.93574,16.4383-12.3309,21.87537a41.81028,41.81028,0,0,1-10.35667,5.89c-3.85443,1.41382-7.488,3.42984-11.73083,4.67709.38437-.52719,6.89375-4.93085,9.70665-6.697a23.94511,23.94511,0,0,0,9.7955-12.235c.52037-1.38391.88525-2.82627,1.32151-4.24181C139.76392,125.47707,139.08669,132.98451,137.70593,136.91082Z" style="fill: #fff"/>
    <rect x="131.67789" y="57.79049" width="3" height="3" style="fill: #fff"/>
    <rect x="131.67789" y="66.54049" width="3" height="3" style="fill: #fff"/>
    <rect x="131.67789" y="75.29049" width="3" height="3" style="fill: #fff"/>
    <rect x="140.43632" y="57.79049" width="3" height="3" style="fill: #fff"/>
    <rect x="140.43632" y="66.54049" width="3" height="3" style="fill: #fff"/>
    <rect x="140.43632" y="75.29049" width="3" height="3" style="fill: #fff"/>
    <path d="M89.36882,60.6383l-.20935.3838-.59313,11.793-.45358.45357-.13956,1.53518-3.14015,2.26789.41869,1.04671,1.01182-.628.10467-.38379,1.25606-.628.34891.10467L87.90342,80.491l-.24424.3489a2.35571,2.35571,0,0,0-.27912,1.18628,2.99518,2.99518,0,0,0,.17445,1.22117,2.139,2.139,0,0,0,.20934.38379L87.729,86.31771l-3.55883,2.79124.55825.83737,1.1165-.76759.03489-.3489.628-.55825.38379.10467a15.73232,15.73232,0,0,1-.97693,3.00058q-.27913.7676-.97694,2.51212l-1.22116-.03489A22.06544,22.06544,0,0,0,79.07612,90.365q-1.88409-1.15138-3.41927-1.98876l-1.08161.41869q.13958.06978.52336.314.24423.17445,2.51212,1.8492a8.29166,8.29166,0,0,1,2.1981,2.16321,1.25818,1.25818,0,0,1,.13956.69781q.24423.20934.48847.43613t.52336.48847q.27912.26168.41868.40124a23.21849,23.21849,0,0,0,2.233,1.77941,1.68415,1.68415,0,0,0,1.13395.26168q.54079-.08723.68036.08723a3.05156,3.05156,0,0,1,.68037,1.6573,3.55634,3.55634,0,0,1-.157,2.21554,5.793,5.793,0,0,0-.628,2.30278,10.77607,10.77607,0,0,0-.13956,1.39562q-.34892.10467-.83737-.3838a1.86405,1.86405,0,0,1-.3838-.48846v.87226a1.69986,1.69986,0,0,0,.942.90715,1.05653,1.05653,0,0,0,.52336.06978l.06978.628-.03489.03489a1.79115,1.79115,0,0,0-1.63985-.27912,8.83368,8.83368,0,0,0-.97694.3489l-1.57007-.38379-4.67533,3.3146q-.314,0-.66292-.90716a2.70379,2.70379,0,0,1-.24423-.942l-.628-.10467a2.87116,2.87116,0,0,0-.10467,1.8143,3.17736,3.17736,0,0,1,.13956.5757q.06978.40124.10467.61058L73.77276,112.032l1.04672,2.9308.87226-.69781.3838,1.57008-.97694,3.34949a8.89871,8.89871,0,0,1,1.39562,2.96569q.13956.38379.3838,1.22117t.27912.97693l1.36073-.03489-1.36073-4.22175.03489-.83737a27.11692,27.11692,0,0,0,1.74453-5.30336q.48846-2.02365.66292-3.10526l2.44233-1.77941,1.22117,1.32584.03489.03489v.03489a.10052.10052,0,0,1,.03489.06978,2.71228,2.71228,0,0,0,.87226,2.09343,1.77636,1.77636,0,0,0,.87227.55825l-.55825,1.32584a7.66047,7.66047,0,0,0-.55825,2.47722,1.741,1.741,0,0,0,.66292,1.5003,1.78918,1.78918,0,0,0,.66292.41868l.59314,1.53518a21.666,21.666,0,0,1,1.0816,3.27971,61.49068,61.49068,0,0,1,1.08161,8.65285q.06978.80247.22679,1.70963a10.5291,10.5291,0,0,1,.157,1.08161q0,.03489.01745,1.51773a5.23548,5.23548,0,0,0,.29657,2.0411,3.40855,3.40855,0,0,0,.90715,1.01182q.7676.66292,1.58752,1.3084t.9246.75014a1.32413,1.32413,0,0,0,.87226.10467l.59314-.10467q.52335-.76759.9246-1.50029t.64547-1.29095a11.72526,11.72526,0,0,0,.41869-1.09905,7.42578,7.42578,0,0,0,.24423-.9246q.06978-.38379.10467-.75014t.03489-.55825v-.40124l-.03489-.17446a4.4797,4.4797,0,0,1,.05234-.471q.05233-.36635.13956-.88971t.12212-.87226q.03489-.06978.06978-2.52956a22.13346,22.13346,0,0,1,.45357-4.37876,31.92971,31.92971,0,0,0,.628-5.19868q.0349-1.39563,0-2.79124l-.10467.20934a.54671.54671,0,0,1,.10467-.13956,2.14308,2.14308,0,0,0,.13957-.471q.06978-.33147.10467-.471l.06978-.59313-1.63986-7.60613a7.59818,7.59818,0,0,0,.80249-1.08161,6.01761,6.01761,0,0,0,.80248-3.175,5.35917,5.35917,0,0,0-1.25606-3.41927A9.56576,9.56576,0,0,0,95.19553,99.925l.314-1.50029,1.43051-.45358L96.48648,87.818l.69781.41869.97693-.17445.48847.20934.10467.7327,1.25606.3489.45358-.7327-4.466-3.20992-.45357-.48847-.20935-1.4654a1.21765,1.21765,0,0,0,.20935-.314,3.85449,3.85449,0,0,0,.24423-1.39562,2.13259,2.13259,0,0,0-.27912-1.18628,1.28362,1.28362,0,0,0-.314-.24424l-.314-4.152,2.33766.94205v.41868l1.36073.55825.48847-.83737-4.0473-2.72146-.24423-1.50029-.34891-.3838-.90715-11.44408-.55825-.69781.52336-.3838-.10467-4.57065a.81575.81575,0,0,0-.3838-.34891,3.50809,3.50809,0,0,0-1.67474-.314,4.01389,4.01389,0,0,0-1.77942.48846.93683.93683,0,0,0-.3838.41869v4.60555Z" style="fill: #fff"/>
    <path d="M67.55186,136.91082c-2.50583-3.08323-5.94128-10.70321-6.35354-14.18637-.40443-3.41694-.08813-6.91919-.08813-11.22215-1.47036,2.41653-2.45573,8.036-3.73393,10.1367-1.71741-2.63179-1.76041-9.03651-1.79106-11.46558C55.50759,104.022,54.97827,89.57,54.54378,88.508c-1.59078,9.19939-3.03225,18.42391-2.36361,27.71945.65223,9.06761,4.93574,16.4383,12.33091,21.87537a41.81,41.81,0,0,0,10.35666,5.89c3.85443,1.41382,7.488,3.42984,11.73084,4.67709-.38438-.52719-6.89376-4.93085-9.70665-6.697a23.94511,23.94511,0,0,1-9.7955-12.235c-.52037-1.38391-.88526-2.82627-1.32151-4.24181C65.49388,125.47707,66.17111,132.98451,67.55186,136.91082Z" style="fill: #fff"/>
    <rect x="70.5799" y="57.79049" width="3" height="3" transform="translate(144.1598 118.58099) rotate(-180)" style="fill: #fff"/>
    <rect x="70.5799" y="66.54049" width="3" height="3" transform="translate(144.1598 136.08099) rotate(-180)" style="fill: #fff"/>
    <rect x="70.5799" y="75.29049" width="3" height="3" transform="translate(144.1598 153.58099) rotate(-180)" style="fill: #fff"/>
    <rect x="61.82147" y="57.79049" width="3" height="3" transform="translate(126.64295 118.58099) rotate(-180)" style="fill: #fff"/>
    <rect x="61.82147" y="66.54049" width="3" height="3" transform="translate(126.64295 136.08099) rotate(-180)" style="fill: #fff"/>
  </g>
</svg>
