<svg xmlns="http://www.w3.org/2000/svg" viewBox="0 0 678 340">
  <title>Asset 516</title>
  <g>
    <g>
      <g style="opacity: 0.2">
        <rect x="155.27833" y="4.18506" width="40" height="40" style="fill: #fff"/>
      </g>
      <path d="M513.77834,5.68506v37h-357v-37h357m1.5-1.5h-360v40h360v-40Z" style="fill: #fff;opacity: 0.4"/>
      <g style="opacity: 0.2">
        <rect x="207.57054" y="16.31006" width="123.75" height="15.75" style="fill: #fff"/>
      </g>
      <g style="opacity: 0.2">
        <rect x="469.57054" y="16.31006" width="34" height="15.75" style="fill: #fff"/>
      </g>
    </g>
    <g>
      <g style="opacity: 0.2">
        <rect x="168.77833" y="191.88961" width="50.29221" height="50.29221" style="fill: #fff"/>
      </g>
      <path d="M513.77834,179.3896V333.90666h-357V179.3896h357m1.5-1.5h-360V335.40666h360V177.8896Z" style="fill: #fff;opacity: 0.4"/>
      <g style="opacity: 0.2">
        <rect x="232.07054" y="191.88961" width="150" height="15.75" style="fill: #fff"/>
      </g>
      <g style="opacity: 0.2">
        <rect x="469.32054" y="191.88961" width="34" height="15.75" style="fill: #fff"/>
      </g>
      <g style="opacity: 0.2">
        <rect x="426.82054" y="191.88961" width="34" height="15.75" style="fill: #fff"/>
      </g>
      <g style="opacity: 0.2">
        <rect x="232.07054" y="221.38961" width="271.5" height="46.51705" style="fill: #fff"/>
      </g>
      <g style="opacity: 0.2">
        <rect x="191.27833" y="285.38961" width="312.04221" height="15.75" style="fill: #fff"/>
      </g>
      <g style="opacity: 0.2">
        <rect x="191.27833" y="305.88961" width="312.04221" height="15.75" style="fill: #fff"/>
      </g>
      <g style="opacity: 0.2">
        <rect x="168.77833" y="305.88961" width="15.75" height="15.75" style="fill: #fff"/>
      </g>
      <g style="opacity: 0.2">
        <rect x="168.77833" y="285.38961" width="15.75" height="15.75" style="fill: #fff"/>
      </g>
    </g>
    <g style="opacity: 0.8">
      <g>
        <path d="M594.44118,95.24226a3.18045,3.18045,0,0,1,3.17773-3.49316,2.88383,2.88383,0,0,1,1.86328.59424,2.41061,2.41061,0,0,1,.85547,1.57568h-.918a1.68093,1.68093,0,0,0-1.81933-1.36865c-1.42188,0-2.22364,1.15234-2.22364,2.69189,0,1.60254.88282,2.68311,2.2334,2.68311a1.78684,1.78684,0,0,0,1.88086-1.77393h.91895a2.59774,2.59774,0,0,1-2.81836,2.5752A3.16929,3.16929,0,0,1,594.44118,95.24226Z" style="fill: #fff"/>
        <path d="M601.24489,95.24226a3.28768,3.28768,0,1,1,3.27637,3.49317A3.21639,3.21639,0,0,1,601.24489,95.24226Zm5.6084,0c0-1.53955-.81055-2.70068-2.332-2.70068s-2.34082,1.16113-2.34082,2.70068c0,1.53077.81933,2.68311,2.34082,2.68311S606.85329,96.773,606.85329,95.24226Z" style="fill: #fff"/>
        <path d="M608.93141,91.89363h1.18848l1.39551,3.63672c.26953.72949.6748,2.09766.6748,2.09766h.01758s.415-1.35938.68457-2.09766l1.36816-3.63672h1.22461v6.69775h-.88183V94.54012c0-.59424.05371-1.71924.05371-1.71924h-.01758s-.27051,1.0083-.46875,1.53027l-1.62891,4.24023h-.7207l-1.62988-4.24023c-.18848-.522-.46778-1.53027-.46778-1.53027h-.01757s.05371,1.125.05371,1.71924v4.05126h-.82813Z" style="fill: #fff"/>
        <path d="M616.86012,91.89363h1.18848l1.39551,3.63672c.26953.72949.6748,2.09766.6748,2.09766h.01758s.415-1.35938.68457-2.09766l1.36816-3.63672h1.22461v6.69775H622.532V94.54012c0-.59424.05371-1.71924.05371-1.71924h-.01758s-.27051,1.0083-.46875,1.53027l-1.62891,4.24023h-.7207l-1.62988-4.24023c-.18848-.522-.46777-1.53027-.46777-1.53027h-.01758s.05371,1.125.05371,1.71924v4.05126h-.82813Z" style="fill: #fff"/>
        <path d="M624.53688,95.24226a3.28768,3.28768,0,1,1,3.27637,3.49317A3.21639,3.21639,0,0,1,624.53688,95.24226Zm5.6084,0c0-1.53955-.81055-2.70068-2.332-2.70068s-2.34082,1.16113-2.34082,2.70068c0,1.53077.81933,2.68311,2.34082,2.68311S630.14528,96.773,630.14528,95.24226Z" style="fill: #fff"/>
        <path d="M632.22243,91.89363h.96289l2.74609,4.19483c.32422.49511.74707,1.33251.74707,1.33251h.02735s-.06348-.873-.06348-1.43115V91.89363h.86426v6.69775h-.9541l-2.73633-4.19531c-.32422-.5039-.76563-1.32324-.76563-1.32324H633.033s.05372.87305.05372,1.41357v4.105h-.86426Z" style="fill: #fff"/>
        <path d="M640.81813,91.89363h1.02637l2.46679,6.69775h-1.00878l-.666-1.95361h-2.6377l-.68457,1.95361h-.94531Zm-.56738,4.02393h2.14258l-.63965-1.87256c-.22461-.648-.4043-1.42237-.4043-1.42237H641.322s-.19825.80127-.41407,1.42237Z" style="fill: #fff"/>
        <path d="M645.1736,91.89363h.918V97.754h3.46582v.8374H645.1736Z" style="fill: #fff"/>
        <path d="M650.54665,91.89363h.91894v6.69775h-.91894Z" style="fill: #fff"/>
        <path d="M652.45485,91.89363h5.3291v.81006h-2.20508v5.88769h-.92773V92.70369h-2.19629Z" style="fill: #fff"/>
        <path d="M660.72633,95.7823l-2.41308-3.88867h1.02637l1.20605,2.0166c.2793.47705.65723,1.251.65723,1.251h.01855s.38672-.77393.666-1.251l1.21484-2.0166h.98145l-2.43946,3.93408v2.76367h-.918Z" style="fill: #fff"/>
      </g>
      <g>
        <path d="M594.27907,115.33894h.90918c.10742,1.0083.77441,1.56641,1.98926,1.56641.8916,0,1.54-.39648,1.54-1.20654,0-.873-.77441-1.08008-1.94531-1.34131-1.19726-.252-2.21386-.59424-2.21386-1.88184,0-1.125.94531-1.7915,2.32226-1.7915a2.23194,2.23194,0,0,1,2.54785,1.97168h-.8916a1.45658,1.45658,0,0,0-1.64746-1.25147c-.88184,0-1.458.36035-1.458,1.02637,0,.72949.72949.93652,1.73731,1.14356,1.29687.26074,2.47558.59423,2.47558,2.08837,0,1.26954-1.04394,1.981-2.49316,1.981C595.27809,117.64363,594.35133,116.61726,594.27907,115.33894Z" style="fill: #fff"/>
        <path d="M600.489,114.15926a3.18046,3.18046,0,0,1,3.17773-3.49317,2.88383,2.88383,0,0,1,1.86328.59424,2.41061,2.41061,0,0,1,.85547,1.57568h-.918a1.68053,1.68053,0,0,0-1.81835-1.36865c-1.42286,0-2.22461,1.15235-2.22461,2.6919,0,1.60254.88281,2.6831,2.23339,2.6831a1.78683,1.78683,0,0,0,1.88086-1.77392h.91895a2.59772,2.59772,0,0,1-2.81836,2.57519A3.16929,3.16929,0,0,1,600.489,114.15926Z" style="fill: #fff"/>
        <path d="M607.29274,114.15926a3.28768,3.28768,0,1,1,3.27637,3.49316A3.21639,3.21639,0,0,1,607.29274,114.15926Zm5.6084,0c0-1.53955-.81055-2.70069-2.332-2.70069s-2.34082,1.16114-2.34082,2.70069c0,1.53076.81933,2.6831,2.34082,2.6831S612.90114,115.69,612.90114,114.15926Z" style="fill: #fff"/>
        <path d="M614.97926,110.81062h3.13282a1.82831,1.82831,0,0,1,2.00781,1.84522,1.57532,1.57532,0,0,1-1.22461,1.6748v.02686c.75586.2251.97266.67529,1.03516,1.63867.08105,1.05322.17089,1.37695.30664,1.46729v.04492h-.98145c-.15332-.126-.1709-.43213-.24316-1.50342-.06348-.94531-.459-1.2876-1.333-1.2876h-1.78223v2.791h-.918Zm.918,3.16895h1.918c.90918,0,1.35938-.45947,1.35938-1.18848,0-.7832-.36914-1.18847-1.31446-1.18847h-1.96289Z" style="fill: #fff"/>
        <path d="M621.27907,110.81062h4.76269v.81006H622.197v2.02539h3.47558v.76514H622.197V116.671h3.94336v.83741h-4.86133Z" style="fill: #fff"/>
        <path d="M629.13551,110.81062h.99024l1.46777,4.46485c.16211.48633.39551,1.43164.39551,1.43164h.01855s.2334-.96338.38672-1.43164l1.44922-4.46485h.95508l-2.34082,6.69776H631.449Z" style="fill: #fff"/>
        <path d="M636.93922,110.81062h1.02637l2.4668,6.69776H639.4236l-.666-1.95362h-2.63769l-.68457,1.95362H634.49Zm-.56738,4.02393h2.14258l-.63965-1.87256c-.22461-.64795-.4043-1.42236-.4043-1.42236h-.02734s-.19824.80127-.41406,1.42236Z" style="fill: #fff"/>
        <path d="M641.29469,110.81062h.918V116.671h3.46582v.83741h-4.38379Z" style="fill: #fff"/>
        <path d="M646.3611,115.32967v-4.519H647.28v4.438c0,1.09863.61133,1.57569,1.68262,1.57569,1.03613,0,1.64746-.47706,1.64746-1.57569v-4.438h.91895v4.519c0,1.61132-1.11621,2.27783-2.584,2.27783C647.44118,117.6075,646.3611,116.941,646.3611,115.32967Z" style="fill: #fff"/>
        <path d="M652.80544,110.81062h4.76269v.81006H653.7234v2.02539H657.199v.76514H653.7234V116.671h3.94336v.83741h-4.86132Z" style="fill: #fff"/>
      </g>
      <g>
        <path d="M42.54811,82.39363h.918v6.69824h-.918Z" style="fill: #fff"/>
        <path d="M44.61745,85.74275a3.18013,3.18013,0,0,1,3.17822-3.49267,2.88275,2.88275,0,0,1,1.86328.59375,2.41059,2.41059,0,0,1,.85547,1.57568H49.596a1.67955,1.67955,0,0,0-1.81836-1.36865c-1.42236,0-2.22363,1.15234-2.22363,2.69189,0,1.60254.88232,2.68311,2.23242,2.68311a1.78712,1.78712,0,0,0,1.88184-1.77393h.918a2.59618,2.59618,0,0,1-2.81739,2.5752A3.16974,3.16974,0,0,1,44.61745,85.74275Z" style="fill: #fff"/>
        <path d="M51.42165,85.74275A3.2879,3.2879,0,1,1,54.699,89.23592,3.21645,3.21645,0,0,1,51.42165,85.74275Zm5.60888,0c0-1.53955-.81006-2.70068-2.33154-2.70068s-2.34082,1.16113-2.34082,2.70068c0,1.53076.81934,2.68311,2.34082,2.68311S57.03053,87.27351,57.03053,85.74275Z" style="fill: #fff"/>
        <path d="M59.10768,82.39363h.96289l2.7461,4.19531c.32421.49512.74707,1.33252.74707,1.33252h.02734s-.06348-.873-.06348-1.43115V82.39363h.86426v6.69824h-.9541l-2.73682-4.19531c-.32422-.50391-.76513-1.32324-.76513-1.32324h-.01807s.0542.87305.0542,1.41308v4.10547h-.86426Z" style="fill: #fff"/>
      </g>
      <g>
        <path d="M38.9026,100.39363h.96289l2.7461,4.19531c.32422.49512.74707,1.33252.74707,1.33252H43.386s-.06347-.873-.06347-1.43115v-4.09668h.86425v6.69824h-.9541l-2.73681-4.19531c-.32422-.50391-.76514-1.32324-.76514-1.32324h-.01807s.0542.87305.0542,1.41308v4.10547H38.9026Z" style="fill: #fff"/>
        <path d="M47.49782,100.39363h1.02637l2.46679,6.69824h-1.0083l-.666-1.95361H46.679l-.68457,1.95361h-.94531Zm-.5669,4.02442H49.0735l-.63916-1.87256c-.2251-.64795-.40527-1.42237-.40527-1.42237h-.02686s-.19824.80127-.41406,1.42237Z" style="fill: #fff"/>
        <path d="M51.85378,100.39363h1.188l1.39551,3.63721c.27.72949.67529,2.09765.67529,2.09765h.01807s.41406-1.35937.68408-2.09765l1.36866-3.63721h1.22412v6.69824h-.88233V103.0406c0-.59423.0542-1.71923.0542-1.71923h-.01807s-.27,1.0083-.46826,1.53027l-1.62939,4.24023h-.72022L53.114,102.85164c-.189-.522-.46826-1.53027-.46826-1.53027H52.6277s.0542,1.125.0542,1.71923v4.05127h-.82812Z" style="fill: #fff"/>
        <path d="M59.78249,100.39363h4.7622v.81055H60.70045v2.02539h3.4751v.76562h-3.4751v2.25928h3.94336v.8374H59.78249Z" style="fill: #fff"/>
      </g>
      <g>
        <path d="M3.64137,119.14363H6.117c1.99853,0,2.98877,1.36865,2.98877,3.37647,0,1.99853-1.04395,3.32177-3.05176,3.32177H3.64137Zm2.37647,5.897c1.51269,0,2.13379-.98144,2.13379-2.5205,0-1.53955-.55811-2.5752-2.07959-2.5752H4.56862v5.0957Z" style="fill: #fff"/>
        <path d="M10.22926,119.14363h4.76221v.81055H11.14723v2.02539h3.4751v.76562h-3.4751v2.25928h3.94336v.8374H10.22926Z" style="fill: #fff"/>
        <path d="M15.719,123.67244h.90918c.10791,1.0083.77393,1.56641,1.98926,1.56641.8916,0,1.53955-.39649,1.53955-1.20655,0-.873-.77393-1.08008-1.94434-1.34131-1.19726-.25195-2.21484-.59423-2.21484-1.88183,0-1.125.94531-1.79151,2.32275-1.79151a2.232,2.232,0,0,1,2.54785,1.97168h-.8916a1.4563,1.4563,0,0,0-1.64746-1.25146c-.88183,0-1.458.36035-1.458,1.02637,0,.72949.729.93652,1.73731,1.14355,1.29638.26123,2.47558.59424,2.47558,2.08838,0,1.26953-1.04394,1.981-2.49365,1.981C16.718,125.97713,15.79079,124.95076,15.719,123.67244Z" style="fill: #fff"/>
        <path d="M21.929,122.49275a3.18014,3.18014,0,0,1,3.17822-3.49267,2.88271,2.88271,0,0,1,1.86328.59375,2.41059,2.41059,0,0,1,.85547,1.57568h-.91845a1.67956,1.67956,0,0,0-1.81836-1.36865c-1.42237,0-2.22364,1.15234-2.22364,2.69189,0,1.60254.88233,2.68311,2.23243,2.68311a1.78711,1.78711,0,0,0,1.88183-1.77393h.918a2.59618,2.59618,0,0,1-2.81738,2.5752A3.16974,3.16974,0,0,1,21.929,122.49275Z" style="fill: #fff"/>
        <path d="M28.98512,119.14363h3.13282a1.82825,1.82825,0,0,1,2.00732,1.8457,1.57539,1.57539,0,0,1-1.22412,1.67481v.02685c.75635.2251.97217.6753,1.03515,1.63819.08106,1.05371.17139,1.37744.30616,1.46777v.04492H33.261c-.15283-.126-.1709-.43213-.24267-1.50341-.063-.94532-.45948-1.2876-1.33252-1.2876H29.90309v2.791h-.918Zm.918,3.16895h1.91748c.90967,0,1.35987-.459,1.35987-1.188,0-.78321-.36915-1.18848-1.31446-1.18848H29.90309Z" style="fill: #fff"/>
        <path d="M35.303,119.14363h.918v6.69824h-.918Z" style="fill: #fff"/>
        <path d="M37.62526,119.14363h2.81787a1.92409,1.92409,0,0,1,2.07959,1.96289c0,1.2334-.72021,1.98047-2.16992,1.98047H38.55251v2.75488h-.92725Zm.92725,3.19629h1.71044c.90918,0,1.34131-.459,1.34131-1.20654,0-.78321-.477-1.18848-1.30517-1.18848H38.55251Z" style="fill: #fff"/>
        <path d="M43.034,119.14363h5.32959v.81055h-2.206v5.88769h-.92725v-5.88769H43.034Z" style="fill: #fff"/>
        <path d="M49.35182,119.14363h.918v6.69824h-.918Z" style="fill: #fff"/>
        <path d="M51.42165,122.49275a3.2879,3.2879,0,1,1,3.27734,3.49317A3.21645,3.21645,0,0,1,51.42165,122.49275Zm5.60888,0c0-1.53955-.81006-2.70068-2.33154-2.70068s-2.34082,1.16113-2.34082,2.70068c0,1.53076.81934,2.68311,2.34082,2.68311S57.03053,124.02351,57.03053,122.49275Z" style="fill: #fff"/>
        <path d="M59.10768,119.14363h.96289l2.7461,4.19531c.32421.49512.74707,1.33252.74707,1.33252h.02734s-.06348-.873-.06348-1.43115v-4.09668h.86426v6.69824h-.9541l-2.73682-4.19531c-.32422-.50391-.76513-1.32324-.76513-1.32324h-.01807s.0542.87305.0542,1.41308v4.10547h-.86426Z" style="fill: #fff"/>
      </g>
      <g>
        <path d="M8.29372,140.99275a3.21645,3.21645,0,0,1,3.27734-3.49267,3.49946,3.49946,0,0,1,0,6.98584A3.22145,3.22145,0,0,1,8.29372,140.99275Zm5.60888,0c0-1.53955-.81006-2.70068-2.33154-2.70068s-2.34082,1.16113-2.34082,2.70068c0,1.53076.81934,2.68311,2.34082,2.68311S13.9026,142.52351,13.9026,140.99275Z" style="fill: #fff"/>
        <path d="M15.98024,137.64363H18.8611a2.16439,2.16439,0,0,1,1.60254.56738,1.618,1.618,0,0,1,.44971,1.16114,1.38921,1.38921,0,0,1-1.13428,1.40478v.02686a1.62089,1.62089,0,0,1,1.40478,1.61133,1.80819,1.80819,0,0,1-.51318,1.30566,2.25012,2.25012,0,0,1-1.6748.62109H15.98024Zm2.75488,2.854c.78321,0,1.251-.3872,1.251-1.062,0-.63037-.42285-.99951-1.14307-.99951H16.89821v2.06152Zm.207,3.03418a1.37177,1.37177,0,0,0,1.0083-.33349,1.01532,1.01532,0,0,0,.29688-.75586c0-.80127-.56738-1.19727-1.35938-1.19727H16.89821v2.28662Z" style="fill: #fff"/>
        <path d="M21.92018,142.27107v-.144h.8999v.11719c0,1.12549.36914,1.46728,1.1167,1.46728.65723,0,1.03516-.34179,1.03516-1.14306v-4.92481h.918v4.97852a1.80261,1.80261,0,0,1-.47705,1.31445,1.99938,1.99938,0,0,1-1.48535.54053C22.676,144.47713,21.92018,143.80183,21.92018,142.27107Z" style="fill: #fff"/>
        <path d="M27.18483,137.64363H31.947v.81055H28.1028v2.02539h3.4751v.76562H28.1028v2.25928h3.94336v.8374H27.18483Z" style="fill: #fff"/>
        <path d="M32.79128,140.99275a3.18013,3.18013,0,0,1,3.17822-3.49267,2.88275,2.88275,0,0,1,1.86328.59375,2.41063,2.41063,0,0,1,.85547,1.57568h-.91846a1.67955,1.67955,0,0,0-1.81836-1.36865c-1.42236,0-2.22363,1.15234-2.22363,2.69189,0,1.60254.88232,2.68311,2.23242,2.68311a1.78712,1.78712,0,0,0,1.88184-1.77393h.918a2.5962,2.5962,0,0,1-2.81739,2.5752A3.16974,3.16974,0,0,1,32.79128,140.99275Z" style="fill: #fff"/>
        <path d="M39.20876,137.64363h5.32959v.81055H42.33229v5.88769H41.405v-5.88769H39.20876Z" style="fill: #fff"/>
        <path d="M45.52663,137.64363h.918v6.69824h-.918Z" style="fill: #fff"/>
        <path d="M47.31764,137.64363h.99024l1.46728,4.46582c.16211.48584.39649,1.43115.39649,1.43115h.01757s.23438-.96338.38721-1.43115l1.44971-4.46582h.9541l-2.34082,6.69824h-1.0083Z" style="fill: #fff"/>
        <path d="M53.82448,137.64363h4.76221v.81055H54.74245v2.02539h3.47509v.76562H54.74245v2.25928h3.94336v.8374H53.82448Z" style="fill: #fff"/>
        <path d="M59.31422,142.17244h.90918c.10791,1.0083.77393,1.56641,1.98926,1.56641.8916,0,1.53955-.39649,1.53955-1.20655,0-.873-.77392-1.08008-1.94433-1.34131-1.19727-.25195-2.21485-.59423-2.21485-1.88183,0-1.125.94532-1.79151,2.32276-1.79151a2.232,2.232,0,0,1,2.54785,1.97168h-.89111a1.45706,1.45706,0,0,0-1.648-1.25146c-.88184,0-1.458.36035-1.458,1.02637,0,.72949.729.93652,1.7373,1.14355,1.29639.26123,2.47559.59424,2.47559,2.08838,0,1.26953-1.044,1.981-2.49365,1.981C60.31325,144.47713,59.386,143.45076,59.31422,142.17244Z" style="fill: #fff"/>
      </g>
    </g>
    <g style="opacity: 0.4">
      <polygon points="582.833 93.092 486.071 93.092 486.071 36.842 487.071 36.842 487.071 92.092 582.833 92.092 582.833 93.092" style="fill: #fff"/>
      <polygon points="486.821 185.592 485.821 185.592 485.821 113.592 582.833 113.592 582.833 114.592 486.821 114.592 486.821 185.592" style="fill: #fff"/>
      <polygon points="194.425 185.425 193.425 185.425 193.425 87.675 75.5 87.675 75.5 86.675 194.425 86.675 194.425 185.425" style="fill: #fff"/>
      <polygon points="175.778 83.258 75.5 83.258 75.5 82.258 174.778 82.258 174.778 49.592 175.778 49.592 175.778 83.258" style="fill: #fff"/>
      <polygon points="269.946 101.092 75.5 101.092 75.5 100.092 268.946 100.092 268.946 37.758 269.946 37.758 269.946 101.092" style="fill: #fff"/>
      <polygon points="307.571 185.592 306.571 185.592 306.571 105.425 75.5 105.425 75.5 104.425 307.571 104.425 307.571 185.592" style="fill: #fff"/>
      <polygon points="368.321 215.092 367.321 215.092 367.321 122.092 75.5 122.092 75.5 121.092 368.321 121.092 368.321 215.092" style="fill: #fff"/>
      <polygon points="347.799 278.425 346.799 278.425 346.799 140.592 75.5 140.592 75.5 139.592 347.799 139.592 347.799 278.425" style="fill: #fff"/>
      <polygon points="444.321 185.425 443.321 185.425 443.321 96.592 582.833 96.592 582.833 97.592 444.321 97.592 444.321 185.425" style="fill: #fff"/>
    </g>
  </g>
</svg>
