<svg xmlns="http://www.w3.org/2000/svg" viewBox="0 0 204.40449 204.40449">
  <g id="Layer_2" data-name="Layer 2">
    <g id="scored-nightfall-strikes">
      <g>
        <g style="opacity: 0.15">
          <polygon points="180.485 146.701 180.485 56.414 102.293 11.27 24.102 56.414 24.102 146.701 102.293 191.845 180.485 146.701" style="fill: none;stroke: #fff;stroke-miterlimit: 10"/>
          <path d="M102.29338,12.26872l38.6629,66.8758,38.662,66.87432H24.96847l38.662-66.87432,38.6629-66.8758m0-.999L63.19761,78.89427,24.10185,146.51884H180.48491L141.38914,78.89427,102.29338,11.26972Z" style="fill: #fff"/>
          <path d="M179.61827,57.35029l-38.662,66.87432-38.6629,66.87581-38.6629-66.87581-38.662-66.87432h154.6498m.86664-.5H24.10185l39.09576,67.62456,39.09577,67.62456,39.09576-67.62456,39.09577-67.62456Z" style="fill: #fff"/>
        </g>
        <polygon points="157.904 133.633 157.904 69.419 102.293 37.312 46.682 69.419 46.682 133.633 102.293 165.74 157.904 133.633" style="fill: #465575;opacity: 0.8"/>
        <g style="opacity: 0.2">
          <path d="M102.29339,38.46633l54.611,31.52969v63.05942l-54.611,31.5297-54.611-31.5297V69.996l54.61105-31.52969m0-1.15469-55.611,32.107v64.21411l55.61105,32.10706,55.611-32.10706V69.41867l-55.611-32.107Z" style="fill: #fff"/>
        </g>
        <polygon points="102.293 80.944 111.205 96.38 120.117 111.816 102.293 111.816 84.469 111.816 93.381 96.38 102.293 80.944" style="fill: #fff"/>
        <polygon points="145.071 126.223 145.071 76.828 102.293 52.13 59.516 76.828 59.516 126.223 102.293 150.921 145.071 126.223" style="fill: none;stroke: #fff;stroke-miterlimit: 10;stroke-width: 0.5px;opacity: 0.5"/>
        <g>
          <polygon points="102.293 79.709 140.079 79.709 102.293 57.893 64.508 79.709 102.293 79.709" style="fill: #fff"/>
          <polygon points="121.187 112.434 102.293 145.158 140.08 123.342 140.08 79.709 140.08 79.709 121.187 112.434" style="fill: #fff"/>
          <polygon points="64.507 79.709 64.506 79.709 64.506 123.342 102.293 145.158 83.4 112.434 64.507 79.709" style="fill: #fff"/>
        </g>
      </g>
    </g>
  </g>
</svg>
