<svg xmlns="http://www.w3.org/2000/svg" viewBox="0 0 204.40449 204.40449">
  <g id="Layer_2" data-name="Layer 2">
    <g id="strikes">
      <g>
        <g style="opacity: 0.15">
          <polygon points="180.834 147.331 180.834 56.638 102.292 11.292 23.75 56.638 23.75 147.331 102.292 192.677 180.834 147.331" style="fill: none;stroke: #fff;stroke-miterlimit: 10"/>
          <path d="M102.29217,12.2911l38.83818,67.179,38.83731,67.17752H24.61668L63.454,79.47009l38.83816-67.179m0-.999-39.271,67.92775L23.75007,147.14761h157.0842l-39.271-67.92776-39.271-67.92775Z" style="fill: #fff"/>
          <path d="M179.96766,57.577l-38.83731,67.17753-38.83818,67.179L63.454,124.75455,24.61668,57.577h155.351m.86661-.5H23.75007l39.27106,67.92777,39.271,67.92775,39.27105-67.92775L180.83427,57.077Z" style="fill: #fff"/>
        </g>
        <polygon points="158.154 134.204 158.154 69.702 102.293 37.451 46.433 69.702 46.433 134.204 102.293 166.455 158.154 134.204" style="fill: #465575"/>
        <g style="opacity: 0.2">
          <path d="M102.29338,38.60547l54.86038,31.67364v63.34732l-54.86038,31.67366L47.433,133.62643V70.27911l54.86038-31.67364m0-1.15469L46.433,69.70177v64.502l55.86038,32.251,55.86038-32.251v-64.502l-55.86038-32.251Z" style="fill: #fff"/>
        </g>
        <polygon points="145.263 126.761 145.263 77.144 102.293 52.336 59.324 77.144 59.324 126.761 102.293 151.57 145.263 126.761" style="fill: none;stroke: #fff;stroke-miterlimit: 10;stroke-width: 0.5px;opacity: 0.5"/>
        <polygon points="94.873 71.2 102.293 75.66 109.713 71.2 121.044 64.389 83.543 64.389 94.873 71.2" style="fill: #fff"/>
        <polygon points="64.337 112.379 64.337 123.915 102.293 145.692 140.25 123.915 140.25 112.379 102.293 134.053 64.337 112.379" style="fill: #fff"/>
        <polygon points="140.25 80.089 102.293 102.205 64.337 80.089 140.25 80.089" style="fill: #fff"/>
        <polygon points="64.337 89.378 64.337 104.895 102.293 126.672 140.25 104.895 140.25 89.378 102.293 111.052 64.337 89.378" style="fill: #fff"/>
      </g>
    </g>
  </g>
</svg>
